<?xml version="1.0" standalone="no"?>
<!DOCTYPE svg PUBLIC "-//W3C//DTD SVG 20010904//EN"
 "http://www.w3.org/TR/2001/REC-SVG-20010904/DTD/svg10.dtd">
<svg version="1.0" xmlns="http://www.w3.org/2000/svg"
 width="512.000000pt" height="512.000000pt" viewBox="0 0 512.000000 512.000000"
 preserveAspectRatio="xMidYMid meet">
<metadata>
Created by potrace 1.11, written by Peter Selinger 2001-2013
</metadata>
<g transform="translate(0.000000,512.000000) scale(0.100000,-0.100000)"
fill="#000000" stroke="none">
<path d="M2465 4782 c-111 -36 -58 48 -1282 -2072 -617 -1070 -1131 -1967
-1143 -1993 -15 -33 -21 -68 -21 -115 0 -127 90 -249 210 -284 68 -19 4604
-19 4672 0 120 35 210 157 210 284 0 47 -6 82 -21 115 -12 26 -526 923 -1143
1993 -1229 2131 -1171 2036 -1286 2073 -66 21 -131 21 -196 -1z m166 -209 c10
-10 527 -899 1149 -1975 1230 -2131 1162 -2003 1105 -2060 -14 -14 -42 -28
-63 -32 -48 -8 -4466 -8 -4514 0 -21 4 -49 18 -63 32 -57 56 -124 -69 1097
2045 616 1068 1130 1955 1141 1970 11 16 29 33 41 38 30 12 87 3 107 -18z"/>
<path d="M1529 2507 l-1035 -1792 1039 -3 c571 -1 1503 -1 2071 0 l1032 3
-1022 1770 c-563 974 -1029 1780 -1036 1792 -13 21 -82 -96 -1049 -1770z
m1705 236 c350 -606 639 -1109 642 -1118 5 -13 -21 -15 -215 -15 l-221 0 0
-80 c0 -73 2 -80 20 -80 19 0 20 -7 20 -116 0 -107 -1 -116 -20 -121 -18 -5
-20 -14 -20 -84 l0 -79 245 0 245 0 0 95 0 95 -27 0 c-15 0 -46 -9 -69 -20
-23 -12 -58 -24 -78 -27 l-36 -6 0 52 c0 45 2 52 18 47 9 -3 34 -8 55 -12 l37
-6 0 61 c0 68 -1 68 -72 52 l-38 -9 0 49 c0 46 1 49 26 49 15 0 52 -12 84 -26
80 -36 94 -31 100 33 l5 52 177 -307 177 -307 -859 -3 c-472 -1 -1248 -1
-1724 0 l-865 3 153 265 c84 146 158 265 165 265 7 0 31 -47 52 -105 22 -58
56 -147 75 -198 l36 -93 131 3 130 3 36 105 35 105 34 -107 34 -108 131 0 132
0 64 173 c83 221 86 227 116 227 25 0 25 2 25 80 l0 80 -135 0 -135 0 0 -80
c0 -75 1 -80 21 -80 13 0 19 -5 17 -12 -3 -7 -18 -55 -33 -107 l-29 -93 -28
88 c-32 102 -34 124 -13 124 12 0 15 16 15 80 l0 80 -175 0 -175 0 0 -80 c0
-64 3 -80 15 -80 21 0 19 -22 -13 -124 l-28 -89 -31 103 c-30 98 -31 103 -12
107 17 5 19 15 19 84 l0 79 -111 0 c-95 0 -110 2 -105 15 3 8 299 524 658
1145 l652 1129 17 -27 c9 -15 303 -523 653 -1129z"/>
<path d="M1749 2333 l-75 -258 -32 -9 -32 -9 0 -128 0 -129 145 0 c163 0 144
-10 163 85 l8 40 109 0 109 0 8 -40 c19 -95 0 -85 163 -85 l145 0 0 129 0 128
-31 9 c-32 9 -32 10 -107 267 l-75 257 -212 0 -211 0 -75 -257z m320 -86 l29
-137 -63 0 -63 0 18 83 c10 45 23 108 30 140 6 32 14 57 16 54 2 -2 17 -65 33
-140z"/>
<path d="M2540 2485 c0 -102 1 -105 23 -105 46 0 48 -6 45 -181 l-3 -164 -30
-5 -30 -5 -3 -113 -3 -112 239 0 c330 0 451 23 557 107 161 127 166 444 10
582 -20 17 -54 40 -77 52 -89 46 -117 49 -430 49 l-298 0 0 -105z m558 -148
c25 -25 27 -35 31 -118 5 -144 -22 -179 -139 -179 l-60 0 0 166 0 166 70 -4
c60 -3 74 -8 98 -31z"/>
<path d="M2246 1448 c-58 -201 -61 -208 -86 -208 -19 0 -20 -6 -20 -95 l0 -95
104 0 105 0 8 43 9 42 79 0 79 0 9 -42 8 -43 105 0 104 0 0 94 c0 90 -1 95
-22 98 -20 3 -29 24 -77 186 l-54 182 -152 0 -152 0 -47 -162z m219 -59 c8
-41 17 -84 20 -96 5 -21 2 -23 -40 -23 -39 0 -46 3 -41 18 2 9 12 54 22 100 9
45 18 81 20 79 2 -2 10 -37 19 -78z"/>
<path d="M2790 1531 c0 -74 2 -81 20 -81 19 0 20 -7 20 -116 0 -107 -1 -116
-20 -121 -18 -5 -20 -14 -20 -84 l0 -79 140 0 140 0 0 101 c0 64 4 98 10 94 6
-3 10 -13 10 -21 0 -8 16 -51 36 -94 l37 -80 118 0 119 0 0 43 c0 38 -7 53
-55 112 -30 38 -55 73 -55 76 0 4 15 16 34 27 52 31 69 64 69 131 -1 77 -21
113 -80 142 -46 23 -60 24 -285 27 l-238 4 0 -81z m357 -62 c7 -6 13 -26 13
-45 0 -37 -29 -64 -67 -64 -22 0 -23 4 -23 66 l0 67 32 -7 c17 -3 37 -11 45
-17z"/>
</g>
</svg>
