<?xml version="1.0" standalone="no"?>
<!DOCTYPE svg PUBLIC "-//W3C//DTD SVG 20010904//EN"
 "http://www.w3.org/TR/2001/REC-SVG-20010904/DTD/svg10.dtd">
<svg version="1.0" xmlns="http://www.w3.org/2000/svg"
 width="512.000000pt" height="512.000000pt" viewBox="0 0 512.000000 512.000000"
 preserveAspectRatio="xMidYMid meet">
<metadata>
Created by potrace 1.11, written by Peter Selinger 2001-2013
</metadata>
<g transform="translate(0.000000,512.000000) scale(0.100000,-0.100000)"
fill="#000000" stroke="none">
<path d="M1174 4203 c3 -16 76 -496 161 -1068 85 -572 157 -1049 160 -1061 2
-11 62 -104 131 -205 336 -488 604 -804 787 -927 85 -56 143 -72 201 -52 180
59 534 452 918 1020 l105 155 158 1078 c87 593 155 1080 153 1083 -3 3 -118
-18 -254 -46 -578 -118 -937 -165 -1194 -157 -245 8 -672 72 -1145 172 -92 19
-171 35 -177 35 -5 0 -7 -12 -4 -27z m871 -924 c109 -20 224 -95 321 -209 l47
-55 -206 -3 c-113 -1 -301 -1 -417 0 l-212 3 49 55 c98 114 203 184 303 206
30 7 55 13 56 13 0 1 27 -4 59 -10z m1185 -10 c79 -19 237 -141 302 -231 l19
-28 -415 0 c-229 0 -416 2 -416 4 0 11 97 116 143 154 125 104 235 134 367
101z m-291 -1271 c-50 -72 -166 -175 -235 -209 -60 -30 -79 -34 -144 -34 -110
0 -168 31 -292 156 -54 54 -98 102 -98 108 0 8 121 11 396 11 l395 0 -22 -32z"/>
</g>
</svg>
