<?xml version="1.0" standalone="no"?>
<!DOCTYPE svg PUBLIC "-//W3C//DTD SVG 20010904//EN"
 "http://www.w3.org/TR/2001/REC-SVG-20010904/DTD/svg10.dtd">
<svg version="1.0" xmlns="http://www.w3.org/2000/svg"
 width="512.000000pt" height="512.000000pt" viewBox="0 0 512.000000 512.000000"
 preserveAspectRatio="xMidYMid meet">
<metadata>
Created by potrace 1.11, written by Peter Selinger 2001-2013
</metadata>
<g transform="translate(0.000000,512.000000) scale(0.100000,-0.100000)"
fill="#000000" stroke="none">
<path d="M1628 3963 c-59 -295 -109 -537 -110 -538 -2 -1 -129 -89 -283 -195
-154 -106 -284 -196 -288 -200 -5 -4 138 -31 318 -60 325 -53 325 -53 331 -79
27 -125 90 -240 167 -307 23 -20 71 -51 107 -68 83 -39 207 -48 292 -20 109
35 212 124 264 226 l24 47 87 -2 c49 0 98 2 111 7 17 6 24 3 29 -11 19 -54
101 -159 155 -199 92 -68 154 -87 268 -82 123 5 188 35 281 127 72 72 120 159
140 252 6 30 12 55 13 56 1 1 143 25 316 53 173 28 316 53 318 54 2 2 -119 88
-268 191 -156 108 -275 196 -279 209 -5 11 -56 257 -115 545 -58 289 -107 526
-109 527 -1 2 -188 -57 -415 -131 l-413 -134 -402 130 c-221 71 -409 131 -417
134 -13 4 -34 -88 -122 -532z"/>
<path d="M1310 2150 c-201 -104 -364 -193 -363 -199 2 -6 139 -306 306 -668
l304 -658 328 0 329 0 122 410 c68 226 126 424 129 440 5 27 -7 47 -125 193
l-130 162 355 0 c195 0 355 -2 355 -4 0 -2 -58 -77 -128 -166 l-129 -162 94
-311 c51 -172 109 -369 130 -439 l37 -128 320 0 321 0 305 660 c168 363 306
666 307 673 2 7 -155 92 -368 201 l-371 188 -57 -55 c-172 -169 -436 -297
-673 -327 -343 -43 -688 72 -960 319 -36 34 -68 61 -70 60 -1 0 -167 -85 -368
-189z"/>
</g>
</svg>
