<?xml version="1.0" standalone="no"?>
<!DOCTYPE svg PUBLIC "-//W3C//DTD SVG 20010904//EN"
 "http://www.w3.org/TR/2001/REC-SVG-20010904/DTD/svg10.dtd">
<svg version="1.0" xmlns="http://www.w3.org/2000/svg"
 width="512.000000pt" height="512.000000pt" viewBox="0 0 512.000000 512.000000"
 preserveAspectRatio="xMidYMid meet">
<metadata>
Created by potrace 1.11, written by Peter Selinger 2001-2013
</metadata>
<g transform="translate(0.000000,512.000000) scale(0.100000,-0.100000)"
fill="#000000" stroke="none">
<path d="M510 2560 l0 -1030 2050 0 2050 0 0 1030 0 1030 -2050 0 -2050 0 0
-1030z m3450 835 l0 -35 66 0 c59 0 65 -2 59 -17 -15 -35 -17 -111 -5 -148 16
-48 63 -101 112 -126 40 -20 117 -27 157 -14 20 6 21 3 21 -54 l0 -61 45 0 45
0 0 -380 0 -380 -45 0 -45 0 0 -60 0 -60 -58 6 c-165 18 -277 -127 -226 -293
6 -22 4 -23 -60 -23 l-66 0 0 -35 0 -35 -1400 0 -1400 0 0 35 0 35 -66 0 c-64
0 -66 1 -60 23 18 57 18 109 1 153 -24 64 -57 98 -117 124 -42 18 -63 21 -110
16 l-58 -6 0 60 0 60 -45 0 -45 0 0 380 0 380 45 0 45 0 0 61 c0 57 1 60 21
54 40 -13 117 -6 157 14 49 25 96 78 112 126 12 37 10 113 -5 148 -6 15 0 17
59 17 l66 0 0 35 0 35 1400 0 1400 0 0 -35z"/>
<path d="M2410 3159 c-119 -30 -195 -74 -286 -164 -66 -65 -89 -96 -122 -165
-48 -102 -62 -163 -62 -275 0 -112 14 -173 62 -275 33 -69 56 -100 122 -165
92 -91 168 -134 290 -165 211 -53 421 6 582 165 66 65 89 96 122 165 48 102
62 163 62 275 0 112 -14 173 -62 275 -33 69 -56 100 -122 165 -161 159 -375
219 -586 164z m110 -244 c0 -73 1 -75 25 -75 24 0 25 2 25 75 l0 75 45 0 45 0
0 -75 0 -75 53 0 c101 0 161 -54 161 -143 0 -64 -25 -114 -64 -131 l-29 -12
50 -17 c63 -23 84 -53 83 -123 -2 -102 -60 -153 -185 -162 l-69 -5 0 -68 0
-69 -45 0 -45 0 0 70 c0 63 -2 70 -20 70 -17 0 -19 -8 -22 -67 l-3 -68 -45 0
-45 0 -3 68 -3 67 -84 0 -85 0 0 84 c0 80 1 85 23 88 21 3 22 7 25 129 l3 127
-26 6 c-24 6 -25 10 -25 81 l0 75 85 0 85 0 0 68 c0 38 3 72 7 75 3 4 24 7 45
7 l38 0 0 -75z"/>
<path d="M2560 2644 l0 -57 40 6 c51 7 70 22 70 56 0 38 -17 51 -67 51 l-43 0
0 -56z"/>
<path d="M2560 2455 l0 -55 33 0 c46 0 77 25 77 60 0 35 -23 50 -74 50 l-36 0
0 -55z"/>
<path d="M940 2555 l0 -45 370 0 370 0 0 45 0 45 -370 0 -370 0 0 -45z"/>
<path d="M3440 2555 l0 -45 370 0 370 0 0 45 0 45 -370 0 -370 0 0 -45z"/>
</g>
</svg>
