<?xml version="1.0" standalone="no"?>
<!DOCTYPE svg PUBLIC "-//W3C//DTD SVG 20010904//EN"
 "http://www.w3.org/TR/2001/REC-SVG-20010904/DTD/svg10.dtd">
<svg version="1.0" xmlns="http://www.w3.org/2000/svg"
 width="512.000000pt" height="512.000000pt" viewBox="0 0 512.000000 512.000000"
 preserveAspectRatio="xMidYMid meet">
<metadata>
Created by potrace 1.11, written by Peter Selinger 2001-2013
</metadata>
<g transform="translate(0.000000,512.000000) scale(0.100000,-0.100000)"
fill="#000000" stroke="none">
<path d="M2365 4414 c-821 -125 -1459 -766 -1579 -1585 -21 -139 -21 -399 0
-538 88 -600 456 -1116 994 -1395 276 -142 541 -206 860 -206 319 0 584 64
860 206 479 248 827 688 960 1213 67 268 67 634 0 902 -35 136 -90 281 -156
409 -279 538 -795 906 -1395 994 -132 20 -418 20 -544 0z m565 -180 c710 -124
1256 -672 1386 -1389 25 -139 25 -431 0 -570 -130 -719 -672 -1261 -1391
-1391 -139 -25 -431 -25 -570 0 -356 65 -664 225 -915 476 -810 809 -603 2172
411 2703 183 97 390 161 594 186 110 13 370 6 485 -15z"/>
<path d="M2428 4095 c-687 -94 -1233 -644 -1323 -1333 -111 -848 486 -1626
1333 -1737 848 -111 1626 486 1737 1333 111 848 -486 1626 -1333 1737 -135 18
-282 18 -414 0z m124 -722 l3 -158 50 0 50 0 3 158 3 157 94 0 94 0 3 -157 3
-158 140 -5 c127 -5 145 -8 197 -33 62 -30 121 -89 146 -146 23 -51 22 -209
-1 -277 -29 -84 -98 -152 -177 -174 -21 -6 -15 -9 36 -20 185 -37 267 -152
243 -340 -28 -222 -175 -320 -481 -320 l-98 0 0 -155 0 -155 -100 0 -100 0 0
155 0 155 -50 0 -50 0 0 -155 0 -155 -100 0 -100 0 0 155 0 155 -185 0 -185 0
0 184 c0 205 -6 188 73 202 l37 6 0 278 c0 310 7 281 -72 296 l-38 6 0 169 0
169 183 2 182 3 3 158 3 157 94 0 94 0 3 -157z"/>
<path d="M2642 2788 l3 -123 80 0 c44 0 94 6 112 14 42 17 67 70 60 128 -8 78
-53 103 -185 103 l-73 0 3 -122z"/>
<path d="M2640 2360 l0 -122 100 4 c93 3 101 5 127 31 24 24 28 35 28 87 0 52
-4 63 -28 87 -26 26 -34 28 -127 31 l-100 4 0 -122z"/>
</g>
</svg>
