<?xml version="1.0" standalone="no"?>
<!DOCTYPE svg PUBLIC "-//W3C//DTD SVG 20010904//EN"
 "http://www.w3.org/TR/2001/REC-SVG-20010904/DTD/svg10.dtd">
<svg version="1.0" xmlns="http://www.w3.org/2000/svg"
 width="512.000000pt" height="512.000000pt" viewBox="0 0 512.000000 512.000000"
 preserveAspectRatio="xMidYMid meet">
<metadata>
Created by potrace 1.11, written by Peter Selinger 2001-2013
</metadata>
<g transform="translate(0.000000,512.000000) scale(0.100000,-0.100000)"
fill="#000000" stroke="none">
<path d="M1935 4148 c-3 -13 -39 -191 -80 -397 -41 -205 -79 -379 -84 -385 -5
-6 -102 -74 -215 -151 -113 -77 -205 -143 -206 -146 0 -3 108 -23 240 -44
l240 -39 16 -55 c43 -149 139 -244 273 -272 44 -9 66 -8 118 5 96 23 167 78
216 165 l25 44 84 1 84 2 18 -38 c26 -56 99 -126 159 -153 81 -37 135 -41 215
-16 117 35 201 127 238 258 l16 60 242 39 241 39 -210 145 -209 145 -82 403
c-45 222 -84 406 -87 409 -3 3 -140 -38 -304 -92 -164 -53 -305 -97 -313 -97
-8 -1 -150 42 -315 95 -165 53 -304 97 -307 97 -4 0 -10 -10 -13 -22z"/>
<path d="M1623 2409 c-150 -77 -273 -145 -273 -150 0 -6 7 -23 15 -39 l16 -30
-346 0 -345 0 0 -75 0 -75 1870 0 1870 0 0 75 0 75 -341 0 -340 0 7 23 c3 12
10 29 14 37 9 16 -29 38 -353 202 l-197 99 -66 -59 c-121 -110 -271 -185 -435
-218 -99 -20 -268 -15 -369 11 -131 34 -287 120 -396 219 -29 25 -54 46 -55
46 -2 0 -127 -64 -276 -141z"/>
<path d="M690 1940 l0 -50 1870 0 1870 0 0 50 0 50 -1870 0 -1870 0 0 -50z"/>
<path d="M690 1365 l0 -425 873 0 872 0 315 315 315 315 682 0 683 0 0 110 0
110 -1870 0 -1870 0 0 -425z m218 -205 c47 -44 15 -130 -48 -130 -38 0 -70 34
-70 75 0 41 32 75 70 75 14 0 36 -9 48 -20z m227 -5 c14 -13 25 -36 25 -50 0
-33 -42 -75 -75 -75 -14 0 -37 11 -50 25 -14 13 -25 36 -25 50 0 14 11 37 25
50 13 14 36 25 50 25 14 0 37 -11 50 -25z m223 5 c47 -44 15 -130 -48 -130
-38 0 -70 34 -70 75 0 41 32 75 70 75 14 0 36 -9 48 -20z"/>
<path d="M2886 1313 c-110 -115 -237 -245 -280 -290 l-80 -83 957 0 957 0 -2
288 -3 287 -674 3 -673 2 -202 -207z"/>
</g>
</svg>
