<?xml version="1.0" standalone="no"?>
<!DOCTYPE svg PUBLIC "-//W3C//DTD SVG 20010904//EN"
 "http://www.w3.org/TR/2001/REC-SVG-20010904/DTD/svg10.dtd">
<svg version="1.0" xmlns="http://www.w3.org/2000/svg"
 width="512.000000pt" height="512.000000pt" viewBox="0 0 512.000000 512.000000"
 preserveAspectRatio="xMidYMid meet">
<metadata>
Created by potrace 1.11, written by Peter Selinger 2001-2013
</metadata>
<g transform="translate(0.000000,512.000000) scale(0.100000,-0.100000)"
fill="#000000" stroke="none">
<path d="M680 2560 l0 -1250 1880 0 1880 0 0 1250 0 1250 -1880 0 -1880 0 0
-1250z m3600 0 l0 -1100 -1720 0 -1720 0 0 1100 0 1100 1720 0 1720 0 0 -1100z"/>
<path d="M2465 3553 c-206 -74 -271 -329 -123 -486 l36 -37 -70 -131 c-38 -72
-68 -132 -66 -134 2 -2 23 1 46 7 54 14 67 7 82 -39 7 -21 15 -41 19 -45 3 -4
41 56 82 134 42 78 81 144 87 146 6 2 45 -62 87 -143 42 -80 80 -143 84 -140
5 2 11 17 14 32 3 16 12 37 20 48 14 18 19 19 62 7 26 -7 49 -11 52 -9 2 3
-28 63 -66 135 l-71 130 37 38 c56 60 78 116 78 204 0 91 -24 149 -85 210 -80
80 -203 109 -305 73z m160 -84 c23 -7 57 -28 81 -53 85 -84 85 -208 0 -292
-84 -85 -208 -85 -292 0 -82 82 -85 203 -6 288 57 60 132 80 217 57z"/>
<path d="M910 3350 c0 -20 7 -20 620 -20 613 0 620 0 620 20 0 20 -7 20 -620
20 -613 0 -620 0 -620 -20z"/>
<path d="M2970 3350 c0 -20 7 -20 620 -20 613 0 620 0 620 20 0 20 -7 20 -620
20 -613 0 -620 0 -620 -20z"/>
<path d="M910 3175 l0 -25 545 0 545 0 0 25 0 25 -545 0 -545 0 0 -25z"/>
<path d="M3120 3175 l0 -25 545 0 545 0 0 25 0 25 -545 0 -545 0 0 -25z"/>
<path d="M2154 2538 c-188 -19 -294 -132 -294 -313 0 -86 22 -154 68 -213 105
-132 428 -148 568 -28 100 85 129 270 62 402 -57 115 -209 172 -404 152z m125
-193 c39 -20 54 -63 49 -135 -6 -81 -35 -113 -103 -113 -66 0 -95 30 -102 110
-4 45 -1 69 12 96 25 53 88 71 144 42z"/>
<path d="M2944 2538 c-188 -19 -294 -132 -294 -313 0 -86 22 -154 68 -213 105
-132 428 -148 568 -28 100 85 129 270 62 402 -57 115 -209 172 -404 152z m125
-193 c39 -20 54 -63 49 -135 -6 -81 -35 -113 -103 -113 -66 0 -95 30 -102 110
-4 45 -1 69 12 96 25 53 88 71 144 42z"/>
<path d="M1112 2443 c3 -84 4 -87 28 -93 l25 -6 0 -124 0 -124 -25 -6 c-24 -6
-25 -9 -28 -93 l-3 -87 161 0 160 0 0 110 c0 108 11 142 25 78 4 -18 23 -68
43 -110 l35 -78 133 0 134 0 0 50 c0 46 -5 56 -50 111 -60 72 -77 102 -62 107
32 10 79 52 94 82 23 45 22 114 -1 166 -38 82 -131 104 -454 104 l-218 0 3
-87z m406 -57 c8 -8 15 -33 15 -56 0 -50 -17 -69 -66 -77 l-37 -6 0 83 0 83
37 -6 c20 -4 43 -13 51 -21z"/>
<path d="M3430 2415 l0 -115 29 0 c19 0 40 10 59 30 18 18 41 30 57 30 l26 0
-3 -132 c-3 -132 -3 -132 -28 -138 -24 -6 -25 -9 -28 -93 l-3 -87 186 0 185 0
0 90 c0 89 0 90 -25 90 l-25 0 0 135 0 135 26 0 c16 0 37 -12 55 -31 21 -22
36 -30 56 -27 l28 3 3 113 3 112 -301 0 -300 0 0 -115z"/>
<path d="M910 1650 c0 -20 7 -20 1650 -20 1643 0 1650 0 1650 20 0 20 -7 20
-1650 20 -1643 0 -1650 0 -1650 -20z"/>
</g>
</svg>
