<?xml version="1.0" standalone="no"?>
<!DOCTYPE svg PUBLIC "-//W3C//DTD SVG 20010904//EN"
 "http://www.w3.org/TR/2001/REC-SVG-20010904/DTD/svg10.dtd">
<svg version="1.0" xmlns="http://www.w3.org/2000/svg"
 width="512.000000pt" height="512.000000pt" viewBox="0 0 512.000000 512.000000"
 preserveAspectRatio="xMidYMid meet">
<metadata>
Created by potrace 1.11, written by Peter Selinger 2001-2013
</metadata>
<g transform="translate(0.000000,512.000000) scale(0.100000,-0.100000)"
fill="#000000" stroke="none">
<path d="M680 2560 l0 -1250 1880 0 1880 0 0 1250 0 1250 -1880 0 -1880 0 0
-1250z m3600 0 l0 -1100 -1720 0 -1720 0 0 1100 0 1100 1720 0 1720 0 0 -1100z"/>
<path d="M2465 3553 c-206 -74 -271 -329 -123 -486 l36 -37 -70 -131 c-38 -72
-68 -132 -66 -134 2 -2 23 1 46 7 54 14 67 7 82 -39 7 -21 15 -41 19 -45 3 -4
41 56 82 134 42 78 81 144 87 146 6 2 45 -62 87 -143 42 -80 80 -143 84 -140
5 2 11 17 14 32 3 16 12 37 20 48 14 18 19 19 62 7 26 -7 49 -11 52 -9 2 3
-28 63 -66 135 l-71 130 37 38 c56 60 78 116 78 204 0 91 -24 149 -85 210 -80
80 -203 109 -305 73z m160 -84 c23 -7 57 -28 81 -53 85 -84 85 -208 0 -292
-84 -85 -208 -85 -292 0 -82 82 -85 203 -6 288 57 60 132 80 217 57z"/>
<path d="M910 3350 c0 -20 7 -20 620 -20 613 0 620 0 620 20 0 20 -7 20 -620
20 -613 0 -620 0 -620 -20z"/>
<path d="M2970 3350 c0 -20 7 -20 620 -20 613 0 620 0 620 20 0 20 -7 20 -620
20 -613 0 -620 0 -620 -20z"/>
<path d="M910 3175 l0 -25 545 0 545 0 0 25 0 25 -545 0 -545 0 0 -25z"/>
<path d="M3120 3175 l0 -25 545 0 545 0 0 25 0 25 -545 0 -545 0 0 -25z"/>
<path d="M1594 2519 c-141 -18 -214 -90 -214 -211 0 -103 71 -171 205 -197 89
-18 86 -16 74 -50 -16 -46 -71 -48 -112 -5 -18 20 -32 24 -85 24 l-63 0 3 -77
3 -77 50 -20 c63 -25 277 -29 338 -7 50 17 106 67 123 108 29 67 11 168 -38
220 -27 29 -107 59 -181 68 -62 8 -71 21 -41 63 22 31 60 28 96 -8 27 -27 36
-30 94 -30 l64 0 0 79 0 78 -52 17 c-91 28 -177 36 -264 25z"/>
<path d="M2002 2423 c3 -83 4 -88 26 -91 22 -3 22 -6 22 -132 0 -126 0 -129
-22 -132 -22 -3 -23 -8 -26 -90 l-3 -88 276 0 276 0 -3 113 c-3 106 -4 112
-25 115 -12 2 -40 -6 -63 -18 -23 -12 -64 -24 -91 -27 l-49 -6 0 48 0 47 38
-7 c20 -3 47 -9 60 -12 21 -5 22 -2 22 57 0 59 -1 62 -22 57 -13 -3 -40 -9
-60 -12 l-38 -7 0 47 0 48 47 -7 c26 -3 66 -15 90 -27 23 -11 53 -19 65 -17
22 3 23 6 23 113 l0 110 -273 3 -273 2 3 -87z"/>
<path d="M2612 2423 c3 -84 4 -87 28 -93 l25 -6 0 -124 0 -124 -25 -6 c-24 -6
-25 -9 -28 -93 l-3 -87 256 0 256 0 -3 113 -3 112 -28 3 c-18 2 -44 -7 -74
-27 -81 -54 -83 -52 -83 104 l0 135 25 0 c25 0 25 1 25 90 l0 90 -185 0 -186
0 3 -87z"/>
<path d="M3172 2423 c3 -83 4 -88 26 -91 22 -3 22 -6 22 -132 0 -126 0 -129
-22 -132 -22 -3 -23 -8 -26 -90 l-3 -88 186 0 185 0 0 90 c0 89 0 90 -25 90
-22 0 -25 4 -25 36 0 34 2 36 26 30 15 -4 39 -10 55 -13 l29 -5 0 66 c0 36 -1
66 -2 66 -2 0 -27 -7 -55 -14 l-53 -14 0 55 0 56 35 -6 c19 -3 48 -15 64 -26
16 -12 43 -21 60 -21 l31 0 0 115 0 115 -255 0 -256 0 3 -87z"/>
<path d="M910 1650 c0 -20 7 -20 1650 -20 1643 0 1650 0 1650 20 0 20 -7 20
-1650 20 -1643 0 -1650 0 -1650 -20z"/>
</g>
</svg>
