<?xml version="1.0" standalone="no"?>
<!DOCTYPE svg PUBLIC "-//W3C//DTD SVG 20010904//EN"
 "http://www.w3.org/TR/2001/REC-SVG-20010904/DTD/svg10.dtd">
<svg version="1.0" xmlns="http://www.w3.org/2000/svg"
 width="512.000000pt" height="512.000000pt" viewBox="0 0 512.000000 512.000000"
 preserveAspectRatio="xMidYMid meet">
<metadata>
Created by potrace 1.11, written by Peter Selinger 2001-2013
</metadata>
<g transform="translate(0.000000,512.000000) scale(0.100000,-0.100000)"
fill="#000000" stroke="none">
<path d="M680 2560 l0 -1250 1880 0 1880 0 0 1250 0 1250 -1880 0 -1880 0 0
-1250z m3600 0 l0 -1100 -1720 0 -1720 0 0 1100 0 1100 1720 0 1720 0 0 -1100z"/>
<path d="M2465 3553 c-206 -74 -271 -329 -123 -486 l36 -37 -70 -131 c-38 -72
-68 -132 -66 -134 2 -2 23 1 46 7 54 14 67 7 82 -39 7 -21 15 -41 19 -45 3 -4
41 56 82 134 42 78 81 144 87 146 6 2 45 -62 87 -143 42 -80 80 -143 84 -140
5 2 11 17 14 32 3 16 12 37 20 48 14 18 19 19 62 7 26 -7 49 -11 52 -9 2 3
-28 63 -66 135 l-71 130 37 38 c56 60 78 116 78 204 0 91 -24 149 -85 210 -80
80 -203 109 -305 73z m160 -84 c23 -7 57 -28 81 -53 85 -84 85 -208 0 -292
-84 -85 -208 -85 -292 0 -82 82 -85 203 -6 288 57 60 132 80 217 57z"/>
<path d="M910 3350 c0 -20 7 -20 620 -20 613 0 620 0 620 20 0 20 -7 20 -620
20 -613 0 -620 0 -620 -20z"/>
<path d="M2970 3350 c0 -20 7 -20 620 -20 613 0 620 0 620 20 0 20 -7 20 -620
20 -613 0 -620 0 -620 -20z"/>
<path d="M910 3175 l0 -25 545 0 545 0 0 25 0 25 -545 0 -545 0 0 -25z"/>
<path d="M3120 3175 l0 -25 545 0 545 0 0 25 0 25 -545 0 -545 0 0 -25z"/>
<path d="M960 2585 c0 -42 3 -55 15 -55 12 0 15 -16 15 -80 0 -64 -3 -80 -15
-80 -12 0 -15 -13 -15 -55 l0 -55 110 0 110 0 0 55 c0 42 -3 55 -15 55 -12 0
-15 16 -15 80 0 64 3 80 15 80 12 0 15 13 15 55 l0 55 -110 0 -110 0 0 -55z"/>
<path d="M1230 2585 c0 -42 3 -55 15 -55 12 0 15 -16 15 -80 0 -64 -3 -80 -15
-80 -12 0 -15 -13 -15 -55 l0 -55 80 0 80 0 0 55 c0 42 -3 55 -15 55 -10 0
-15 11 -15 35 0 19 2 35 4 35 2 0 30 -40 62 -90 l58 -90 98 0 98 0 0 55 c0 42
-3 55 -15 55 -12 0 -15 16 -15 80 0 64 3 80 15 80 12 0 15 13 15 55 l0 55 -80
0 -80 0 0 -55 c0 -42 3 -55 15 -55 11 0 15 -12 15 -47 l0 -48 -66 103 -66 102
-94 0 -94 0 0 -55z"/>
<path d="M1720 2570 c0 -63 2 -70 20 -70 11 0 29 9 40 20 34 34 40 24 40 -65
0 -69 -3 -85 -15 -85 -12 0 -15 -13 -15 -55 l0 -55 115 0 115 0 0 54 c0 46 -3
54 -20 59 -19 5 -21 12 -18 83 3 84 14 98 47 65 12 -12 30 -21 41 -21 18 0 20
7 20 70 l0 70 -185 0 -185 0 0 -70z"/>
<path d="M2130 2585 c0 -42 3 -55 15 -55 12 0 15 -16 15 -80 0 -64 -3 -80 -15
-80 -12 0 -15 -13 -15 -55 l0 -55 165 0 165 0 0 70 c0 78 -3 80 -63 55 -57
-24 -77 -20 -77 14 0 28 1 29 35 21 l35 -8 0 38 0 38 -35 -8 c-34 -8 -35 -7
-35 21 0 34 13 36 67 14 67 -28 73 -24 73 55 l0 70 -165 0 -165 0 0 -55z"/>
<path d="M2500 2585 c0 -42 3 -55 15 -55 12 0 15 -16 15 -80 0 -64 -3 -80 -15
-80 -12 0 -15 -13 -15 -55 l0 -55 95 0 95 0 0 73 1 72 30 -72 31 -73 84 0 84
0 0 28 c0 16 -15 46 -39 77 l-40 49 36 31 c33 28 36 36 35 79 -1 93 -57 116
-283 116 l-129 0 0 -55z m224 -25 c44 -16 31 -90 -16 -90 -15 0 -18 9 -18 50
0 28 2 50 4 50 3 0 16 -4 30 -10z"/>
<path d="M2960 2423 c0 -22 4 -23 80 -23 76 0 80 1 80 23 0 21 -4 22 -80 22
-76 0 -80 -1 -80 -22z"/>
<path d="M1290 2105 c0 -42 3 -55 15 -55 12 0 15 -16 15 -80 0 -64 -3 -80 -15
-80 -12 0 -15 -13 -15 -55 l0 -55 95 0 95 0 0 93 0 92 37 -62 c21 -35 41 -63
44 -63 4 0 22 26 41 58 l33 57 3 -87 3 -88 99 0 100 0 0 51 c0 42 -3 52 -20
56 -18 5 -20 14 -20 79 0 64 3 75 21 84 17 9 20 19 17 58 l-3 47 -97 3 -96 3
-38 -71 c-21 -38 -41 -70 -44 -70 -3 0 -22 32 -43 70 l-37 70 -95 0 -95 0 0
-55z"/>
<path d="M1890 2105 c0 -42 3 -55 15 -55 12 0 15 -16 15 -80 0 -64 -3 -80 -15
-80 -12 0 -15 -13 -15 -55 l0 -55 165 0 165 0 0 70 c0 78 -3 80 -63 55 -57
-24 -77 -20 -77 14 0 28 1 29 35 21 l35 -8 0 38 0 38 -35 -8 c-34 -8 -35 -7
-35 21 0 34 13 36 67 14 67 -28 73 -24 73 55 l0 70 -165 0 -165 0 0 -55z"/>
<path d="M2270 2111 c0 -34 4 -51 15 -55 12 -4 15 -24 15 -86 0 -64 -3 -80
-15 -80 -12 0 -15 -13 -15 -56 l0 -56 148 4 c133 3 152 5 197 28 58 29 91 74
100 134 14 93 -37 179 -122 204 -23 7 -101 12 -182 12 l-141 0 0 -49z m270
-77 c17 -16 20 -108 4 -123 -5 -5 -26 -13 -46 -16 l-38 -7 0 87 0 87 33 -7
c17 -4 39 -13 47 -21z"/>
<path d="M2760 2105 c0 -42 3 -55 15 -55 12 0 15 -16 15 -80 0 -64 -3 -80 -15
-80 -12 0 -15 -13 -15 -55 l0 -55 110 0 110 0 0 55 c0 42 -3 55 -15 55 -12 0
-15 16 -15 80 0 64 3 80 15 80 12 0 15 13 15 55 l0 55 -110 0 -110 0 0 -55z"/>
<path d="M3101 2063 c-16 -54 -33 -110 -36 -125 -4 -14 -15 -28 -26 -31 -16
-4 -19 -14 -19 -66 l0 -61 74 0 74 0 7 30 c6 29 9 30 60 30 50 0 53 -1 59 -30
5 -30 6 -30 76 -30 l70 0 0 65 c0 47 -4 65 -13 65 -8 0 -28 47 -52 125 l-38
125 -103 0 -103 0 -30 -97z m162 -105 c7 -27 6 -28 -28 -28 -19 0 -35 2 -35 5
0 3 8 36 17 73 l17 67 11 -45 c6 -25 15 -57 18 -72z"/>
<path d="M3470 2090 c0 -63 2 -70 20 -70 11 0 29 9 40 20 34 34 40 24 40 -65
0 -69 -3 -85 -15 -85 -12 0 -15 -13 -15 -55 l0 -55 115 0 115 0 0 54 c0 46 -3
54 -20 59 -19 5 -21 12 -18 83 3 84 14 98 47 65 12 -12 30 -21 41 -21 18 0 20
7 20 70 l0 70 -185 0 -185 0 0 -70z"/>
<path d="M3870 2105 c0 -42 3 -55 15 -55 12 0 15 -16 15 -80 0 -64 -3 -80 -15
-80 -12 0 -15 -13 -15 -55 l0 -55 165 0 165 0 0 70 c0 78 -3 80 -63 55 -57
-24 -77 -20 -77 14 0 28 1 29 35 21 l35 -8 0 38 0 38 -35 -8 c-34 -8 -35 -7
-35 21 0 34 13 36 67 14 67 -28 73 -24 73 55 l0 70 -165 0 -165 0 0 -55z"/>
<path d="M910 1650 c0 -20 7 -20 1650 -20 1643 0 1650 0 1650 20 0 20 -7 20
-1650 20 -1643 0 -1650 0 -1650 -20z"/>
</g>
</svg>
