<?xml version="1.0" standalone="no"?>
<!DOCTYPE svg PUBLIC "-//W3C//DTD SVG 20010904//EN"
 "http://www.w3.org/TR/2001/REC-SVG-20010904/DTD/svg10.dtd">
<svg version="1.0" xmlns="http://www.w3.org/2000/svg"
 width="512.000000pt" height="512.000000pt" viewBox="0 0 512.000000 512.000000"
 preserveAspectRatio="xMidYMid meet">
<metadata>
Created by potrace 1.11, written by Peter Selinger 2001-2013
</metadata>
<g transform="translate(0.000000,512.000000) scale(0.100000,-0.100000)"
fill="#000000" stroke="none">
<path d="M680 2560 l0 -1250 1880 0 1880 0 0 1250 0 1250 -1880 0 -1880 0 0
-1250z m3600 0 l0 -1100 -1720 0 -1720 0 0 1100 0 1100 1720 0 1720 0 0 -1100z"/>
<path d="M2465 3553 c-206 -74 -271 -329 -123 -486 l36 -37 -70 -131 c-38 -72
-68 -132 -66 -134 2 -2 23 1 46 7 54 14 67 7 82 -39 7 -21 15 -41 19 -45 3 -4
41 56 82 134 42 78 81 144 87 146 6 2 45 -62 87 -143 42 -80 80 -143 84 -140
5 2 11 17 14 32 3 16 12 37 20 48 14 18 19 19 62 7 26 -7 49 -11 52 -9 2 3
-28 63 -66 135 l-71 130 37 38 c56 60 78 116 78 204 0 91 -24 149 -85 210 -80
80 -203 109 -305 73z m160 -84 c23 -7 57 -28 81 -53 85 -84 85 -208 0 -292
-84 -85 -208 -85 -292 0 -82 82 -85 203 -6 288 57 60 132 80 217 57z"/>
<path d="M910 3350 c0 -20 7 -20 620 -20 613 0 620 0 620 20 0 20 -7 20 -620
20 -613 0 -620 0 -620 -20z"/>
<path d="M2970 3350 c0 -20 7 -20 620 -20 613 0 620 0 620 20 0 20 -7 20 -620
20 -613 0 -620 0 -620 -20z"/>
<path d="M910 3175 l0 -25 545 0 545 0 0 25 0 25 -545 0 -545 0 0 -25z"/>
<path d="M3120 3175 l0 -25 545 0 545 0 0 25 0 25 -545 0 -545 0 0 -25z"/>
<path d="M1266 2418 c-57 -16 -129 -91 -144 -150 -16 -63 -15 -104 4 -169 20
-67 80 -129 144 -148 56 -17 198 -16 265 2 l50 13 3 72 c2 40 -1 72 -5 72 -4
0 -41 -7 -81 -15 -123 -26 -182 4 -182 91 0 82 79 130 140 85 21 -15 44 -21
80 -21 l50 0 0 71 0 70 -37 16 c-46 20 -229 27 -287 11z"/>
<path d="M1650 2354 c0 -57 3 -67 20 -71 18 -5 20 -14 20 -103 0 -89 -2 -98
-20 -103 -17 -4 -20 -14 -20 -71 l0 -66 195 0 195 0 0 90 c0 85 -1 90 -21 90
-11 0 -33 -8 -47 -19 -15 -10 -37 -22 -49 -25 -23 -7 -23 -7 -23 97 0 96 2
105 20 110 17 4 20 14 20 71 l0 66 -145 0 -145 0 0 -66z"/>
<path d="M2080 2354 c0 -57 3 -67 20 -71 18 -5 20 -14 20 -103 0 -89 -2 -98
-20 -103 -17 -4 -20 -14 -20 -71 l0 -66 145 0 145 0 0 70 c0 63 -2 70 -20 70
-19 0 -20 7 -20 99 0 90 2 99 20 104 17 4 20 14 20 71 l0 66 -145 0 -145 0 0
-66z"/>
<path d="M2440 2354 c0 -57 3 -67 20 -71 18 -5 20 -14 20 -104 0 -92 -1 -99
-20 -99 -18 0 -20 -7 -20 -70 l0 -70 215 0 215 0 0 85 c0 101 -7 108 -80 76
-27 -11 -60 -21 -74 -21 -23 0 -26 4 -26 35 0 38 6 41 58 26 l32 -10 0 50 c0
54 2 53 -72 32 -15 -3 -18 2 -18 31 0 32 3 36 25 36 14 0 42 -7 62 -15 19 -8
48 -15 64 -15 l29 0 0 85 0 85 -215 0 -215 0 0 -66z"/>
<path d="M2910 2354 c0 -57 3 -67 20 -71 18 -5 20 -14 20 -103 0 -89 -2 -98
-20 -103 -17 -4 -20 -14 -20 -71 l0 -66 105 0 105 0 0 70 c0 63 -2 70 -20 70
-17 0 -20 7 -20 52 0 29 4 48 8 43 5 -6 42 -61 82 -122 l72 -113 124 0 124 0
0 70 c0 63 -2 70 -20 70 -19 0 -20 7 -20 99 0 90 2 99 20 104 17 4 20 14 20
71 l0 66 -105 0 -105 0 0 -66 c0 -57 3 -67 20 -71 17 -4 20 -14 20 -56 0 -28
-3 -47 -7 -43 -4 3 -39 57 -78 119 l-71 112 -127 3 -127 3 0 -67z"/>
<path d="M3540 2335 l0 -85 28 0 c16 0 37 9 47 20 10 11 26 20 37 20 16 0 18
-10 18 -105 0 -98 -1 -105 -20 -105 -18 0 -20 -7 -20 -70 l0 -70 145 0 145 0
0 70 c0 63 -2 70 -20 70 -19 0 -20 7 -20 105 0 98 1 105 20 105 11 0 29 -9 40
-20 11 -11 31 -20 45 -20 25 0 25 1 25 85 l0 85 -235 0 -235 0 0 -85z"/>
<path d="M910 1650 c0 -20 7 -20 1650 -20 1643 0 1650 0 1650 20 0 20 -7 20
-1650 20 -1643 0 -1650 0 -1650 -20z"/>
</g>
</svg>
