<?xml version="1.0" standalone="no"?>
<!DOCTYPE svg PUBLIC "-//W3C//DTD SVG 20010904//EN"
 "http://www.w3.org/TR/2001/REC-SVG-20010904/DTD/svg10.dtd">
<svg version="1.0" xmlns="http://www.w3.org/2000/svg"
 width="512.000000pt" height="512.000000pt" viewBox="0 0 512.000000 512.000000"
 preserveAspectRatio="xMidYMid meet">
<metadata>
Created by potrace 1.11, written by Peter Selinger 2001-2013
</metadata>
<g transform="translate(0.000000,512.000000) scale(0.100000,-0.100000)"
fill="#000000" stroke="none">
<path d="M680 2560 l0 -1250 1880 0 1880 0 0 1250 0 1250 -1880 0 -1880 0 0
-1250z m3600 0 l0 -1100 -1720 0 -1720 0 0 1100 0 1100 1720 0 1720 0 0 -1100z"/>
<path d="M2465 3553 c-206 -74 -271 -329 -123 -486 l36 -37 -70 -131 c-38 -72
-68 -132 -66 -134 2 -2 23 1 46 7 54 14 67 7 82 -39 7 -21 15 -41 19 -45 3 -4
41 56 82 134 42 78 81 144 87 146 6 2 45 -62 87 -143 42 -80 80 -143 84 -140
5 2 11 17 14 32 3 16 12 37 20 48 14 18 19 19 62 7 26 -7 49 -11 52 -9 2 3
-28 63 -66 135 l-71 130 37 38 c56 60 78 116 78 204 0 91 -24 149 -85 210 -80
80 -203 109 -305 73z m160 -84 c23 -7 57 -28 81 -53 85 -84 85 -208 0 -292
-84 -85 -208 -85 -292 0 -82 82 -85 203 -6 288 57 60 132 80 217 57z"/>
<path d="M910 3350 c0 -20 7 -20 620 -20 613 0 620 0 620 20 0 20 -7 20 -620
20 -613 0 -620 0 -620 -20z"/>
<path d="M2970 3350 c0 -20 7 -20 620 -20 613 0 620 0 620 20 0 20 -7 20 -620
20 -613 0 -620 0 -620 -20z"/>
<path d="M910 3175 l0 -25 545 0 545 0 0 25 0 25 -545 0 -545 0 0 -25z"/>
<path d="M3120 3175 l0 -25 545 0 545 0 0 25 0 25 -545 0 -545 0 0 -25z"/>
<path d="M1075 2425 c-103 -37 -136 -178 -58 -251 27 -25 87 -49 146 -59 42
-7 46 -16 17 -45 -16 -16 -24 -18 -50 -8 -18 6 -34 17 -37 24 -3 9 -22 14 -54
14 l-49 0 0 -61 c0 -60 0 -60 38 -76 25 -10 71 -16 142 -16 91 -1 111 2 148
21 54 29 82 73 82 132 0 94 -59 150 -174 164 l-55 7 11 30 c13 37 46 39 84 4
20 -19 38 -25 70 -25 l44 0 0 65 0 64 -52 16 c-64 19 -199 19 -253 0z"/>
<path d="M1460 2364 c0 -57 3 -67 20 -71 18 -5 20 -14 20 -104 0 -92 -1 -99
-20 -99 -18 0 -20 -7 -20 -70 l0 -70 215 0 215 0 0 85 c0 101 -7 108 -80 76
-27 -11 -60 -21 -74 -21 -23 0 -26 4 -26 35 0 38 6 41 58 26 l32 -10 0 50 c0
54 2 53 -72 32 -15 -3 -18 2 -18 31 0 32 3 36 25 36 14 0 42 -7 62 -15 19 -8
48 -15 64 -15 l29 0 0 85 0 85 -215 0 -215 0 0 -66z"/>
<path d="M1930 2364 c0 -57 3 -67 20 -71 18 -5 20 -14 20 -103 0 -89 -2 -98
-20 -103 -17 -4 -20 -14 -20 -71 l0 -66 125 0 125 0 0 86 c0 82 11 103 24 49
4 -14 18 -50 32 -80 l26 -55 104 0 104 0 0 35 c0 27 -12 51 -51 102 l-50 66
38 21 c68 39 81 149 24 207 -39 39 -106 49 -316 49 l-185 0 0 -66z m308 -40
c15 -10 22 -25 22 -48 0 -39 -15 -56 -52 -56 -28 0 -28 1 -28 60 0 66 13 76
58 44z"/>
<path d="M2502 2363 c3 -60 6 -68 23 -71 17 -2 33 -35 84 -172 l63 -170 118 0
118 0 30 78 c16 42 45 118 63 169 26 71 39 93 54 95 17 3 20 12 23 71 l3 67
-121 0 -120 0 0 -70 c0 -57 3 -70 16 -70 10 0 14 -6 10 -17 -3 -10 -15 -52
-27 -93 l-23 -75 -28 90 c-15 50 -28 91 -28 91 0 1 9 4 20 7 17 4 20 14 20 71
l0 66 -150 0 -151 0 3 -67z"/>
<path d="M3120 2364 c0 -57 3 -67 20 -71 18 -5 20 -14 20 -104 0 -92 -1 -99
-20 -99 -18 0 -20 -7 -20 -70 l0 -70 215 0 215 0 0 85 c0 101 -7 108 -80 76
-27 -11 -60 -21 -74 -21 -23 0 -26 4 -26 35 0 38 6 41 58 26 l32 -10 0 50 c0
54 2 53 -72 32 -15 -3 -18 2 -18 31 0 32 3 36 25 36 14 0 42 -7 62 -15 19 -8
48 -15 64 -15 l29 0 0 85 0 85 -215 0 -215 0 0 -66z"/>
<path d="M3600 2364 c0 -57 3 -67 20 -71 18 -5 20 -14 20 -103 0 -89 -2 -98
-20 -103 -17 -4 -20 -14 -20 -71 l0 -66 125 0 125 0 0 86 c0 82 11 103 24 49
4 -14 18 -50 32 -80 l26 -55 104 0 104 0 0 35 c0 27 -12 51 -51 102 l-50 66
38 21 c68 39 81 149 24 207 -39 39 -106 49 -316 49 l-185 0 0 -66z m308 -40
c15 -10 22 -25 22 -48 0 -39 -15 -56 -52 -56 -28 0 -28 1 -28 60 0 66 13 76
58 44z"/>
<path d="M910 1650 c0 -20 7 -20 1650 -20 1643 0 1650 0 1650 20 0 20 -7 20
-1650 20 -1643 0 -1650 0 -1650 -20z"/>
</g>
</svg>
