<?xml version="1.0" standalone="no"?>
<!DOCTYPE svg PUBLIC "-//W3C//DTD SVG 20010904//EN"
 "http://www.w3.org/TR/2001/REC-SVG-20010904/DTD/svg10.dtd">
<svg version="1.0" xmlns="http://www.w3.org/2000/svg"
 width="512.000000pt" height="512.000000pt" viewBox="0 0 512.000000 512.000000"
 preserveAspectRatio="xMidYMid meet">
<metadata>
Created by potrace 1.11, written by Peter Selinger 2001-2013
</metadata>
<g transform="translate(0.000000,512.000000) scale(0.100000,-0.100000)"
fill="#000000" stroke="none">
<path d="M1396 3628 c-223 -42 -425 -272 -426 -483 l0 -41 -80 -12 c-121 -17
-216 -65 -304 -154 -111 -111 -156 -221 -156 -378 0 -157 45 -267 156 -378 88
-89 183 -137 304 -154 l80 -12 0 -41 c1 -167 136 -363 304 -441 151 -69 311
-69 462 1 169 78 303 274 304 443 l0 42 85 0 85 0 0 170 0 170 1153 0 1152 0
89 100 88 100 -88 100 c-49 55 -92 100 -97 100 -5 0 -15 6 -23 14 -17 17 -20
166 -4 166 6 0 10 25 10 55 l0 55 -45 0 -45 0 0 -54 c0 -30 5 -58 10 -61 6 -3
10 -22 10 -42 0 -50 -10 -36 -46 65 l-32 87 -56 3 -56 3 0 -55 c0 -30 5 -58
10 -61 16 -10 12 -144 -4 -161 -8 -8 -16 -14 -18 -14 -2 0 -3 44 -3 98 -1 136
-32 190 -118 199 -39 5 -48 1 -80 -27 -46 -40 -60 -89 -55 -192 3 -80 1 -87
-20 -66 -15 15 -17 168 -2 168 6 0 10 25 10 55 l0 56 -57 -3 -57 -3 -20 -62
c-11 -35 -23 -63 -26 -63 -3 0 -15 28 -26 63 l-20 62 -57 3 -57 3 0 -56 c0
-30 5 -55 10 -55 6 0 10 -32 10 -76 0 -56 -4 -80 -16 -91 -29 -30 -36 3 -29
145 l6 132 -55 0 -54 0 -25 -72 -24 -73 -23 73 -24 72 -58 0 -58 0 0 -55 c0
-30 5 -55 10 -55 16 0 13 -155 -3 -168 -11 -9 -13 6 -14 81 0 106 -22 166 -73
192 -113 59 -213 -71 -181 -238 5 -27 5 -47 0 -47 -5 0 -9 9 -9 21 0 16 -4 19
-17 14 -43 -17 -79 -17 -93 0 -17 21 -17 109 0 130 16 19 46 19 54 0 3 -8 17
-15 31 -15 24 0 25 2 25 61 0 59 -1 60 -35 75 -70 29 -130 9 -161 -53 -15 -29
-19 -60 -19 -136 l0 -97 -297 0 -298 0 0 170 0 170 -85 0 -85 0 0 43 c-1 167
-135 365 -302 441 -113 53 -224 67 -342 44z m1782 -700 c18 -18 15 -123 -4
-139 -27 -22 -49 1 -52 56 -2 27 -1 59 3 72 6 25 33 31 53 11z m945 -27 c18
-70 -26 -151 -59 -107 -16 23 -19 99 -3 127 17 32 51 21 62 -20z m213 -138
c-12 -12 -36 28 -35 59 l1 33 20 -43 c11 -24 17 -46 14 -49z m-566 10 c0 -7
-7 -13 -15 -13 -11 0 -15 11 -14 43 l1 42 13 -30 c8 -16 14 -36 15 -42z m70
27 c0 -29 -4 -40 -15 -40 -18 0 -18 7 -4 49 15 41 19 39 19 -9z m-412 -7 c9
-27 8 -33 -4 -33 -10 0 -14 11 -14 37 0 42 3 41 18 -4z m72 2 c0 -24 -5 -35
-15 -35 -18 0 -18 -1 -4 39 14 40 19 39 19 -4z m-2650 -57 c24 -13 58 -40 74
-61 29 -36 31 -45 31 -117 0 -72 -2 -81 -31 -117 -38 -48 -106 -83 -159 -83
-53 0 -121 35 -159 83 -29 36 -31 45 -31 117 0 72 2 81 31 117 38 48 106 83
159 83 23 0 60 -10 85 -22z"/>
</g>
</svg>
