<?xml version="1.0" standalone="no"?>
<!DOCTYPE svg PUBLIC "-//W3C//DTD SVG 20010904//EN"
 "http://www.w3.org/TR/2001/REC-SVG-20010904/DTD/svg10.dtd">
<svg version="1.0" xmlns="http://www.w3.org/2000/svg"
 width="512.000000pt" height="512.000000pt" viewBox="0 0 512.000000 512.000000"
 preserveAspectRatio="xMidYMid meet">
<metadata>
Created by potrace 1.11, written by Peter Selinger 2001-2013
</metadata>
<g transform="translate(0.000000,512.000000) scale(0.100000,-0.100000)"
fill="#000000" stroke="none">
<path d="M1917 4493 c-4 -3 -7 -174 -7 -378 l0 -371 -128 -21 c-686 -113
-1226 -648 -1342 -1330 -27 -157 -27 -389 0 -546 85 -501 410 -942 860 -1171
159 -81 314 -131 499 -162 l146 -24 1003 0 1003 0 47 51 c26 28 187 207 359
398 l312 346 -2 1605 -2 1605 -1371 3 c-754 1 -1374 -1 -1377 -5z m393 -373
c0 -39 -4 -50 -16 -50 -10 0 -14 -7 -12 -22 3 -20 10 -23 56 -26 50 -3 52 -2
52 22 0 15 -4 26 -10 26 -5 0 -10 23 -10 50 l0 50 95 0 95 0 0 -49 c0 -34 -4
-51 -15 -55 -11 -4 -15 -22 -15 -71 0 -51 3 -65 15 -65 11 0 15 -12 15 -50 l0
-50 -95 0 -95 0 0 50 c0 28 5 50 10 50 6 0 10 11 10 26 0 24 -2 25 -52 22 -46
-3 -53 -6 -56 -25 -2 -16 2 -23 12 -23 12 0 16 -11 16 -50 l0 -50 -100 0 -100
0 0 45 c0 31 5 47 15 51 11 5 15 23 15 75 0 55 -3 69 -15 69 -11 0 -15 12 -15
50 l0 50 100 0 100 0 0 -50z m585 -52 c16 -56 37 -110 47 -120 13 -13 18 -33
18 -68 l0 -50 -64 0 c-63 0 -64 0 -69 30 -6 28 -9 30 -52 30 -43 0 -46 -2 -51
-30 -6 -30 -7 -30 -70 -30 l-64 0 0 51 c0 37 5 55 19 67 11 10 30 60 47 120
l27 102 92 0 92 0 28 -102z m376 90 c39 -11 39 -11 39 -65 l0 -53 -34 0 c-18
0 -39 7 -46 15 -7 8 -24 15 -38 15 -38 0 -62 -27 -62 -71 0 -65 52 -83 158
-53 21 6 22 3 22 -44 0 -50 0 -51 -37 -61 -21 -6 -67 -11 -103 -11 -118 0
-183 63 -182 176 1 70 25 113 82 142 50 25 137 30 201 10z m250 -55 l1 -68 30
68 31 67 88 0 c88 0 89 0 89 -24 0 -16 -18 -43 -50 -77 -27 -29 -50 -57 -50
-63 0 -6 23 -39 50 -73 28 -34 50 -71 50 -82 0 -20 -6 -21 -89 -21 l-88 0 -31
68 -30 67 -1 -67 -1 -68 -85 0 -85 0 0 45 c0 31 5 47 15 51 11 5 15 23 15 75
0 55 -3 69 -15 69 -11 0 -15 12 -15 50 l0 50 85 0 85 0 1 -67z m557 13 c4 -62
-5 -72 -53 -52 -57 24 -75 21 -75 -12 0 -26 2 -28 35 -24 34 4 35 4 35 -32 0
-37 0 -37 -35 -30 -33 6 -35 5 -35 -21 0 -29 -1 -29 98 -9 l32 6 0 -56 0 -56
-150 0 -150 0 0 45 c0 31 5 47 15 51 11 5 15 23 15 75 0 55 -3 69 -15 69 -11
0 -15 12 -15 50 l0 51 148 -3 147 -3 3 -49z m338 33 c72 -34 99 -96 82 -189
-17 -95 -91 -130 -275 -130 l-113 0 0 50 c0 38 4 50 15 50 12 0 15 15 15 75 0
60 -3 75 -15 75 -11 0 -15 12 -15 45 l0 45 130 0 c112 0 137 -3 176 -21z
m-2106 -619 c0 -39 -4 -50 -16 -50 -10 0 -14 -7 -12 -22 3 -20 10 -23 56 -26
50 -3 52 -2 52 22 0 15 -4 26 -10 26 -5 0 -10 23 -10 50 l0 50 95 0 95 0 0
-49 c0 -34 -4 -51 -15 -55 -11 -4 -15 -22 -15 -71 0 -51 3 -65 15 -65 11 0 15
-12 15 -50 l0 -50 -95 0 -95 0 0 50 c0 28 5 50 10 50 6 0 10 11 10 26 0 24 -2
25 -52 22 -46 -3 -53 -6 -56 -25 -2 -16 2 -23 12 -23 12 0 16 -11 16 -50 l0
-50 -100 0 -100 0 0 45 c0 31 5 47 15 51 11 5 15 23 15 75 0 55 -3 69 -15 69
-11 0 -15 12 -15 50 l0 50 100 0 100 0 0 -50z m585 -52 c16 -56 37 -110 47
-120 13 -13 18 -33 18 -68 l0 -50 -64 0 c-63 0 -64 0 -69 30 -6 28 -9 30 -52
30 -43 0 -46 -2 -51 -30 -6 -30 -7 -30 -70 -30 l-64 0 0 51 c0 37 5 55 19 67
11 10 30 60 47 120 l27 102 92 0 92 0 28 -102z m376 90 c39 -11 39 -11 39 -65
l0 -53 -34 0 c-18 0 -39 7 -46 15 -7 8 -24 15 -38 15 -38 0 -62 -27 -62 -71 0
-65 52 -83 158 -53 21 6 22 3 22 -44 0 -50 0 -51 -37 -61 -21 -6 -67 -11 -103
-11 -118 0 -183 63 -182 176 1 70 25 113 82 142 50 25 137 30 201 10z m250
-55 l1 -68 30 68 31 67 88 0 c88 0 89 0 89 -24 0 -16 -18 -43 -50 -77 -27 -29
-50 -57 -50 -63 0 -6 23 -39 50 -73 28 -34 50 -71 50 -82 0 -20 -6 -21 -89
-21 l-88 0 -31 68 -30 67 -1 -67 -1 -68 -85 0 -85 0 0 45 c0 31 5 47 15 51 11
5 15 23 15 75 0 55 -3 69 -15 69 -11 0 -15 12 -15 50 l0 50 85 0 85 0 1 -67z
m557 13 c4 -62 -5 -72 -53 -52 -57 24 -75 21 -75 -12 0 -26 2 -28 35 -24 34 4
35 4 35 -32 0 -37 0 -37 -35 -30 -33 6 -35 5 -35 -21 0 -29 -1 -29 98 -9 l32
6 0 -56 0 -56 -150 0 -150 0 0 45 c0 31 5 47 15 51 11 5 15 23 15 75 0 55 -3
69 -15 69 -11 0 -15 12 -15 50 l0 51 148 -3 147 -3 3 -49z m338 33 c72 -34 99
-96 82 -189 -17 -95 -91 -130 -275 -130 l-113 0 0 50 c0 38 4 50 15 50 12 0
15 15 15 75 0 60 -3 75 -15 75 -11 0 -15 12 -15 45 l0 45 130 0 c112 0 137 -3
176 -21z m-2636 -93 c0 -2 -15 -37 -34 -77 -42 -91 -98 -272 -121 -394 -10
-49 -21 -94 -25 -98 -5 -5 -61 -20 -126 -33 -66 -13 -164 -37 -219 -53 -54
-17 -100 -29 -101 -28 -7 6 79 195 119 263 80 136 199 279 295 352 38 29 212
85 212 68z m126 -543 c-6 -6 -190 -22 -195 -17 -2 1 7 47 18 101 31 138 95
326 139 403 l37 65 3 -274 c1 -151 0 -276 -2 -278z m-653 280 c-61 -86 -156
-275 -199 -396 l-27 -78 -76 -39 c-42 -21 -107 -58 -144 -83 -81 -55 -81 -55
3 118 67 139 151 257 259 365 70 70 217 189 233 190 4 0 -18 -35 -49 -77z
m1057 -233 c0 -39 -4 -50 -16 -50 -10 0 -14 -7 -12 -22 3 -20 10 -23 56 -26
50 -3 52 -2 52 22 0 15 -4 26 -10 26 -5 0 -10 23 -10 50 l0 50 95 0 95 0 0
-49 c0 -34 -4 -51 -15 -55 -11 -4 -15 -22 -15 -71 0 -51 3 -65 15 -65 11 0 15
-12 15 -50 l0 -50 -95 0 -95 0 0 50 c0 28 5 50 10 50 6 0 10 11 10 26 0 24 -2
25 -52 22 -46 -3 -53 -6 -56 -25 -2 -16 2 -23 12 -23 12 0 16 -11 16 -50 l0
-50 -100 0 -100 0 0 45 c0 31 5 47 15 51 11 5 15 23 15 75 0 55 -3 69 -15 69
-11 0 -15 12 -15 50 l0 50 100 0 100 0 0 -50z m585 -52 c16 -56 37 -110 47
-120 13 -13 18 -33 18 -68 l0 -50 -64 0 c-63 0 -64 0 -69 30 -6 28 -9 30 -52
30 -43 0 -46 -2 -51 -30 -6 -30 -7 -30 -70 -30 l-64 0 0 51 c0 37 5 55 19 67
11 10 30 60 47 120 l27 102 92 0 92 0 28 -102z m376 90 c39 -11 39 -11 39 -65
l0 -53 -34 0 c-18 0 -39 7 -46 15 -7 8 -24 15 -38 15 -38 0 -62 -27 -62 -71 0
-65 52 -83 158 -53 21 6 22 3 22 -44 0 -50 0 -51 -37 -61 -21 -6 -67 -11 -103
-11 -118 0 -183 63 -182 176 1 70 25 113 82 142 50 25 137 30 201 10z m250
-55 l1 -68 30 68 31 67 88 0 c88 0 89 0 89 -24 0 -16 -18 -43 -50 -77 -27 -29
-50 -57 -50 -63 0 -6 23 -39 50 -73 28 -34 50 -71 50 -82 0 -20 -6 -21 -89
-21 l-88 0 -31 68 -30 67 -1 -67 -1 -68 -85 0 -85 0 0 45 c0 31 5 47 15 51 11
5 15 23 15 75 0 55 -3 69 -15 69 -11 0 -15 12 -15 50 l0 50 85 0 85 0 1 -67z
m557 13 c4 -62 -5 -72 -53 -52 -57 24 -75 21 -75 -12 0 -26 2 -28 35 -24 34 4
35 4 35 -32 0 -37 0 -37 -35 -30 -33 6 -35 5 -35 -21 0 -29 -1 -29 98 -9 l32
6 0 -56 0 -56 -150 0 -150 0 0 45 c0 31 5 47 15 51 11 5 15 23 15 75 0 55 -3
69 -15 69 -11 0 -15 12 -15 50 l0 51 148 -3 147 -3 3 -49z m338 33 c72 -34 99
-96 82 -189 -17 -95 -91 -130 -275 -130 l-113 0 0 50 c0 38 4 50 15 50 12 0
15 15 15 75 0 60 -3 75 -15 75 -11 0 -15 12 -15 45 l0 45 130 0 c112 0 137 -3
176 -21z m-2506 -504 l0 -325 -135 0 -135 0 0 48 c0 140 39 564 53 578 4 5 81
13 200 23 16 1 17 -21 17 -324z m-336 193 c-7 -51 -18 -189 -25 -305 l-13
-213 -249 0 -249 0 7 93 c8 103 27 229 51 328 l15 66 107 36 c59 20 148 45
197 56 192 43 173 50 159 -61z m-598 -176 c-8 -44 -21 -138 -27 -211 l-13
-131 -133 0 -133 0 0 43 c0 23 4 69 10 102 9 56 13 64 73 121 58 55 225 169
234 160 2 -2 -3 -40 -11 -84z m1334 -142 c0 -39 -4 -50 -16 -50 -10 0 -14 -7
-12 -22 3 -20 10 -23 56 -26 50 -3 52 -2 52 22 0 15 -4 26 -10 26 -5 0 -10 23
-10 50 l0 50 95 0 95 0 0 -49 c0 -34 -4 -51 -15 -55 -11 -4 -15 -22 -15 -71 0
-51 3 -65 15 -65 11 0 15 -12 15 -50 l0 -50 -95 0 -95 0 0 50 c0 28 5 50 10
50 6 0 10 11 10 26 0 24 -2 25 -52 22 -46 -3 -53 -6 -56 -25 -2 -16 2 -23 12
-23 12 0 16 -11 16 -50 l0 -50 -100 0 -100 0 0 45 c0 31 5 47 15 51 11 5 15
23 15 75 0 55 -3 69 -15 69 -11 0 -15 12 -15 50 l0 50 100 0 100 0 0 -50z
m585 -52 c16 -56 37 -110 47 -120 13 -13 18 -33 18 -68 l0 -50 -64 0 c-63 0
-64 0 -69 30 -6 28 -9 30 -52 30 -43 0 -46 -2 -51 -30 -6 -30 -7 -30 -70 -30
l-64 0 0 51 c0 37 5 55 19 67 11 10 30 60 47 120 l27 102 92 0 92 0 28 -102z
m376 90 c39 -11 39 -11 39 -65 l0 -53 -34 0 c-18 0 -39 7 -46 15 -7 8 -24 15
-38 15 -38 0 -62 -27 -62 -71 0 -65 52 -83 158 -53 21 6 22 3 22 -44 0 -50 0
-51 -37 -61 -21 -6 -67 -11 -103 -11 -118 0 -183 63 -182 176 1 70 25 113 82
142 50 25 137 30 201 10z m250 -55 l1 -68 30 68 31 67 88 0 c88 0 89 0 89 -24
0 -16 -18 -43 -50 -77 -27 -29 -50 -57 -50 -63 0 -6 23 -39 50 -73 28 -34 50
-71 50 -82 0 -20 -6 -21 -89 -21 l-88 0 -31 68 -30 67 -1 -67 -1 -68 -85 0
-85 0 0 45 c0 31 5 47 15 51 11 5 15 23 15 75 0 55 -3 69 -15 69 -11 0 -15 12
-15 50 l0 50 85 0 85 0 1 -67z m557 13 c4 -62 -5 -72 -53 -52 -57 24 -75 21
-75 -12 0 -26 2 -28 35 -24 34 4 35 4 35 -32 0 -37 0 -37 -35 -30 -33 6 -35 5
-35 -21 0 -29 -1 -29 98 -9 l32 6 0 -56 0 -56 -150 0 -150 0 0 45 c0 31 5 47
15 51 11 5 15 23 15 75 0 55 -3 69 -15 69 -11 0 -15 12 -15 50 l0 51 148 -3
147 -3 3 -49z m338 33 c72 -34 99 -96 82 -189 -17 -95 -91 -130 -275 -130
l-113 0 0 50 c0 38 4 50 15 50 12 0 15 15 15 75 0 60 -3 75 -15 75 -11 0 -15
12 -15 45 l0 45 130 0 c112 0 137 -3 176 -21z m-3467 -460 c6 -73 19 -167 27
-211 8 -44 13 -82 11 -84 -9 -9 -176 105 -234 160 -60 57 -64 65 -73 121 -6
33 -10 79 -10 103 l0 42 133 0 133 0 13 -131z m600 -81 c7 -117 18 -255 25
-306 l12 -94 -46 7 c-81 12 -213 46 -322 82 l-107 36 -15 66 c-24 99 -43 225
-51 329 l-7 92 249 0 249 0 13 -212z m361 -113 l0 -325 -57 5 c-165 16 -161
15 -167 38 -10 42 -35 312 -42 460 l-7 147 137 0 136 0 0 -325z m400 65 c0
-39 -4 -50 -16 -50 -10 0 -14 -7 -12 -22 3 -20 10 -23 56 -26 50 -3 52 -2 52
22 0 15 -4 26 -10 26 -5 0 -10 23 -10 50 l0 50 95 0 95 0 0 -49 c0 -34 -4 -51
-15 -55 -11 -4 -15 -22 -15 -71 0 -51 3 -65 15 -65 11 0 15 -12 15 -50 l0 -50
-95 0 -95 0 0 50 c0 28 5 50 10 50 6 0 10 11 10 26 0 24 -2 25 -52 22 -46 -3
-53 -6 -56 -25 -2 -16 2 -23 12 -23 12 0 16 -11 16 -50 l0 -50 -100 0 -100 0
0 45 c0 31 5 47 15 51 11 5 15 23 15 75 0 55 -3 69 -15 69 -11 0 -15 12 -15
50 l0 50 100 0 100 0 0 -50z m585 -52 c16 -56 37 -110 47 -120 13 -13 18 -33
18 -68 l0 -50 -64 0 c-63 0 -64 0 -69 30 -6 28 -9 30 -52 30 -43 0 -46 -2 -51
-30 -6 -30 -7 -30 -70 -30 l-64 0 0 51 c0 37 5 55 19 67 11 10 30 60 47 120
l27 102 92 0 92 0 28 -102z m376 90 c39 -11 39 -11 39 -65 l0 -53 -34 0 c-18
0 -39 7 -46 15 -7 8 -24 15 -38 15 -38 0 -62 -27 -62 -71 0 -65 52 -83 158
-53 21 6 22 3 22 -44 0 -50 0 -51 -37 -61 -21 -6 -67 -11 -103 -11 -118 0
-183 63 -182 176 1 70 25 113 82 142 50 25 137 30 201 10z m250 -55 l1 -68 30
68 31 67 88 0 c88 0 89 0 89 -24 0 -16 -18 -43 -50 -77 -27 -29 -50 -57 -50
-63 0 -6 23 -39 50 -73 28 -34 50 -71 50 -82 0 -20 -6 -21 -89 -21 l-88 0 -31
68 -30 67 -1 -67 -1 -68 -85 0 -85 0 0 45 c0 31 5 47 15 51 11 5 15 23 15 75
0 55 -3 69 -15 69 -11 0 -15 12 -15 50 l0 50 85 0 85 0 1 -67z m557 13 c4 -62
-5 -72 -53 -52 -57 24 -75 21 -75 -12 0 -26 2 -28 35 -24 34 4 35 4 35 -32 0
-37 0 -37 -35 -30 -33 6 -35 5 -35 -21 0 -29 -1 -29 98 -9 l32 6 0 -56 0 -56
-150 0 -150 0 0 45 c0 31 5 47 15 51 11 5 15 23 15 75 0 55 -3 69 -15 69 -11
0 -15 12 -15 50 l0 51 148 -3 147 -3 3 -49z m338 33 c72 -34 99 -96 82 -189
-17 -95 -91 -130 -275 -130 l-113 0 0 50 c0 38 4 50 15 50 12 0 15 15 15 75 0
60 -3 75 -15 75 -11 0 -15 12 -15 45 l0 45 130 0 c112 0 137 -3 176 -21z
m-3465 -289 l76 -39 27 -78 c43 -121 138 -310 199 -395 31 -43 53 -78 50 -78
-16 0 -166 122 -234 190 -108 108 -192 226 -259 365 -84 173 -84 173 -3 118
37 -25 102 -62 144 -83z m342 -131 c54 -16 137 -36 185 -44 131 -24 125 -19
145 -125 24 -123 80 -307 123 -399 19 -41 32 -76 30 -78 -8 -8 -160 38 -192
57 -41 26 -173 161 -224 230 -46 62 -132 207 -155 264 -9 20 -25 60 -35 87
l-20 50 22 -7 c13 -4 67 -20 121 -35z m575 -95 l42 -5 0 -275 c0 -151 -2 -274
-5 -274 -13 0 -80 142 -114 245 -34 103 -81 284 -81 314 0 9 57 7 158 -5z
m2440 -62 c-17 -25 -340 -382 -344 -382 -2 0 -4 90 -4 200 l0 200 181 0 c172
0 180 -1 167 -18z m-1998 -42 c0 -39 -4 -50 -16 -50 -10 0 -14 -7 -12 -22 3
-20 10 -23 56 -26 50 -3 52 -2 52 22 0 15 -4 26 -10 26 -5 0 -10 23 -10 50 l0
50 95 0 95 0 0 -49 c0 -34 -4 -51 -15 -55 -11 -4 -15 -22 -15 -71 0 -51 3 -65
15 -65 11 0 15 -12 15 -50 l0 -50 -95 0 -95 0 0 50 c0 28 5 50 10 50 6 0 10
11 10 26 0 24 -2 25 -52 22 -46 -3 -53 -6 -56 -25 -2 -16 2 -23 12 -23 12 0
16 -11 16 -50 l0 -50 -100 0 -100 0 0 45 c0 31 5 47 15 51 11 5 15 23 15 75 0
55 -3 69 -15 69 -11 0 -15 12 -15 50 l0 50 100 0 100 0 0 -50z m585 -52 c16
-56 37 -110 47 -120 13 -13 18 -33 18 -68 l0 -50 -64 0 c-63 0 -64 0 -69 30
-6 28 -9 30 -52 30 -43 0 -46 -2 -51 -30 -6 -30 -7 -30 -70 -30 l-64 0 0 51
c0 37 5 55 19 67 11 10 30 60 47 120 l27 102 92 0 92 0 28 -102z m376 90 c39
-11 39 -11 39 -65 l0 -53 -34 0 c-18 0 -39 7 -46 15 -7 8 -24 15 -38 15 -38 0
-62 -27 -62 -71 0 -65 52 -83 158 -53 21 6 22 3 22 -44 0 -50 0 -51 -37 -61
-21 -6 -67 -11 -103 -11 -118 0 -183 63 -182 176 1 70 25 113 82 142 50 25
137 30 201 10z m250 -55 l1 -68 30 68 31 67 88 0 c88 0 89 0 89 -24 0 -16 -18
-43 -50 -77 -27 -29 -50 -57 -50 -63 0 -6 23 -39 50 -73 28 -34 50 -71 50 -82
0 -20 -6 -21 -89 -21 l-88 0 -31 68 -30 67 -1 -67 -1 -68 -85 0 -85 0 0 45 c0
31 5 47 15 51 11 5 15 23 15 75 0 55 -3 69 -15 69 -11 0 -15 12 -15 50 l0 50
85 0 85 0 1 -67z"/>
<path d="M2766 4045 c-4 -22 -10 -50 -13 -62 -4 -19 -1 -23 21 -23 30 0 31 6
13 75 l-14 50 -7 -40z"/>
<path d="M4280 4000 c0 -64 2 -70 21 -70 45 0 59 17 59 74 0 57 -7 66 -56 66
-23 0 -24 -3 -24 -70z"/>
<path d="M2766 3455 c-4 -22 -10 -50 -13 -62 -4 -19 -1 -23 21 -23 30 0 31 6
13 75 l-14 50 -7 -40z"/>
<path d="M4280 3410 c0 -64 2 -70 21 -70 45 0 59 17 59 74 0 57 -7 66 -56 66
-23 0 -24 -3 -24 -70z"/>
<path d="M2766 2895 c-4 -22 -10 -50 -13 -62 -4 -19 -1 -23 21 -23 30 0 31 6
13 75 l-14 50 -7 -40z"/>
<path d="M4280 2850 c0 -64 2 -70 21 -70 45 0 59 17 59 74 0 57 -7 66 -56 66
-23 0 -24 -3 -24 -70z"/>
<path d="M2766 2295 c-4 -22 -10 -50 -13 -62 -4 -19 -1 -23 21 -23 30 0 31 6
13 75 l-14 50 -7 -40z"/>
<path d="M4280 2250 c0 -64 2 -70 21 -70 45 0 59 17 59 74 0 57 -7 66 -56 66
-23 0 -24 -3 -24 -70z"/>
<path d="M2766 1735 c-4 -22 -10 -50 -13 -62 -4 -19 -1 -23 21 -23 30 0 31 6
13 75 l-14 50 -7 -40z"/>
<path d="M4280 1690 c0 -64 2 -70 21 -70 45 0 59 17 59 74 0 57 -7 66 -56 66
-23 0 -24 -3 -24 -70z"/>
<path d="M2766 1145 c-4 -22 -10 -50 -13 -62 -4 -19 -1 -23 21 -23 30 0 31 6
13 75 l-14 50 -7 -40z"/>
</g>
</svg>
