<?xml version="1.0" standalone="no"?>
<!DOCTYPE svg PUBLIC "-//W3C//DTD SVG 20010904//EN"
 "http://www.w3.org/TR/2001/REC-SVG-20010904/DTD/svg10.dtd">
<svg version="1.0" xmlns="http://www.w3.org/2000/svg"
 width="512.000000pt" height="512.000000pt" viewBox="0 0 512.000000 512.000000"
 preserveAspectRatio="xMidYMid meet">
<metadata>
Created by potrace 1.11, written by Peter Selinger 2001-2013
</metadata>
<g transform="translate(0.000000,512.000000) scale(0.100000,-0.100000)"
fill="#000000" stroke="none">
<path d="M1917 4493 c-4 -3 -7 -174 -7 -378 l0 -371 -128 -21 c-649 -107
-1171 -592 -1323 -1232 -11 -45 -19 -85 -16 -87 6 -6 660 235 666 245 4 5 65
28 136 51 155 50 517 177 560 197 29 13 27 14 -32 9 -35 -2 -63 0 -63 5 0 5 9
51 20 102 30 134 95 322 138 397 l37 65 3 -267 c2 -205 5 -268 15 -267 6 0 64
19 127 43 l115 43 3 606 2 607 1120 0 1120 0 0 -196 c0 -191 1 -196 20 -191
24 6 24 4 6 -31 -17 -34 -29 -106 -22 -130 7 -20 45 -42 74 -42 38 0 43 -14
22 -68 -11 -29 -20 -66 -20 -82 0 -29 2 -30 44 -30 40 0 76 -18 76 -38 0 -4
-11 -24 -25 -44 -38 -56 -42 -92 -14 -112 13 -9 40 -16 61 -16 l38 0 -2 618
-3 617 -1371 3 c-754 1 -1374 -1 -1377 -5z m-137 -1027 c0 -2 -15 -37 -34 -77
-42 -91 -98 -272 -121 -394 -10 -49 -21 -94 -25 -98 -5 -5 -61 -20 -126 -33
-66 -13 -164 -37 -219 -53 -54 -17 -100 -29 -101 -28 -7 6 79 195 119 263 80
136 199 279 295 352 38 29 212 85 212 68z m-527 -263 c-61 -86 -156 -275 -199
-396 l-27 -78 -76 -39 c-42 -21 -107 -58 -144 -83 -81 -55 -81 -55 3 118 67
139 151 257 259 365 70 70 217 189 233 190 4 0 -18 -35 -49 -77z"/>
<path d="M2372 3978 c-7 -7 -12 -24 -12 -38 0 -14 5 -31 12 -38 17 -17 649
-17 666 0 15 15 15 61 0 76 -17 17 -649 17 -666 0z"/>
<path d="M3310 3691 l0 -248 445 161 445 161 0 88 0 87 -445 0 -445 0 0 -249z"/>
<path d="M2310 3027 c-1119 -407 -2037 -742 -2039 -743 -2 -2 6 -15 18 -30 26
-34 27 -68 1 -101 -11 -14 -20 -29 -20 -33 0 -4 22 -22 49 -39 65 -42 80 -78
59 -137 l-15 -43 28 -12 c33 -13 69 -65 69 -99 0 -12 -9 -38 -21 -56 l-20 -33
51 -37 c73 -53 86 -88 54 -149 -15 -29 -14 -31 7 -45 71 -47 81 -61 76 -109
-3 -25 -8 -58 -12 -72 -6 -23 -2 -27 33 -41 60 -23 69 -69 37 -173 -5 -17 2
-25 33 -43 50 -28 64 -45 71 -86 l6 -33 2035 740 c1119 407 2037 742 2040 745
3 3 -1 7 -8 9 -16 6 -42 56 -42 81 0 10 11 40 25 66 14 26 25 49 25 50 0 2
-25 14 -55 26 -31 12 -60 31 -65 41 -17 30 -11 75 15 112 26 39 25 41 -20 51
-58 14 -75 32 -75 80 0 29 7 52 21 70 25 31 20 38 -37 54 -64 19 -76 64 -39
154 5 13 -1 20 -28 31 -66 28 -83 81 -47 152 11 22 20 41 20 42 0 2 -18 3 -40
3 -30 0 -42 5 -51 22 -11 21 -8 105 6 140 5 13 -3 22 -32 37 -56 28 -68 47
-66 103 0 26 -2 48 -5 47 -4 -1 -923 -334 -2042 -742z m1981 122 c81 -45 148
-182 135 -276 -12 -90 -67 -158 -169 -210 -79 -40 -340 -134 -347 -126 -4 5
-17 36 -29 71 -22 61 -22 64 -4 77 17 13 17 15 -1 67 -53 150 -56 158 -81 158
-19 0 -27 10 -44 55 -12 31 -21 59 -21 64 0 5 87 40 193 80 179 66 197 71 258
67 46 -2 80 -10 110 -27z m-587 -211 c14 -40 26 -79 26 -85 0 -14 -7 -16 -102
-17 -82 -1 -95 -11 -78 -60 13 -41 21 -43 58 -18 49 34 50 34 65 -10 8 -24 18
-50 22 -59 5 -14 -3 -18 -44 -24 -33 -4 -51 -12 -51 -20 0 -11 17 -59 26 -73
5 -8 51 22 84 54 19 18 47 37 62 43 26 10 27 9 52 -62 14 -40 27 -78 28 -85 2
-9 -68 -39 -212 -92 -118 -43 -218 -76 -222 -74 -3 2 -16 34 -28 70 -21 62
-21 66 -4 78 17 13 16 19 -18 112 -31 87 -38 99 -59 99 -19 0 -27 11 -46 60
-13 33 -23 65 -23 71 0 7 19 20 43 28 232 87 365 135 378 135 11 1 24 -21 43
-71z m-498 -141 c12 -33 11 -41 -12 -80 -25 -45 -64 -150 -64 -173 0 -12 114
-87 181 -119 24 -12 40 -28 48 -52 7 -19 11 -36 9 -39 -3 -2 -60 -25 -128 -49
l-124 -46 -83 83 c-46 45 -83 80 -83 76 0 -3 15 -48 34 -101 l35 -95 -112 -40
c-62 -22 -119 -43 -127 -46 -12 -5 -21 10 -40 65 -24 69 -24 71 -6 85 18 13
18 16 3 56 -9 24 -26 69 -37 101 -18 47 -26 57 -45 57 -24 0 -26 3 -55 87
l-18 51 125 46 c69 26 127 45 128 44 1 -2 17 -46 36 -98 l34 -95 8 75 c4 41
10 94 13 116 l5 41 122 45 c67 25 126 45 131 44 5 -1 15 -19 22 -39z m-656
-293 c32 -87 31 -93 -19 -113 -37 -15 -49 -16 -79 -6 -92 32 -160 -61 -113
-153 12 -23 30 -46 40 -52 46 -24 120 -2 218 64 l37 26 29 -77 28 -77 -23 -18
c-13 -10 -59 -37 -103 -59 -137 -68 -250 -74 -336 -16 -106 71 -160 244 -110
352 47 101 203 183 353 184 l57 1 21 -56z m-583 -299 c78 -107 108 -141 129
-145 22 -4 30 -16 55 -83 l28 -78 -27 -11 c-15 -5 -49 -18 -77 -28 -27 -10
-57 -21 -66 -24 -11 -5 -23 5 -42 32 l-26 40 -63 -23 -63 -23 0 -48 0 -48 -89
-33 c-50 -18 -93 -30 -96 -26 -4 5 -19 41 -34 81 -26 72 -26 74 -7 90 18 16
18 25 6 192 -6 96 -9 178 -5 182 9 12 243 97 259 95 8 -1 61 -65 118 -142z
m-548 -91 c22 -61 22 -66 6 -84 -16 -18 -15 -24 17 -112 31 -82 38 -93 61 -96
22 -3 29 -12 46 -65 12 -34 21 -66 21 -72 0 -5 -22 -17 -48 -26 -26 -9 -90
-33 -144 -52 l-96 -35 -26 70 c-26 70 -26 71 -7 85 17 11 18 18 9 43 -5 17
-13 30 -16 30 -16 0 -162 -55 -162 -62 0 -28 22 -58 43 -58 21 0 28 -10 49
-70 14 -38 24 -70 23 -70 -1 0 -67 -24 -148 -54 l-146 -53 -26 71 c-26 69 -26
71 -7 84 19 12 18 15 -17 112 -31 87 -39 100 -61 102 -21 3 -29 14 -48 67 -12
36 -19 68 -15 72 4 3 70 29 146 57 l138 50 10 -26 c5 -15 17 -47 26 -71 16
-41 16 -44 0 -56 -20 -15 -22 -35 -4 -58 11 -16 17 -16 87 10 41 14 77 28 78
29 2 1 1 16 -3 33 -5 23 -13 31 -33 33 -23 3 -30 12 -50 67 -12 35 -20 66 -17
70 9 8 258 99 275 100 10 1 23 -22 39 -65z"/>
<path d="M4057 2998 c-21 -7 -27 -15 -22 -27 4 -9 18 -47 32 -86 46 -127 38
-116 73 -101 49 20 70 43 70 76 0 34 -26 107 -48 133 -17 19 -61 21 -105 5z"/>
<path d="M1776 2093 c8 -49 14 -93 14 -100 0 -9 9 -9 38 1 22 8 36 19 34 27
-4 13 -92 159 -96 159 -2 0 3 -39 10 -87z"/>
<path d="M2372 3718 c-7 -7 -12 -24 -12 -38 0 -14 5 -31 12 -38 17 -17 649
-17 666 0 15 15 15 61 0 76 -17 17 -649 17 -666 0z"/>
<path d="M2372 3458 c-7 -7 -12 -24 -12 -38 0 -14 5 -31 12 -38 17 -17 649
-17 666 0 15 15 15 61 0 76 -17 17 -649 17 -666 0z"/>
<path d="M2372 3198 c-17 -17 -15 -63 3 -78 12 -10 41 -2 152 38 l138 51 -140
1 c-97 0 -145 -4 -153 -12z"/>
<path d="M4649 3180 c-26 -39 -31 -76 -13 -90 24 -21 35 1 32 61 -3 54 -3 54
-19 29z"/>
<path d="M4530 2227 l-115 -42 -3 -328 -2 -327 -350 0 -350 0 0 -390 0 -390
-770 0 -770 0 0 305 c0 237 -3 305 -12 305 -7 0 -65 -19 -128 -43 l-115 -42
-5 -255 -5 -255 -37 65 c-29 50 -94 229 -134 367 -2 9 -14 8 -49 -4 -25 -10
-45 -21 -45 -25 0 -24 77 -254 106 -317 19 -41 32 -76 30 -78 -5 -5 -121 25
-162 42 -49 20 -191 155 -245 233 -15 21 -17 22 -62 6 -26 -9 -47 -18 -47 -21
0 -4 11 -21 26 -40 31 -41 24 -42 -29 -3 l-42 30 -132 -48 c-73 -26 -131 -51
-130 -57 2 -5 52 -47 112 -93 208 -157 456 -261 734 -308 l146 -24 1003 0
1003 0 47 51 c26 28 187 207 359 398 l312 346 1 493 c0 387 -3 492 -12 491 -7
0 -65 -19 -128 -42z m-222 -965 c-17 -25 -340 -382 -344 -382 -2 0 -4 90 -4
200 l0 200 181 0 c172 0 180 -1 167 -18z"/>
<path d="M3825 1970 l-130 -49 265 0 c284 -1 290 0 290 49 0 46 -14 50 -160
49 l-135 0 -130 -49z"/>
<path d="M2780 1590 l-215 -79 218 0 217 -1 0 80 c0 44 -1 80 -2 79 -2 0 -100
-36 -218 -79z"/>
<path d="M2372 1288 c-7 -7 -12 -24 -12 -38 0 -14 5 -31 12 -38 17 -17 1049
-17 1066 0 7 7 12 24 12 38 0 14 -5 31 -12 38 -17 17 -1049 17 -1066 0z"/>
<path d="M2372 1028 c-7 -7 -12 -24 -12 -38 0 -14 5 -31 12 -38 17 -17 1049
-17 1066 0 7 7 12 24 12 38 0 14 -5 31 -12 38 -17 17 -1049 17 -1066 0z"/>
</g>
</svg>
