<?xml version="1.0" standalone="no"?>
<!DOCTYPE svg PUBLIC "-//W3C//DTD SVG 20010904//EN"
 "http://www.w3.org/TR/2001/REC-SVG-20010904/DTD/svg10.dtd">
<svg version="1.0" xmlns="http://www.w3.org/2000/svg"
 width="512.000000pt" height="512.000000pt" viewBox="0 0 512.000000 512.000000"
 preserveAspectRatio="xMidYMid meet">
<metadata>
Created by potrace 1.11, written by Peter Selinger 2001-2013
</metadata>
<g transform="translate(0.000000,512.000000) scale(0.100000,-0.100000)"
fill="#000000" stroke="none">
<path d="M2472 4438 c-330 -589 -630 -1199 -775 -1578 -110 -287 -143 -434
-134 -609 8 -163 48 -299 127 -435 22 -38 39 -70 38 -72 -2 -1 -57 -14 -123
-29 -424 -95 -695 -235 -771 -398 -43 -93 -25 -173 58 -263 140 -152 456 -276
888 -348 261 -44 457 -58 780 -58 323 0 519 14 780 58 432 72 748 196 888 348
83 90 101 170 58 263 -76 163 -347 303 -771 398 -66 15 -121 28 -123 29 -1 2
16 34 38 72 43 74 79 163 105 259 22 82 31 274 16 361 -42 247 -192 621 -477
1194 -199 402 -496 950 -514 950 -4 0 -44 -64 -88 -142z m-322 -1114 c12 -23
15 -68 14 -219 -1 -284 -30 -416 -109 -504 -69 -76 -138 -75 -181 3 -50 89
-38 203 42 404 60 151 120 267 163 315 38 43 50 43 71 1z m-195 -947 c59 -59
71 -157 30 -244 -89 -193 -303 -51 -244 162 6 22 28 56 49 77 33 33 44 38 85
38 40 0 52 -5 80 -33z m-173 -696 l36 -48 -79 -22 c-288 -79 -450 -211 -425
-347 11 -55 110 -149 206 -196 255 -122 592 -181 1040 -181 448 0 785 59 1040
181 96 47 195 141 206 196 25 136 -137 268 -425 347 l-79 22 36 49 c42 56 28
55 202 6 190 -55 353 -135 437 -216 256 -247 -106 -518 -832 -621 -1021 -146
-2151 122 -2081 493 26 137 233 267 576 361 47 13 90 24 95 24 6 1 27 -21 47
-48z m209 -192 l61 -42 -69 -22 c-37 -12 -79 -27 -93 -34 -37 -20 -80 -63 -80
-81 0 -68 145 -131 390 -167 161 -24 559 -24 720 0 245 36 390 99 390 167 0
18 -43 61 -80 81 -14 7 -56 22 -93 34 l-69 22 62 42 61 42 96 -26 c221 -59
314 -140 252 -219 -93 -118 -480 -196 -979 -196 -499 0 -886 78 -979 196 -44
56 -11 114 94 164 50 24 212 76 248 79 4 1 35 -18 68 -40z m261 -129 c194 -66
434 -64 633 5 l70 25 44 -23 c81 -40 81 -74 0 -114 -90 -46 -185 -58 -439 -58
-188 0 -251 4 -315 18 -133 29 -204 74 -179 115 14 23 95 64 114 56 8 -3 40
-14 72 -24z"/>
</g>
</svg>
