<?xml version="1.0" standalone="no"?>
<!DOCTYPE svg PUBLIC "-//W3C//DTD SVG 20010904//EN"
 "http://www.w3.org/TR/2001/REC-SVG-20010904/DTD/svg10.dtd">
<svg version="1.0" xmlns="http://www.w3.org/2000/svg"
 width="512.000000pt" height="512.000000pt" viewBox="0 0 512.000000 512.000000"
 preserveAspectRatio="xMidYMid meet">
<metadata>
Created by potrace 1.11, written by Peter Selinger 2001-2013
</metadata>
<g transform="translate(0.000000,512.000000) scale(0.100000,-0.100000)"
fill="#000000" stroke="none">
<path d="M1185 4288 c-3 -7 -4 -789 -3 -1738 l3 -1725 1013 -3 c760 -1 1019 1
1035 10 12 6 176 119 365 251 l342 240 -2 1486 -3 1486 -1373 3 c-1093 2
-1374 0 -1377 -10z m2495 -1483 l0 -1235 -350 0 -350 0 0 -245 0 -245 -770 0
-770 0 0 1480 0 1480 1120 0 1120 0 0 -1235z m-195 -1494 c-19 -17 -243 -171
-249 -171 -3 0 -6 41 -6 90 l0 90 132 0 c74 0 128 -4 123 -9z"/>
<path d="M2449 3511 c-101 -32 -175 -95 -227 -195 -25 -48 -27 -60 -30 -218
l-4 -168 -64 0 -64 0 0 -300 0 -300 500 0 500 0 0 300 0 300 -365 0 -365 0 0
104 c0 133 13 201 49 251 38 53 118 95 181 95 100 0 202 -84 218 -180 l7 -45
74 -3 74 -3 -5 59 c-20 219 -262 372 -479 303z m160 -725 c51 -27 64 -89 30
-145 -18 -30 -20 -44 -14 -113 l7 -78 -72 0 -72 0 7 78 c6 69 4 83 -14 113
-24 39 -26 73 -7 108 26 47 84 63 135 37z"/>
<path d="M1520 1845 l0 -195 74 0 c59 0 78 4 100 21 l26 20 0 147 c-1 111 -4
152 -15 166 -15 20 -74 35 -142 36 l-43 0 0 -195z m148 1 c3 -156 3 -156 -65
-156 l-43 0 0 151 0 150 53 -3 52 -3 3 -139z"/>
<path d="M3457 2033 c-4 -3 -7 -28 -7 -54 l0 -47 -56 -7 c-84 -10 -94 -25 -94
-139 0 -90 1 -96 26 -115 22 -17 39 -21 100 -19 l74 1 0 194 c0 180 -1 193
-18 193 -10 0 -22 -3 -25 -7z m-9 -245 l-3 -93 -40 -3 c-29 -3 -43 1 -52 14
-17 23 -17 146 -1 162 7 7 32 12 55 12 l44 0 -3 -92z"/>
<path d="M2910 1960 c0 -25 -4 -30 -25 -30 -20 0 -25 -5 -25 -25 0 -20 5 -25
25 -25 25 0 25 0 25 -93 0 -119 11 -137 81 -137 42 0 49 3 49 19 0 16 -8 20
-37 23 l-38 3 -3 93 -3 92 41 0 c37 0 41 2 38 23 -2 18 -10 23 -40 25 -35 3
-38 6 -38 33 0 24 -4 29 -25 29 -21 0 -25 -5 -25 -30z"/>
<path d="M1825 1925 c-5 -2 -22 -6 -37 -9 -18 -4 -29 -16 -37 -37 -16 -46 -14
-155 4 -188 16 -33 39 -41 113 -41 45 0 52 3 52 20 0 17 -7 20 -53 20 -60 0
-77 12 -77 52 0 28 0 28 70 28 l70 0 0 54 c0 37 -5 60 -17 74 -17 18 -65 33
-88 27z m63 -82 l3 -33 -50 0 c-49 0 -51 1 -51 28 0 38 7 43 55 40 37 -3 40
-5 43 -35z"/>
<path d="M2040 1920 c-52 -12 -60 -31 -60 -136 0 -88 1 -94 26 -113 20 -15 41
-21 80 -21 47 0 54 2 54 20 0 17 -7 20 -48 20 -26 0 -53 5 -60 12 -7 7 -12 41
-12 83 0 42 5 76 12 83 7 7 34 12 60 12 45 0 48 2 48 25 0 22 -4 25 -32 24
-18 -1 -49 -5 -68 -9z"/>
<path d="M2200 1905 c0 -18 5 -25 20 -25 19 0 20 -7 20 -91 0 -82 -2 -91 -20
-96 -11 -3 -20 -14 -20 -24 0 -17 8 -19 70 -19 63 0 70 2 70 20 0 16 -7 20
-30 20 l-30 0 0 83 c0 95 7 107 62 107 32 0 38 3 38 20 0 27 -20 34 -64 22
-22 -6 -38 -7 -42 -1 -3 5 -21 9 -40 9 -30 0 -34 -3 -34 -25z"/>
<path d="M2400 1918 c0 -19 82 -262 90 -268 15 -10 -9 -50 -30 -50 -13 0 -20
-7 -20 -20 0 -15 7 -20 29 -20 16 0 36 6 44 14 11 12 107 325 107 351 0 3 -10
5 -22 3 -20 -3 -27 -18 -54 -118 l-31 -115 -17 60 c-41 144 -52 170 -74 173
-13 2 -22 -2 -22 -10z"/>
<path d="M2630 1745 c0 -178 1 -185 20 -185 17 0 20 7 20 44 l0 44 60 4 c85 6
94 18 98 127 4 80 2 90 -20 115 -18 22 -32 27 -69 28 -26 0 -52 -3 -58 -6 -6
-4 -11 -2 -11 3 0 6 -9 11 -20 11 -19 0 -20 -7 -20 -185z m148 52 c3 -95 -5
-109 -62 -105 l-41 3 -3 72 c-4 96 7 115 61 111 l42 -3 3 -78z"/>
<path d="M3155 1925 c-5 -2 -22 -6 -37 -9 -18 -4 -29 -16 -37 -37 -16 -46 -14
-155 4 -188 16 -33 39 -41 113 -41 45 0 52 3 52 20 0 17 -7 20 -53 20 -60 0
-77 12 -77 52 0 28 0 28 70 28 l70 0 0 54 c0 37 -5 60 -17 74 -17 18 -65 33
-88 27z m63 -82 l3 -33 -50 0 c-49 0 -51 1 -51 28 0 38 7 43 55 40 37 -3 40
-5 43 -35z"/>
<path d="M3597 1704 c-4 -4 -7 -18 -7 -31 0 -19 5 -23 31 -23 27 0 30 3 27 28
-3 26 -34 43 -51 26z"/>
<path d="M1510 1331 c0 -154 1 -161 20 -161 18 0 20 7 20 70 l0 70 45 0 45 0
0 -70 c0 -64 2 -70 20 -70 20 0 20 5 18 157 -3 141 -5 158 -20 161 -16 3 -18
-5 -18 -67 l0 -71 -45 0 -44 0 -3 67 c-2 55 -6 68 -20 71 -17 3 -18 -10 -18
-157z"/>
<path d="M1957 1484 c-18 -18 -5 -34 28 -34 l35 0 0 -128 c0 -86 4 -132 12
-140 18 -18 98 -16 98 2 0 9 -12 16 -32 18 l-33 3 -5 140 -5 140 -45 3 c-25 2
-49 0 -53 -4z"/>
<path d="M2177 1484 c-18 -18 -5 -34 28 -34 l35 0 0 -128 c0 -86 4 -132 12
-140 18 -18 98 -16 98 2 0 9 -12 16 -32 18 l-33 3 -5 140 -5 140 -45 3 c-25 2
-49 0 -53 -4z"/>
<path d="M2687 1483 c-4 -3 -7 -55 -7 -115 0 -101 1 -108 20 -108 19 0 20 7
20 115 0 89 -3 115 -13 115 -8 0 -17 -3 -20 -7z"/>
<path d="M2787 1483 c-4 -3 -7 -55 -7 -115 0 -101 1 -108 20 -108 19 0 20 7
20 115 0 89 -3 115 -13 115 -8 0 -17 -3 -20 -7z"/>
<path d="M2887 1483 c-4 -3 -7 -55 -7 -115 0 -101 1 -108 20 -108 19 0 20 7
20 115 0 89 -3 115 -13 115 -8 0 -17 -3 -20 -7z"/>
<path d="M1785 1390 c-38 -7 -55 -40 -55 -108 0 -52 12 -90 34 -104 6 -4 35
-8 64 -8 40 0 52 4 52 15 0 11 -11 15 -43 15 -48 0 -67 13 -67 47 0 21 4 23
60 23 l60 0 0 43 c0 63 -37 90 -105 77z m63 -62 c3 -27 1 -28 -37 -28 -36 0
-41 3 -41 23 0 32 9 38 45 35 24 -2 31 -8 33 -30z"/>
<path d="M2416 1374 c-12 -11 -16 -36 -16 -94 0 -70 2 -81 22 -94 28 -20 87
-20 115 -1 38 27 42 154 6 190 -20 21 -107 20 -127 -1z m108 -30 c3 -9 6 -40
6 -69 0 -45 -4 -56 -21 -65 -11 -7 -32 -9 -45 -6 -22 6 -24 11 -24 75 0 37 3
71 7 74 13 14 71 7 77 -9z"/>
<path d="M2680 1195 c0 -18 5 -25 20 -25 15 0 20 7 20 25 0 18 -5 25 -20 25
-15 0 -20 -7 -20 -25z"/>
<path d="M2780 1195 c0 -18 5 -25 20 -25 15 0 20 7 20 25 0 18 -5 25 -20 25
-15 0 -20 -7 -20 -25z"/>
<path d="M2880 1195 c0 -18 5 -25 20 -25 15 0 20 7 20 25 0 18 -5 25 -20 25
-15 0 -20 -7 -20 -25z"/>
</g>
</svg>
