<?xml version="1.0" standalone="no"?>
<!DOCTYPE svg PUBLIC "-//W3C//DTD SVG 20010904//EN"
 "http://www.w3.org/TR/2001/REC-SVG-20010904/DTD/svg10.dtd">
<svg version="1.0" xmlns="http://www.w3.org/2000/svg"
 width="512.000000pt" height="512.000000pt" viewBox="0 0 512.000000 512.000000"
 preserveAspectRatio="xMidYMid meet">
<metadata>
Created by potrace 1.11, written by Peter Selinger 2001-2013
</metadata>
<g transform="translate(0.000000,512.000000) scale(0.100000,-0.100000)"
fill="#000000" stroke="none">
<path d="M2 2560 l3 -2560 2558 0 2557 0 0 2560 0 2560 -2561 0 -2561 0 4
-2560z m4988 5 c0 -1336 -1 -2430 -3 -2431 -2 -2 -1094 -4 -2428 -4 l-2424 -1
-3 2430 -2 2431 2427 2 c1336 2 2429 3 2431 2 1 0 2 -1094 2 -2429z"/>
<path d="M2850 2985 l0 -285 65 0 65 0 0 285 0 285 -65 0 -65 0 0 -285z"/>
<path d="M4240 3166 l0 -104 -37 19 c-80 41 -166 14 -207 -66 -30 -59 -29
-173 3 -238 46 -93 154 -114 229 -45 l22 21 0 -26 c0 -26 2 -27 58 -27 l57 0
-1 198 c0 108 -1 236 -2 285 l-2 87 -60 0 -60 0 0 -104z m-20 -176 c16 -16 20
-33 20 -95 0 -63 -3 -77 -22 -95 -43 -40 -109 -16 -124 45 -10 42 1 123 21
145 24 26 79 26 105 0z"/>
<path d="M758 3255 c-5 -5 -8 -131 -8 -282 l0 -273 108 0 c127 0 191 16 245
61 66 54 82 98 82 219 0 96 -2 109 -27 150 -31 54 -68 82 -133 104 -52 18
-255 33 -267 21z m242 -118 c47 -23 70 -72 70 -154 0 -125 -46 -183 -145 -183
l-45 0 0 181 0 181 48 -7 c26 -4 58 -12 72 -18z"/>
<path d="M1365 3089 c-38 -11 -89 -64 -104 -108 -6 -19 -11 -59 -11 -90 0
-136 97 -217 235 -197 97 15 155 91 155 202 0 76 -11 109 -53 152 -46 48 -139
66 -222 41z m126 -88 c19 -15 24 -30 27 -88 5 -81 -13 -127 -52 -137 -66 -17
-101 35 -94 140 3 55 8 70 27 85 30 24 63 24 92 0z"/>
<path d="M2534 3086 c-18 -8 -35 -19 -38 -25 -11 -18 -26 -13 -26 9 0 18 -7
20 -55 20 l-55 0 0 -195 0 -195 60 0 60 0 0 134 c0 133 0 135 26 155 33 26 58
27 84 1 18 -18 20 -33 20 -155 l0 -135 60 0 60 0 0 119 c0 214 -23 270 -117
278 -28 2 -61 -3 -79 -11z"/>
<path d="M3187 3086 c-46 -17 -61 -29 -89 -74 -32 -52 -31 -171 2 -230 58
-103 229 -123 315 -37 68 69 73 225 8 297 -46 52 -155 72 -236 44z m132 -85
c24 -24 35 -78 28 -139 -9 -79 -77 -115 -126 -67 -20 20 -32 101 -21 148 15
70 77 100 119 58z"/>
<path d="M3604 3091 c-47 -12 -54 -19 -54 -58 l0 -36 38 7 c141 24 182 17 182
-29 0 -23 -4 -25 -47 -25 -66 -1 -142 -29 -167 -62 -14 -19 -20 -43 -20 -78 0
-41 5 -55 28 -79 49 -51 128 -53 186 -5 l30 26 0 -26 c0 -25 2 -26 58 -26 l57
0 -5 164 c-5 157 -6 166 -29 190 -14 14 -41 30 -60 36 -41 11 -151 12 -197 1z
m166 -238 c0 -60 -94 -102 -120 -53 -21 40 19 79 83 80 34 0 37 -2 37 -27z"/>
<path d="M1715 3038 c7 -29 28 -117 46 -195 l32 -143 72 0 72 0 23 133 c13 72
26 135 30 140 3 4 17 -56 30 -133 l23 -140 73 0 73 0 22 98 c12 53 32 140 44
192 l22 95 -54 3 c-31 2 -57 1 -59 -1 -3 -2 -14 -64 -24 -137 -11 -74 -22
-136 -25 -138 -7 -7 -11 13 -29 133 -24 157 -16 145 -96 145 l-68 0 -5 -32
c-3 -18 -14 -81 -23 -140 -10 -59 -20 -105 -23 -102 -4 3 -15 65 -26 137 l-21
132 -61 3 -61 3 13 -53z"/>
<path d="M1510 2215 l0 -285 65 0 65 0 0 285 0 285 -65 0 -65 0 0 -285z"/>
<path d="M1780 2215 l0 -285 65 0 65 0 0 285 0 285 -65 0 -65 0 0 -285z"/>
<path d="M2270 2455 l0 -45 65 0 65 0 0 45 0 45 -65 0 -65 0 0 -45z"/>
<path d="M1090 2451 c-5 -21 -46 -147 -89 -280 l-78 -241 67 0 67 0 13 60 13
60 87 0 87 0 13 -60 13 -60 68 0 c50 0 67 3 64 13 -2 6 -43 132 -90 280 l-86
267 -69 0 -69 0 -11 -39z m135 -278 c5 -22 3 -23 -55 -23 -54 0 -61 2 -56 18
3 9 15 55 26 102 12 46 24 89 28 94 3 6 16 -30 28 -79 13 -50 26 -100 29 -112z"/>
<path d="M2277 2323 c-4 -3 -7 -93 -7 -200 l0 -193 65 0 65 0 0 200 0 200 -58
0 c-32 0 -62 -3 -65 -7z"/>
<path d="M2605 2316 c-71 -31 -111 -117 -102 -216 10 -114 80 -174 202 -174
39 0 82 3 98 7 24 7 27 12 27 52 l0 45 -32 -8 c-117 -26 -168 7 -168 108 0 79
27 113 89 112 23 -1 56 -4 72 -7 29 -7 29 -6 29 38 0 38 -3 46 -22 51 -41 10
-162 6 -193 -8z"/>
<path d="M3005 2313 c-67 -35 -91 -73 -101 -155 -11 -95 27 -177 100 -215 48
-26 151 -23 202 6 129 73 121 312 -13 367 -44 19 -150 17 -188 -3z m144 -82
c37 -37 40 -145 7 -196 -23 -34 -89 -36 -110 -2 -33 52 -30 158 6 196 24 27
72 27 97 2z"/>
<path d="M3380 2130 l0 -200 60 0 60 0 0 130 c0 126 1 132 25 155 28 28 66 32
89 9 13 -12 16 -41 16 -155 l0 -139 60 0 60 0 0 136 c0 217 -22 264 -125 264
-39 0 -61 -6 -88 -24 l-36 -25 -3 22 c-3 19 -10 22 -60 25 l-58 3 0 -201z"/>
<path d="M3904 2316 c-43 -19 -64 -53 -64 -101 0 -67 40 -104 138 -129 53 -13
73 -36 52 -61 -12 -14 -25 -16 -75 -11 -33 3 -72 8 -87 12 -27 6 -28 5 -28
-34 0 -23 4 -43 9 -46 4 -3 41 -11 82 -17 147 -23 229 21 229 122 0 66 -25 91
-119 119 -75 22 -93 39 -70 66 11 13 27 15 79 11 36 -2 73 -8 83 -12 15 -6 17
-1 17 38 0 42 -2 45 -31 51 -55 11 -183 6 -215 -8z"/>
<path d="M2430 1285 l0 -215 -102 0 -103 0 163 -163 c89 -89 162 -166 162
-170 0 -4 -92 -7 -205 -7 l-205 0 0 -80 0 -80 420 0 420 0 0 80 0 80 -205 0
c-113 0 -205 3 -205 7 0 4 73 81 162 170 l163 163 -103 0 -102 0 0 215 0 215
-130 0 -130 0 0 -215z"/>
</g>
</svg>
