<?xml version="1.0" standalone="no"?>
<!DOCTYPE svg PUBLIC "-//W3C//DTD SVG 20010904//EN"
 "http://www.w3.org/TR/2001/REC-SVG-20010904/DTD/svg10.dtd">
<svg version="1.0" xmlns="http://www.w3.org/2000/svg"
 width="512.000000pt" height="512.000000pt" viewBox="0 0 512.000000 512.000000"
 preserveAspectRatio="xMidYMid meet">
<metadata>
Created by potrace 1.11, written by Peter Selinger 2001-2013
</metadata>
<g transform="translate(0.000000,512.000000) scale(0.100000,-0.100000)"
fill="#000000" stroke="none">
<path d="M2242 4395 c-179 -49 -308 -180 -370 -375 -47 -146 -57 -224 -57
-455 0 -121 4 -251 8 -288 l8 -69 -23 16 c-16 12 -27 39 -43 103 -17 73 -24
89 -41 91 -40 6 -45 -17 -23 -114 19 -84 23 -92 70 -135 48 -45 49 -46 43 -92
-4 -26 -9 -47 -11 -47 -3 0 -35 25 -71 55 l-66 55 -103 0 c-91 0 -103 -2 -113
-19 -19 -37 11 -51 109 -51 l88 0 76 -66 76 -65 -6 -47 c-3 -26 -6 -48 -7 -49
-1 -1 -39 30 -85 68 -45 38 -86 69 -89 69 -4 0 -63 -24 -131 -53 -133 -57
-157 -76 -129 -103 16 -16 24 -14 131 31 77 31 120 44 130 39 43 -25 197 -167
197 -182 0 -9 3 -28 7 -41 4 -17 3 -22 -6 -17 -21 13 -82 -15 -102 -48 -23
-38 -24 -58 -3 -97 21 -42 75 -64 120 -49 19 6 38 18 43 27 7 13 16 8 49 -29
23 -24 57 -53 77 -64 24 -13 33 -23 29 -34 -28 -66 -28 -69 -11 -105 23 -48
74 -71 122 -55 43 14 65 48 65 100 0 40 0 40 38 40 33 0 51 -11 135 -81 87
-72 97 -84 93 -108 -20 -96 -37 -224 -32 -236 9 -24 55 -19 61 8 7 31 45 262
45 274 0 5 -37 41 -82 79 l-83 69 57 9 57 8 79 -66 79 -65 13 -78 c13 -86 24
-113 44 -113 34 0 39 27 21 129 l-18 100 -63 51 c-35 29 -66 56 -69 60 -3 5
16 15 41 24 l46 16 52 -44 c51 -43 51 -43 147 -49 100 -5 119 0 119 34 0 22
-15 26 -117 35 -68 5 -86 10 -104 30 l-22 24 66 0 c148 0 406 48 567 105 237
85 375 202 441 373 26 69 31 214 10 308 l-13 61 -43 -5 -43 -4 13 38 c24 67
14 255 -15 287 -4 5 -97 -6 -205 -23 -205 -33 -214 -33 -215 9 0 7 -17 45 -37
83 -70 133 -214 243 -356 272 l-62 13 -5 199 -5 199 -111 0 c-105 0 -114 -2
-172 -32 l-61 -31 -3 51 -3 52 -95 2 c-58 1 -116 -4 -148 -12z m522 -262 c3
-93 6 -284 7 -425 l1 -258 -34 -38 c-18 -22 -76 -87 -128 -145 l-95 -106 -6
42 c-3 23 -9 256 -13 518 l-7 477 32 26 c57 48 122 73 200 75 l36 1 7 -167z
m910 -624 c14 -71 -4 -177 -36 -222 -11 -15 -109 -33 -542 -103 -291 -46 -531
-84 -533 -84 -8 0 270 302 281 306 8 2 757 125 817 133 4 1 9 -13 13 -30z"/>
<path d="M2247 1863 c-4 -3 -7 -120 -7 -260 l0 -253 -447 -2 -446 -3 -212
-460 -213 -460 1636 -3 c899 -1 1637 0 1639 2 4 4 -405 895 -420 914 -7 9
-109 12 -448 12 l-439 0 -2 258 -3 257 -316 3 c-173 1 -318 -1 -322 -5z m543
-418 l0 -315 181 -2 181 -3 -295 -241 -295 -242 -294 242 -294 241 183 3 183
2 0 315 0 315 225 0 225 0 0 -315z"/>
</g>
</svg>
