<?xml version="1.0" standalone="no"?>
<!DOCTYPE svg PUBLIC "-//W3C//DTD SVG 20010904//EN"
 "http://www.w3.org/TR/2001/REC-SVG-20010904/DTD/svg10.dtd">
<svg version="1.0" xmlns="http://www.w3.org/2000/svg"
 width="512.000000pt" height="512.000000pt" viewBox="0 0 512.000000 512.000000"
 preserveAspectRatio="xMidYMid meet">
<metadata>
Created by potrace 1.11, written by Peter Selinger 2001-2013
</metadata>
<g transform="translate(0.000000,512.000000) scale(0.100000,-0.100000)"
fill="#000000" stroke="none">
<path d="M2107 4564 c-503 -172 -906 -677 -1018 -1276 -26 -143 -36 -415 -20
-554 38 -322 153 -629 323 -861 21 -29 38 -55 38 -58 0 -3 -16 -5 -36 -5 -31
0 -58 16 -164 95 -70 52 -137 95 -149 95 -28 0 -61 -34 -61 -63 0 -29 24 -51
171 -161 l116 -86 81 0 80 0 20 -63 c12 -34 24 -70 27 -79 7 -16 -2 -18 -96
-18 l-104 0 -147 -121 c-136 -112 -148 -124 -148 -155 0 -35 28 -64 61 -64 10
0 75 47 145 105 l128 105 117 0 117 0 55 -77 54 -78 -141 -5 -141 -5 -117
-229 c-65 -126 -118 -239 -118 -251 0 -46 71 -74 101 -39 8 8 59 102 114 207
l100 192 164 3 163 3 52 -40 c28 -21 76 -54 106 -72 30 -18 56 -33 58 -35 2
-1 -6 -17 -17 -35 -14 -23 -21 -51 -21 -87 0 -163 178 -248 302 -144 32 27 67
93 68 127 0 19 7 20 190 20 l190 0 0 -28 c0 -43 36 -104 78 -132 98 -64 224
-28 273 80 24 52 23 99 -1 154 -11 24 -20 45 -20 47 0 2 17 12 38 23 20 10 68
42 107 70 l70 51 147 0 147 0 121 -202 c67 -112 127 -206 134 -210 6 -4 23 -8
38 -8 28 0 58 31 58 60 0 8 -62 119 -138 245 l-138 230 -123 3 c-67 1 -121 6
-119 10 2 4 26 39 53 79 l50 72 126 1 127 0 126 -105 c70 -58 135 -105 144
-105 46 0 79 59 54 96 -4 6 -69 64 -145 128 l-138 116 -113 0 -113 0 27 78 28
77 91 5 91 5 135 98 c132 96 155 119 155 151 0 23 -37 56 -62 56 -13 0 -81
-43 -153 -95 -120 -88 -133 -95 -177 -95 l-47 0 66 98 c443 651 407 1573 -86
2184 -169 210 -412 386 -648 472 l-73 26 0 -1005 0 -1005 314 -2 314 -3 -500
-585 c-275 -322 -504 -586 -508 -588 -4 -1 -233 262 -510 585 l-503 588 319 5
319 5 3 994 c1 547 -1 998 -5 1002 -5 4 -39 -4 -76 -17z"/>
</g>
</svg>
