<?xml version="1.0" standalone="no"?>
<!DOCTYPE svg PUBLIC "-//W3C//DTD SVG 20010904//EN"
 "http://www.w3.org/TR/2001/REC-SVG-20010904/DTD/svg10.dtd">
<svg version="1.0" xmlns="http://www.w3.org/2000/svg"
 width="512.000000pt" height="512.000000pt" viewBox="0 0 512.000000 512.000000"
 preserveAspectRatio="xMidYMid meet">
<metadata>
Created by potrace 1.11, written by Peter Selinger 2001-2013
</metadata>
<g transform="translate(0.000000,512.000000) scale(0.100000,-0.100000)"
fill="#000000" stroke="none">
<path d="M1185 4288 c-3 -7 -4 -789 -3 -1738 l3 -1725 1013 -3 c760 -1 1019 1
1035 10 12 6 176 119 365 251 l342 240 -2 1486 -3 1486 -1373 3 c-1093 2
-1374 0 -1377 -10z m305 -198 c0 -17 -7 -20 -40 -20 l-40 0 0 -45 c0 -40 3
-45 23 -45 44 0 67 -36 67 -104 0 -63 -24 -86 -90 -86 -38 0 -50 4 -50 15 0
11 11 15 38 15 49 0 62 14 62 67 0 46 -17 63 -64 63 -26 0 -26 1 -26 80 l0 80
60 0 c53 0 60 -2 60 -20z m188 -128 l3 -142 24 0 c16 0 25 -6 25 -15 0 -12
-15 -15 -75 -15 -60 0 -75 3 -75 15 0 10 10 15 30 15 l30 0 0 125 0 125 -26
-10 c-33 -13 -34 -13 -34 9 0 12 11 22 33 29 62 20 62 21 65 -136z m482 121
c0 -16 -17 -88 -37 -160 -30 -105 -42 -133 -55 -133 -24 0 -23 5 17 141 19 65
35 123 35 129 0 5 -22 10 -50 10 -43 0 -50 3 -50 20 0 18 7 20 70 20 70 0 70
0 70 -27z m192 11 c22 -7 41 -67 34 -108 -3 -18 -27 -61 -52 -97 l-45 -64 56
-3 c40 -2 55 -7 55 -17 0 -12 -16 -15 -75 -15 -68 0 -75 2 -75 20 0 11 23 54
50 96 70 107 68 164 -7 164 -27 0 -33 4 -33 21 0 19 4 21 38 15 20 -4 45 -9
54 -12z m478 -11 c0 -16 -17 -88 -37 -160 -30 -105 -42 -133 -55 -133 -24 0
-23 5 17 141 19 65 35 123 35 129 0 5 -22 10 -50 10 -43 0 -50 3 -50 20 0 18
7 20 70 20 70 0 70 0 70 -27z m660 7 c0 -16 -7 -20 -38 -20 -45 0 -62 -14 -62
-51 0 -24 4 -27 47 -32 59 -6 73 -25 73 -96 0 -42 -5 -60 -22 -78 -27 -28 -77
-30 -109 -4 -20 16 -23 29 -27 114 -5 116 8 164 46 173 15 3 32 7 37 9 31 10
55 4 55 -15z m220 0 c0 -17 -7 -20 -40 -20 l-40 0 0 -45 c0 -40 3 -45 23 -45
44 0 67 -36 67 -104 0 -63 -24 -86 -90 -86 -38 0 -50 4 -50 15 0 11 11 15 38
15 49 0 62 14 62 67 0 46 -17 63 -64 63 -26 0 -26 1 -26 80 l0 80 60 0 c53 0
60 -2 60 -20z m-666 -12 c12 -17 16 -49 16 -132 0 -99 -2 -112 -22 -133 -30
-32 -81 -31 -114 2 -25 25 -26 29 -22 141 3 132 10 144 84 144 33 0 46 -5 58
-22z m-1554 -448 c0 -16 -7 -20 -38 -20 -45 0 -62 -14 -62 -51 0 -24 4 -27 47
-32 59 -6 73 -25 73 -96 0 -42 -5 -60 -22 -78 -27 -28 -77 -30 -109 -4 -20 16
-23 29 -27 114 -5 116 8 164 46 173 15 3 32 7 37 9 31 10 55 4 55 -15z m230 0
c0 -16 -7 -20 -34 -20 -65 0 -66 -1 -66 -121 0 -120 5 -129 69 -129 21 0 31
-5 31 -15 0 -24 -81 -20 -114 6 -25 20 -26 23 -26 133 0 123 6 141 55 155 55
17 85 13 85 -9z m430 0 c0 -16 -7 -20 -38 -20 -45 0 -62 -14 -62 -51 0 -24 4
-27 47 -32 59 -6 73 -25 73 -96 0 -42 -5 -60 -22 -78 -27 -28 -77 -30 -109 -4
-20 16 -23 29 -27 114 -5 116 8 164 46 173 15 3 32 7 37 9 31 10 55 4 55 -15z
m186 10 c27 0 44 -31 44 -80 0 -27 -4 -52 -10 -55 -6 -4 -4 -16 6 -31 21 -32
14 -112 -12 -131 -26 -19 -114 -17 -114 2 0 11 11 15 38 15 48 0 62 14 62 62
0 40 -19 58 -59 58 -35 0 -24 28 12 32 31 3 32 5 32 48 0 44 -1 45 -35 48 -40
4 -56 15 -45 32 5 7 19 10 37 6 17 -3 36 -6 44 -6z m484 -10 c0 -16 -7 -20
-38 -20 -45 0 -62 -14 -62 -51 0 -24 4 -27 47 -32 59 -6 73 -25 73 -96 0 -42
-5 -60 -22 -78 -27 -28 -77 -30 -109 -4 -20 16 -23 29 -27 114 -5 116 8 164
46 173 15 3 32 7 37 9 31 10 55 4 55 -15z m230 -7 c0 -16 -17 -88 -37 -160
-30 -105 -42 -133 -55 -133 -24 0 -23 5 17 141 19 65 35 123 35 129 0 5 -22
10 -50 10 -43 0 -50 3 -50 20 0 18 7 20 70 20 70 0 70 0 70 -27z m450 0 c0
-16 -17 -88 -37 -160 -30 -105 -42 -133 -55 -133 -24 0 -23 5 17 141 19 65 35
123 35 129 0 5 -22 10 -50 10 -43 0 -50 3 -50 20 0 18 7 20 70 20 70 0 70 0
70 -27z m182 11 c22 -7 41 -67 34 -108 -3 -18 -27 -61 -52 -97 l-45 -64 56 -3
c40 -2 55 -7 55 -17 0 -12 -16 -15 -75 -15 -68 0 -75 2 -75 20 0 11 23 54 50
96 70 107 68 164 -7 164 -27 0 -33 4 -33 21 0 19 4 21 38 15 20 -4 45 -9 54
-12z m-2182 -471 c0 -16 -17 -88 -37 -160 -30 -105 -42 -133 -55 -133 -24 0
-23 5 17 141 19 65 35 123 35 129 0 5 -22 10 -50 10 -43 0 -50 3 -50 20 0 18
7 20 70 20 70 0 70 0 70 -27z m178 -121 l3 -142 24 0 c16 0 25 -6 25 -15 0
-12 -15 -15 -75 -15 -60 0 -75 3 -75 15 0 10 10 15 30 15 l30 0 0 125 0 125
-26 -10 c-33 -13 -34 -13 -34 9 0 12 11 22 33 29 62 20 62 21 65 -136z m1784
132 c22 -7 41 -67 34 -108 -3 -18 -27 -61 -52 -97 l-45 -64 56 -3 c40 -2 55
-7 55 -17 0 -12 -16 -15 -75 -15 -68 0 -75 2 -75 20 0 11 23 54 50 96 70 107
68 164 -7 164 -27 0 -33 4 -33 21 0 19 4 21 38 15 20 -4 45 -9 54 -12z m266
-6 c3 -15 -5 -18 -52 -18 l-56 0 0 -49 0 -50 47 -3 c66 -4 70 -28 4 -28 l-51
0 0 -60 0 -60 55 0 c42 0 55 -3 55 -15 0 -12 -15 -15 -75 -15 l-75 0 0 160 0
161 72 -3 c60 -2 73 -6 76 -20z m-1067 -144 c140 -41 247 -159 267 -296 l7
-53 63 -3 62 -3 0 -294 0 -295 -500 0 -500 0 0 295 0 294 62 3 63 3 7 53 c31
213 259 357 469 296z m-1199 -310 c22 -7 41 -67 34 -108 -3 -18 -27 -61 -52
-97 l-45 -64 56 -3 c40 -2 55 -7 55 -17 0 -12 -16 -15 -75 -15 -68 0 -75 2
-75 20 0 11 23 54 50 96 70 107 68 164 -7 164 -27 0 -33 4 -33 21 0 19 4 21
38 15 20 -4 45 -9 54 -12z m2028 -4 c0 -17 -7 -20 -40 -20 l-40 0 0 -45 c0
-40 3 -45 23 -45 44 0 67 -36 67 -104 0 -63 -24 -86 -90 -86 -38 0 -50 4 -50
15 0 11 11 15 38 15 49 0 62 14 62 67 0 46 -17 63 -64 63 -26 0 -26 1 -26 80
l0 80 60 0 c53 0 60 -2 60 -20z m220 0 c0 -17 -7 -20 -40 -20 l-40 0 0 -45 c0
-40 3 -45 23 -45 44 0 67 -36 67 -104 0 -63 -24 -86 -90 -86 -38 0 -50 4 -50
15 0 11 11 15 38 15 49 0 62 14 62 67 0 46 -17 63 -64 63 -26 0 -26 1 -26 80
l0 80 60 0 c53 0 60 -2 60 -20z m-1996 -12 c12 -17 16 -49 16 -132 0 -99 -2
-112 -22 -133 -30 -32 -81 -31 -114 2 -25 25 -26 29 -22 141 3 132 10 144 84
144 33 0 46 -5 58 -22z m-214 -455 c0 -16 -17 -88 -37 -160 -30 -105 -42 -133
-55 -133 -24 0 -23 5 17 141 19 65 35 123 35 129 0 5 -22 10 -50 10 -43 0 -50
3 -50 20 0 18 7 20 70 20 70 0 70 0 70 -27z m182 11 c22 -7 41 -67 34 -108 -3
-18 -27 -61 -52 -97 l-45 -64 56 -3 c40 -2 55 -7 55 -17 0 -12 -16 -15 -75
-15 -68 0 -75 2 -75 20 0 11 23 54 50 96 70 107 68 164 -7 164 -27 0 -33 4
-33 21 0 19 4 21 38 15 20 -4 45 -9 54 -12z m1818 -11 c0 -16 -17 -88 -37
-160 -30 -105 -42 -133 -55 -133 -24 0 -23 5 17 141 19 65 35 123 35 129 0 5
-22 10 -50 10 -43 0 -50 3 -50 20 0 18 7 20 70 20 70 0 70 0 70 -27z m215 -6
c11 -16 15 -51 15 -133 0 -110 -1 -113 -26 -133 -32 -25 -104 -29 -104 -6 0 9
10 15 26 15 44 0 64 17 64 55 0 33 -2 35 -36 35 -54 0 -72 14 -79 64 -10 66 9
114 48 124 43 11 75 4 92 -21z m-2215 -454 c0 -16 -17 -88 -37 -160 -30 -105
-42 -133 -55 -133 -24 0 -23 5 17 141 19 65 35 123 35 129 0 5 -22 10 -50 10
-43 0 -50 3 -50 20 0 18 7 20 70 20 70 0 70 0 70 -27z m215 -6 c11 -16 15 -51
15 -133 0 -110 -1 -113 -26 -133 -32 -25 -104 -29 -104 -6 0 9 10 15 26 15 44
0 64 17 64 55 0 33 -2 35 -36 35 -54 0 -72 14 -79 64 -10 66 9 114 48 124 43
11 75 4 92 -21z m435 13 c0 -16 -7 -20 -38 -20 -45 0 -62 -14 -62 -51 0 -24 4
-27 47 -32 59 -6 73 -25 73 -96 0 -42 -5 -60 -22 -78 -27 -28 -77 -30 -109 -4
-20 16 -23 29 -27 114 -5 116 8 164 46 173 15 3 32 7 37 9 31 10 55 4 55 -15z
m202 4 c22 -7 41 -67 34 -108 -3 -18 -27 -61 -52 -97 l-45 -64 56 -3 c40 -2
55 -7 55 -17 0 -12 -16 -15 -75 -15 -68 0 -75 2 -75 20 0 11 23 54 50 96 70
107 68 164 -7 164 -27 0 -33 4 -33 21 0 19 4 21 38 15 20 -4 45 -9 54 -12z
m440 0 c22 -7 41 -67 34 -108 -3 -18 -27 -61 -52 -97 l-45 -64 56 -3 c40 -2
55 -7 55 -17 0 -12 -16 -15 -75 -15 -68 0 -75 2 -75 20 0 11 23 54 50 96 70
107 68 164 -7 164 -27 0 -33 4 -33 21 0 19 4 21 38 15 20 -4 45 -9 54 -12z
m216 -132 l3 -142 24 0 c16 0 25 -6 25 -15 0 -12 -15 -15 -75 -15 -60 0 -75 3
-75 15 0 10 10 15 30 15 l30 0 0 125 0 125 -26 -10 c-33 -13 -34 -13 -34 9 0
12 11 22 33 29 62 20 62 21 65 -136z m454 132 c22 -7 41 -67 34 -108 -3 -18
-27 -61 -52 -97 l-45 -64 56 -3 c40 -2 55 -7 55 -17 0 -12 -16 -15 -75 -15
-68 0 -75 2 -75 20 0 11 23 54 50 96 70 107 68 164 -7 164 -27 0 -33 4 -33 21
0 19 4 21 38 15 20 -4 45 -9 54 -12z m252 -16 c12 -17 16 -49 16 -132 0 -99
-2 -112 -22 -133 -30 -32 -81 -31 -114 2 -25 25 -26 29 -22 141 3 132 10 144
84 144 33 0 46 -5 58 -22z m-2252 -444 c22 -7 41 -67 34 -108 -3 -18 -27 -61
-52 -97 l-45 -64 56 -3 c40 -2 55 -7 55 -17 0 -12 -16 -15 -75 -15 -68 0 -75
2 -75 20 0 11 23 54 50 96 70 107 68 164 -7 164 -27 0 -33 4 -33 21 0 19 4 21
38 15 20 -4 45 -9 54 -12z m216 -132 l3 -142 24 0 c16 0 25 -6 25 -15 0 -12
-15 -15 -75 -15 -60 0 -75 3 -75 15 0 10 10 15 30 15 l30 0 0 125 0 125 -26
-10 c-33 -13 -34 -13 -34 9 0 12 11 22 33 29 62 20 62 21 65 -136z m444 132
c22 -7 41 -67 34 -108 -3 -18 -27 -61 -52 -97 l-45 -64 56 -3 c40 -2 55 -7 55
-17 0 -12 -16 -15 -75 -15 -68 0 -75 2 -75 20 0 11 23 54 50 96 70 107 68 164
-7 164 -27 0 -33 4 -33 21 0 19 4 21 38 15 20 -4 45 -9 54 -12z m670 0 c22 -7
41 -67 34 -108 -3 -18 -27 -61 -52 -97 l-45 -64 56 -3 c40 -2 55 -7 55 -17 0
-12 -16 -15 -75 -15 -68 0 -75 2 -75 20 0 11 23 54 50 96 70 107 68 164 -7
164 -27 0 -33 4 -33 21 0 19 4 21 38 15 20 -4 45 -9 54 -12z m216 -132 l3
-142 24 0 c16 0 25 -6 25 -15 0 -12 -15 -15 -75 -15 -60 0 -75 3 -75 15 0 10
10 15 30 15 l30 0 0 125 0 125 -26 -10 c-33 -13 -34 -13 -34 9 0 12 11 22 33
29 62 20 62 21 65 -136z m-624 116 c12 -17 16 -49 16 -132 0 -99 -2 -112 -22
-133 -30 -32 -81 -31 -114 2 -25 25 -26 29 -22 141 3 132 10 144 84 144 33 0
46 -5 58 -22z m1101 -7 c-19 -17 -243 -171 -249 -171 -3 0 -6 41 -6 90 l0 90
132 0 c74 0 128 -4 123 -9z"/>
<path d="M3390 3895 c0 -49 3 -57 25 -67 39 -18 57 4 53 66 l-3 51 -37 3 -38
3 0 -56z"/>
<path d="M2952 4058 c-7 -7 -12 -38 -12 -77 l0 -64 41 58 c22 31 39 65 37 74
-4 20 -49 26 -66 9z"/>
<path d="M2978 3914 c-21 -30 -38 -59 -38 -64 0 -18 39 -31 60 -20 17 9 20 21
20 75 0 36 -1 65 -2 65 -2 -1 -20 -26 -40 -56z"/>
<path d="M1390 3435 c0 -49 3 -57 25 -67 39 -18 57 4 53 66 l-3 51 -37 3 -38
3 0 -56z"/>
<path d="M2050 3435 c0 -49 3 -57 25 -67 39 -18 57 4 53 66 l-3 51 -37 3 -38
3 0 -56z"/>
<path d="M2720 3435 c0 -49 3 -57 25 -67 39 -18 57 4 53 66 l-3 51 -37 3 -38
3 0 -56z"/>
<path d="M2460 2863 c-62 -33 -109 -94 -117 -152 l-6 -41 223 0 223 0 -6 41
c-12 92 -118 179 -217 179 -33 0 -64 -9 -100 -27z"/>
<path d="M2493 2516 c-23 -20 -28 -32 -28 -69 0 -30 6 -52 19 -65 16 -18 17
-31 11 -101 l-7 -81 72 0 72 0 -7 81 c-6 70 -5 83 11 101 13 13 19 35 19 65 0
58 -36 93 -95 93 -27 0 -48 -8 -67 -24z"/>
<path d="M1622 2678 c-7 -7 -12 -38 -12 -77 l0 -64 41 58 c22 31 39 65 37 74
-4 20 -49 26 -66 9z"/>
<path d="M1648 2534 c-21 -30 -38 -59 -38 -64 0 -18 39 -31 60 -20 17 9 20 21
20 75 0 36 -1 65 -2 65 -2 -1 -20 -26 -40 -56z"/>
<path d="M3622 2218 c-15 -15 -16 -90 0 -106 7 -7 25 -12 40 -12 l29 0 -3 63
c-3 58 -5 62 -28 65 -14 2 -31 -3 -38 -10z"/>
<path d="M1622 1758 c-15 -15 -16 -90 0 -106 7 -7 25 -12 40 -12 l29 0 -3 63
c-3 58 -5 62 -28 65 -14 2 -31 -3 -38 -10z"/>
<path d="M2050 1595 c0 -49 3 -57 25 -67 39 -18 57 4 53 66 l-3 51 -37 3 -38
3 0 -56z"/>
<path d="M3622 1758 c-7 -7 -12 -38 -12 -77 l0 -64 41 58 c22 31 39 65 37 74
-4 20 -49 26 -66 9z"/>
<path d="M3648 1614 c-21 -30 -38 -59 -38 -64 0 -18 39 -31 60 -20 17 9 20 21
20 75 0 36 -1 65 -2 65 -2 -1 -20 -26 -40 -56z"/>
<path d="M2292 1298 c-7 -7 -12 -38 -12 -77 l0 -64 41 58 c22 31 39 65 37 74
-4 20 -49 26 -66 9z"/>
<path d="M2318 1154 c-21 -30 -38 -59 -38 -64 0 -18 39 -31 60 -20 17 9 20 21
20 75 0 36 -1 65 -2 65 -2 -1 -20 -26 -40 -56z"/>
</g>
</svg>
