<?xml version="1.0" standalone="no"?>
<!DOCTYPE svg PUBLIC "-//W3C//DTD SVG 20010904//EN"
 "http://www.w3.org/TR/2001/REC-SVG-20010904/DTD/svg10.dtd">
<svg version="1.0" xmlns="http://www.w3.org/2000/svg"
 width="512.000000pt" height="512.000000pt" viewBox="0 0 512.000000 512.000000"
 preserveAspectRatio="xMidYMid meet">
<metadata>
Created by potrace 1.11, written by Peter Selinger 2001-2013
</metadata>
<g transform="translate(0.000000,512.000000) scale(0.100000,-0.100000)"
fill="#000000" stroke="none">
<path d="M2541 4425 c-13 -60 -42 -200 -65 -310 l-42 -200 -194 -3 c-163 -2
-197 -5 -212 -19 -16 -15 -18 -38 -18 -283 0 -221 3 -270 14 -280 8 -6 13 -17
11 -23 -2 -7 -9 -31 -15 -54 l-11 -43 -283 0 c-261 0 -284 -1 -299 -18 -15
-16 -17 -51 -17 -284 0 -244 1 -266 18 -281 16 -15 47 -17 226 -17 193 0 207
-1 202 -17 -2 -10 -7 -33 -11 -50 l-7 -33 -497 0 c-470 0 -499 -1 -514 -18
-15 -16 -17 -51 -17 -284 0 -244 1 -266 18 -281 17 -15 64 -17 474 -17 l455 0
10 -50 10 -50 -167 0 c-149 0 -169 -2 -183 -18 -15 -16 -17 -51 -17 -284 0
-244 1 -266 18 -281 17 -16 110 -17 1134 -17 1067 0 1116 1 1131 18 15 16 17
51 17 284 0 244 -1 266 -18 281 -16 14 -44 17 -180 17 -177 0 -170 -3 -151 63
l10 37 453 0 c426 0 454 1 469 18 15 16 17 51 17 284 0 244 -1 266 -18 281
-17 15 -65 17 -479 17 l-460 0 -7 37 c-3 21 -6 44 -6 51 0 9 40 12 168 12 151
0 171 2 185 18 15 16 17 51 17 284 0 244 -1 266 -18 281 -16 15 -47 17 -230
17 -163 0 -212 3 -212 13 0 6 -3 29 -6 50 l-7 37 520 0 c491 0 521 1 536 18
15 16 17 51 17 284 0 244 -1 266 -18 281 -17 15 -68 17 -534 17 -486 0 -516
-1 -531 -18 -15 -16 -17 -46 -18 -203 l-1 -184 -32 185 c-95 540 -100 564
-107 539 -4 -13 -17 -90 -30 -171 l-22 -148 -162 0 -162 0 -36 173 c-21 94
-50 235 -65 312 l-28 140 -23 -110z m64 -564 c125 -544 223 -730 325 -621 37
39 63 110 106 280 19 74 36 139 37 145 2 5 20 -94 41 -220 149 -918 192 -1357
151 -1540 -35 -160 -107 -287 -224 -397 -43 -41 -105 -88 -138 -106 l-60 -31
25 51 c22 46 26 76 38 258 13 190 48 586 78 878 6 67 11 122 10 122 -1 0 -28
-48 -60 -107 -161 -302 -254 -455 -254 -415 0 4 -13 86 -29 182 -16 96 -44
285 -61 420 -17 134 -33 247 -36 249 -2 2 -4 -1 -4 -7 0 -24 -127 -879 -151
-1020 l-11 -64 -55 54 c-30 29 -86 90 -125 136 -39 45 -72 81 -74 80 -1 -2 8
-90 21 -196 13 -106 31 -263 40 -349 9 -89 24 -177 35 -204 10 -27 15 -49 11
-49 -12 0 -123 79 -159 114 -141 132 -235 343 -236 531 -1 77 8 124 57 325 31
129 79 323 105 430 l48 195 28 -80 c15 -44 38 -99 52 -121 40 -70 101 -79 138
-21 17 26 85 318 196 842 92 437 91 433 96 420 2 -5 19 -79 39 -164z m-310
-593 c-4 -24 -9 -46 -12 -50 -2 -5 -44 -8 -93 -8 l-89 0 -10 38 c-18 64 -21
62 100 62 l111 0 -7 -42z m304 -1184 c15 -54 47 -94 76 -94 29 0 70 46 126
140 23 39 43 69 45 68 1 -2 -4 -71 -12 -153 -7 -83 -20 -240 -27 -350 -15
-219 -24 -250 -88 -313 -44 -43 -94 -65 -159 -70 -107 -7 -213 76 -244 191 -7
29 -19 108 -25 177 -7 69 -15 145 -18 170 l-6 45 48 -42 c71 -63 126 -67 156
-12 5 10 22 102 39 206 46 288 40 272 60 168 10 -49 23 -109 29 -131z"/>
<path d="M827 3892 c-15 -16 -17 -51 -17 -284 0 -244 1 -266 18 -281 17 -15
68 -17 534 -17 486 0 516 1 531 18 15 16 17 51 17 284 0 244 -1 266 -18 281
-17 15 -68 17 -534 17 -486 0 -516 -1 -531 -18z"/>
<path d="M827 3192 c-15 -16 -17 -51 -17 -284 0 -244 1 -266 18 -281 16 -15
48 -17 234 -17 195 0 216 2 231 18 15 16 17 51 17 284 0 244 -1 266 -18 281
-16 15 -48 17 -234 17 -195 0 -216 -2 -231 -18z"/>
<path d="M3827 3192 c-15 -16 -17 -51 -17 -284 0 -244 1 -266 18 -281 16 -15
48 -17 234 -17 195 0 216 2 231 18 15 16 17 51 17 284 0 244 -1 266 -18 281
-16 15 -48 17 -234 17 -195 0 -216 -2 -231 -18z"/>
<path d="M827 1792 c-15 -16 -17 -51 -17 -284 0 -244 1 -266 18 -281 16 -15
48 -17 234 -17 195 0 216 2 231 18 15 16 17 51 17 284 0 244 -1 266 -18 281
-16 15 -48 17 -234 17 -195 0 -216 -2 -231 -18z"/>
<path d="M3827 1792 c-15 -16 -17 -51 -17 -284 0 -244 1 -266 18 -281 16 -15
48 -17 234 -17 195 0 216 2 231 18 15 16 17 51 17 284 0 244 -1 266 -18 281
-16 15 -48 17 -234 17 -195 0 -216 -2 -231 -18z"/>
</g>
</svg>
