<?xml version="1.0" standalone="no"?>
<!DOCTYPE svg PUBLIC "-//W3C//DTD SVG 20010904//EN"
 "http://www.w3.org/TR/2001/REC-SVG-20010904/DTD/svg10.dtd">
<svg version="1.0" xmlns="http://www.w3.org/2000/svg"
 width="512.000000pt" height="512.000000pt" viewBox="0 0 512.000000 512.000000"
 preserveAspectRatio="xMidYMid meet">
<metadata>
Created by potrace 1.11, written by Peter Selinger 2001-2013
</metadata>
<g transform="translate(0.000000,512.000000) scale(0.100000,-0.100000)"
fill="#000000" stroke="none">
<path d="M1194 4224 c4 -33 45 -509 91 -1058 l85 -999 81 -146 c330 -588 653
-1046 874 -1234 183 -156 295 -156 479 2 220 187 558 664 891 1256 l67 120 86
1052 c47 579 84 1055 81 1057 -2 2 -58 -9 -124 -25 -460 -112 -1005 -199
-1247 -199 -179 0 -493 43 -854 115 -165 34 -456 98 -498 111 -17 6 -18 1 -12
-52z m969 -667 c121 -60 236 -201 254 -311 7 -44 -8 -60 -42 -44 -12 5 -49 41
-81 80 -33 38 -87 94 -122 123 -172 143 -296 153 -627 50 -55 -17 140 77 205
99 117 40 149 45 246 43 83 -3 99 -6 167 -40z m1227 4 c77 -26 292 -127 225
-106 -257 80 -405 89 -514 29 -70 -38 -166 -121 -235 -202 -32 -39 -69 -75
-81 -80 -86 -40 -40 124 71 246 60 66 118 106 199 135 77 27 213 18 335 -22z
m-1418 -412 c79 -17 184 -72 267 -141 53 -44 70 -63 60 -68 -19 -11 -186 -37
-279 -45 -53 -5 -113 -1 -205 14 -71 11 -173 23 -226 27 l-97 7 47 40 c86 75
197 138 284 162 65 17 83 18 149 4z m1409 -18 c69 -27 173 -90 236 -144 l51
-44 -96 -7 c-54 -4 -155 -16 -227 -27 -92 -15 -152 -19 -205 -14 -93 8 -260
34 -279 45 -19 10 116 120 199 162 123 61 215 69 321 29z m-754 -463 c-3 -8
-6 -5 -6 6 -1 11 2 17 5 13 3 -3 4 -12 1 -19z m-152 -200 c0 -161 3 -201 18
-239 30 -78 86 -86 124 -16 16 28 18 60 18 235 l0 203 17 -68 c41 -160 88
-383 88 -416 0 -27 -7 -41 -26 -56 -15 -12 -33 -21 -40 -21 -20 0 -18 -6 22
-72 60 -99 57 -98 360 -98 l260 0 35 25 c45 34 132 134 237 275 98 132 115
151 82 95 -127 -217 -268 -410 -324 -445 -34 -21 -44 -21 -308 -18 -236 3
-277 5 -305 20 -40 22 -72 75 -93 152 l-17 61 -58 0 -59 0 -12 -49 c-20 -76
-56 -138 -94 -161 -32 -19 -55 -20 -308 -23 -264 -3 -274 -3 -308 18 -56 35
-194 224 -324 445 -33 56 -23 45 66 -75 107 -145 210 -265 254 -295 l36 -25
258 0 c296 0 294 0 350 84 49 75 53 86 27 86 -12 0 -34 12 -48 26 -22 23 -25
31 -19 72 5 39 88 472 90 472 1 0 1 -87 1 -192z m94 -748 l288 0 119 59 c96
49 112 54 84 30 -19 -16 -69 -51 -110 -77 l-75 -47 -153 -3 c-113 -3 -152 -7
-149 -15 3 -7 21 -49 41 -93 36 -81 36 -82 20 -125 -12 -34 -14 -66 -10 -139
7 -103 -2 -219 -36 -464 -13 -102 -24 -152 -29 -139 -21 58 -52 361 -54 534
-2 149 -6 191 -19 217 -16 31 -16 33 28 127 l45 95 -135 0 c-150 0 -169 5
-261 69 -119 82 -119 90 0 30 l118 -59 288 0z"/>
</g>
</svg>
