<?xml version="1.0" standalone="no"?>
<!DOCTYPE svg PUBLIC "-//W3C//DTD SVG 20010904//EN"
 "http://www.w3.org/TR/2001/REC-SVG-20010904/DTD/svg10.dtd">
<svg version="1.0" xmlns="http://www.w3.org/2000/svg"
 width="512.000000pt" height="512.000000pt" viewBox="0 0 512.000000 512.000000"
 preserveAspectRatio="xMidYMid meet">
<metadata>
Created by potrace 1.11, written by Peter Selinger 2001-2013
</metadata>
<g transform="translate(0.000000,512.000000) scale(0.100000,-0.100000)"
fill="#000000" stroke="none">
<path d="M810 2559 l0 -2081 93 4 c65 4 276 44 717 136 344 72 642 134 663
137 l37 7 0 -71 0 -71 995 0 995 0 0 1940 0 1940 -995 0 -995 0 0 -70 c0 -38
-3 -70 -6 -70 -4 0 -310 63 -681 140 -515 107 -692 140 -749 140 l-74 0 0
-2081z m3350 6 l0 -1785 -845 0 -845 0 0 186 0 186 23 -6 c121 -33 386 -31
542 4 281 63 475 170 680 375 209 209 318 410 381 705 26 119 26 391 0 510
-63 295 -172 496 -381 705 -205 205 -399 312 -680 375 -156 35 -421 37 -542 4
l-23 -6 0 266 0 266 845 0 845 0 0 -1785z m-2498 1535 c238 -49 443 -92 456
-95 l22 -5 0 -660 0 -660 -470 0 -470 0 0 755 c0 663 2 755 15 755 8 0 210
-40 447 -90z m1204 -477 c46 -46 139 -302 160 -438 l7 -47 -34 7 c-19 5 -128
8 -244 8 -115 0 -225 -3 -244 -8 l-34 -7 7 47 c21 136 114 392 160 438 14 14
35 17 111 17 76 0 97 -3 111 -17z m-355 -65 c-16 -35 -31 -70 -34 -78 -3 -8
-6 17 -6 57 -1 71 -1 72 27 76 15 2 30 5 34 6 4 0 -6 -27 -21 -61z m569 35
c48 -14 67 -27 146 -107 49 -50 109 -120 133 -156 42 -64 122 -223 136 -269 6
-21 5 -23 -11 -17 -26 11 -281 74 -325 81 l-36 5 -17 83 c-23 110 -72 268
-106 345 l-29 62 27 -6 c15 -3 52 -13 82 -21z m410 -220 c92 -75 196 -197 261
-305 40 -68 103 -208 93 -208 -3 0 -20 11 -37 24 -18 13 -70 44 -117 69 l-85
46 -24 68 c-33 94 -103 234 -162 321 -56 83 -48 81 71 -15z m-449 -320 c15
-15 36 -195 45 -375 l7 -148 -312 0 -311 0 0 264 0 265 53 4 c103 9 508 0 518
-10z m214 -33 c152 -34 275 -79 285 -104 16 -42 40 -195 47 -291 l6 -95 -211
0 -212 0 0 103 c0 93 -10 220 -26 355 -7 61 -14 59 111 32z m476 -189 c41 -27
93 -69 117 -93 38 -39 44 -53 52 -109 16 -108 26 -99 -105 -99 -113 0 -115 0
-115 23 -1 27 -26 237 -36 290 -4 22 -3 37 3 37 6 0 44 -22 84 -49z m-2569
-270 c28 -25 33 -36 33 -74 0 -74 -57 -121 -116 -96 -72 29 -79 147 -12 183
41 22 59 20 95 -13z m1924 -268 c-9 -177 -30 -361 -44 -375 -13 -13 -331 -23
-464 -13 l-108 7 0 264 0 264 311 0 312 0 -7 -147z m501 50 c-6 -91 -25 -206
-45 -278 -7 -27 -18 -33 -98 -61 -93 -33 -292 -80 -301 -71 -2 3 0 45 7 94 6
48 13 161 17 251 l6 162 210 0 210 0 -6 -97z m323 80 c0 -10 -5 -47 -10 -82
-8 -56 -14 -70 -52 -109 -42 -44 -181 -142 -201 -142 -6 0 -7 15 -3 38 10 52
35 262 36 290 0 22 2 22 115 22 103 0 115 -2 115 -17z m-1772 -700 l2 -583
-22 -5 c-45 -10 -896 -165 -907 -165 -8 0 -11 170 -11 640 l0 640 48 1 c26 0
220 13 432 29 212 15 401 27 420 26 l35 -1 3 -582z m1682 318 c-66 -161 -194
-333 -330 -444 -119 -96 -127 -98 -71 -15 59 87 129 227 162 321 l24 68 90 49
c50 27 102 58 115 69 14 11 28 20 32 21 4 0 -6 -31 -22 -69z m-325 -133 c-14
-45 -95 -205 -136 -268 -24 -36 -84 -106 -133 -156 -94 -94 -104 -100 -228
-128 l-27 -6 29 62 c34 77 83 235 106 345 l17 83 36 6 c50 8 279 64 305 74 33
14 38 12 31 -12z m-740 -91 c116 0 225 3 244 8 l34 7 -7 -47 c-21 -136 -114
-392 -160 -437 -14 -15 -35 -18 -111 -18 -76 0 -97 3 -111 18 -46 45 -139 301
-160 437 l-7 47 34 -7 c19 -5 129 -8 244 -8z m-219 -463 c-1 -1 -16 1 -33 3
l-33 5 0 72 0 71 33 -75 c19 -41 33 -76 33 -76z"/>
<path d="M1310 3425 l0 -645 365 0 365 0 0 570 c0 314 -1 570 -2 570 -2 0
-165 34 -363 75 -198 41 -361 75 -362 75 -2 0 -3 -290 -3 -645z"/>
<path d="M1615 2175 c-170 -13 -311 -24 -312 -24 -2 -1 -3 -239 -3 -531 0
-371 3 -530 11 -530 10 0 557 99 667 121 l52 10 0 490 0 489 -52 -1 c-29 -1
-192 -12 -363 -24z"/>
</g>
</svg>
