<?xml version="1.0" standalone="no"?>
<!DOCTYPE svg PUBLIC "-//W3C//DTD SVG 20010904//EN"
 "http://www.w3.org/TR/2001/REC-SVG-20010904/DTD/svg10.dtd">
<svg version="1.0" xmlns="http://www.w3.org/2000/svg"
 width="512.000000pt" height="512.000000pt" viewBox="0 0 512.000000 512.000000"
 preserveAspectRatio="xMidYMid meet">
<metadata>
Created by potrace 1.11, written by Peter Selinger 2001-2013
</metadata>
<g transform="translate(0.000000,512.000000) scale(0.100000,-0.100000)"
fill="#000000" stroke="none">
<path d="M1127 4173 c-3 -5 91 -422 207 -928 l212 -920 182 -3 183 -2 -1 392
c-2 421 1 446 51 528 18 30 23 32 33 18 6 -9 25 -36 42 -60 30 -42 100 -105
108 -97 2 2 -3 36 -11 74 -15 72 -12 180 7 229 12 32 99 77 207 108 112 32
314 32 426 0 109 -31 195 -76 208 -109 18 -48 21 -165 7 -235 -8 -38 -11 -68
-6 -68 16 0 89 73 120 121 17 27 35 46 40 43 13 -9 45 -75 58 -124 9 -32 12
-153 11 -432 l-2 -388 183 0 183 0 211 923 c116 507 209 925 207 930 -2 4
-647 7 -1433 7 -786 0 -1431 -3 -1433 -7z m966 -311 l269 -67 -93 -58 c-50
-32 -98 -56 -106 -53 -13 5 -328 220 -347 238 -16 13 -4 11 277 -60z m1202 59
c-6 -5 -86 -62 -179 -127 l-170 -117 -40 23 c-102 58 -150 94 -136 99 19 6
512 129 525 130 5 1 5 -2 0 -8z"/>
<path d="M1642 1632 c-138 -374 -252 -682 -252 -685 0 -4 236 -7 525 -7 l525
0 0 115 0 115 114 0 113 0 7 -61 c3 -34 6 -86 6 -115 l0 -54 525 0 525 0 -27
73 c-15 39 -129 347 -254 682 l-227 610 -298 3 -297 2 6 -135 6 -135 -81 0
-81 0 6 135 6 135 -297 0 -297 0 -253 -678z m999 286 c3 -10 24 -585 21 -590
-5 -12 -200 -10 -207 2 -6 9 13 555 20 578 3 8 29 12 85 12 44 0 80 -1 81 -2z"/>
</g>
</svg>
