<?xml version="1.0" standalone="no"?>
<!DOCTYPE svg PUBLIC "-//W3C//DTD SVG 20010904//EN"
 "http://www.w3.org/TR/2001/REC-SVG-20010904/DTD/svg10.dtd">
<svg version="1.0" xmlns="http://www.w3.org/2000/svg"
 width="512.000000pt" height="512.000000pt" viewBox="0 0 512.000000 512.000000"
 preserveAspectRatio="xMidYMid meet">
<metadata>
Created by potrace 1.11, written by Peter Selinger 2001-2013
</metadata>
<g transform="translate(0.000000,512.000000) scale(0.100000,-0.100000)"
fill="#000000" stroke="none">
<path d="M1260 2956 l0 -944 -285 -316 -285 -317 0 -84 0 -85 1870 0 1870 0 0
85 0 84 -300 333 -300 333 0 928 0 927 -1285 0 -1285 0 0 -944z m2408 -13 l-3
-798 -1122 -3 -1123 -2 0 800 0 800 1125 0 1125 0 -2 -797z m150 -994 l24 -29
-1282 0 -1282 0 24 29 23 30 1235 0 1235 0 23 -30z m114 -136 c15 -15 28 -30
28 -35 0 -4 -630 -8 -1400 -8 -770 0 -1400 3 -1400 7 0 4 12 20 27 35 l27 28
1345 0 1345 0 28 -27z m136 -154 l24 -29 -1532 0 -1532 0 24 29 23 30 1485 0
1485 0 23 -30z m-1206 -178 c26 -38 44 -72 41 -75 -8 -8 -678 -8 -686 0 -3 3
15 37 41 75 l47 68 255 0 255 0 47 -68z"/>
<path d="M1598 3520 c-19 -15 -21 -22 -12 -37 7 -11 23 -18 40 -18 24 0 30 5
32 27 5 39 -28 54 -60 28z"/>
<path d="M1758 3520 c-19 -15 -21 -22 -12 -37 7 -11 23 -18 40 -18 24 0 30 5
32 27 5 39 -28 54 -60 28z"/>
<path d="M1920 3522 c-20 -16 -21 -21 -11 -41 18 -33 65 -26 69 11 5 38 -28
54 -58 30z"/>
<path d="M2080 3522 c-20 -16 -21 -21 -11 -41 18 -33 65 -26 69 11 5 38 -28
54 -58 30z"/>
<path d="M2240 3520 c-28 -28 -11 -63 28 -58 21 2 28 9 30 30 5 39 -30 56 -58
28z"/>
<path d="M2400 3520 c-28 -28 -11 -63 28 -58 21 2 28 9 30 30 5 39 -30 56 -58
28z"/>
<path d="M2560 3520 c-28 -28 -11 -63 28 -58 21 2 28 9 30 30 5 39 -30 56 -58
28z"/>
<path d="M2720 3520 c-28 -28 -11 -63 28 -58 21 2 28 9 30 30 5 39 -30 56 -58
28z"/>
<path d="M2270 2386 c-6 -8 -10 -25 -8 -38 2 -18 9 -23 33 -23 24 0 31 5 33
23 4 25 -13 52 -33 52 -7 0 -18 -7 -25 -14z"/>
<path d="M2432 2388 c-7 -7 -12 -22 -12 -35 0 -31 47 -44 66 -19 27 38 -21 87
-54 54z"/>
<path d="M2592 2388 c-7 -7 -12 -22 -12 -35 0 -31 47 -44 66 -19 27 38 -21 87
-54 54z"/>
<path d="M2752 2388 c-7 -7 -12 -22 -12 -35 0 -31 47 -44 67 -18 17 24 16 30
-3 49 -19 19 -36 20 -52 4z"/>
<path d="M2912 2388 c-25 -25 -6 -68 30 -68 9 0 22 9 28 19 13 25 13 27 -6 45
-19 19 -36 20 -52 4z"/>
<path d="M3072 2388 c-25 -25 -6 -68 30 -68 9 0 22 9 28 19 13 25 13 27 -6 45
-19 19 -36 20 -52 4z"/>
<path d="M3232 2388 c-25 -25 -6 -68 30 -68 9 0 22 9 28 19 13 25 13 27 -6 45
-19 19 -36 20 -52 4z"/>
<path d="M3392 2388 c-25 -25 -6 -68 30 -68 9 0 22 9 28 19 13 25 13 27 -6 45
-19 19 -36 20 -52 4z"/>
</g>
</svg>
