<?xml version="1.0" standalone="no"?>
<!DOCTYPE svg PUBLIC "-//W3C//DTD SVG 20010904//EN"
 "http://www.w3.org/TR/2001/REC-SVG-20010904/DTD/svg10.dtd">
<svg version="1.0" xmlns="http://www.w3.org/2000/svg"
 width="512.000000pt" height="512.000000pt" viewBox="0 0 512.000000 512.000000"
 preserveAspectRatio="xMidYMid meet">
<metadata>
Created by potrace 1.11, written by Peter Selinger 2001-2013
</metadata>
<g transform="translate(0.000000,512.000000) scale(0.100000,-0.100000)"
fill="#000000" stroke="none">
<path d="M875 3678 c-3 -7 -4 -515 -3 -1128 l3 -1115 1688 -3 1687 -2 0 1130
0 1130 -1685 0 c-1339 0 -1687 -3 -1690 -12z m848 -826 l297 -294 -343 -336
c-188 -186 -388 -382 -445 -436 l-102 -100 0 874 0 874 148 -144 c81 -80 281
-277 445 -438z m1546 221 c-200 -196 -441 -433 -535 -526 l-172 -169 -531 522
c-292 287 -531 524 -531 526 0 2 480 4 1067 4 l1066 0 -364 -357z m726 -1381
c-5 -5 -885 857 -885 867 0 4 199 202 443 441 l442 435 3 -869 c1 -478 0 -871
-3 -874z m-1198 566 l236 230 404 -396 404 -397 -640 -3 c-353 -1 -928 -1
-1279 0 l-637 3 405 397 404 398 233 -231 233 -231 237 230z"/>
</g>
</svg>
