<?xml version="1.0" standalone="no"?>
<!DOCTYPE svg PUBLIC "-//W3C//DTD SVG 20010904//EN"
 "http://www.w3.org/TR/2001/REC-SVG-20010904/DTD/svg10.dtd">
<svg version="1.0" xmlns="http://www.w3.org/2000/svg"
 width="512.000000pt" height="512.000000pt" viewBox="0 0 512.000000 512.000000"
 preserveAspectRatio="xMidYMid meet">
<metadata>
Created by potrace 1.11, written by Peter Selinger 2001-2013
</metadata>
<g transform="translate(0.000000,512.000000) scale(0.100000,-0.100000)"
fill="#000000" stroke="none">
<path d="M2098 4059 l-457 -450 -120 17 c-67 10 -124 14 -128 11 -3 -4 -17
-78 -29 -165 l-22 -157 -236 -230 -236 -230 0 -1122 0 -1123 1690 0 1690 0 0
1122 0 1123 -141 141 -142 142 11 68 c5 38 9 70 8 71 -1 1 -46 9 -99 17 l-97
14 -611 601 c-336 331 -614 601 -617 601 -4 0 -213 -203 -464 -451z m872 -294
c219 -215 396 -392 394 -394 -3 -4 -1397 190 -1403 196 -7 5 593 592 603 590
4 -2 187 -178 406 -392z m-287 -454 c620 -87 1129 -160 1131 -162 4 -4 -204
-1492 -210 -1498 -5 -5 -2284 316 -2292 323 -3 4 41 342 98 751 99 706 106
745 125 745 11 0 527 -71 1148 -159z m-1421 -564 l-17 -119 -44 77 -43 77 58
59 c70 71 71 70 46 -94z m2698 48 c13 -14 34 -25 47 -25 13 0 23 -3 23 -7 0
-6 -140 -223 -144 -223 -1 0 7 63 17 140 11 77 23 140 27 140 4 0 17 -11 30
-25z m-2781 -636 c-23 -170 -41 -311 -38 -313 2 -3 245 -39 538 -80 294 -42
536 -77 538 -80 2 -2 -228 -189 -511 -415 -422 -336 -521 -411 -546 -411 l-30
0 0 883 0 882 46 -79 46 -79 -43 -308z m2821 -470 l0 -830 -36 3 c-29 2 -107
60 -474 353 -242 192 -437 351 -435 353 2 2 155 -17 340 -43 185 -26 338 -45
339 -43 1 1 28 188 60 413 l57 410 71 108 c39 59 72 107 74 107 2 0 4 -374 4
-831z m-1393 -53 c129 -18 241 -39 252 -47 11 -8 220 -174 465 -369 l444 -355
-598 -3 c-329 -1 -872 -1 -1206 0 l-607 3 504 402 c277 222 506 403 509 403 3
-1 110 -16 237 -34z"/>
<path d="M2932 3238 c-5 -7 -22 -37 -37 -67 -22 -44 -26 -62 -20 -97 6 -44 6
-44 -24 -44 -26 0 -31 5 -40 38 -18 66 -151 161 -151 107 0 -7 23 -33 50 -58
50 -45 69 -87 33 -72 -177 72 -347 78 -528 21 -112 -36 -201 -90 -286 -175
-119 -119 -175 -237 -186 -388 l-6 -83 29 5 c67 12 797 106 800 103 2 -3 -215
-68 -749 -226 l-47 -14 36 -68 c77 -147 236 -262 421 -304 233 -52 521 29 678
193 62 65 74 48 29 -40 -48 -97 -8 -119 44 -24 25 47 31 68 27 97 -4 30 -1 40
17 52 32 23 37 20 44 -22 5 -31 16 -47 65 -85 32 -26 65 -47 73 -47 32 0 21
28 -30 75 -43 39 -57 60 -65 94 -9 39 -7 46 12 67 13 13 26 24 30 24 4 0 10
-20 13 -44 4 -24 12 -49 19 -54 7 -6 55 -21 107 -35 73 -20 98 -23 107 -14 21
21 -1 37 -83 59 -43 11 -83 24 -87 28 -5 4 -14 33 -22 65 -12 53 -11 63 5 104
16 43 20 46 56 48 26 2 45 10 57 24 37 46 7 119 -48 119 -28 0 -28 -1 -43 82
-11 57 -10 58 19 87 32 32 37 65 14 98 -20 28 -60 37 -95 20 -27 -14 -30 -13
-64 22 -27 28 -39 52 -48 93 l-12 56 74 69 c70 66 83 93 44 93 -24 0 -175
-142 -170 -159 3 -9 7 -31 11 -48 l7 -33 -33 14 c-36 15 -44 26 -53 79 -6 32
-2 48 24 94 17 30 29 61 26 69 -7 17 -30 18 -44 2z"/>
</g>
</svg>
