<?xml version="1.0" standalone="no"?>
<!DOCTYPE svg PUBLIC "-//W3C//DTD SVG 20010904//EN"
 "http://www.w3.org/TR/2001/REC-SVG-20010904/DTD/svg10.dtd">
<svg version="1.0" xmlns="http://www.w3.org/2000/svg"
 width="512.000000pt" height="512.000000pt" viewBox="0 0 512.000000 512.000000"
 preserveAspectRatio="xMidYMid meet">
<metadata>
Created by potrace 1.11, written by Peter Selinger 2001-2013
</metadata>
<g transform="translate(0.000000,512.000000) scale(0.100000,-0.100000)"
fill="#000000" stroke="none">
<path d="M2098 4059 l-457 -450 -120 17 c-67 10 -124 14 -128 11 -3 -4 -17
-78 -29 -165 l-22 -157 -236 -230 -236 -230 0 -1122 0 -1123 1690 0 1690 0 0
1122 0 1123 -141 141 -142 142 11 68 c5 38 9 70 8 71 -1 1 -46 9 -99 17 l-97
14 -611 601 c-336 331 -614 601 -617 601 -4 0 -213 -203 -464 -451z m872 -294
c219 -215 396 -392 394 -394 -3 -4 -1397 190 -1403 196 -7 5 593 592 603 590
4 -2 187 -178 406 -392z m-287 -454 c620 -87 1129 -160 1131 -162 4 -4 -204
-1492 -210 -1498 -5 -5 -2284 316 -2292 323 -3 4 41 342 98 751 99 706 106
745 125 745 11 0 527 -71 1148 -159z m-1421 -564 l-17 -119 -44 77 -43 77 58
59 c70 71 71 70 46 -94z m2698 48 c13 -14 34 -25 47 -25 13 0 23 -3 23 -7 0
-6 -140 -223 -144 -223 -1 0 7 63 17 140 11 77 23 140 27 140 4 0 17 -11 30
-25z m-2781 -636 c-23 -170 -41 -311 -38 -313 2 -3 245 -39 538 -80 294 -42
536 -77 538 -80 2 -2 -228 -189 -511 -415 -422 -336 -521 -411 -546 -411 l-30
0 0 883 0 882 46 -79 46 -79 -43 -308z m2821 -470 l0 -830 -36 3 c-29 2 -107
60 -474 353 -242 192 -437 351 -435 353 2 2 155 -17 340 -43 185 -26 338 -45
339 -43 1 1 28 188 60 413 l57 410 71 108 c39 59 72 107 74 107 2 0 4 -374 4
-831z m-1393 -53 c129 -18 241 -39 252 -47 11 -8 220 -174 465 -369 l444 -355
-598 -3 c-329 -1 -872 -1 -1206 0 l-607 3 504 402 c277 222 506 403 509 403 3
-1 110 -16 237 -34z"/>
<path d="M2622 3258 c-6 -7 -13 -30 -16 -50 -3 -21 -8 -53 -11 -72 l-5 -33
-74 -6 c-139 -12 -271 -78 -362 -181 -47 -53 -114 -175 -114 -207 0 -28 -13
-30 -90 -18 -54 8 -74 8 -85 -1 -18 -15 -19 -54 -2 -68 11 -9 28 -13 125 -28
31 -5 32 -6 32 -56 0 -201 160 -421 352 -483 29 -10 57 -21 61 -25 4 -3 3 -39
-3 -79 -13 -80 -5 -101 35 -101 30 0 41 16 49 70 16 104 14 100 59 100 120 1
273 68 366 161 58 58 123 166 136 227 8 37 3 36 96 21 78 -12 99 -4 99 36 0
32 -16 42 -94 53 -37 6 -69 12 -70 14 -2 2 -8 43 -14 92 -13 104 -55 201 -121
283 -47 59 -151 131 -226 158 -27 10 -54 21 -58 25 -4 4 -3 39 3 79 9 55 9 75
0 86 -15 18 -54 19 -68 3z m-48 -280 c-13 -78 -11 -75 -63 -81 -109 -13 -229
-103 -266 -201 -17 -43 -17 -44 -58 -39 -69 8 -68 7 -51 55 47 133 168 245
304 282 30 8 74 15 97 15 42 1 42 1 37 -31z m188 -19 c120 -60 213 -185 238
-318 17 -92 15 -101 -22 -95 -77 13 -75 11 -82 61 -15 110 -91 214 -193 260
-38 18 -53 29 -49 40 3 8 6 30 6 49 0 44 19 45 102 3z m-215 -161 c-4 -29 -11
-54 -15 -56 -44 -14 -101 -53 -117 -80 -19 -31 -22 -32 -70 -26 -27 3 -52 8
-54 10 -10 9 13 56 50 98 42 47 99 83 154 97 58 14 58 13 52 -43z m165 3 c69
-44 112 -107 127 -186 l8 -45 -31 1 c-58 2 -79 13 -88 46 -8 32 -49 82 -81 99
-15 9 -17 18 -11 62 4 29 12 52 18 52 7 0 33 -13 58 -29z m-95 -175 c39 -34
39 -98 0 -132 -39 -33 -81 -31 -118 5 -20 20 -29 39 -29 61 0 22 9 41 29 61
37 36 79 38 118 5z m-419 -62 c18 -3 22 -11 22 -39 0 -100 91 -227 196 -274
l52 -24 -5 -41 c-9 -64 -12 -66 -69 -44 -151 58 -268 213 -281 376 l-6 62 34
-6 c19 -3 44 -7 57 -10z m176 -26 c22 -54 58 -107 84 -123 31 -19 32 -22 26
-70 -3 -27 -8 -52 -10 -54 -2 -2 -22 4 -45 14 -57 26 -125 106 -144 168 -23
79 -23 81 36 74 29 -4 52 -8 53 -9z m456 -65 c9 -9 -44 -95 -79 -125 -38 -33
-96 -62 -148 -73 -30 -6 -33 -4 -33 18 0 64 10 82 61 106 31 14 58 35 72 57
21 34 23 35 72 28 28 -3 52 -8 55 -11z m121 -13 c43 0 45 -21 10 -95 -36 -78
-116 -162 -189 -199 -59 -30 -151 -56 -199 -56 -31 0 -32 1 -27 33 13 76 11
74 61 81 110 15 214 91 260 193 18 38 29 53 40 49 8 -3 28 -6 44 -6z"/>
</g>
</svg>
