<?xml version="1.0" standalone="no"?>
<!DOCTYPE svg PUBLIC "-//W3C//DTD SVG 20010904//EN"
 "http://www.w3.org/TR/2001/REC-SVG-20010904/DTD/svg10.dtd">
<svg version="1.0" xmlns="http://www.w3.org/2000/svg"
 width="512.000000pt" height="512.000000pt" viewBox="0 0 512.000000 512.000000"
 preserveAspectRatio="xMidYMid meet">
<metadata>
Created by potrace 1.11, written by Peter Selinger 2001-2013
</metadata>
<g transform="translate(0.000000,512.000000) scale(0.100000,-0.100000)"
fill="#000000" stroke="none">
<path d="M2098 4059 l-457 -450 -120 17 c-67 10 -124 14 -128 11 -3 -4 -17
-78 -29 -165 l-22 -157 -236 -230 -236 -230 0 -1122 0 -1123 1690 0 1690 0 0
1122 0 1123 -141 141 -142 142 11 68 c5 38 9 70 8 71 -1 1 -46 9 -99 17 l-97
14 -611 601 c-336 331 -614 601 -617 601 -4 0 -213 -203 -464 -451z m872 -294
c219 -215 396 -392 394 -394 -3 -4 -1397 190 -1403 196 -7 5 593 592 603 590
4 -2 187 -178 406 -392z m-287 -454 c620 -87 1129 -160 1131 -162 4 -4 -204
-1492 -210 -1498 -5 -5 -2284 316 -2292 323 -3 4 41 342 98 751 99 706 106
745 125 745 11 0 527 -71 1148 -159z m-1421 -564 l-17 -119 -44 77 -43 77 58
59 c70 71 71 70 46 -94z m2698 48 c13 -14 34 -25 47 -25 13 0 23 -3 23 -7 0
-6 -140 -223 -144 -223 -1 0 7 63 17 140 11 77 23 140 27 140 4 0 17 -11 30
-25z m-2781 -636 c-23 -170 -41 -311 -38 -313 2 -3 245 -39 538 -80 294 -42
536 -77 538 -80 2 -2 -228 -189 -511 -415 -422 -336 -521 -411 -546 -411 l-30
0 0 883 0 882 46 -79 46 -79 -43 -308z m2821 -470 l0 -830 -36 3 c-29 2 -107
60 -474 353 -242 192 -437 351 -435 353 2 2 155 -17 340 -43 185 -26 338 -45
339 -43 1 1 28 188 60 413 l57 410 71 108 c39 59 72 107 74 107 2 0 4 -374 4
-831z m-1393 -53 c129 -18 241 -39 252 -47 11 -8 220 -174 465 -369 l444 -355
-598 -3 c-329 -1 -872 -1 -1206 0 l-607 3 504 402 c277 222 506 403 509 403 3
-1 110 -16 237 -34z"/>
<path d="M1606 2738 c-27 -194 -51 -358 -53 -365 -4 -11 8 -15 88 -28 l36 -5
27 197 c20 148 31 201 43 210 17 13 83 8 116 -9 23 -12 22 -46 -8 -248 -13
-90 -23 -165 -22 -167 2 -1 29 -6 61 -11 41 -7 59 -6 61 2 2 6 16 98 31 205
30 220 27 248 -30 299 -35 31 -106 52 -172 52 -34 0 -35 1 -29 33 14 87 25
170 23 172 -2 2 -30 6 -63 10 l-60 6 -49 -353z"/>
<path d="M2165 2903 c-14 -87 -11 -83 -60 -77 -48 7 -45 11 -59 -73 -5 -31 -4
-32 39 -39 54 -8 52 0 27 -189 -10 -75 -15 -145 -11 -165 10 -47 56 -86 110
-93 24 -4 65 -9 90 -13 l46 -6 7 53 c8 62 6 64 -75 73 -41 5 -59 11 -59 21 0
20 40 288 43 292 2 1 30 -2 63 -7 32 -6 64 -10 70 -10 15 0 27 102 13 111 -7
4 -38 10 -71 13 l-60 7 6 59 c8 66 13 60 -76 75 -36 6 -37 5 -43 -32z"/>
<path d="M2575 2844 c-14 -86 -10 -82 -60 -74 l-45 7 -5 -36 c-4 -20 -8 -46
-11 -58 -3 -19 2 -22 46 -28 44 -6 49 -9 45 -28 -13 -60 -35 -244 -35 -291 0
-60 21 -96 67 -114 28 -11 173 -35 178 -30 2 2 6 28 10 59 l7 56 -63 7 c-35 3
-67 10 -72 15 -8 8 27 289 37 299 3 2 35 -1 72 -7 38 -6 69 -9 70 -8 1 1 5 27
8 58 l7 57 -71 7 -71 7 6 64 c7 63 7 64 -16 64 -13 0 -41 3 -61 6 -36 6 -37 6
-43 -32z"/>
<path d="M2855 2688 c-3 -18 -23 -163 -45 -323 -22 -159 -43 -302 -46 -317 -6
-29 -1 -32 77 -42 l45 -7 11 81 c6 45 13 83 15 85 2 2 35 -1 74 -6 167 -25
212 26 245 278 17 135 -1 192 -72 228 -22 12 -249 54 -291 55 -4 0 -10 -15
-13 -32z m228 -117 c13 -5 27 -15 29 -23 6 -15 -27 -251 -37 -269 -8 -11 -131
-7 -143 6 -6 6 26 258 35 282 6 15 79 18 116 4z"/>
<path d="M3393 2578 c-5 -35 -7 -66 -4 -69 3 -4 34 -10 68 -14 69 -8 66 -10
78 81 l6 51 -53 6 c-89 11 -85 14 -95 -55z"/>
<path d="M3347 2243 c-3 -4 -8 -36 -12 -70 l-7 -61 29 -5 c15 -3 46 -9 69 -12
l41 -6 6 53 c11 88 12 86 -40 93 -27 4 -55 9 -65 11 -9 3 -18 1 -21 -3z"/>
</g>
</svg>
