<?xml version="1.0" standalone="no"?>
<!DOCTYPE svg PUBLIC "-//W3C//DTD SVG 20010904//EN"
 "http://www.w3.org/TR/2001/REC-SVG-20010904/DTD/svg10.dtd">
<svg version="1.0" xmlns="http://www.w3.org/2000/svg"
 width="512.000000pt" height="512.000000pt" viewBox="0 0 512.000000 512.000000"
 preserveAspectRatio="xMidYMid meet">
<metadata>
Created by potrace 1.11, written by Peter Selinger 2001-2013
</metadata>
<g transform="translate(0.000000,512.000000) scale(0.100000,-0.100000)"
fill="#000000" stroke="none">
<path d="M2098 4059 l-457 -450 -120 17 c-67 10 -124 14 -128 11 -3 -4 -17
-78 -29 -165 l-22 -157 -236 -230 -236 -230 0 -1122 0 -1123 1690 0 1690 0 0
1122 0 1123 -141 141 -142 142 11 68 c5 38 9 70 8 71 -1 1 -46 9 -99 17 l-97
14 -611 601 c-336 331 -614 601 -617 601 -4 0 -213 -203 -464 -451z m872 -294
c219 -215 396 -392 394 -394 -3 -4 -1397 190 -1403 196 -7 5 593 592 603 590
4 -2 187 -178 406 -392z m-287 -454 c620 -87 1129 -160 1131 -162 4 -4 -204
-1492 -210 -1498 -3 -3 -1424 193 -1488 205 -16 4 -24 9 -19 13 6 3 27 39 47
79 l36 72 52 0 c38 0 62 -7 93 -27 40 -25 42 -29 38 -63 -4 -30 -1 -41 18 -59
12 -11 33 -21 46 -21 26 0 63 32 63 55 0 12 14 15 70 15 55 0 70 -3 70 -15 0
-21 40 -55 65 -55 12 0 32 10 44 21 19 18 22 29 18 59 -4 34 -2 38 38 63 30
19 55 27 88 27 l45 0 44 -75 c45 -78 60 -92 77 -71 7 9 -4 36 -40 99 l-51 87
-44 0 -45 0 21 30 c18 25 28 30 63 30 35 0 51 -7 91 -40 27 -23 54 -39 60 -37
23 8 9 35 -37 75 -41 36 -55 42 -92 42 l-44 0 10 30 c9 25 17 30 42 30 20 0
48 14 84 40 84 64 64 100 -22 39 -24 -17 -50 -29 -59 -27 -14 2 -12 9 10 42
58 85 104 245 104 362 0 132 -56 298 -135 400 -65 83 -171 163 -237 179 l-28
7 0 -361 0 -360 109 -3 109 -3 -175 -205 c-96 -113 -178 -205 -183 -205 -5 0
-87 92 -183 205 l-175 205 111 5 112 5 3 359 2 359 -32 -7 c-40 -8 -120 -56
-168 -100 -197 -181 -261 -471 -161 -731 15 -39 39 -88 54 -110 22 -32 24 -41
12 -43 -8 -2 -32 10 -52 27 -42 35 -73 40 -73 14 1 -25 98 -93 131 -93 21 0
29 -7 38 -30 l10 -30 -41 0 c-33 0 -50 -8 -89 -41 -27 -22 -49 -47 -49 -54 0
-30 24 -25 70 14 39 33 56 41 89 41 33 0 43 -5 61 -30 l21 -30 -50 0 -51 0
-44 -89 c-35 -68 -42 -91 -33 -100 9 -10 4 -11 -23 -6 -19 3 -192 28 -383 54
-192 27 -351 52 -355 55 -3 4 41 342 98 751 99 706 106 745 125 745 11 0 527
-71 1148 -159z m-1421 -564 l-17 -119 -44 77 -43 77 58 59 c70 71 71 70 46
-94z m2698 48 c13 -14 34 -25 47 -25 13 0 23 -3 23 -7 0 -6 -140 -223 -144
-223 -1 0 7 63 17 140 11 77 23 140 27 140 4 0 17 -11 30 -25z m-2781 -636
c-23 -170 -41 -311 -38 -313 2 -3 245 -39 538 -80 294 -42 536 -77 538 -80 2
-2 -228 -189 -511 -415 -422 -336 -521 -411 -546 -411 l-30 0 0 883 0 882 46
-79 46 -79 -43 -308z m2821 -470 l0 -830 -36 3 c-29 2 -107 60 -474 353 -242
192 -437 351 -435 353 2 2 155 -17 340 -43 185 -26 338 -45 339 -43 1 1 28
188 60 413 l57 410 71 108 c39 59 72 107 74 107 2 0 4 -374 4 -831z m-1393
-53 c129 -18 241 -39 252 -47 11 -8 220 -174 465 -369 l444 -355 -598 -3
c-329 -1 -872 -1 -1206 0 l-607 3 504 402 c277 222 506 403 509 403 3 -1 110
-16 237 -34z"/>
</g>
</svg>
