<?xml version="1.0" standalone="no"?>
<!DOCTYPE svg PUBLIC "-//W3C//DTD SVG 20010904//EN"
 "http://www.w3.org/TR/2001/REC-SVG-20010904/DTD/svg10.dtd">
<svg version="1.0" xmlns="http://www.w3.org/2000/svg"
 width="512.000000pt" height="512.000000pt" viewBox="0 0 512.000000 512.000000"
 preserveAspectRatio="xMidYMid meet">
<metadata>
Created by potrace 1.11, written by Peter Selinger 2001-2013
</metadata>
<g transform="translate(0.000000,512.000000) scale(0.100000,-0.100000)"
fill="#000000" stroke="none">
<path d="M2098 4059 l-457 -450 -120 17 c-67 10 -124 14 -128 11 -3 -4 -17
-78 -29 -165 l-22 -157 -236 -230 -236 -230 0 -1122 0 -1123 1690 0 1690 0 0
1122 0 1123 -141 141 -142 142 11 68 c5 38 9 70 8 71 -1 1 -46 9 -99 17 l-97
14 -611 601 c-336 331 -614 601 -617 601 -4 0 -213 -203 -464 -451z m872 -294
c219 -215 396 -392 394 -394 -3 -4 -1397 190 -1403 196 -7 5 593 592 603 590
4 -2 187 -178 406 -392z m-287 -454 c620 -87 1129 -160 1131 -162 4 -4 -204
-1492 -210 -1498 -5 -5 -2284 316 -2292 323 -3 4 41 342 98 751 99 706 106
745 125 745 11 0 527 -71 1148 -159z m-1421 -564 l-17 -119 -44 77 -43 77 58
59 c70 71 71 70 46 -94z m2698 48 c13 -14 34 -25 47 -25 13 0 23 -3 23 -7 0
-6 -140 -223 -144 -223 -1 0 7 63 17 140 11 77 23 140 27 140 4 0 17 -11 30
-25z m-2781 -636 c-23 -170 -41 -311 -38 -313 2 -3 245 -39 538 -80 294 -42
536 -77 538 -80 2 -2 -228 -189 -511 -415 -422 -336 -521 -411 -546 -411 l-30
0 0 883 0 882 46 -79 46 -79 -43 -308z m2821 -470 l0 -830 -36 3 c-29 2 -107
60 -474 353 -242 192 -437 351 -435 353 2 2 155 -17 340 -43 185 -26 338 -45
339 -43 1 1 28 188 60 413 l57 410 71 108 c39 59 72 107 74 107 2 0 4 -374 4
-831z m-1393 -53 c129 -18 241 -39 252 -47 11 -8 220 -174 465 -369 l444 -355
-598 -3 c-329 -1 -872 -1 -1206 0 l-607 3 504 402 c277 222 506 403 509 403 3
-1 110 -16 237 -34z"/>
<path d="M1825 3256 c-39 -46 -47 -63 -55 -118 -21 -137 -21 -128 5 -128 43 0
51 -8 47 -46 -4 -36 -5 -36 -42 -30 -36 6 -38 5 -43 -27 -40 -251 -118 -860
-111 -866 14 -12 1686 -243 1694 -234 4 4 33 195 64 423 31 228 59 427 62 441
5 24 1 27 -30 33 -33 6 -36 10 -36 43 0 35 0 35 40 31 22 -2 40 -1 40 2 0 3 6
44 14 92 l13 87 -26 5 c-14 3 -287 42 -606 86 -319 45 -580 82 -582 83 -1 1
-15 32 -31 68 l-30 65 -153 22 c-85 12 -162 22 -171 22 -9 0 -37 -24 -63 -54z
m132 -274 c6 -4 13 -23 15 -42 3 -31 6 -35 36 -38 32 -3 32 -4 26 -40 -4 -20
-7 -38 -8 -38 0 -1 -16 1 -34 3 -33 5 -34 7 -30 44 3 36 2 39 -22 39 -40 0
-51 12 -44 48 5 24 12 32 28 32 11 0 26 -4 33 -8z m141 -18 c20 -6 23 -12 20
-43 -3 -35 -2 -36 34 -39 36 -3 36 -4 31 -40 -3 -20 -7 -38 -7 -39 -1 -1 -18
0 -38 3 -35 6 -36 7 -31 45 5 38 5 39 -25 39 -37 0 -46 11 -37 50 7 31 14 34
53 24z m150 -20 c41 -11 25 -74 -19 -74 -33 0 -44 18 -35 55 7 26 15 29 54 19z
m-360 -29 c2 -2 0 -18 -3 -37 -6 -32 -9 -34 -41 -30 -31 4 -34 7 -34 36 0 18
3 35 6 39 6 5 64 -1 72 -8z m530 0 c2 -2 1 -17 -3 -34 -6 -27 -11 -31 -41 -31
-32 0 -34 2 -34 33 0 19 3 37 7 41 6 6 62 -1 71 -9z m133 -15 c17 0 18 -5 13
-39 -6 -39 -6 -40 27 -43 28 -2 34 -8 37 -28 4 -39 -11 -53 -47 -45 -30 6 -32
10 -29 43 3 35 1 37 -29 40 -30 3 -33 6 -33 36 0 37 8 49 28 41 7 -3 22 -5 33
-5z m165 -24 c1 -1 -1 -18 -3 -38 -5 -36 -6 -36 -42 -31 -20 3 -36 6 -37 7 -1
1 1 18 3 38 5 36 6 36 42 31 20 -3 36 -6 37 -7z m125 -16 c16 0 19 -7 19 -40
0 -35 3 -40 23 -40 37 0 48 -13 41 -48 -5 -24 -12 -32 -28 -32 -33 0 -44 12
-48 50 -3 32 -6 35 -36 38 -29 3 -33 6 -28 25 3 12 6 30 6 41 0 12 5 16 16 12
9 -3 24 -6 35 -6z m-511 -40 l0 -41 -37 7 c-21 4 -39 8 -41 9 -1 1 1 16 4 33
6 28 10 32 40 32 33 0 34 -1 34 -40z m678 -19 c-3 -35 -4 -36 -38 -33 -19 2
-36 5 -38 7 -2 2 0 18 3 37 6 32 8 34 41 30 34 -4 35 -6 32 -41z m-530 2 c-3
-37 -4 -38 -37 -35 -44 3 -44 4 -36 41 6 27 11 31 41 31 35 0 35 -1 32 -37z
m682 -10 c0 -42 -13 -55 -45 -47 -30 8 -45 -6 -45 -43 0 -18 -6 -23 -24 -23
-44 0 -52 8 -48 46 4 36 5 36 43 30 34 -5 39 -4 39 13 0 38 11 51 46 51 30 0
34 -3 34 -27z m-391 -2 c20 -13 5 -71 -19 -71 -35 0 -50 12 -50 39 0 15 3 31
7 34 9 10 45 8 62 -2z m534 -33 c-2 -35 0 -38 32 -44 32 -6 35 -9 35 -41 0
-33 -1 -34 -37 -31 -37 3 -38 4 -35 39 3 34 1 37 -28 43 -41 8 -50 2 -50 -35
0 -26 -3 -29 -34 -29 -41 0 -45 5 -39 48 5 33 6 33 44 27 38 -7 39 -6 39 22 0
38 7 45 45 41 28 -3 30 -6 28 -40z m-690 -162 c60 -25 117 -111 117 -178 0
-11 10 -18 28 -20 31 -4 31 8 7 -165 -11 -81 -22 -133 -29 -133 -30 1 -476 67
-479 71 -3 2 5 68 16 147 l20 142 33 0 c26 0 33 5 38 25 9 34 64 95 101 111
39 17 107 17 148 0z"/>
<path d="M2493 2525 c-36 -15 -73 -73 -51 -79 18 -6 165 -26 188 -26 14 0 20
7 20 23 0 32 -27 67 -66 83 -41 17 -50 17 -91 -1z"/>
<path d="M2508 2363 c-21 -5 -31 -35 -24 -71 4 -15 2 -41 -3 -58 -9 -30 -7
-32 21 -38 47 -9 48 -9 48 37 0 24 5 48 11 54 6 6 9 23 7 38 -3 29 -29 45 -60
38z"/>
</g>
</svg>
