<?xml version="1.0" standalone="no"?>
<!DOCTYPE svg PUBLIC "-//W3C//DTD SVG 20010904//EN"
 "http://www.w3.org/TR/2001/REC-SVG-20010904/DTD/svg10.dtd">
<svg version="1.0" xmlns="http://www.w3.org/2000/svg"
 width="512.000000pt" height="512.000000pt" viewBox="0 0 512.000000 512.000000"
 preserveAspectRatio="xMidYMid meet">
<metadata>
Created by potrace 1.11, written by Peter Selinger 2001-2013
</metadata>
<g transform="translate(0.000000,512.000000) scale(0.100000,-0.100000)"
fill="#000000" stroke="none">
<path d="M1917 4493 c-4 -3 -7 -174 -7 -378 l0 -371 -128 -21 c-686 -113
-1226 -648 -1342 -1330 -27 -157 -27 -389 0 -546 85 -501 410 -942 860 -1171
159 -81 314 -131 499 -162 l146 -24 1003 0 1003 0 47 51 c26 28 187 207 359
398 l312 346 -2 1605 -2 1605 -1371 3 c-754 1 -1374 -1 -1377 -5z m2493 -863
c0 -512 -2 -610 -14 -610 -20 0 -429 60 -433 63 -1 2 20 133 47 292 27 159 49
290 47 291 -1 1 -117 -58 -257 -132 -140 -73 -258 -134 -262 -134 -5 0 -66
117 -138 260 -72 143 -132 260 -135 260 -3 0 -62 -117 -132 -260 -69 -143
-131 -260 -137 -260 -6 1 -126 61 -266 135 -140 74 -255 133 -256 132 -1 -1
20 -132 48 -291 27 -158 47 -290 45 -292 -2 -2 -92 -17 -200 -32 l-197 -29 0
609 0 608 1120 0 1120 0 0 -610z m-2630 -164 c0 -2 -15 -37 -34 -77 -42 -91
-98 -272 -121 -394 -10 -49 -21 -94 -25 -98 -5 -5 -61 -20 -126 -33 -66 -13
-164 -37 -219 -53 -54 -17 -100 -29 -101 -28 -7 6 79 195 119 263 80 136 199
279 295 352 38 29 212 85 212 68z m126 -543 c-6 -6 -190 -22 -195 -17 -2 1 7
47 18 101 31 138 95 326 139 403 l37 65 3 -274 c1 -151 0 -276 -2 -278z m-653
280 c-61 -86 -156 -275 -199 -396 l-27 -78 -76 -39 c-42 -21 -107 -58 -144
-83 -81 -55 -81 -55 3 118 67 139 151 257 259 365 70 70 217 189 233 190 4 0
-18 -35 -49 -77z m1692 -308 c94 -38 174 -71 178 -75 5 -4 -22 -42 -59 -85
-54 -62 -69 -74 -79 -63 -43 46 -235 300 -224 296 8 -3 91 -36 184 -73z m719
-82 c-64 -81 -120 -148 -124 -148 -12 0 -133 146 -126 152 9 9 360 152 364
148 2 -2 -49 -70 -114 -152z m746 -240 l0 -278 -142 143 -143 143 140 135 c77
73 141 134 143 134 1 0 2 -125 2 -277z m-2500 -78 l0 -325 -135 0 -135 0 0 48
c0 140 39 564 53 578 4 5 81 13 200 23 16 1 17 -21 17 -324z m487 69 c-6 -6
-60 -57 -119 -114 l-108 -103 0 234 0 234 120 -120 c92 -92 117 -122 107 -131z
m-823 124 c-7 -51 -18 -189 -25 -305 l-13 -213 -249 0 -249 0 7 93 c8 103 27
229 51 328 l15 66 107 36 c59 20 148 45 197 56 192 43 173 50 159 -61z m-598
-176 c-8 -44 -21 -138 -27 -211 l-13 -131 -133 0 -133 0 0 43 c0 23 4 69 10
102 9 56 13 64 73 121 58 55 225 169 234 160 2 -2 -3 -40 -11 -84z m2170 -162
c19 -63 39 -132 45 -152 7 -28 15 -38 29 -38 18 0 20 -7 20 -80 l0 -80 -89 0
-89 0 -7 40 -7 40 -64 0 c-61 0 -64 -1 -70 -27 -3 -16 -7 -34 -10 -40 -2 -9
-29 -13 -89 -13 l-85 0 0 79 c0 68 3 79 18 83 14 4 29 41 63 157 l44 151 129
-2 129 -3 33 -115z m569 101 c128 -58 167 -239 78 -359 -51 -69 -140 -92 -353
-92 l-150 0 0 66 c0 57 3 67 20 71 18 5 20 14 20 105 0 91 -2 100 -20 105 -17
5 -20 14 -20 64 l0 59 193 0 c164 0 198 -3 232 -19z m695 -616 l0 -305 -180 0
c-103 0 -180 4 -180 9 0 5 -20 126 -45 267 -24 142 -42 261 -39 264 4 4 375
63 432 69 9 1 12 -66 12 -304z m-2011 264 c90 -13 165 -28 167 -34 2 -5 -18
-136 -45 -290 -27 -154 -47 -282 -45 -284 3 -3 80 36 401 206 l122 64 134
-267 134 -268 131 268 131 268 188 -98 c103 -54 202 -106 218 -116 l30 -18
-127 0 -128 0 0 -390 0 -390 -770 0 -770 0 0 691 0 692 33 -5 c17 -3 106 -16
196 -29z m-1450 -160 c6 -73 19 -167 27 -211 8 -44 13 -82 11 -84 -9 -9 -176
105 -234 160 -60 57 -64 65 -73 121 -6 33 -10 79 -10 103 l0 42 133 0 133 0
13 -131z m600 -81 c7 -117 18 -255 25 -306 l12 -94 -46 7 c-81 12 -213 46
-322 82 l-107 36 -15 66 c-24 99 -43 225 -51 329 l-7 92 249 0 249 0 13 -212z
m361 -113 l0 -325 -57 5 c-165 16 -161 15 -167 38 -10 42 -35 312 -42 460 l-7
147 137 0 136 0 0 -325z m-959 -195 l76 -39 27 -78 c43 -121 138 -310 199
-395 31 -43 53 -78 50 -78 -16 0 -166 122 -234 190 -108 108 -192 226 -259
365 -84 173 -84 173 -3 118 37 -25 102 -62 144 -83z m342 -131 c54 -16 137
-36 185 -44 131 -24 125 -19 145 -125 24 -123 80 -307 123 -399 19 -41 32 -76
30 -78 -8 -8 -160 38 -192 57 -41 26 -173 161 -224 230 -46 62 -132 207 -155
264 -9 20 -25 60 -35 87 l-20 50 22 -7 c13 -4 67 -20 121 -35z m575 -95 l42
-5 0 -275 c0 -151 -2 -274 -5 -274 -13 0 -80 142 -114 245 -34 103 -81 284
-81 314 0 9 57 7 158 -5z m2440 -62 c-17 -25 -340 -382 -344 -382 -2 0 -4 90
-4 200 l0 200 181 0 c172 0 180 -1 167 -18z"/>
<path d="M2967 2283 c-24 -101 -23 -103 18 -103 40 0 40 -4 11 124 l-12 51
-17 -72z"/>
<path d="M3530 2239 l0 -102 40 6 c62 8 70 20 70 97 0 79 -16 100 -73 100
l-37 0 0 -101z"/>
</g>
</svg>
