<?xml version="1.0" standalone="no"?>
<!DOCTYPE svg PUBLIC "-//W3C//DTD SVG 20010904//EN"
 "http://www.w3.org/TR/2001/REC-SVG-20010904/DTD/svg10.dtd">
<svg version="1.0" xmlns="http://www.w3.org/2000/svg"
 width="512.000000pt" height="512.000000pt" viewBox="0 0 512.000000 512.000000"
 preserveAspectRatio="xMidYMid meet">
<metadata>
Created by potrace 1.11, written by Peter Selinger 2001-2013
</metadata>
<g transform="translate(0.000000,512.000000) scale(0.100000,-0.100000)"
fill="#000000" stroke="none">
<path d="M2370 4106 c-102 -206 -189 -375 -195 -375 -5 -1 -176 87 -380 194
-203 106 -370 193 -371 192 -1 -1 31 -189 70 -417 63 -363 70 -416 57 -422 -9
-4 -196 -32 -416 -64 -220 -31 -402 -59 -405 -61 -2 -2 132 -137 299 -301
l303 -297 -305 -297 c-299 -291 -304 -296 -273 -302 17 -3 204 -31 416 -61
211 -31 387 -58 389 -61 5 -5 -14 -126 -88 -557 -41 -236 -46 -277 -32 -272 9
3 160 82 336 174 176 93 339 178 363 190 l43 22 188 -383 189 -383 187 380
c103 209 188 382 190 383 2 2 171 -85 376 -192 204 -108 374 -195 376 -192 3
2 -27 190 -66 417 -39 227 -70 413 -69 415 2 1 179 27 393 58 215 31 403 59
418 64 28 7 19 16 -273 301 -165 161 -300 297 -298 302 2 5 136 138 298 296
162 158 296 290 298 293 1 3 -183 33 -408 65 -226 33 -415 62 -420 65 -6 4 20
177 61 414 38 225 68 412 67 416 -2 4 -167 -80 -368 -186 -201 -106 -370 -193
-376 -194 -5 0 -93 169 -195 375 -101 205 -186 374 -189 375 -3 0 -89 -168
-190 -374z m-294 -1087 c137 -55 259 -105 272 -110 22 -8 19 -14 -75 -123
l-98 -115 -30 36 c-59 72 -325 413 -322 413 2 0 116 -45 253 -101z m1217 89
c-254 -326 -336 -428 -343 -428 -9 0 -190 209 -190 220 0 4 523 217 539 219 2
1 -1 -5 -6 -11z m-935 -760 c11 -35 41 -136 67 -224 45 -156 48 -162 76 -168
l29 -5 0 -111 0 -110 -129 0 -128 0 -9 53 -9 52 -95 0 -95 0 -9 -52 -9 -53
-124 0 -124 0 3 113 c3 107 4 112 25 115 12 2 24 11 27 20 3 9 28 96 56 192
28 96 55 190 61 208 l11 32 178 0 179 0 19 -62z m823 34 c76 -30 132 -81 166
-150 25 -51 28 -68 28 -157 0 -89 -3 -106 -28 -157 -49 -100 -133 -154 -279
-178 -35 -5 -156 -10 -270 -10 l-208 0 0 94 0 94 30 7 30 7 0 143 0 143 -30 7
-30 7 0 82 c0 46 3 86 7 90 4 4 125 6 268 4 242 -3 264 -5 316 -26z"/>
<path d="M2157 2220 c-8 -20 -47 -200 -47 -217 0 -9 16 -13 50 -13 41 0 50 3
49 18 -1 41 -47 226 -52 212z"/>
<path d="M2930 2075 l0 -145 40 0 c57 0 108 24 120 55 6 15 10 55 10 90 0 35
-4 75 -10 90 -12 31 -63 55 -120 55 l-40 0 0 -145z"/>
</g>
</svg>
