<?xml version="1.0" standalone="no"?>
<!DOCTYPE svg PUBLIC "-//W3C//DTD SVG 20010904//EN"
 "http://www.w3.org/TR/2001/REC-SVG-20010904/DTD/svg10.dtd">
<svg version="1.0" xmlns="http://www.w3.org/2000/svg"
 width="512.000000pt" height="512.000000pt" viewBox="0 0 512.000000 512.000000"
 preserveAspectRatio="xMidYMid meet">
<metadata>
Created by potrace 1.11, written by Peter Selinger 2001-2013
</metadata>
<g transform="translate(0.000000,512.000000) scale(0.100000,-0.100000)"
fill="#000000" stroke="none">
<path d="M3070 3896 l0 -76 43 0 c64 0 212 -34 302 -69 311 -120 546 -434 573
-766 l7 -90 73 -3 72 -3 0 68 c0 93 -31 233 -73 338 -153 375 -511 638 -911
671 l-86 7 0 -77z"/>
<path d="M3070 3515 l0 -75 43 0 c164 0 354 -124 439 -286 38 -73 68 -173 68
-232 l0 -33 73 3 72 3 -2 66 c-3 82 -41 204 -90 289 -57 98 -171 207 -270 258
-92 48 -211 82 -285 82 l-48 0 0 -75z"/>
<path d="M3070 3147 l0 -74 31 -7 c72 -14 123 -67 139 -141 6 -30 6 -30 79
-33 l74 -3 -6 55 c-14 134 -129 250 -270 271 l-47 7 0 -75z"/>
<path d="M1467 2910 c-75 -13 -142 -63 -180 -135 -21 -39 -22 -52 -25 -459 -3
-479 -3 -484 74 -560 78 -79 47 -76 834 -76 787 0 756 -3 834 76 77 76 77 81
74 560 -3 409 -4 420 -25 460 -12 22 -39 56 -59 74 -78 68 -37 65 -794 67
-377 0 -707 -3 -733 -7z m91 -190 c47 -44 15 -130 -48 -130 -38 0 -70 34 -70
75 0 41 32 75 70 75 14 0 36 -9 48 -20z m1232 -425 l0 -305 -310 0 -310 0 0
305 0 305 310 0 310 0 0 -305z"/>
</g>
</svg>
