<?xml version="1.0" standalone="no"?>
<!DOCTYPE svg PUBLIC "-//W3C//DTD SVG 20010904//EN"
 "http://www.w3.org/TR/2001/REC-SVG-20010904/DTD/svg10.dtd">
<svg version="1.0" xmlns="http://www.w3.org/2000/svg"
 width="512.000000pt" height="512.000000pt" viewBox="0 0 512.000000 512.000000"
 preserveAspectRatio="xMidYMid meet">
<metadata>
Created by potrace 1.11, written by Peter Selinger 2001-2013
</metadata>
<g transform="translate(0.000000,512.000000) scale(0.100000,-0.100000)"
fill="#000000" stroke="none">
<path d="M690 2690 l0 -1070 506 -2 507 -3 -194 -130 -194 -130 397 -3 c218
-1 578 -1 800 0 l403 3 -185 124 c-102 68 -189 127 -194 132 -6 5 132 9 322 9
l332 0 0 -135 0 -135 620 0 620 0 0 715 0 715 -445 0 -445 0 0 90 0 90 445 0
445 0 0 90 0 90 -445 0 -445 0 0 90 0 90 445 0 445 0 0 90 0 90 -445 0 -445 0
0 130 0 130 -1425 0 -1425 0 0 -1070z m2670 5 l0 -895 -1250 0 -1250 0 0 888
c0 489 3 892 7 895 3 4 566 7 1250 7 l1243 0 0 -895z m511 -834 c36 -37 38
-79 5 -118 -19 -22 -32 -28 -66 -28 -82 0 -119 88 -61 146 20 20 39 29 61 29
22 0 41 -9 61 -29z"/>
<path d="M1050 3331 c-16 -31 4 -63 37 -59 55 7 55 69 0 76 -18 2 -29 -3 -37
-17z"/>
<path d="M1232 3338 c-28 -28 -3 -72 39 -66 30 4 47 33 33 56 -14 21 -55 27
-72 10z"/>
<path d="M1412 3338 c-28 -28 -3 -72 39 -66 30 4 47 33 33 56 -14 21 -55 27
-72 10z"/>
<path d="M1592 3338 c-27 -27 -6 -68 35 -68 29 0 48 33 33 60 -12 22 -49 27
-68 8z"/>
<path d="M1771 3336 c-7 -8 -11 -25 -9 -38 2 -19 9 -23 38 -23 33 0 35 2 35
35 0 30 -4 35 -26 38 -14 2 -31 -4 -38 -12z"/>
<path d="M1944 3336 c-3 -8 -4 -25 -2 -38 2 -19 9 -23 38 -23 33 0 35 2 35 35
0 32 -3 35 -33 38 -21 2 -34 -2 -38 -12z"/>
<path d="M2120 3330 c-16 -30 4 -60 40 -60 23 0 31 5 36 25 4 15 1 32 -6 40
-18 21 -57 19 -70 -5z"/>
<path d="M2300 3331 c-16 -31 4 -63 37 -59 34 4 52 32 37 56 -16 26 -60 28
-74 3z"/>
<path d="M1808 2070 c-20 -15 -21 -21 -10 -44 22 -49 91 -25 78 28 -8 31 -40
39 -68 16z"/>
<path d="M1992 2074 c-38 -26 -22 -74 24 -74 45 0 58 50 19 76 -18 12 -24 11
-43 -2z"/>
<path d="M2172 2074 c-38 -26 -22 -74 25 -74 24 0 48 33 39 55 -10 26 -41 35
-64 19z"/>
<path d="M2358 2082 c-23 -5 -34 -48 -18 -67 31 -38 93 1 71 44 -12 22 -29 29
-53 23z"/>
<path d="M2528 2079 c-22 -12 -23 -52 -3 -69 8 -7 25 -10 39 -6 32 8 40 42 15
67 -22 22 -27 22 -51 8z"/>
<path d="M2708 2079 c-11 -6 -18 -22 -18 -39 0 -23 5 -31 25 -36 15 -4 32 -1
40 6 21 18 19 57 -4 70 -23 12 -22 12 -43 -1z"/>
<path d="M2892 2083 c-41 -16 -32 -83 11 -83 29 0 47 18 47 47 0 18 -28 46
-42 42 -2 0 -9 -3 -16 -6z"/>
<path d="M3058 2070 c-20 -15 -21 -21 -10 -44 22 -49 91 -25 78 28 -8 31 -40
39 -68 16z"/>
</g>
</svg>
