<?xml version="1.0" standalone="no"?>
<!DOCTYPE svg PUBLIC "-//W3C//DTD SVG 20010904//EN"
 "http://www.w3.org/TR/2001/REC-SVG-20010904/DTD/svg10.dtd">
<svg version="1.0" xmlns="http://www.w3.org/2000/svg"
 width="512.000000pt" height="512.000000pt" viewBox="0 0 512.000000 512.000000"
 preserveAspectRatio="xMidYMid meet">
<metadata>
Created by potrace 1.11, written by Peter Selinger 2001-2013
</metadata>
<g transform="translate(0.000000,512.000000) scale(0.100000,-0.100000)"
fill="#000000" stroke="none">
<path d="M1396 3628 c-223 -42 -425 -272 -426 -483 l0 -41 -80 -12 c-121 -17
-216 -65 -304 -154 -111 -111 -156 -221 -156 -378 0 -157 45 -267 156 -378 88
-89 183 -137 304 -154 l80 -12 0 -41 c1 -167 136 -363 304 -441 151 -69 311
-69 462 1 169 78 303 274 304 443 l0 42 85 0 85 0 0 170 0 170 1153 0 1152 0
89 100 88 100 -88 100 c-72 81 -94 100 -116 100 -20 0 -28 5 -28 18 0 28 -10
33 -34 17 -31 -22 -46 -18 -46 11 0 21 4 25 20 21 17 -4 20 0 20 33 0 33 -3
37 -20 33 -16 -4 -20 0 -20 21 0 29 15 33 46 11 12 -8 24 -11 28 -8 3 3 6 37
6 75 l0 68 -210 0 -211 0 3 -72 c3 -71 19 -101 33 -59 14 44 25 18 25 -58 0
-85 -5 -111 -24 -111 -19 0 -42 70 -61 188 l-18 112 -62 0 -62 0 -18 -122
c-10 -68 -24 -130 -32 -139 -7 -8 -13 -21 -13 -27 0 -7 -7 -12 -15 -12 -8 0
-15 6 -15 14 0 30 31 161 40 170 6 6 10 34 10 63 l0 53 -55 0 -55 0 0 -53 c0
-29 4 -57 8 -62 5 -6 3 -39 -3 -75 -10 -57 -12 -62 -20 -40 -5 14 -8 71 -7
128 l2 102 -135 0 -135 0 0 -54 c0 -30 5 -58 10 -61 14 -9 13 -158 -2 -173
-20 -20 -35 -14 -48 19 -11 27 -10 35 9 69 37 67 19 170 -34 190 -15 6 -64 10
-111 10 l-84 0 0 -37 -1 -38 -15 28 c-20 37 -50 47 -146 47 l-80 0 7 -128 c4
-71 4 -138 1 -150 l-7 -22 -360 0 -359 0 0 170 0 170 -85 0 -85 0 0 43 c-1
167 -135 365 -302 441 -113 53 -224 67 -342 44z m1674 -663 c6 -16 6 -34 0
-50 -15 -41 -30 -29 -30 25 0 54 15 66 30 25z m245 -35 c0 -26 -5 -45 -12 -47
-9 -3 -13 10 -13 47 0 37 4 50 13 48 7 -3 12 -22 12 -48z m638 -72 c5 -34 3
-38 -15 -38 -19 0 -20 4 -14 53 3 28 6 61 7 72 1 21 13 -25 22 -87z m-763 3
c0 -46 -5 -82 -12 -89 -18 -18 -113 -15 -128 3 -19 23 -4 45 29 45 44 0 81 37
88 87 9 67 23 39 23 -46z m407 35 c7 -27 15 -69 19 -93 6 -42 5 -43 -21 -43
-44 0 -55 20 -55 103 0 40 3 77 7 81 18 18 39 -2 50 -48z m636 32 l15 -23 10
25 c15 39 23 6 20 -80 -2 -56 -7 -75 -20 -84 -13 -8 -23 -8 -35 0 -15 9 -19
28 -21 98 -3 88 4 103 31 64z m-936 -160 c-3 -8 -6 -5 -6 6 -1 11 2 17 5 13 3
-3 4 -12 1 -19z m-2447 -30 c24 -13 58 -40 74 -61 29 -36 31 -45 31 -117 0
-72 -2 -81 -31 -117 -38 -48 -106 -83 -159 -83 -53 0 -121 35 -159 83 -29 36
-31 45 -31 117 0 72 2 81 31 117 38 48 106 83 159 83 23 0 60 -10 85 -22z"/>
</g>
</svg>
