<?xml version="1.0" standalone="no"?>
<!DOCTYPE svg PUBLIC "-//W3C//DTD SVG 20010904//EN"
 "http://www.w3.org/TR/2001/REC-SVG-20010904/DTD/svg10.dtd">
<svg version="1.0" xmlns="http://www.w3.org/2000/svg"
 width="512.000000pt" height="512.000000pt" viewBox="0 0 512.000000 512.000000"
 preserveAspectRatio="xMidYMid meet">
<metadata>
Created by potrace 1.11, written by Peter Selinger 2001-2013
</metadata>
<g transform="translate(0.000000,512.000000) scale(0.100000,-0.100000)"
fill="#000000" stroke="none">
<path d="M1396 3628 c-223 -42 -425 -272 -426 -483 l0 -41 -80 -12 c-121 -17
-216 -65 -304 -154 -111 -111 -156 -221 -156 -378 0 -157 45 -267 156 -378 88
-89 183 -137 304 -154 l80 -12 0 -41 c1 -167 136 -363 304 -441 151 -69 311
-69 462 1 169 78 303 274 304 443 l0 42 85 0 85 0 0 170 0 170 1153 0 1152 0
89 100 88 100 -88 100 c-72 81 -94 100 -116 100 -22 0 -28 5 -28 21 0 16 -4
19 -17 14 -38 -17 -70 -17 -86 0 -19 19 -23 95 -7 126 13 23 48 25 56 4 4 -8
17 -15 30 -15 23 0 24 3 24 60 0 57 -1 60 -32 76 -38 20 -100 14 -130 -13 -43
-38 -66 -142 -50 -225 10 -49 6 -58 -16 -36 -15 15 -16 164 -2 173 6 3 10 28
10 56 l0 49 -70 0 -70 0 0 -55 c0 -30 5 -55 10 -55 6 0 10 -33 10 -79 0 -44
-4 -83 -10 -86 -5 -3 -10 1 -10 9 0 20 -24 21 -40 1 -24 -29 -30 -14 -30 70 0
50 4 85 10 85 6 0 10 25 10 55 l0 55 -65 0 -65 0 0 -55 c0 -30 5 -55 10 -55
17 0 12 -149 -5 -166 -13 -14 -15 -12 -15 16 0 19 -9 40 -24 55 -21 21 -22 25
-8 39 24 24 22 118 -2 145 -17 19 -31 21 -118 21 l-98 0 0 -50 c0 -27 5 -50
10 -50 16 0 13 -159 -4 -176 -33 -33 -41 -18 -37 73 1 49 7 90 12 91 5 2 9 28
9 58 l0 54 -55 0 -55 0 0 -55 c0 -30 5 -55 10 -55 6 0 10 -28 10 -63 0 -74
-18 -109 -47 -91 -14 8 -19 26 -21 75 -2 35 2 73 8 84 6 12 10 39 8 61 l-3 39
-62 3 c-63 3 -63 3 -63 -24 l0 -27 -26 24 c-23 21 -36 24 -120 27 l-94 4 0
-56 c0 -31 5 -56 10 -56 16 0 13 -149 -4 -166 -12 -12 -89 -14 -475 -14 l-461
0 0 170 0 170 -85 0 -85 0 0 43 c-1 167 -135 365 -302 441 -113 53 -224 67
-342 44z m1892 -686 c3 -32 -11 -62 -29 -62 -5 0 -9 23 -9 51 0 43 3 50 18 47
11 -2 18 -14 20 -36z m522 13 c18 -21 4 -65 -20 -65 -16 0 -20 7 -20 33 0 48
16 61 40 32z m-410 -67 c0 -29 3 -70 6 -90 l7 -38 -67 0 c-45 0 -72 5 -82 14
-23 24 -16 34 28 41 54 10 88 43 88 90 0 19 5 35 10 35 6 0 10 -24 10 -52z
m410 -63 c18 -21 4 -65 -20 -65 -16 0 -20 7 -20 33 0 48 16 61 40 32z m-2960
-87 c24 -13 58 -40 74 -61 29 -36 31 -45 31 -117 0 -72 -2 -81 -31 -117 -38
-48 -106 -83 -159 -83 -53 0 -121 35 -159 83 -29 36 -31 45 -31 117 0 72 2 81
31 117 38 48 106 83 159 83 23 0 60 -10 85 -22z"/>
</g>
</svg>
