<?xml version="1.0" standalone="no"?>
<!DOCTYPE svg PUBLIC "-//W3C//DTD SVG 20010904//EN"
 "http://www.w3.org/TR/2001/REC-SVG-20010904/DTD/svg10.dtd">
<svg version="1.0" xmlns="http://www.w3.org/2000/svg"
 width="512.000000pt" height="512.000000pt" viewBox="0 0 512.000000 512.000000"
 preserveAspectRatio="xMidYMid meet">
<metadata>
Created by potrace 1.11, written by Peter Selinger 2001-2013
</metadata>
<g transform="translate(0.000000,512.000000) scale(0.100000,-0.100000)"
fill="#000000" stroke="none">
<path d="M1030 3205 l0 -944 -290 -322 -290 -322 0 -79 0 -78 931 -2 932 -3
18 -65 c10 -36 39 -144 65 -240 80 -304 123 -463 126 -465 2 -1 75 18 163 42
845 231 1322 354 1349 350 17 -3 45 -9 62 -12 28 -6 32 -4 42 24 6 17 17 33
24 35 7 2 86 23 176 46 89 24 162 47 162 52 0 5 -29 116 -65 246 -36 131 -65
245 -65 252 0 8 20 35 45 60 l45 46 -49 48 -49 48 14 51 c21 79 19 84 -26 92
-22 4 -42 11 -45 16 -5 7 104 426 264 1012 23 82 41 152 41 156 0 4 -19 12
-42 18 -74 18 -508 133 -625 165 -106 30 -112 33 -119 60 -5 27 -9 29 -32 22
-35 -11 -109 -11 -148 -1 -29 7 -32 6 -41 -25 -8 -25 -11 55 -12 315 l-1 347
-1280 0 -1280 0 0 -945z m2400 495 l0 -290 -25 0 -25 0 0 265 0 265 -1070 0
-1070 0 0 -750 0 -750 565 0 c336 0 565 -4 565 -9 0 -42 21 -41 -596 -41
l-584 0 0 800 0 800 1120 0 1120 0 0 -290z m-959 -32 c104 -52 180 -149 203
-260 l13 -63 61 -3 62 -3 0 -132 0 -132 -162 -162 -163 -163 -337 0 -338 0 0
295 0 294 62 3 61 3 13 63 c26 126 117 231 237 274 79 28 215 21 288 -14z
m1056 -329 c5 -16 11 -19 33 -14 25 5 29 3 35 -24 8 -37 48 -78 85 -86 16 -3
43 0 63 8 35 15 35 15 41 -14 4 -20 11 -29 25 -29 11 0 22 -8 25 -17 12 -40
256 -956 256 -962 0 -3 -43 37 -95 89 -85 85 -95 99 -101 139 -20 141 -135
257 -274 277 -36 5 -55 16 -97 57 -33 32 -48 54 -41 58 9 6 -28 166 -78 342
-5 16 -54 26 -54 10 0 -5 18 -75 40 -157 22 -82 39 -150 37 -152 -7 -7 -305
302 -311 323 -6 17 -2 22 16 25 16 2 24 11 26 29 3 25 11 28 170 71 92 25 173
46 180 47 8 0 16 -8 19 -20z m580 -29 c154 -41 162 -45 165 -69 2 -18 10 -27
26 -29 18 -3 22 -8 17 -25 -4 -12 -9 -30 -11 -39 -13 -48 50 -118 107 -118 19
0 21 -4 16 -30 -5 -21 -2 -32 9 -38 14 -8 4 -55 -81 -372 -95 -357 -113 -418
-114 -392 -1 9 -11 11 -35 7 -45 -9 -50 4 -50 150 -1 133 -15 179 -73 246 -22
25 -38 61 -57 132 -14 55 -26 109 -26 120 0 12 18 87 40 167 22 80 40 148 40
151 0 4 -11 9 -24 11 -23 5 -25 -1 -51 -101 -16 -58 -31 -109 -34 -113 -4 -4
-27 73 -53 172 -34 134 -43 180 -33 180 8 0 17 9 20 21 4 13 13 19 23 16 10
-2 90 -23 179 -47z m-934 -332 c10 9 104 -80 432 -408 l419 -419 -153 40
c-191 50 -201 54 -201 76 0 28 -56 118 -92 148 -119 101 -296 102 -415 1 l-32
-27 -208 57 c-114 31 -228 62 -253 68 -38 10 -45 17 -53 47 -5 18 -20 46 -34
61 -26 27 -26 28 -8 48 15 16 16 22 5 35 -12 14 4 34 120 150 121 121 136 133
150 120 15 -14 19 -13 35 5 18 20 18 20 47 -9 49 -50 111 -49 156 4 l27 32 22
-20 c17 -15 26 -17 36 -9z m120 -710 c312 -83 562 -155 555 -159 -7 -3 -86
-26 -175 -49 l-161 -43 -46 40 c-151 133 -402 71 -480 -117 -10 -25 -21 -51
-25 -59 -7 -13 -462 -141 -503 -141 -9 0 -19 8 -22 18 -7 21 -56 52 -84 52
-18 0 -20 4 -12 30 7 24 5 30 -11 35 -10 4 -19 11 -19 17 0 6 21 88 46 183 44
163 47 172 69 168 17 -4 24 1 29 21 6 23 10 25 34 20 15 -4 29 -7 32 -6 60 1
105 35 115 88 6 33 9 36 35 31 19 -4 30 -2 34 8 3 8 9 15 13 15 4 0 264 -68
576 -152z m160 90 c23 22 24 22 40 4 16 -17 16 -20 -6 -40 -22 -21 -24 -21
-87 -5 -36 9 -67 18 -69 20 -3 1 6 14 19 28 l24 25 28 -27 28 -27 23 22z m91
-68 c-5 -5 -20 -7 -32 -3 -22 5 -22 6 -6 25 16 17 19 17 33 3 10 -10 12 -18 5
-25z m-1230 -87 c-4 -16 -9 -31 -11 -35 -5 -10 -1253 -10 -1253 -1 0 4 12 20
27 35 l27 28 608 0 608 0 -6 -27z m-34 -127 c0 -3 -4 -16 -10 -30 l-10 -26
-672 0 -672 0 29 30 29 30 653 0 c359 0 653 -2 653 -4z m1666 -41 c4 -10 15
-12 35 -8 23 4 29 2 29 -12 0 -35 32 -84 67 -100 32 -15 55 -15 96 1 10 3 17
-3 21 -20 5 -19 13 -26 31 -26 20 0 26 -7 35 -42 6 -24 27 -101 46 -172 35
-131 37 -156 10 -156 -12 0 -14 -7 -10 -29 5 -26 3 -30 -24 -36 -17 -3 -42
-18 -57 -33 -23 -22 -26 -33 -23 -72 3 -25 8 -52 12 -61 5 -13 0 -18 -24 -23
-25 -4 -30 -10 -26 -24 5 -16 -63 -36 -661 -197 -368 -98 -674 -180 -680 -183
-7 -2 -13 4 -13 13 0 15 -6 17 -35 12 -34 -6 -35 -5 -35 26 -1 71 -88 120
-151 87 -17 -10 -20 -7 -26 20 -5 27 -9 31 -29 26 -26 -7 -20 -21 -84 214 -17
63 -33 123 -36 133 -4 12 0 17 17 17 19 0 21 4 16 35 -5 30 -3 35 14 35 58 0
107 61 96 117 -13 65 -13 68 10 71 13 2 23 12 25 24 3 19 67 39 663 199 363
98 666 178 673 178 7 1 15 -6 18 -14z m-653 -1 c12 -4 13 -12 7 -34 -4 -16 -6
-31 -3 -33 2 -3 -22 -13 -54 -22 -32 -9 -66 -19 -77 -22 -16 -4 -17 -1 -11 29
10 47 12 48 48 37 44 -13 45 -13 52 21 7 31 12 34 38 24z m75 -36 c-4 -30 -48
-39 -48 -10 0 24 8 32 32 32 14 0 19 -6 16 -22z m-1128 -67 c0 -5 -4 -21 -10
-35 l-10 -26 -710 0 c-390 0 -710 3 -710 6 0 3 10 19 23 34 l22 29 698 0 c426
1 697 -3 697 -8z m-46 -167 c-4 -14 -12 -44 -19 -67 l-12 -42 -92 -3 c-50 -1
-91 0 -91 3 0 4 21 35 46 71 l46 64 64 0 c64 0 64 0 58 -26z"/>
<path d="M2215 3531 c-67 -31 -125 -111 -125 -171 0 -19 6 -20 220 -20 l220 0
0 23 c-1 33 -34 99 -66 129 -62 58 -171 75 -249 39z"/>
<path d="M2243 3186 c-23 -20 -28 -32 -28 -69 0 -30 6 -52 19 -65 16 -18 17
-31 11 -101 l-7 -81 72 0 72 0 -7 81 c-6 70 -5 83 11 101 13 13 19 35 19 65 0
58 -36 93 -95 93 -27 0 -48 -8 -67 -24z"/>
<path d="M2789 2754 c-11 -13 5 -33 119 -147 125 -125 133 -131 149 -114 17
16 11 24 -112 147 -71 72 -133 130 -136 130 -4 0 -12 -7 -20 -16z"/>
<path d="M2485 2030 c-4 -12 -5 -23 -3 -25 10 -9 350 -95 358 -90 6 4 10 14
10 24 0 17 -38 29 -337 107 -16 4 -23 0 -28 -16z"/>
<path d="M3305 1751 c-92 -24 -190 -113 -219 -198 -80 -234 129 -469 363 -409
233 60 318 331 160 509 -71 81 -205 124 -304 98z m79 -133 c4 -15 10 -16 35
-7 45 16 83 -6 95 -53 8 -31 6 -41 -9 -58 -18 -20 -18 -20 5 -20 36 0 60 -28
60 -70 0 -42 -19 -64 -69 -81 -31 -11 -32 -13 -26 -50 6 -34 4 -39 -13 -39
-13 0 -24 10 -31 30 -13 38 -34 40 -25 3 11 -45 10 -47 -13 -51 -18 -3 -23 3
-29 33 -5 28 -10 35 -23 30 -9 -4 -28 -9 -42 -12 -24 -4 -27 -1 -33 31 -4 20
-4 41 0 47 12 20 -17 127 -36 132 -16 4 -33 53 -24 68 2 4 20 10 39 13 40 8
38 6 25 42 -8 21 -8 29 2 36 24 14 35 8 42 -22 3 -16 10 -30 16 -30 7 0 9 13
5 34 -6 28 -4 35 12 38 17 4 24 -5 37 -44z"/>
<path d="M3365 1503 c9 -36 10 -37 34 -23 12 6 21 20 21 30 0 16 -7 20 -31 20
-29 0 -31 -2 -24 -27z"/>
<path d="M3394 1425 c-7 -17 2 -45 14 -45 20 0 43 26 36 43 -8 21 -43 22 -50
2z"/>
<path d="M3968 1632 c-155 -43 -168 -48 -168 -69 0 -13 6 -23 13 -23 12 0 350
89 354 94 7 7 -11 46 -21 45 -6 -1 -86 -22 -178 -47z"/>
<path d="M2771 1310 c-96 -26 -177 -52 -179 -58 -2 -6 0 -18 5 -25 7 -12 39
-6 182 33 96 25 177 52 179 58 2 6 0 17 -5 25 -6 11 -41 5 -182 -33z"/>
</g>
</svg>
