<?xml version="1.0" standalone="no"?>
<!DOCTYPE svg PUBLIC "-//W3C//DTD SVG 20010904//EN"
 "http://www.w3.org/TR/2001/REC-SVG-20010904/DTD/svg10.dtd">
<svg version="1.0" xmlns="http://www.w3.org/2000/svg"
 width="512.000000pt" height="512.000000pt" viewBox="0 0 512.000000 512.000000"
 preserveAspectRatio="xMidYMid meet">
<metadata>
Created by potrace 1.11, written by Peter Selinger 2001-2013
</metadata>
<g transform="translate(0.000000,512.000000) scale(0.100000,-0.100000)"
fill="#000000" stroke="none">
<path d="M180 3455 l0 -825 704 0 703 0 6 -127 c10 -238 97 -439 266 -616 157
-164 378 -273 601 -295 l75 -7 3 -372 2 -373 1200 0 1200 0 0 825 0 825 -702
0 -703 0 -2 103 c-4 179 -62 358 -169 517 -54 80 -183 208 -267 263 -130 86
-292 143 -434 154 l-83 6 0 373 0 374 -1200 0 -1200 0 0 -825z m2250 0 l0
-675 -1050 0 -1050 0 0 675 0 675 1050 0 1050 0 0 -675z m245 -147 c32 -67 91
-265 83 -274 -2 -2 -43 -1 -91 3 l-87 6 0 168 0 169 30 0 c29 0 34 -6 65 -72z
m104 46 c63 -18 131 -77 197 -170 46 -64 120 -211 111 -220 -3 -3 -34 3 -69
14 -34 11 -93 25 -129 31 l-66 13 -18 81 c-14 69 -46 166 -80 250 -9 21 -11
21 54 1z m385 -235 c69 -73 123 -156 156 -238 l21 -53 -33 21 c-18 12 -57 34
-85 49 -51 25 -54 29 -83 105 -30 78 -101 211 -120 222 -6 3 -10 11 -10 16 0
18 90 -53 154 -122z m-397 -153 c8 -8 22 -134 29 -253 l7 -123 -242 0 c-234 0
-241 1 -241 20 0 19 7 20 130 20 l130 0 0 176 0 177 92 -7 c50 -3 93 -8 95
-10z m218 -42 c138 -39 131 -34 149 -111 8 -37 18 -103 22 -145 l7 -78 -152 0
-151 0 0 59 c0 61 -16 249 -25 288 -5 20 -2 21 32 16 21 -3 74 -16 118 -29z
m346 -172 c40 -36 43 -42 47 -100 l4 -62 -79 0 -79 0 -12 108 c-7 59 -15 117
-18 130 -7 23 -6 23 44 -7 27 -18 69 -49 93 -69z m-1431 -142 c0 -18 -7 -20
-80 -20 -73 0 -80 2 -80 20 0 18 7 20 80 20 73 0 80 -2 80 -20z m360 0 c0 -19
-7 -20 -150 -20 -143 0 -150 1 -150 20 0 19 7 20 150 20 143 0 150 -1 150 -20z
m-360 -107 c0 -16 7 -71 14 -123 8 -52 13 -96 11 -99 -7 -6 -89 46 -133 86
-41 35 -44 42 -49 101 l-6 62 82 0 81 0 0 -27z m364 -90 c4 -65 11 -147 16
-183 5 -35 8 -65 7 -66 -9 -9 -261 59 -280 75 -10 10 -34 131 -42 219 l-7 72
150 0 149 0 7 -117z m536 97 c0 -19 -7 -20 -130 -20 l-130 0 0 -176 0 -177
-92 7 c-51 4 -94 8 -95 10 -6 6 -22 151 -29 259 l-7 117 242 0 c234 0 241 -1
241 -20z m360 0 c0 -19 -7 -20 -150 -20 -143 0 -150 1 -150 20 0 19 7 20 150
20 143 0 150 -1 150 -20z m220 0 c0 -18 -7 -20 -80 -20 -73 0 -80 2 -80 20 0
18 7 20 80 20 73 0 80 -2 80 -20z m1410 -845 l0 -675 -1050 0 -1050 0 0 675 0
675 1050 0 1050 0 0 -675z m-2957 596 c23 -15 60 -38 83 -49 33 -17 43 -29 53
-64 16 -53 74 -169 112 -225 38 -55 37 -61 -8 -28 -121 89 -231 234 -283 371
-12 31 -8 30 43 -5z m343 -136 l120 -29 27 -110 c15 -61 41 -139 57 -173 16
-35 27 -63 24 -63 -3 0 -30 7 -59 15 -93 27 -192 134 -271 292 -47 93 -51 106
-31 101 6 -2 66 -17 133 -33z m327 -45 l37 0 0 -170 0 -170 -30 0 c-27 0 -32
7 -64 73 -30 63 -58 151 -81 251 l-6 29 53 -6 c29 -4 70 -7 91 -7z"/>
<path d="M2150 4034 c-74 -7 -150 -13 -168 -13 l-33 -1 16 -29 c8 -17 19 -32
24 -36 6 -3 69 2 141 10 72 9 135 15 140 13 5 -2 -30 -54 -77 -117 l-86 -114
18 -33 c10 -19 21 -31 26 -29 14 9 199 275 199 287 0 19 -41 78 -53 77 -7 -1
-73 -7 -147 -15z"/>
<path d="M1643 3977 c-40 -24 -75 -46 -79 -49 -3 -4 2 -18 11 -31 l16 -26 50
30 c28 16 54 27 58 24 5 -2 59 -92 120 -198 61 -107 120 -202 131 -212 30 -27
68 -22 138 20 64 39 71 49 49 79 -12 17 -16 16 -65 -13 -29 -17 -58 -31 -65
-31 -7 0 -71 101 -142 225 -72 124 -134 225 -140 225 -5 0 -43 -20 -82 -43z"/>
<path d="M1552 3723 c-18 -9 -39 -28 -47 -44 -10 -19 -20 -26 -34 -22 -21 5
-70 -17 -90 -41 -7 -8 -18 -13 -24 -11 -7 3 -22 -3 -35 -13 l-23 -18 97 -170
c117 -203 114 -200 145 -184 13 7 26 14 28 16 2 2 -36 71 -84 153 -91 159 -98
185 -49 197 14 4 31 1 39 -6 9 -7 50 -73 91 -147 42 -73 80 -136 85 -138 14
-9 60 18 54 32 -2 8 -38 71 -79 141 -97 167 -99 174 -50 200 29 15 41 1 134
-161 42 -72 81 -132 87 -134 5 -2 20 4 31 14 l22 18 -81 140 c-111 193 -140
216 -217 178z"/>
<path d="M1067 3564 l-28 -15 25 -45 25 -45 -34 -20 c-34 -20 -34 -21 -19 -50
l15 -30 35 22 c19 12 36 20 38 18 1 -2 31 -53 66 -114 34 -60 74 -122 88 -137
35 -38 76 -36 146 4 l55 32 -16 27 -17 28 -46 -26 c-26 -15 -53 -24 -61 -21
-8 3 -46 59 -83 124 -76 132 -76 123 3 166 35 19 37 26 17 54 -15 19 -16 18
-67 -10 l-52 -29 -18 24 c-10 13 -21 32 -25 42 -7 21 -11 21 -47 1z"/>
<path d="M618 3384 l-27 -14 91 -158 c179 -311 210 -362 218 -362 4 0 18 8 31
19 l23 18 -71 124 c-100 174 -100 174 -77 200 10 12 35 29 55 39 54 28 72 13
159 -137 42 -73 79 -135 82 -138 3 -3 19 2 35 12 l30 18 -77 133 c-96 166
-120 192 -175 192 -42 0 -104 -27 -143 -63 -26 -24 -21 -29 -78 71 -19 34 -38
62 -42 62 -4 -1 -19 -7 -34 -16z"/>
<path d="M501 3094 l-103 -148 20 -41 20 -41 175 16 c97 8 178 18 181 21 3 2
-4 19 -16 37 -15 24 -25 31 -41 27 -43 -9 -249 -27 -254 -22 -3 3 32 55 77
116 l81 110 -19 36 -18 37 -103 -148z"/>
<path d="M4448 2236 c-69 -6 -129 -14 -133 -18 -4 -3 1 -18 10 -32 20 -31 38
-32 195 -12 58 8 107 12 109 10 2 -1 -35 -55 -82 -119 l-85 -117 20 -34 20
-35 104 147 103 146 -20 39 c-23 45 -18 45 -241 25z"/>
<path d="M3998 2183 c-43 -25 -78 -50 -78 -57 0 -7 6 -20 13 -30 13 -17 16
-17 68 12 l54 31 110 -192 c127 -221 146 -247 183 -247 28 0 153 68 158 85 2
6 -3 19 -12 30 -14 19 -15 19 -73 -13 -32 -18 -61 -32 -64 -32 -3 0 -65 104
-138 230 -72 127 -135 230 -138 229 -3 -1 -41 -21 -83 -46z"/>
<path d="M3924 1934 c-21 -8 -40 -14 -41 -14 -1 0 -9 -13 -18 -30 -12 -24 -22
-30 -48 -30 -33 0 -75 -22 -90 -47 -5 -7 -12 -11 -17 -8 -13 8 -50 -13 -50
-27 0 -8 188 -343 206 -366 1 -2 16 4 32 13 l29 18 -83 146 c-46 80 -84 155
-84 167 0 12 11 26 25 34 35 19 45 7 141 -160 42 -74 79 -137 80 -139 2 -2 16
5 32 15 l29 19 -83 145 c-46 79 -84 155 -84 167 0 16 9 28 26 35 23 11 29 10
48 -13 11 -13 54 -83 95 -154 41 -72 75 -131 77 -133 4 -6 54 30 54 39 0 13
-160 282 -182 306 -27 29 -48 33 -94 17z"/>
<path d="M3428 1774 c-33 -17 -34 -29 -8 -69 26 -39 25 -41 -10 -62 -33 -19
-36 -30 -17 -57 13 -17 15 -17 46 -2 17 9 35 15 40 12 4 -3 37 -56 72 -117 66
-115 105 -159 141 -159 16 0 116 48 136 65 5 4 -21 55 -28 55 -4 0 -29 -12
-55 -26 -57 -32 -51 -37 -139 115 l-66 115 54 30 c54 31 54 31 40 59 -15 28
-24 32 -39 19 -6 -5 -27 -19 -47 -31 l-37 -22 -28 45 c-28 44 -28 44 -55 30z"/>
<path d="M2978 1594 c-16 -8 -28 -17 -28 -21 0 -5 253 -447 286 -501 15 -23
16 -23 72 14 2 1 -33 65 -77 142 -45 77 -81 149 -81 161 0 25 72 81 105 81 29
0 40 -14 125 -160 39 -69 74 -127 76 -129 2 -2 17 2 34 9 20 8 29 18 26 27 -3
8 -38 69 -76 136 -79 136 -125 187 -167 187 -37 -1 -111 -35 -144 -66 l-26
-25 -47 81 c-25 44 -47 80 -49 80 -1 -1 -14 -8 -29 -16z"/>
<path d="M2852 1293 l-102 -146 22 -36 c12 -20 22 -37 24 -39 2 -4 348 28 352
33 2 2 -4 17 -13 34 -18 36 -14 35 -180 17 -66 -8 -121 -13 -123 -11 -2 2 35
55 82 118 l84 114 -19 32 c-10 17 -20 31 -22 31 -2 0 -49 -66 -105 -147z"/>
<path d="M3210 3860 l0 -130 400 0 400 0 0 -325 0 -324 -85 -3 -85 -3 148
-221 147 -222 148 222 147 221 -85 3 -85 3 0 454 0 455 -525 0 -525 0 0 -130z"/>
<path d="M855 2178 c-3 -7 -4 -245 -3 -528 l3 -515 523 -3 522 -2 0 -86 c0
-71 3 -85 14 -81 39 15 437 290 430 297 -15 13 -433 290 -439 290 -3 0 -5 -36
-5 -80 l0 -80 -395 0 -395 0 -2 398 -3 397 -123 3 c-92 2 -124 -1 -127 -10z"/>
</g>
</svg>
