<?xml version="1.0" standalone="no"?>
<!DOCTYPE svg PUBLIC "-//W3C//DTD SVG 20010904//EN"
 "http://www.w3.org/TR/2001/REC-SVG-20010904/DTD/svg10.dtd">
<svg version="1.0" xmlns="http://www.w3.org/2000/svg"
 width="512.000000pt" height="512.000000pt" viewBox="0 0 512.000000 512.000000"
 preserveAspectRatio="xMidYMid meet">
<metadata>
Created by potrace 1.11, written by Peter Selinger 2001-2013
</metadata>
<g transform="translate(0.000000,512.000000) scale(0.100000,-0.100000)"
fill="#000000" stroke="none">
<path d="M1757 4503 c-4 -3 -7 -107 -7 -230 l0 -223 -32 0 c-29 0 -55 23 -235
202 l-203 203 0 -203 0 -202 -395 0 -395 0 0 -200 0 -200 395 0 395 0 0 -202
0 -203 203 203 c180 179 206 202 235 202 l32 0 0 -279 0 -278 -54 -7 c-146
-17 -346 -88 -486 -173 -313 -190 -526 -493 -606 -864 -26 -118 -26 -380 0
-498 59 -273 167 -474 360 -667 193 -193 394 -301 667 -360 118 -26 380 -26
498 0 177 38 331 102 473 195 141 94 311 271 387 405 l32 56 293 0 c288 0 294
0 322 -22 58 -45 444 -381 444 -387 0 -3 -61 -67 -135 -141 -74 -74 -135 -138
-135 -142 0 -5 189 -8 420 -8 l420 0 0 420 c0 231 -3 420 -7 420 -4 0 -67 -59
-140 -132 -122 -122 -133 -131 -150 -117 -10 9 -66 57 -125 108 l-108 93 -2
1617 -3 1616 -1176 3 c-646 1 -1179 -1 -1182 -5z m2103 -1630 l0 -1376 -22 20
c-13 11 -275 238 -582 503 -502 434 -557 485 -535 491 306 90 445 163 576 303
76 81 119 154 154 261 31 91 33 284 5 384 -79 287 -327 483 -711 562 -97 20
-147 23 -422 27 l-313 4 0 99 0 99 925 0 925 0 0 -1377z m-1235 762 c298 -48
455 -175 455 -366 0 -100 -51 -183 -153 -247 -169 -106 -398 -160 -724 -169
l-193 -6 0 402 0 401 263 0 c182 0 289 -5 352 -15z m-955 -758 c0 -1 -15 -38
-33 -82 -35 -82 -77 -226 -97 -326 l-11 -55 -97 -18 c-53 -10 -132 -29 -175
-43 -44 -13 -81 -22 -84 -19 -8 8 91 208 138 277 49 74 159 191 204 219 34 21
155 58 155 47z m80 -257 c0 -201 5 -190 -82 -190 l-50 0 7 47 c17 112 96 339
115 328 6 -4 10 -75 10 -185z m-504 38 c-54 -78 -115 -199 -151 -299 -25 -73
-29 -77 -75 -98 -26 -12 -76 -40 -110 -62 -34 -22 -64 -39 -66 -37 -2 2 12 38
30 80 38 88 122 218 193 297 45 52 199 181 215 181 4 0 -12 -28 -36 -62z
m1479 -708 c308 -265 569 -491 580 -501 19 -19 3 -19 -638 -19 l-657 0 0 571
0 571 78 -69 c42 -38 329 -287 637 -553z m-975 150 l0 -260 -95 0 -95 0 0 48
c0 129 31 436 45 451 4 3 34 9 68 12 34 3 65 7 70 7 4 1 7 -115 7 -258z m-246
123 c-7 -60 -16 -170 -19 -245 l-8 -138 -198 0 -199 0 0 28 c0 104 45 342 68
360 28 22 293 98 352 101 14 1 14 -11 4 -106z m-468 -75 c-12 -54 -36 -241
-36 -275 l0 -33 -111 0 -111 0 8 68 c9 85 14 100 56 139 36 34 178 132 192
133 5 0 5 -15 2 -32z m-32 -470 c4 -46 14 -121 22 -167 8 -46 12 -86 10 -89
-8 -7 -167 103 -204 141 -27 28 -35 46 -42 98 -16 108 -25 99 99 99 l108 0 7
-82z m481 -56 c3 -75 12 -186 19 -245 l12 -108 -36 6 c-75 13 -235 56 -288 78
-45 18 -57 28 -64 52 -14 52 -37 197 -44 278 l-7 77 200 0 200 0 8 -138z m265
-121 l0 -258 -52 4 c-86 7 -96 11 -102 40 -10 50 -25 205 -32 341 l-7 132 97
0 96 0 0 -259z m-838 -102 c35 -22 84 -50 110 -62 45 -20 48 -25 74 -97 35
-99 96 -220 150 -297 24 -35 40 -63 37 -63 -14 0 -152 112 -195 158 -60 64
-131 161 -173 236 -34 62 -78 166 -70 166 2 0 33 -18 67 -41z m378 -162 c47
-14 120 -30 162 -37 l77 -13 11 -56 c20 -100 62 -244 97 -326 18 -44 33 -81
33 -82 0 -5 -48 7 -104 24 -61 19 -172 123 -245 228 -46 67 -150 266 -151 289
0 4 8 6 18 3 9 -2 55 -16 102 -30z m1260 -62 c0 -3 -14 -34 -31 -68 -82 -163
-234 -331 -325 -360 -60 -19 -104 -29 -104 -23 0 2 11 29 25 60 32 72 70 193
90 281 8 39 18 80 20 93 5 22 8 22 165 22 88 0 160 -2 160 -5z m230 -2 c0 -21
-135 -166 -210 -225 -46 -38 -87 -68 -91 -68 -4 0 13 31 39 68 26 38 65 106
87 150 l39 82 68 0 c37 0 68 -3 68 -7z m-645 -52 c-18 -118 -108 -363 -149
-403 -14 -15 -35 -18 -106 -18 -71 0 -92 3 -106 18 -41 40 -131 285 -149 403
l-7 44 262 0 262 0 -7 -44z"/>
</g>
</svg>
