<?xml version="1.0" standalone="no"?>
<!DOCTYPE svg PUBLIC "-//W3C//DTD SVG 20010904//EN"
 "http://www.w3.org/TR/2001/REC-SVG-20010904/DTD/svg10.dtd">
<svg version="1.0" xmlns="http://www.w3.org/2000/svg"
 width="512.000000pt" height="512.000000pt" viewBox="0 0 512.000000 512.000000"
 preserveAspectRatio="xMidYMid meet">
<metadata>
Created by potrace 1.11, written by Peter Selinger 2001-2013
</metadata>
<g transform="translate(0.000000,512.000000) scale(0.100000,-0.100000)"
fill="#000000" stroke="none">
<path d="M1751 4490 c-494 -70 -913 -416 -1065 -882 -48 -147 -60 -232 -60
-408 0 -122 4 -187 18 -249 59 -273 167 -474 360 -667 117 -117 219 -190 351
-254 395 -189 863 -168 1235 57 41 25 94 60 117 79 23 19 45 34 49 34 5 0 34
-25 65 -56 49 -49 56 -59 46 -75 -10 -16 -5 -25 33 -64 l44 -45 -24 -25 -24
-26 557 -557 557 -557 157 158 158 157 -557 557 -557 557 -26 -24 -25 -24 -45
44 c-39 38 -48 43 -64 33 -16 -10 -26 -3 -75 46 -31 31 -56 60 -56 65 0 4 15
26 34 49 19 23 54 76 79 117 225 372 246 840 57 1235 -64 132 -137 234 -254
351 -190 189 -384 296 -646 355 -99 23 -340 33 -439 19z m399 -370 c188 -46
391 -177 509 -327 78 -98 154 -251 183 -368 32 -127 32 -323 0 -450 -68 -270
-255 -502 -507 -625 -144 -71 -247 -94 -415 -94 -168 0 -271 23 -415 94 -252
123 -439 355 -507 625 -32 127 -32 323 0 450 89 354 371 626 733 704 120 26
292 23 419 -9z"/>
<path d="M1840 4018 c0 -54 8 -68 41 -68 28 0 29 2 29 50 0 47 -2 50 -25 50
-14 0 -25 -6 -25 -12 0 -9 -4 -8 -10 2 -7 11 -10 6 -10 -22z"/>
<path d="M1987 4036 c-4 -10 -7 -33 -7 -51 0 -27 5 -34 26 -39 33 -9 40 -2 48
52 6 40 5 42 -19 42 -14 0 -25 -6 -26 -12 0 -7 -4 -4 -8 6 -7 18 -8 18 -14 2z"/>
<path d="M1709 4022 c-15 -6 -15 -12 -3 -53 12 -42 16 -46 39 -41 33 6 37 13
29 61 -7 42 -23 50 -65 33z"/>
<path d="M2071 4014 c0 -11 3 -14 6 -6 3 7 2 16 -1 19 -3 4 -6 -2 -5 -13z"/>
<path d="M2121 3976 c-14 -55 -14 -52 2 -54 6 0 20 -2 31 -4 14 -2 22 7 32 36
16 43 12 51 -27 61 -24 6 -27 3 -38 -39z"/>
<path d="M1573 3978 l-22 -10 22 -44 c11 -24 25 -44 30 -44 4 0 6 4 3 9 -4 5
2 7 13 4 27 -7 34 11 20 57 -13 42 -26 47 -66 28z"/>
<path d="M2252 3928 c-19 -43 -19 -43 2 -55 32 -19 39 -16 64 27 22 39 22 39
2 50 -11 6 -26 8 -32 4 -7 -4 -8 -3 -4 4 4 7 3 12 -3 12 -6 0 -19 -19 -29 -42z"/>
<path d="M1461 3911 c-11 -11 -22 -17 -25 -13 -16 15 -3 -18 19 -51 22 -32 29
-36 46 -26 30 16 32 32 9 73 -12 20 -24 36 -26 36 -2 0 -13 -9 -23 -19z"/>
<path d="M2373 3859 l-27 -41 25 -19 24 -19 33 36 c28 29 31 38 21 50 -7 9
-20 13 -30 11 -12 -3 -16 0 -12 9 10 27 -7 13 -34 -27z"/>
<path d="M1344 3826 c-18 -14 -18 -16 16 -53 l35 -38 -37 34 c-48 44 -59 36
-13 -9 33 -32 35 -33 60 -16 14 9 25 20 25 24 0 5 -15 22 -33 40 -30 29 -35
31 -53 18z"/>
<path d="M1400 3826 c0 -2 8 -10 18 -17 15 -13 16 -12 3 4 -13 16 -21 21 -21
13z"/>
<path d="M2424 3788 l-19 -23 23 19 c21 18 27 26 19 26 -2 0 -12 -10 -23 -22z"/>
<path d="M2482 3767 l-33 -34 19 -23 20 -24 36 27 c41 32 42 34 20 65 -20 29
-24 28 -62 -11z m48 19 c0 -2 -8 -10 -17 -17 -16 -13 -17 -12 -4 4 13 16 21
21 21 13z"/>
<path d="M1280 3746 c0 -2 8 -10 18 -17 15 -13 16 -12 3 4 -13 16 -21 21 -21
13z"/>
<path d="M1240 3709 c-12 -16 -21 -31 -19 -33 34 -25 69 -46 77 -46 5 0 17 11
25 24 15 23 14 25 -23 55 l-39 31 -21 -31z"/>
<path d="M2566 3660 c-22 -17 -34 -30 -27 -30 7 0 10 -3 7 -8 -2 -4 2 -15 9
-25 12 -17 15 -17 51 4 22 13 41 24 42 25 5 4 -31 64 -38 64 -3 0 -23 -14 -44
-30z"/>
<path d="M1161 3578 c-6 -17 -10 -32 -9 -32 62 -29 81 -36 86 -31 3 3 2 5 -2
5 -4 0 0 7 8 16 23 22 20 30 -18 53 -44 28 -52 27 -65 -11z"/>
<path d="M2638 3540 c-35 -19 -36 -21 -26 -51 8 -22 15 -28 27 -24 9 4 28 12
44 17 29 11 34 33 13 61 -16 21 -12 21 -58 -3z"/>
<path d="M1109 3453 c-14 -38 -6 -50 41 -58 47 -8 45 -9 54 27 5 24 2 27 -39
42 l-46 15 -10 -26z"/>
<path d="M2681 3408 c-26 -7 -31 -12 -20 -19 10 -6 10 -9 2 -9 -18 0 -16 -29
2 -36 8 -4 31 -3 50 0 29 6 35 11 35 31 0 14 -5 25 -11 25 -5 0 -7 5 -4 10 7
12 -8 12 -54 -2z"/>
<path d="M1080 3315 c0 -13 -3 -30 -6 -39 -5 -13 2 -16 45 -16 46 0 51 2 57
25 8 32 7 33 -49 44 -45 8 -47 7 -47 -14z m57 -41 c-3 -3 -12 -4 -19 -1 -8 3
-5 6 6 6 11 1 17 -2 13 -5z"/>
<path d="M2703 3273 c-30 -4 -33 -7 -33 -39 l0 -34 50 0 50 0 0 40 c0 43 3 41
-67 33z m34 -19 c-3 -3 -12 -4 -19 -1 -8 3 -5 6 6 6 11 1 17 -2 13 -5z"/>
<path d="M1083 3203 c9 -2 23 -2 30 0 6 3 -1 5 -18 5 -16 0 -22 -2 -12 -5z"/>
<path d="M1070 3165 c0 -21 5 -25 33 -26 l32 -2 -35 -7 c-33 -7 -31 -7 18 -9
l52 -1 0 35 0 35 -50 0 c-47 0 -50 -2 -50 -25z"/>
<path d="M2733 3183 c9 -2 23 -2 30 0 6 3 -1 5 -18 5 -16 0 -22 -2 -12 -5z"/>
<path d="M2665 3110 c-4 -17 -5 -33 -3 -36 3 -2 25 -7 50 -10 l46 -6 4 36 c4
33 2 36 -22 36 -14 0 -35 3 -47 6 -17 5 -22 0 -28 -26z m78 3 c-7 -2 -19 -2
-25 0 -7 3 -2 5 12 5 14 0 19 -2 13 -5z"/>
<path d="M1108 3063 c7 -3 16 -2 19 1 4 3 -2 6 -13 5 -11 0 -14 -3 -6 -6z"/>
<path d="M1132 3050 c-43 -10 -45 -13 -37 -49 8 -35 5 -35 57 -19 35 10 39 14
36 41 -3 35 -10 38 -56 27z"/>
<path d="M2708 3043 c7 -3 16 -2 19 1 4 3 -2 6 -13 5 -11 0 -14 -3 -6 -6z"/>
<path d="M2640 2984 c-14 -37 -14 -38 35 -56 l46 -16 6 29 c8 42 8 43 -37 56
-39 12 -41 11 -50 -13z"/>
<path d="M1168 2913 c-21 -8 -38 -19 -38 -25 0 -8 17 -47 25 -56 2 -2 21 6 43
17 36 19 40 23 33 48 -9 34 -17 36 -63 16z"/>
<path d="M2590 2861 c-5 -11 -10 -24 -10 -29 0 -9 63 -52 75 -52 5 0 35 56 35
63 0 5 -75 37 -85 37 -2 0 -9 -9 -15 -19z"/>
<path d="M1228 2786 l-38 -23 23 -30 23 -31 23 19 c13 11 31 24 39 28 14 8 14
12 -1 35 -21 31 -22 31 -69 2z"/>
<path d="M2516 2744 l-18 -26 33 -28 c42 -36 45 -36 66 -4 17 26 16 27 -18 55
-19 16 -36 28 -39 28 -3 0 -13 -11 -24 -25z"/>
<path d="M1316 2677 l-39 -33 25 -27 25 -26 33 34 c32 33 33 35 16 60 -9 14
-17 25 -19 25 -1 0 -19 -15 -41 -33z"/>
<path d="M2450 2665 c0 -5 12 -23 28 -39 l27 -31 -32 29 c-19 17 -38 26 -47
23 -23 -9 -20 -25 13 -62 l28 -33 29 24 28 25 -37 37 c-20 20 -37 32 -37 27z"/>
<path d="M2530 2666 c0 -2 8 -10 18 -17 15 -13 16 -12 3 4 -13 16 -21 21 -21
13z"/>
<path d="M1409 2603 c-13 -16 -12 -17 4 -4 9 7 17 15 17 17 0 8 -8 3 -21 -13z"/>
<path d="M1416 2579 c-14 -17 -26 -34 -26 -39 0 -7 44 -40 53 -40 3 0 16 17
30 38 l25 38 -21 17 c-28 23 -31 22 -61 -14z"/>
<path d="M2325 2568 c-11 -6 -21 -12 -23 -14 -5 -3 37 -84 44 -84 15 0 44 22
39 30 -3 6 1 7 11 3 12 -4 9 5 -11 35 -30 46 -31 46 -60 30z"/>
<path d="M1531 2499 c-19 -34 -21 -43 -10 -50 8 -5 22 -7 32 -5 9 2 15 0 11
-5 -3 -5 -1 -9 4 -9 8 0 42 63 42 79 0 6 -43 31 -54 31 -1 0 -13 -19 -25 -41z"/>
<path d="M2208 2508 c-32 -11 -33 -19 -10 -70 l17 -37 32 15 31 16 -17 39
c-22 49 -21 48 -53 37z"/>
<path d="M1660 2445 c-7 -25 -11 -48 -8 -50 2 -3 18 -7 34 -11 29 -6 31 -4 41
40 10 45 10 45 -20 56 -16 5 -31 10 -32 10 -1 0 -8 -20 -15 -45z"/>
<path d="M2063 2463 c-8 -3 -11 -15 -8 -29 16 -79 12 -73 46 -64 18 5 33 11
35 13 2 1 -2 22 -8 45 -10 42 -27 51 -65 35z"/>
<path d="M1800 2449 c0 -8 -3 -30 -6 -50 -6 -33 -4 -37 20 -41 22 -5 26 -2 27
21 1 25 2 25 8 -4 6 -28 7 -27 14 19 4 27 6 51 4 53 -2 1 -18 6 -35 9 -24 5
-32 3 -32 -7z"/>
<path d="M1920 2438 c0 -7 -3 -30 -6 -50 -6 -37 -6 -38 25 -38 27 0 31 4 32
28 l1 27 8 -30 c7 -26 8 -22 9 23 l1 52 -35 0 c-21 0 -35 -5 -35 -12z"/>
<path d="M1771 2394 c0 -11 3 -14 6 -6 3 7 2 16 -1 19 -3 4 -6 -2 -5 -13z"/>
<path d="M2042 2390 c0 -14 2 -19 5 -12 2 6 2 18 0 25 -3 6 -5 1 -5 -13z"/>
</g>
</svg>
