<?xml version="1.0" standalone="no"?>
<!DOCTYPE svg PUBLIC "-//W3C//DTD SVG 20010904//EN"
 "http://www.w3.org/TR/2001/REC-SVG-20010904/DTD/svg10.dtd">
<svg version="1.0" xmlns="http://www.w3.org/2000/svg"
 width="512.000000pt" height="512.000000pt" viewBox="0 0 512.000000 512.000000"
 preserveAspectRatio="xMidYMid meet">
<metadata>
Created by potrace 1.11, written by Peter Selinger 2001-2013
</metadata>
<g transform="translate(0.000000,512.000000) scale(0.100000,-0.100000)"
fill="#000000" stroke="none">
<path d="M1950 3570 l0 -50 1310 0 1310 0 0 50 0 50 -1310 0 -1310 0 0 -50z"/>
<path d="M1950 3450 l0 -40 1310 0 1310 0 0 40 0 40 -1310 0 -1310 0 0 -40z"/>
<path d="M1948 3173 l-3 -178 -347 -3 -348 -2 0 -50 0 -50 350 0 c304 0 350
-2 350 -15 0 -13 -46 -15 -350 -15 l-350 0 0 -40 0 -40 350 0 c304 0 350 -2
350 -15 0 -13 75 -15 614 -15 l614 0 213 220 213 220 483 0 483 0 0 80 0 80
-1310 0 -1310 0 -2 -177z m150 -269 c30 -21 29 -59 -3 -80 -23 -15 -27 -15
-50 0 -29 19 -33 56 -9 80 19 20 34 20 62 0z m162 -4 c25 -25 25 -45 -1 -71
-30 -30 -89 -5 -89 38 0 18 37 53 55 53 8 0 24 -9 35 -20z m151 10 c29 -16 25
-65 -6 -86 -23 -15 -27 -15 -50 0 -32 21 -33 59 -3 80 26 19 33 19 59 6z"/>
<path d="M3490 3013 c-74 -76 -162 -166 -195 -200 l-59 -63 667 0 667 0 0 200
0 200 -473 0 -472 0 -135 -137z"/>
<path d="M1248 2543 l-3 -178 -347 -3 -348 -2 0 -50 0 -50 350 0 c304 0 350
-2 350 -15 0 -13 -46 -15 -350 -15 l-350 0 0 -40 0 -40 350 0 c304 0 350 -2
350 -15 0 -13 75 -15 614 -15 l614 0 213 220 213 220 483 0 483 0 0 80 0 80
-1310 0 -1310 0 -2 -177z m150 -269 c30 -21 29 -59 -3 -80 -23 -15 -27 -15
-50 0 -29 19 -33 56 -9 80 19 20 34 20 62 0z m162 -4 c25 -25 25 -45 -1 -71
-30 -30 -89 -5 -89 38 0 18 37 53 55 53 8 0 24 -9 35 -20z m151 10 c29 -16 25
-65 -6 -86 -23 -15 -27 -15 -50 0 -32 21 -33 59 -3 80 26 19 33 19 59 6z"/>
<path d="M2790 2383 c-74 -76 -162 -166 -195 -200 l-59 -63 667 0 667 0 0 200
0 200 -473 0 -472 0 -135 -137z"/>
<path d="M550 1790 l0 -300 614 0 614 0 213 220 213 220 483 0 483 0 0 80 0
80 -1310 0 -1310 0 0 -300z m148 -146 c30 -21 29 -59 -3 -80 -23 -15 -27 -15
-50 0 -29 19 -33 56 -9 80 19 20 34 20 62 0z m162 -4 c25 -25 25 -45 -1 -71
-30 -30 -89 -5 -89 38 0 18 37 53 55 53 8 0 24 -9 35 -20z m151 10 c29 -16 25
-65 -6 -86 -23 -15 -27 -15 -50 0 -32 21 -33 59 -3 80 26 19 33 19 59 6z"/>
<path d="M2090 1753 c-74 -76 -162 -166 -195 -200 l-59 -63 667 0 667 0 0 200
0 200 -473 0 -472 0 -135 -137z"/>
</g>
</svg>
