<?xml version="1.0" standalone="no"?>
<!DOCTYPE svg PUBLIC "-//W3C//DTD SVG 20010904//EN"
 "http://www.w3.org/TR/2001/REC-SVG-20010904/DTD/svg10.dtd">
<svg version="1.0" xmlns="http://www.w3.org/2000/svg"
 width="512.000000pt" height="512.000000pt" viewBox="0 0 512.000000 512.000000"
 preserveAspectRatio="xMidYMid meet">
<metadata>
Created by potrace 1.11, written by Peter Selinger 2001-2013
</metadata>
<g transform="translate(0.000000,512.000000) scale(0.100000,-0.100000)"
fill="#000000" stroke="none">
<path d="M690 3105 l0 -75 1870 0 1870 0 0 75 0 75 -1870 0 -1870 0 0 -75z"/>
<path d="M690 2935 l0 -55 1870 0 1870 0 0 55 0 55 -1870 0 -1870 0 0 -55z"/>
<path d="M690 2365 l0 -425 879 0 879 0 302 310 302 310 689 0 689 0 0 115 0
115 -1870 0 -1870 0 0 -425z m222 -212 c23 -20 24 -80 1 -105 -20 -23 -80 -24
-105 -1 -23 20 -24 80 -1 105 20 23 80 24 105 1z m228 -5 c43 -47 10 -118 -55
-118 -22 0 -41 8 -55 22 -43 47 -10 118 55 118 22 0 41 -8 55 -22z m222 5 c23
-20 24 -80 1 -105 -20 -23 -80 -24 -105 -1 -23 20 -24 80 -1 105 20 23 80 24
105 1z"/>
<path d="M2806 2226 c-152 -156 -276 -287 -276 -290 0 -3 429 -5 953 -4 l952
3 3 288 2 287 -678 0 -679 0 -277 -284z"/>
</g>
</svg>
