<?xml version="1.0" standalone="no"?>
<!DOCTYPE svg PUBLIC "-//W3C//DTD SVG 20010904//EN"
 "http://www.w3.org/TR/2001/REC-SVG-20010904/DTD/svg10.dtd">
<svg version="1.0" xmlns="http://www.w3.org/2000/svg"
 width="512.000000pt" height="512.000000pt" viewBox="0 0 512.000000 512.000000"
 preserveAspectRatio="xMidYMid meet">
<metadata>
Created by potrace 1.11, written by Peter Selinger 2001-2013
</metadata>
<g transform="translate(0.000000,512.000000) scale(0.100000,-0.100000)"
fill="#000000" stroke="none">
<path d="M2081 4354 l-474 -284 -459 113 c-348 87 -458 111 -458 100 0 -38
521 -3258 529 -3266 4 -4 308 -147 674 -317 l667 -310 667 310 c366 170 670
313 674 317 8 8 529 3228 529 3266 0 10 -113 -14 -461 -100 l-460 -113 -475
285 c-262 157 -476 285 -477 284 -1 0 -215 -129 -476 -285z m945 -287 l441
-265 323 79 c178 44 327 78 330 77 4 -2 -32 -246 -80 -543 -48 -297 -100 -620
-115 -717 l-28 -178 -664 0 -663 0 0 911 c0 500 3 908 8 906 4 -3 205 -124
448 -270z m-466 -2473 c0 -737 -3 -925 -12 -921 -22 8 -1103 509 -1107 513 -5
5 -211 1283 -211 1312 l0 22 665 0 665 0 0 -926z"/>
</g>
</svg>
