<?xml version="1.0" standalone="no"?>
<!DOCTYPE svg PUBLIC "-//W3C//DTD SVG 20010904//EN"
 "http://www.w3.org/TR/2001/REC-SVG-20010904/DTD/svg10.dtd">
<svg version="1.0" xmlns="http://www.w3.org/2000/svg"
 width="512.000000pt" height="512.000000pt" viewBox="0 0 512.000000 512.000000"
 preserveAspectRatio="xMidYMid meet">
<metadata>
Created by potrace 1.11, written by Peter Selinger 2001-2013
</metadata>
<g transform="translate(0.000000,512.000000) scale(0.100000,-0.100000)"
fill="#000000" stroke="none">
<path d="M1885 4352 c-363 -58 -661 -106 -662 -107 -2 -1 6 -55 17 -121 11
-65 20 -124 20 -131 0 -6 -20 -23 -45 -38 l-45 -26 -164 7 -163 7 -6 -33 c-4
-18 -7 -65 -7 -105 l0 -72 -265 -153 c-146 -84 -273 -159 -282 -165 -14 -11 8
-55 201 -389 l218 -378 -7 -138 -7 -139 -97 -16 c-122 -21 -124 -22 -119 -43
3 -10 38 -208 79 -440 70 -403 75 -422 95 -422 12 0 59 7 104 16 45 8 84 13
87 11 2 -3 -21 -102 -53 -221 -32 -119 -56 -218 -53 -220 2 -2 188 -53 414
-114 l410 -109 -3 -47 c-3 -39 -1 -46 15 -46 10 0 299 -25 643 -55 344 -30
640 -55 658 -55 31 0 32 1 32 44 0 24 3 58 6 75 l6 31 567 2 566 3 5 302 5
302 245 172 c135 94 247 173 249 175 3 2 -135 205 -172 252 -9 11 -3 13 34 7
l44 -6 108 432 c59 237 106 434 103 436 -3 3 -71 22 -153 42 l-148 37 -3 182
-2 181 44 175 44 176 -37 9 c-20 6 -92 24 -161 41 -219 54 -198 46 -202 88 -3
37 -3 37 -52 40 l-48 3 5 47 c11 86 30 333 26 335 -7 6 -1331 118 -1335 114
-3 -2 -7 -29 -10 -58 -9 -92 -15 -122 -24 -113 -4 5 -18 77 -30 159 -13 83
-26 153 -29 156 -3 3 -303 -42 -666 -99z m595 -78 c6 -32 13 -69 15 -81 l5
-22 -60 21 c-34 11 -60 23 -58 27 6 15 83 119 85 117 2 -2 8 -29 13 -62z
m-179 8 l-21 -30 -50 16 c-28 9 -50 19 -50 22 0 6 131 28 139 23 2 -1 -6 -15
-18 -31z m-241 -18 c0 -12 -123 -349 -130 -357 -17 -20 -90 19 -259 139 -100
71 -181 131 -181 134 0 7 486 87 538 89 17 0 32 -2 32 -5z m749 -151 c35 -40
60 -73 56 -73 -13 0 -129 43 -139 51 -4 4 -5 30 -1 59 4 29 10 48 14 43 4 -4
35 -41 70 -80z m-488 -291 l38 -83 -57 -25 c-31 -15 -72 -33 -90 -40 l-33 -15
2 118 1 118 -71 3 c-69 3 -72 4 -65 25 4 12 27 78 52 147 l46 124 69 -144 c38
-80 87 -182 108 -228z m1012 326 c213 -18 386 -36 385 -40 -5 -12 -357 -298
-368 -298 -6 0 -9 12 -8 26 3 25 -3 28 -135 77 l-138 50 -88 101 c-112 130
-113 130 -70 123 19 -3 208 -21 422 -39z m-1656 -233 c-1 -2 -70 0 -153 3
l-152 5 -16 103 c-9 56 -16 110 -16 118 0 10 63 -29 170 -106 93 -67 169 -122
167 -123z m1008 80 c209 -76 383 -141 387 -144 4 -4 -106 -58 -245 -120 -138
-63 -260 -118 -270 -123 -15 -8 -28 12 -98 159 -151 314 -179 375 -166 370 6
-2 183 -66 392 -142z m1181 8 c-4 -54 -9 -119 -13 -145 l-6 -48 -164 0 -164 0
173 144 c95 80 175 145 177 145 2 1 1 -43 -3 -96z m-2824 -280 c57 -60 134
-140 171 -178 l66 -71 -131 -119 c-73 -66 -156 -142 -186 -170 l-55 -50 6 160
c4 88 10 244 13 348 4 103 8 187 10 187 1 0 49 -48 106 -107z m501 93 c208 -8
380 -16 383 -18 3 -4 -382 -360 -418 -386 -15 -11 -30 0 -130 105 -62 65 -155
162 -207 216 l-95 97 45 0 c24 0 214 -7 422 -14z m1620 -184 l-58 -162 -47 0
-48 0 0 -132 c-1 -88 -5 -143 -14 -163 -13 -30 -14 -29 -114 177 -55 114 -103
216 -106 225 -5 15 31 35 217 119 122 56 223 100 225 99 1 -1 -24 -75 -55
-163z m-1093 -189 c-7 -186 -13 -339 -15 -341 -4 -4 -335 348 -335 357 0 11
352 332 358 327 2 -3 -1 -157 -8 -343z m1720 260 c0 -4 -51 -58 -112 -120
l-113 -113 -177 0 -177 0 39 111 c22 61 43 115 46 120 6 11 494 12 494 2z
m-1355 -118 c30 -63 56 -115 58 -115 3 0 53 22 113 50 60 27 114 50 119 50 11
0 199 -389 192 -397 -3 -2 -170 56 -373 130 l-369 134 -3 59 c-6 111 -4 115
101 162 50 23 96 42 100 42 4 0 32 -52 62 -115z m1515 0 l0 -115 -122 0 -123
0 115 115 c63 63 118 115 122 115 5 0 8 -52 8 -115z m168 24 c26 -7 50 -14 54
-18 4 -3 -22 -23 -57 -43 l-65 -37 0 55 c0 59 0 59 68 43z m-3302 -237 c-3 -3
-52 7 -108 22 -57 15 -120 32 -142 37 l-38 10 143 83 144 83 3 -115 c1 -63 0
-117 -2 -120z m3499 134 l-7 -36 -59 0 c-33 0 -59 2 -59 4 0 7 124 76 128 71
2 -1 0 -19 -3 -39z m-2915 -158 l87 -93 97 89 98 90 141 -149 c197 -205 190
-189 76 -182 -52 4 -267 12 -479 18 -212 6 -398 14 -413 18 -28 6 -25 11 130
153 87 81 162 147 167 147 5 1 48 -41 96 -91z m-782 -34 l192 -49 0 -112 c0
-61 4 -113 9 -115 10 -3 -59 -268 -69 -268 -3 0 -35 53 -71 118 -37 64 -114
200 -173 301 -59 101 -101 181 -94 179 7 -3 100 -27 206 -54z m2749 -199 l103
-99 -23 -24 c-12 -13 -70 -69 -128 -123 l-106 -99 -17 93 c-51 283 -46 265
-67 260 -18 -5 -19 1 -19 118 l0 123 78 -74 c42 -41 123 -120 179 -175z m533
40 c-113 -113 -209 -205 -215 -205 -6 0 -102 92 -215 205 l-205 205 420 0 420
0 -205 -205z m360 -141 l0 -346 -181 174 -181 173 178 172 c99 95 180 173 182
173 1 0 2 -156 2 -346z m-1830 221 c32 -12 22 -14 -112 -14 l-148 -1 0 55 0
54 113 -40 c61 -23 128 -47 147 -54z m174 -64 c6 -9 -157 -171 -171 -171 -5 0
-68 -11 -140 -24 l-133 -23 0 61 c0 33 3 85 6 114 l7 52 213 0 c117 0 215 -4
218 -9z m96 -95 c0 -25 -16 -36 -53 -36 -19 0 -19 2 8 30 35 36 45 38 45 6z
m136 9 c18 -14 18 -14 -8 -15 -18 0 -28 5 -28 15 0 19 11 19 36 0z m-1638 -60
c1 -1 -84 -52 -190 -113 -106 -61 -194 -107 -196 -102 -2 5 6 39 17 77 11 37
24 87 30 110 l11 41 163 -5 c89 -3 163 -7 165 -8z m1932 -366 c32 -184 58
-334 57 -335 -3 -3 -385 260 -398 273 -7 7 27 63 106 174 153 214 166 231 172
226 2 -3 31 -155 63 -338z m-217 309 c-5 -7 -83 -115 -172 -240 -89 -126 -164
-228 -168 -228 -10 0 -483 325 -483 333 0 4 6 7 13 7 6 0 185 32 397 69 425
76 427 77 413 59z m677 -73 c47 -47 89 -85 95 -85 6 0 48 38 95 85 47 47 89
85 95 85 6 0 80 -70 165 -155 l155 -155 -481 0 -482 0 -6 23 c-5 18 16 44 127
155 72 72 136 132 142 132 6 0 48 -38 95 -85z m-1867 25 c84 0 137 -4 137 -10
0 -5 -6 -10 -14 -10 -25 0 -26 -14 -11 -95 22 -113 18 -384 -5 -370 -4 3 -13
33 -20 68 l-12 64 -40 -7 -41 -8 -159 163 c-87 90 -168 175 -180 191 l-22 27
114 -6 c63 -4 177 -7 253 -7z m-363 -143 l95 -99 -273 7 c-149 4 -285 10 -301
14 -26 5 -12 16 158 113 l186 107 20 -22 c12 -12 63 -66 115 -120z m583 136
c-7 -2 -21 -2 -30 0 -10 3 -4 5 12 5 17 0 24 -2 18 -5z m2451 -111 c2 -4 -4
-13 -15 -20 -16 -11 -19 -9 -19 8 0 19 24 28 34 12z m-2243 -138 l199 -136
-34 -47 c-18 -25 -82 -113 -140 -196 -59 -82 -110 -151 -114 -152 -4 -2 -31
135 -61 305 -29 169 -55 319 -58 335 -3 15 -2 27 2 27 3 0 96 -61 206 -136z
m2397 84 c-3 -7 -40 -156 -84 -330 -43 -175 -81 -318 -85 -318 -7 0 -262 411
-257 414 56 39 80 46 157 46 l81 0 0 48 0 47 88 52 c92 55 107 61 100 41z
m-3592 -325 c-7 -8 -159 -34 -164 -28 -2 2 -1 48 3 102 l7 97 80 -82 c44 -46
77 -86 74 -89z m334 156 c219 -8 268 -13 282 -26 10 -9 16 -18 14 -20 -2 -2
-104 -22 -227 -43 -123 -22 -235 -42 -249 -45 -21 -5 -35 6 -93 70 l-68 75 38
0 c21 0 157 -5 303 -11z m1819 -254 c16 -16 39 -11 -524 -110 -236 -41 -438
-77 -448 -79 -11 -3 -15 0 -10 7 18 32 246 348 254 353 5 3 56 -27 114 -67 58
-40 106 -71 108 -68 2 2 36 50 76 107 l73 102 171 -116 c95 -64 178 -122 186
-129z m466 222 c-33 -23 -263 -157 -280 -163 -20 -8 -20 13 2 104 l17 72 140
0 c121 0 138 -2 121 -13z m219 -85 c33 -53 60 -98 61 -100 1 -1 53 27 114 64
62 36 115 64 117 61 3 -3 56 -88 118 -188 78 -127 109 -185 99 -187 -22 -5
-32 7 -153 179 -65 94 -117 158 -124 156 -7 -3 -75 -49 -150 -102 l-138 -97
-191 47 c-106 26 -197 51 -204 54 -19 10 326 210 362 210 27 1 35 -8 89 -97z
m196 94 c0 -2 -21 -16 -47 -31 l-48 -26 -17 21 c-10 12 -18 26 -18 31 0 5 29
9 65 9 36 0 65 -2 65 -4z m-2210 -457 c32 -184 58 -334 57 -335 -3 -3 -385
260 -398 273 -7 7 27 63 106 174 153 214 166 231 172 226 2 -3 31 -155 63
-338z m-217 309 c-5 -7 -83 -115 -172 -240 -89 -126 -164 -228 -168 -228 -10
0 -483 325 -483 333 0 4 6 7 13 7 6 0 185 32 397 69 425 76 427 77 413 59z
m368 -173 c2 -47 -18 -255 -24 -262 -2 -1 -16 68 -31 154 l-27 156 33 34 33
34 7 -33 c4 -18 8 -55 9 -83z m2283 -210 c108 -153 195 -280 193 -281 -3 -2
-481 77 -485 81 -4 3 74 434 85 468 2 10 7 17 9 15 2 -2 91 -129 198 -283z
m-3413 79 l199 -136 -34 -47 c-18 -25 -82 -113 -140 -196 -59 -82 -110 -151
-114 -152 -4 -2 -31 135 -61 305 -29 169 -55 319 -58 335 -3 15 -2 27 2 27 3
0 96 -61 206 -136z m2534 59 l60 -65 -60 -53 -60 -53 -3 33 -3 32 -117 9 -116
9 3 55 c1 30 4 57 7 59 5 6 185 39 209 39 12 0 45 -27 80 -65z m502 -230 c-30
-156 -55 -285 -58 -287 -7 -7 -570 89 -572 97 -2 10 677 488 680 478 2 -3 -21
-133 -50 -288z m-324 267 c118 -30 115 -27 71 -60 -21 -16 -44 -30 -49 -30 -6
0 -35 25 -65 55 -30 30 -51 55 -46 55 4 0 44 -9 89 -20z m-573 -59 c0 -59 3
-58 -153 -44 -78 7 -151 14 -162 15 -19 3 247 55 293 57 18 1 22 -4 22 -28z
m500 -91 c0 -10 -170 -133 -175 -128 -2 2 32 36 76 76 72 65 99 79 99 52z
m-812 -42 c210 -18 382 -35 382 -38 0 -5 -448 -375 -454 -375 -5 0 -376 434
-376 440 0 10 64 6 448 -27z m-429 -153 c78 -92 141 -170 139 -174 -2 -5 -31
-31 -64 -59 l-62 -51 -117 31 -117 32 6 30 c3 17 11 102 17 188 12 158 13 160
50 167 3 0 70 -73 148 -164z m-440 -90 c16 -16 39 -11 -524 -110 -236 -41
-438 -77 -448 -79 -11 -3 -15 0 -10 7 18 32 246 348 254 353 5 3 56 -27 114
-67 58 -40 106 -71 108 -68 2 2 36 50 76 107 l73 102 171 -116 c95 -64 178
-122 186 -129z m1397 91 c-4 -12 -53 -53 -116 -96 -60 -41 -110 -78 -110 -82
0 -5 -27 -8 -61 -8 l-60 0 173 143 173 143 3 -40 c2 -22 1 -49 -2 -60z m967
-106 c100 -17 194 -33 210 -36 25 -5 -16 -36 -390 -299 -230 -161 -419 -291
-421 -290 -2 2 78 438 82 442 1 1 55 -7 121 -18 65 -11 123 -18 130 -16 6 3
19 51 29 108 22 132 24 139 43 139 8 0 97 -14 196 -30z m-793 -136 c124 -20
227 -38 229 -40 5 -4 -81 -467 -88 -476 -3 -4 -91 115 -196 264 -225 321 -210
297 -187 292 9 -2 118 -20 242 -40z m-911 -15 l43 -50 -88 7 c-49 4 -91 9 -94
11 -4 4 80 82 90 83 3 0 25 -23 49 -51z m-793 -21 c-3 -24 -11 -97 -16 -162
-6 -66 -12 -121 -13 -121 -44 -29 -120 -66 -124 -62 -11 12 -192 322 -189 325
3 3 311 59 334 61 10 1 12 -10 8 -41z m1074 -28 c0 -15 -7 -20 -27 -20 -25 0
-26 0 -8 20 10 11 22 20 27 20 4 0 8 -9 8 -20z m312 8 c14 -12 115 -154 133
-188 4 -8 -38 30 -94 85 -55 55 -101 103 -101 107 0 13 45 9 62 -4z m-187 -18
c18 -19 17 -20 -3 -20 -15 0 -22 6 -22 20 0 11 2 20 3 20 2 0 12 -9 22 -20z
m-1596 -91 c29 -50 49 -95 44 -100 -11 -11 -417 -239 -420 -235 -3 3 97 379
103 385 4 4 177 38 204 39 9 1 37 -36 69 -89z m660 -132 c84 -98 151 -181 149
-186 -4 -12 -371 -311 -375 -307 -4 4 41 544 53 639 3 27 9 45 13 40 4 -4 76
-88 160 -186z m434 141 c213 -17 387 -35 387 -38 0 -10 -451 -375 -458 -370
-12 8 -382 441 -382 447 0 3 15 3 33 0 17 -3 206 -21 420 -39z m512 -397 c-14
-174 -28 -322 -31 -329 -2 -8 -75 69 -164 173 -89 103 -158 190 -155 194 3 3
88 74 188 157 118 97 183 145 185 136 2 -8 -8 -157 -23 -331z m208 47 c-59
-59 -108 -106 -110 -104 -2 1 5 91 14 200 l17 197 93 -93 93 -93 -107 -107z
m-1603 -6 c6 -2 40 13 76 33 36 20 67 35 69 33 8 -8 -18 -248 -26 -248 -11 0
-641 169 -645 173 -2 1 86 53 194 114 l197 111 63 -106 c34 -59 67 -109 72
-110z m2510 -22 c0 -116 -3 -210 -8 -210 -4 0 -62 55 -129 123 l-122 122 122
87 c67 47 125 87 130 87 4 1 7 -93 7 -209z m-670 15 c53 -53 90 -83 100 -80 9
3 24 -9 38 -30 12 -19 26 -35 30 -35 5 0 53 31 107 69 l99 70 113 -106 c62
-58 113 -107 113 -109 0 -2 -216 -4 -480 -4 l-480 0 0 27 c0 22 26 54 127 155
70 71 132 128 138 128 6 0 48 -38 95 -85z m-1121 -94 l84 -100 75 62 c40 34
86 72 101 84 l28 22 146 -171 c81 -94 146 -173 144 -174 -2 -3 -998 85 -1008
88 -6 3 330 286 341 287 3 1 43 -44 89 -98z"/>
</g>
</svg>
