<?xml version="1.0" standalone="no"?>
<!DOCTYPE svg PUBLIC "-//W3C//DTD SVG 20010904//EN"
 "http://www.w3.org/TR/2001/REC-SVG-20010904/DTD/svg10.dtd">
<svg version="1.0" xmlns="http://www.w3.org/2000/svg"
 width="512.000000pt" height="512.000000pt" viewBox="0 0 512.000000 512.000000"
 preserveAspectRatio="xMidYMid meet">
<metadata>
Created by potrace 1.11, written by Peter Selinger 2001-2013
</metadata>
<g transform="translate(0.000000,512.000000) scale(0.100000,-0.100000)"
fill="#000000" stroke="none">
<path d="M2492 4553 c-60 -29 -66 -54 -70 -285 l-4 -208 -33 0 c-112 0 -342
-68 -510 -151 -445 -219 -749 -649 -820 -1161 l-6 -46 -202 -4 c-227 -4 -251
-10 -281 -72 -20 -43 -20 -69 0 -112 30 -62 54 -68 281 -72 l202 -4 6 -46 c71
-512 375 -942 820 -1161 168 -83 398 -151 510 -151 l33 0 4 -207 c4 -233 10
-257 72 -287 43 -20 69 -20 112 0 62 30 68 54 72 286 l4 208 28 0 c108 0 340
69 505 151 445 219 749 649 820 1161 l6 46 207 4 c232 4 256 10 286 72 20 43
20 69 0 112 -30 62 -54 68 -286 72 l-207 4 -6 46 c-71 512 -375 942 -820 1161
-165 82 -397 151 -505 151 l-28 0 -4 208 c-4 232 -10 256 -72 286 -43 20 -72
20 -114 -1z m-72 -892 l0 -148 -62 -13 c-283 -55 -532 -248 -667 -517 -33 -66
-81 -219 -81 -259 l0 -24 -155 0 c-85 0 -155 2 -155 4 0 2 7 41 16 87 95 500
466 886 959 999 44 10 95 19 113 19 l32 1 0 -149z m390 130 c496 -111 869
-498 964 -1000 9 -46 16 -85 16 -87 0 -2 -70 -4 -155 -4 l-155 0 0 24 c0 13
-11 63 -25 110 -48 164 -134 306 -260 424 -130 123 -290 207 -457 242 l-58 11
0 150 c0 173 -12 161 130 130z m-390 -586 c0 -124 -3 -155 -14 -155 -35 0
-160 -75 -214 -129 -50 -51 -105 -139 -126 -203 -5 -16 -21 -18 -156 -18 -175
0 -166 -9 -121 124 69 208 219 375 417 468 63 29 171 66 202 67 9 1 12 -36 12
-154z m374 123 c240 -79 427 -265 507 -504 45 -133 54 -124 -121 -124 -135 0
-151 2 -156 18 -41 126 -143 242 -265 300 l-78 37 -1 153 0 152 28 -6 c15 -4
54 -15 86 -26z m-137 -536 c46 -24 99 -81 119 -128 18 -43 18 -145 0 -188 -19
-47 -73 -104 -120 -129 -57 -30 -165 -30 -222 0 -47 25 -101 82 -120 129 -8
19 -14 61 -14 94 0 71 15 112 60 164 32 36 70 61 120 77 40 13 133 3 177 -19z
m-1047 -376 c0 -13 11 -63 25 -110 48 -164 134 -306 260 -424 132 -124 294
-209 463 -242 l62 -13 0 -148 0 -149 -27 0 c-16 0 -66 9 -113 19 -496 111
-869 498 -964 1000 -9 46 -16 85 -16 87 0 2 70 4 155 4 l155 0 0 -24z m456 7
c21 -65 76 -153 126 -204 54 -54 179 -129 214 -129 11 0 14 -31 14 -155 0 -85
-3 -155 -6 -155 -26 0 -142 38 -202 66 -203 93 -353 260 -423 470 -45 133 -54
124 121 124 135 0 151 -2 156 -17z m1264 -3 c0 -10 -13 -57 -29 -104 -89 -267
-309 -464 -593 -530 l-28 -6 0 152 1 153 78 37 c122 58 224 174 265 301 5 15
21 17 156 17 142 0 150 -1 150 -20z m460 16 c0 -2 -7 -41 -16 -87 -95 -502
-468 -889 -964 -1000 -142 -31 -130 -43 -130 130 l0 150 58 11 c282 59 527
250 661 517 33 66 81 219 81 259 l0 24 155 0 c85 0 155 -2 155 -4z"/>
</g>
</svg>
