<?xml version="1.0" standalone="no"?>
<!DOCTYPE svg PUBLIC "-//W3C//DTD SVG 20010904//EN"
 "http://www.w3.org/TR/2001/REC-SVG-20010904/DTD/svg10.dtd">
<svg version="1.0" xmlns="http://www.w3.org/2000/svg"
 width="512.000000pt" height="512.000000pt" viewBox="0 0 512.000000 512.000000"
 preserveAspectRatio="xMidYMid meet">
<metadata>
Created by potrace 1.11, written by Peter Selinger 2001-2013
</metadata>
<g transform="translate(0.000000,512.000000) scale(0.100000,-0.100000)"
fill="#000000" stroke="none">
<path d="M2170 4790 c-19 -19 -20 -33 -20 -239 0 -120 3 -245 6 -278 l6 -59
104 -60 c92 -53 101 -60 81 -68 -12 -5 -52 -24 -89 -41 l-66 -32 -108 62 -107
63 -55 148 c-30 82 -60 155 -67 163 -29 30 -105 3 -105 -38 0 -9 28 -93 62
-187 l62 -172 99 -57 99 -58 -58 -53 c-33 -29 -63 -53 -67 -54 -5 0 -40 18
-79 41 l-70 41 -176 -18 c-157 -16 -179 -21 -199 -41 -29 -28 -29 -54 1 -82
l23 -22 158 17 157 17 46 -22 46 -22 -115 -57 c-391 -196 -705 -533 -879 -945
-57 -136 -91 -247 -123 -402 -29 -147 -31 -470 -4 -610 55 -278 153 -495 312
-693 59 -72 217 -223 234 -222 3 1 278 398 611 884 333 486 606 883 608 881 1
-1 -205 -436 -458 -966 -253 -530 -456 -967 -452 -970 13 -14 161 -58 250 -76
132 -26 384 -24 527 5 329 65 617 218 863 456 263 254 443 564 532 919 41 164
53 280 49 485 l-4 180 26 -13 c37 -20 41 -27 98 -165 50 -120 84 -170 117
-170 22 0 54 37 54 64 0 13 -30 94 -66 180 l-66 156 -64 36 c-35 20 -66 39
-68 42 -3 6 24 152 30 160 1 2 42 -20 91 -48 l88 -53 175 28 c96 15 183 32
192 37 25 12 41 46 34 74 -12 46 -34 48 -211 18 l-163 -27 -99 58 -100 58 -9
96 c-6 53 -10 97 -10 98 1 0 55 -30 120 -69 102 -59 123 -68 140 -58 12 6 113
71 226 144 200 129 205 133 208 169 3 29 -2 39 -22 53 -15 9 -34 14 -44 12 -9
-3 -99 -57 -198 -121 -100 -65 -186 -117 -192 -117 -5 0 -72 36 -147 79 l-137
80 -34 77 c-18 42 -44 94 -58 115 l-26 39 28 14 c58 30 102 103 102 168 -1 78
-64 158 -141 178 -69 19 -155 -11 -193 -66 l-22 -33 -70 48 c-73 51 -220 131
-241 131 -16 0 -16 0 3 46 36 85 -5 192 -88 233 -121 58 -255 -14 -266 -144
l-4 -55 -47 0 c-26 0 -83 -5 -128 -10 l-82 -11 -128 75 -128 74 -6 164 c-3 89
-7 198 -8 241 -1 83 -19 117 -61 117 -11 0 -29 -9 -40 -20z"/>
</g>
</svg>
