<?xml version="1.0" standalone="no"?>
<!DOCTYPE svg PUBLIC "-//W3C//DTD SVG 20010904//EN"
 "http://www.w3.org/TR/2001/REC-SVG-20010904/DTD/svg10.dtd">
<svg version="1.0" xmlns="http://www.w3.org/2000/svg"
 width="512.000000pt" height="512.000000pt" viewBox="0 0 512.000000 512.000000"
 preserveAspectRatio="xMidYMid meet">
<metadata>
Created by potrace 1.11, written by Peter Selinger 2001-2013
</metadata>
<g transform="translate(0.000000,512.000000) scale(0.100000,-0.100000)"
fill="#000000" stroke="none">
<path d="M827 3892 c-15 -16 -17 -51 -17 -284 0 -244 1 -266 18 -281 17 -15
68 -17 534 -17 486 0 516 1 531 18 15 16 17 51 17 284 0 244 -1 266 -18 281
-17 15 -68 17 -534 17 -486 0 -516 -1 -531 -18z"/>
<path d="M2027 3892 c-15 -16 -17 -51 -17 -284 0 -244 1 -266 18 -281 17 -15
68 -17 534 -17 486 0 516 1 531 18 15 16 17 51 17 284 0 244 -1 266 -18 281
-17 15 -68 17 -534 17 -486 0 -516 -1 -531 -18z"/>
<path d="M3227 3892 c-15 -16 -17 -51 -17 -284 0 -244 1 -266 18 -281 17 -15
68 -17 534 -17 486 0 516 1 531 18 15 16 17 51 17 284 0 244 -1 266 -18 281
-17 15 -68 17 -534 17 -486 0 -516 -1 -531 -18z"/>
<path d="M827 3192 c-15 -16 -17 -51 -17 -284 0 -244 1 -266 18 -281 16 -15
48 -17 234 -17 195 0 216 2 231 18 15 16 17 51 17 284 0 244 -1 266 -18 281
-16 15 -48 17 -234 17 -195 0 -216 -2 -231 -18z"/>
<path d="M1427 3192 c-15 -16 -17 -51 -17 -284 0 -244 1 -266 18 -281 17 -15
68 -17 534 -17 486 0 516 1 531 18 15 16 17 51 17 284 0 244 -1 266 -18 281
-17 15 -68 17 -534 17 -486 0 -516 -1 -531 -18z"/>
<path d="M2627 3192 c-15 -16 -17 -51 -17 -284 0 -244 1 -266 18 -281 17 -15
68 -17 534 -17 486 0 516 1 531 18 15 16 17 51 17 284 0 244 -1 266 -18 281
-17 15 -68 17 -534 17 -486 0 -516 -1 -531 -18z"/>
<path d="M3827 3192 c-15 -16 -17 -51 -17 -284 0 -244 1 -266 18 -281 16 -15
48 -17 234 -17 195 0 216 2 231 18 15 16 17 51 17 284 0 244 -1 266 -18 281
-16 15 -48 17 -234 17 -195 0 -216 -2 -231 -18z"/>
<path d="M827 2492 c-15 -16 -17 -51 -17 -284 0 -244 1 -266 18 -281 17 -15
68 -17 534 -17 486 0 516 1 531 18 15 16 17 51 17 284 0 244 -1 266 -18 281
-17 15 -68 17 -534 17 -486 0 -516 -1 -531 -18z"/>
<path d="M2027 2492 c-15 -16 -17 -51 -17 -284 0 -244 1 -266 18 -281 17 -15
68 -17 534 -17 486 0 516 1 531 18 15 16 17 51 17 284 0 244 -1 266 -18 281
-17 15 -68 17 -534 17 -486 0 -516 -1 -531 -18z"/>
<path d="M3227 2492 c-15 -16 -17 -51 -17 -284 0 -244 1 -266 18 -281 17 -15
68 -17 534 -17 486 0 516 1 531 18 15 16 17 51 17 284 0 244 -1 266 -18 281
-17 15 -68 17 -534 17 -486 0 -516 -1 -531 -18z"/>
<path d="M827 1792 c-15 -16 -17 -51 -17 -284 0 -244 1 -266 18 -281 16 -15
48 -17 234 -17 195 0 216 2 231 18 15 16 17 51 17 284 0 244 -1 266 -18 281
-16 15 -48 17 -234 17 -195 0 -216 -2 -231 -18z"/>
<path d="M1427 1792 c-15 -16 -17 -51 -17 -284 0 -244 1 -266 18 -281 17 -15
68 -17 534 -17 486 0 516 1 531 18 15 16 17 51 17 284 0 244 -1 266 -18 281
-17 15 -68 17 -534 17 -486 0 -516 -1 -531 -18z"/>
<path d="M2627 1792 c-15 -16 -17 -51 -17 -284 0 -244 1 -266 18 -281 17 -15
68 -17 534 -17 486 0 516 1 531 18 15 16 17 51 17 284 0 244 -1 266 -18 281
-17 15 -68 17 -534 17 -486 0 -516 -1 -531 -18z"/>
<path d="M3827 1792 c-15 -16 -17 -51 -17 -284 0 -244 1 -266 18 -281 16 -15
48 -17 234 -17 195 0 216 2 231 18 15 16 17 51 17 284 0 244 -1 266 -18 281
-16 15 -48 17 -234 17 -195 0 -216 -2 -231 -18z"/>
</g>
</svg>
