<?xml version="1.0" standalone="no"?>
<!DOCTYPE svg PUBLIC "-//W3C//DTD SVG 20010904//EN"
 "http://www.w3.org/TR/2001/REC-SVG-20010904/DTD/svg10.dtd">
<svg version="1.0" xmlns="http://www.w3.org/2000/svg"
 width="512.000000pt" height="512.000000pt" viewBox="0 0 512.000000 512.000000"
 preserveAspectRatio="xMidYMid meet">
<metadata>
Created by potrace 1.11, written by Peter Selinger 2001-2013
</metadata>
<g transform="translate(0.000000,512.000000) scale(0.100000,-0.100000)"
fill="#000000" stroke="none">
<path d="M1145 4871 c-22 -10 -56 -34 -75 -55 -41 -43 -83 -47 -151 -16 -83
37 -160 19 -211 -50 -42 -57 -35 -150 15 -204 62 -66 155 -70 225 -11 44 37
90 34 130 -8 31 -32 32 -36 32 -117 l0 -85 -56 -29 c-68 -36 -144 -110 -169
-166 l-18 -40 -133 0 -133 0 -11 43 c-50 197 -138 194 -185 -5 -20 -86 -20
-298 1 -388 23 -103 73 -168 112 -144 26 16 58 78 71 140 l12 54 129 0 129 0
40 -59 c48 -70 96 -112 171 -149 50 -24 66 -27 165 -27 98 0 116 3 167 27 67
31 149 105 185 165 l25 43 207 -2 206 -3 3 -142 3 -143 150 0 150 0 -3 244
c-3 231 -4 246 -24 273 -12 15 -36 37 -55 48 -32 19 -55 20 -336 23 l-302 3
-30 53 c-44 79 -116 138 -214 175 -26 10 -27 12 -27 91 0 73 3 84 28 116 37
46 89 48 138 4 88 -77 222 -30 254 90 36 134 -109 246 -233 180 -20 -11 -56
-20 -79 -20 -37 0 -47 5 -70 34 -56 69 -153 94 -233 57z"/>
<path d="M2157 3449 c-58 -98 -111 -225 -115 -275 -8 -99 50 -158 151 -151 46
3 63 9 87 32 37 36 54 84 45 134 -5 33 -105 250 -133 290 -7 10 -16 3 -35 -30z
m-37 -189 c0 -37 -4 -52 -16 -57 -23 -9 -34 15 -22 51 10 30 26 56 34 56 2 0
4 -23 4 -50z m-28 -92 c7 -19 -2 -38 -18 -38 -8 0 -14 8 -14 18 0 30 23 44 32
20z"/>
<path d="M2162 2936 c-12 -27 -15 -28 -217 -46 -175 -16 -444 -56 -611 -91
-383 -79 -604 -201 -604 -333 0 -102 137 -210 365 -289 232 -80 414 -107 785
-117 329 -9 323 -8 563 -109 89 -38 181 -74 204 -81 l42 -13 3 -316 c3 -310 3
-317 26 -348 44 -62 135 -68 188 -12 l29 30 5 302 5 302 68 3 67 3 0 -813 c0
-630 3 -819 13 -838 17 -34 74 -70 111 -70 17 0 46 9 64 20 59 36 62 57 62
385 l0 295 33 -20 c41 -25 83 -25 124 0 64 39 63 29 63 565 l0 485 34 0 c18 0
47 3 64 6 l31 6 3 -397 3 -397 37 -34 c31 -28 45 -34 83 -34 38 0 52 6 83 34
l37 34 3 405 3 405 22 6 c12 3 25 6 30 6 4 0 7 -264 7 -586 0 -524 2 -589 16
-614 32 -53 97 -74 158 -50 l26 10 0 -106 c0 -149 29 -194 125 -194 38 0 52 6
83 34 l37 34 3 788 c2 788 3 803 34 804 4 0 8 -156 10 -347 3 -322 4 -350 22
-376 51 -75 161 -75 212 0 18 26 19 57 22 543 4 604 5 599 -72 676 -137 136
-528 243 -893 244 -126 0 -213 14 -458 70 -382 89 -558 111 -887 113 -216 1
-216 1 -227 24 -14 30 -25 29 -39 -1z m593 -137 c154 -15 304 -41 529 -94 275
-64 280 -65 496 -75 292 -14 479 -48 650 -117 185 -74 245 -160 191 -278 -51
-113 -253 -203 -571 -255 -243 -39 -464 -53 -860 -54 -421 -1 -425 -1 -610 76
-380 158 -341 149 -700 158 -313 9 -434 23 -632 74 -191 50 -350 128 -401 198
-29 39 -12 68 63 117 99 64 280 122 532 170 202 39 648 93 648 79 0 -3 -11
-31 -25 -62 -14 -33 -25 -75 -25 -101 0 -41 -2 -45 -27 -51 -50 -10 -111 -35
-123 -49 -47 -57 88 -107 290 -107 165 -1 290 34 290 81 0 27 -28 47 -90 65
l-56 16 3 38 c2 24 -7 62 -26 107 l-29 70 42 6 c52 8 296 1 441 -12z m-646
-115 c-33 -40 -45 6 -17 64 l22 47 4 -48 c2 -28 -2 -55 -9 -63z m-21 -56 c-2
-13 -7 -23 -13 -23 -5 0 -11 10 -13 23 -2 15 2 22 13 22 11 0 15 -7 13 -22z
m-8 -93 c52 -55 144 -57 200 -5 35 33 51 36 99 19 42 -15 39 -36 -6 -57 -55
-24 -341 -24 -395 0 -47 21 -48 35 -5 53 48 21 81 18 107 -10z"/>
<path d="M2480 2568 c38 -19 45 -28 45 -52 0 -64 -123 -100 -340 -100 -175 -1
-286 19 -335 61 -38 31 -38 45 1 77 35 29 24 34 -24 10 -71 -36 -83 -65 -44
-102 57 -54 192 -82 390 -82 197 0 320 23 390 72 52 37 24 92 -62 123 -63 22
-72 19 -21 -7z"/>
</g>
</svg>
