<?xml version="1.0" standalone="no"?>
<!DOCTYPE svg PUBLIC "-//W3C//DTD SVG 20010904//EN"
 "http://www.w3.org/TR/2001/REC-SVG-20010904/DTD/svg10.dtd">
<svg version="1.0" xmlns="http://www.w3.org/2000/svg"
 width="512.000000pt" height="512.000000pt" viewBox="0 0 512.000000 512.000000"
 preserveAspectRatio="xMidYMid meet">
<metadata>
Created by potrace 1.11, written by Peter Selinger 2001-2013
</metadata>
<g transform="translate(0.000000,512.000000) scale(0.100000,-0.100000)"
fill="#000000" stroke="none">
<path d="M1917 4493 c-4 -3 -7 -174 -7 -378 l0 -371 -128 -21 c-686 -113
-1226 -648 -1342 -1330 -27 -157 -27 -389 0 -546 85 -501 410 -942 860 -1171
159 -81 314 -131 499 -162 l146 -24 1003 0 1003 0 47 51 c26 28 187 207 359
398 l312 346 -2 1605 -2 1605 -1371 3 c-754 1 -1374 -1 -1377 -5z m2493 -1608
l0 -1355 -350 0 -350 0 0 -390 0 -390 -770 0 -770 0 0 1745 0 1745 1120 0
1120 0 0 -1355z m-2630 581 c0 -2 -15 -37 -34 -77 -42 -91 -98 -272 -121 -394
-10 -49 -21 -94 -25 -98 -5 -5 -61 -20 -126 -33 -66 -13 -164 -37 -219 -53
-54 -17 -100 -29 -101 -28 -7 6 79 195 119 263 80 136 199 279 295 352 38 29
212 85 212 68z m126 -543 c-6 -6 -190 -22 -195 -17 -2 1 7 47 18 101 31 138
95 326 139 403 l37 65 3 -274 c1 -151 0 -276 -2 -278z m-653 280 c-61 -86
-156 -275 -199 -396 l-27 -78 -76 -39 c-42 -21 -107 -58 -144 -83 -81 -55 -81
-55 3 118 67 139 151 257 259 365 70 70 217 189 233 190 4 0 -18 -35 -49 -77z
m657 -708 l0 -325 -135 0 -135 0 0 48 c0 140 39 564 53 578 4 5 81 13 200 23
16 1 17 -21 17 -324z m-336 193 c-7 -51 -18 -189 -25 -305 l-13 -213 -249 0
-249 0 7 93 c8 103 27 229 51 328 l15 66 107 36 c59 20 148 45 197 56 192 43
173 50 159 -61z m-598 -176 c-8 -44 -21 -138 -27 -211 l-13 -131 -133 0 -133
0 0 43 c0 23 4 69 10 102 9 56 13 64 73 121 58 55 225 169 234 160 2 -2 -3
-40 -11 -84z m-27 -573 c6 -73 19 -167 27 -211 8 -44 13 -82 11 -84 -9 -9
-176 105 -234 160 -60 57 -64 65 -73 121 -6 33 -10 79 -10 103 l0 42 133 0
133 0 13 -131z m600 -81 c7 -117 18 -255 25 -306 l12 -94 -46 7 c-81 12 -213
46 -322 82 l-107 36 -15 66 c-24 99 -43 225 -51 329 l-7 92 249 0 249 0 13
-212z m361 -113 l0 -325 -57 5 c-165 16 -161 15 -167 38 -10 42 -35 312 -42
460 l-7 147 137 0 136 0 0 -325z m-959 -195 l76 -39 27 -78 c43 -121 138 -310
199 -395 31 -43 53 -78 50 -78 -16 0 -166 122 -234 190 -108 108 -192 226
-259 365 -84 173 -84 173 -3 118 37 -25 102 -62 144 -83z m342 -131 c54 -16
137 -36 185 -44 131 -24 125 -19 145 -125 24 -123 80 -307 123 -399 19 -41 32
-76 30 -78 -8 -8 -160 38 -192 57 -41 26 -173 161 -224 230 -46 62 -132 207
-155 264 -9 20 -25 60 -35 87 l-20 50 22 -7 c13 -4 67 -20 121 -35z m575 -95
l42 -5 0 -275 c0 -151 -2 -274 -5 -274 -13 0 -80 142 -114 245 -34 103 -81
284 -81 314 0 9 57 7 158 -5z m2440 -62 c-17 -25 -340 -382 -344 -382 -2 0 -4
90 -4 200 l0 200 181 0 c172 0 180 -1 167 -18z"/>
<path d="M2372 3978 c-7 -7 -12 -24 -12 -38 0 -14 5 -31 12 -38 17 -17 649
-17 666 0 15 15 15 61 0 76 -17 17 -649 17 -666 0z"/>
<path d="M3310 3680 l0 -260 445 0 445 0 0 260 0 260 -445 0 -445 0 0 -260z"/>
<path d="M2372 3718 c-7 -7 -12 -24 -12 -38 0 -14 5 -31 12 -38 17 -17 649
-17 666 0 15 15 15 61 0 76 -17 17 -649 17 -666 0z"/>
<path d="M2372 3458 c-7 -7 -12 -24 -12 -38 0 -14 5 -31 12 -38 17 -17 649
-17 666 0 15 15 15 61 0 76 -17 17 -649 17 -666 0z"/>
<path d="M2372 3198 c-7 -7 -12 -24 -12 -38 0 -14 5 -31 12 -38 17 -17 1849
-17 1866 0 15 15 15 61 0 76 -17 17 -1849 17 -1866 0z"/>
<path d="M2372 2938 c-7 -7 -12 -24 -12 -38 0 -14 5 -31 12 -38 17 -17 1849
-17 1866 0 15 15 15 61 0 76 -17 17 -1849 17 -1866 0z"/>
<path d="M3172 2528 c-7 -7 -12 -24 -12 -38 0 -14 5 -31 12 -38 17 -17 1049
-17 1066 0 7 7 12 24 12 38 0 14 -5 31 -12 38 -17 17 -1049 17 -1066 0z"/>
<path d="M2410 2005 l0 -495 295 0 295 0 0 495 0 495 -295 0 -295 0 0 -495z"/>
<path d="M3172 2268 c-7 -7 -12 -24 -12 -38 0 -14 5 -31 12 -38 17 -17 1049
-17 1066 0 7 7 12 24 12 38 0 14 -5 31 -12 38 -17 17 -1049 17 -1066 0z"/>
<path d="M3172 2008 c-7 -7 -12 -24 -12 -38 0 -14 5 -31 12 -38 17 -17 1049
-17 1066 0 7 7 12 24 12 38 0 14 -5 31 -12 38 -17 17 -1049 17 -1066 0z"/>
<path d="M2372 1288 c-7 -7 -12 -24 -12 -38 0 -14 5 -31 12 -38 17 -17 1049
-17 1066 0 7 7 12 24 12 38 0 14 -5 31 -12 38 -17 17 -1049 17 -1066 0z"/>
<path d="M2372 1028 c-7 -7 -12 -24 -12 -38 0 -14 5 -31 12 -38 17 -17 1049
-17 1066 0 7 7 12 24 12 38 0 14 -5 31 -12 38 -17 17 -1049 17 -1066 0z"/>
</g>
</svg>
