<?xml version="1.0" standalone="no"?>
<!DOCTYPE svg PUBLIC "-//W3C//DTD SVG 20010904//EN"
 "http://www.w3.org/TR/2001/REC-SVG-20010904/DTD/svg10.dtd">
<svg version="1.0" xmlns="http://www.w3.org/2000/svg"
 width="512.000000pt" height="512.000000pt" viewBox="0 0 512.000000 512.000000"
 preserveAspectRatio="xMidYMid meet">
<metadata>
Created by potrace 1.11, written by Peter Selinger 2001-2013
</metadata>
<g transform="translate(0.000000,512.000000) scale(0.100000,-0.100000)"
fill="#000000" stroke="none">
<path d="M2640 4487 l0 -77 55 0 c200 0 450 -114 607 -277 155 -162 258 -395
258 -588 l0 -55 77 0 76 0 -6 98 c-10 161 -77 353 -174 500 -50 75 -172 203
-253 264 -146 111 -366 194 -542 205 l-98 6 0 -76z"/>
<path d="M2640 4116 l0 -73 60 -7 c255 -29 457 -232 486 -488 l7 -58 73 0 74
0 0 30 c0 70 -33 189 -77 280 -38 79 -60 109 -132 181 -72 72 -102 94 -181
132 -91 44 -210 77 -280 77 l-30 0 0 -74z"/>
<path d="M2640 3735 l0 -75 29 0 c36 0 89 -36 118 -79 13 -19 23 -47 23 -62
l0 -29 75 0 75 0 0 33 c0 134 -153 287 -287 287 l-33 0 0 -75z"/>
<path d="M2488 3473 c-115 -95 -335 -301 -347 -325 -13 -25 -13 -32 2 -63 11
-23 17 -61 17 -105 l0 -70 -135 0 -135 0 0 -1034 0 -1033 -145 -69 c-80 -38
-145 -72 -145 -76 0 -5 275 -8 610 -8 336 0 610 3 610 6 0 3 -70 39 -155 80
l-155 74 0 110 0 110 -85 0 -85 0 0 60 0 60 85 0 85 0 0 65 0 65 -85 0 -85 0
0 60 0 60 85 0 85 0 0 65 0 65 -85 0 -85 0 0 60 0 60 85 0 85 0 0 610 0 610
-130 0 -130 0 0 75 0 74 179 161 c99 89 182 168 185 176 12 30 6 55 -19 79
-32 32 -66 32 -107 -2z m-390 -735 c28 -28 7 -78 -33 -78 -27 0 -45 18 -45 45
0 27 18 45 45 45 12 0 26 -5 33 -12z m0 -170 c7 -7 12 -24 12 -38 0 -31 -17
-50 -45 -50 -28 0 -45 19 -45 50 0 31 17 50 45 50 12 0 26 -5 33 -12z m0 -180
c7 -7 12 -21 12 -33 0 -12 -5 -26 -12 -33 -7 -7 -21 -12 -33 -12 -12 0 -26 5
-33 12 -7 7 -12 21 -12 33 0 12 5 26 12 33 7 7 21 12 33 12 12 0 26 -5 33 -12z
m0 -170 c7 -7 12 -24 12 -38 0 -31 -17 -50 -45 -50 -28 0 -45 19 -45 50 0 31
17 50 45 50 12 0 26 -5 33 -12z"/>
</g>
</svg>
