<?xml version="1.0" standalone="no"?>
<!DOCTYPE svg PUBLIC "-//W3C//DTD SVG 20010904//EN"
 "http://www.w3.org/TR/2001/REC-SVG-20010904/DTD/svg10.dtd">
<svg version="1.0" xmlns="http://www.w3.org/2000/svg"
 width="512.000000pt" height="512.000000pt" viewBox="0 0 512.000000 512.000000"
 preserveAspectRatio="xMidYMid meet">
<metadata>
Created by potrace 1.11, written by Peter Selinger 2001-2013
</metadata>
<g transform="translate(0.000000,512.000000) scale(0.100000,-0.100000)"
fill="#000000" stroke="none">
<path d="M1554 3695 c-155 -27 -329 -101 -454 -195 -182 -135 -313 -316 -384
-530 -35 -105 -65 -291 -53 -323 5 -14 20 -17 75 -17 l69 0 7 79 c37 449 399
810 848 847 l79 7 -3 71 -3 71 -50 2 c-27 1 -86 -5 -131 -12z"/>
<path d="M3390 3636 l0 -76 43 0 c64 0 212 -34 302 -69 311 -120 546 -434 573
-766 l7 -90 73 -3 72 -3 0 68 c0 93 -31 233 -73 338 -153 375 -511 638 -911
671 l-86 7 0 -77z"/>
<path d="M1565 3314 c-33 -8 -98 -33 -145 -56 -69 -34 -102 -59 -175 -133 -74
-73 -99 -106 -133 -175 -46 -95 -72 -189 -72 -268 l0 -53 73 3 72 3 6 60 c24
250 234 460 484 484 l60 6 3 73 3 72 -58 -1 c-32 0 -85 -7 -118 -15z"/>
<path d="M3390 3255 l0 -75 43 0 c164 0 354 -124 439 -286 38 -73 68 -173 68
-232 l0 -33 73 3 72 3 -2 66 c-3 82 -41 204 -90 289 -57 98 -171 207 -270 258
-92 48 -211 82 -285 82 l-48 0 0 -75z"/>
<path d="M1645 2946 c-66 -21 -98 -42 -146 -93 -50 -53 -81 -121 -83 -181 l-1
-37 72 -3 71 -3 7 42 c10 58 76 124 134 134 l42 7 -3 71 c-3 69 -4 72 -28 74
-14 1 -43 -4 -65 -11z"/>
<path d="M3390 2887 l0 -74 31 -7 c72 -14 123 -67 139 -141 6 -30 6 -30 79
-33 l74 -3 -6 55 c-14 134 -129 250 -270 271 l-47 7 0 -75z"/>
<path d="M1735 2635 c-25 -24 -31 -49 -19 -79 3 -8 87 -87 185 -176 169 -151
180 -164 177 -193 l-3 -32 -282 -3 -283 -2 0 -310 0 -310 1050 0 1050 0 0 150
0 150 -200 0 -200 0 0 35 0 35 200 0 200 0 0 40 0 40 -200 0 -200 0 0 35 0 35
200 0 200 0 0 50 0 50 -280 0 -280 0 0 38 c0 35 7 43 148 169 225 201 212 187
212 227 0 23 -7 42 -22 56 -45 41 -63 31 -262 -146 -118 -106 -189 -175 -193
-192 -3 -14 -1 -39 6 -57 6 -17 11 -46 11 -63 l0 -32 -387 2 -388 3 -3 24 c-2
13 4 41 14 63 15 34 16 42 3 67 -12 23 -233 229 -347 324 -41 34 -75 34 -107
2z m-37 -947 c7 -7 12 -21 12 -33 0 -12 -5 -26 -12 -33 -7 -7 -21 -12 -33 -12
-12 0 -26 5 -33 12 -7 7 -12 21 -12 33 0 12 5 26 12 33 7 7 21 12 33 12 12 0
26 -5 33 -12z m180 0 c7 -7 12 -21 12 -33 0 -28 -19 -45 -50 -45 -31 0 -50 17
-50 45 0 28 19 45 50 45 14 0 31 -5 38 -12z m170 0 c7 -7 12 -21 12 -33 0 -12
-5 -26 -12 -33 -7 -7 -21 -12 -33 -12 -12 0 -26 5 -33 12 -7 7 -12 21 -12 33
0 12 5 26 12 33 7 7 21 12 33 12 12 0 26 -5 33 -12z m180 0 c7 -7 12 -21 12
-33 0 -28 -19 -45 -50 -45 -31 0 -50 17 -50 45 0 28 19 45 50 45 14 0 31 -5
38 -12z"/>
</g>
</svg>
