<?xml version="1.0" standalone="no"?>
<!DOCTYPE svg PUBLIC "-//W3C//DTD SVG 20010904//EN"
 "http://www.w3.org/TR/2001/REC-SVG-20010904/DTD/svg10.dtd">
<svg version="1.0" xmlns="http://www.w3.org/2000/svg"
 width="512.000000pt" height="512.000000pt" viewBox="0 0 512.000000 512.000000"
 preserveAspectRatio="xMidYMid meet">
<metadata>
Created by potrace 1.11, written by Peter Selinger 2001-2013
</metadata>
<g transform="translate(0.000000,512.000000) scale(0.100000,-0.100000)"
fill="#000000" stroke="none">
<path d="M982 3943 c-10 -16 -47 -72 -81 -125 l-61 -97 0 -191 0 -190 75 0 75
0 0 -75 0 -75 -75 0 -75 0 0 -910 0 -910 1725 0 1725 0 0 910 0 910 -75 0 -75
0 0 75 0 75 75 0 75 0 0 190 0 190 -1226 2 -1226 3 -77 120 -77 120 -341 3
-341 2 -20 -27z m308 -678 l0 -75 75 0 75 0 0 75 0 75 75 0 75 0 0 -75 0 -75
75 0 75 0 0 75 0 75 75 0 75 0 0 -75 0 -75 75 0 75 0 0 75 0 75 75 0 75 0 0
-75 0 -75 75 0 75 0 0 75 0 75 75 0 75 0 0 -75 0 -75 75 0 75 0 0 75 0 75 75
0 75 0 0 -75 0 -75 75 0 75 0 0 75 0 75 75 0 75 0 0 -75 0 -75 75 0 75 0 0 75
0 75 75 0 75 0 0 -75 0 -75 75 0 75 0 0 75 0 75 75 0 75 0 0 -75 0 -75 75 0
75 0 0 75 0 75 75 0 75 0 0 -75 0 -75 75 0 75 0 0 -75 0 -75 -75 0 -75 0 0
-620 0 -620 -225 0 -225 0 0 620 0 620 -75 0 -75 0 0 75 0 75 -75 0 -75 0 0
-75 0 -75 -75 0 -75 0 0 75 0 75 -75 0 -75 0 0 -75 0 -75 -75 0 -75 0 0 75 0
75 -75 0 -75 0 0 -75 0 -75 -75 0 -75 0 0 75 0 75 -75 0 -75 0 0 -75 0 -75
-75 0 -75 0 0 75 0 75 -75 0 -75 0 0 -75 0 -75 -75 0 -75 0 0 75 0 75 -75 0
-75 0 0 -75 0 -75 -75 0 -75 0 0 75 0 75 -75 0 -75 0 0 -75 0 -75 -75 0 -75 0
0 75 0 75 -75 0 -75 0 0 -75 0 -75 -75 0 -75 0 0 75 0 75 75 0 75 0 0 75 0 75
75 0 75 0 0 -75z"/>
<path d="M3540 3115 l0 -75 75 0 75 0 0 75 0 75 -75 0 -75 0 0 -75z"/>
<path d="M3840 3115 l0 -75 75 0 75 0 0 75 0 75 -75 0 -75 0 0 -75z"/>
<path d="M3670 2120 l0 -200 95 0 95 0 0 200 0 200 -95 0 -95 0 0 -200z"/>
</g>
</svg>
