<?xml version="1.0" standalone="no"?>
<!DOCTYPE svg PUBLIC "-//W3C//DTD SVG 20010904//EN"
 "http://www.w3.org/TR/2001/REC-SVG-20010904/DTD/svg10.dtd">
<svg version="1.0" xmlns="http://www.w3.org/2000/svg"
 width="512.000000pt" height="512.000000pt" viewBox="0 0 512.000000 512.000000"
 preserveAspectRatio="xMidYMid meet">
<metadata>
Created by potrace 1.11, written by Peter Selinger 2001-2013
</metadata>
<g transform="translate(0.000000,512.000000) scale(0.100000,-0.100000)"
fill="#000000" stroke="none">
<path d="M982 3943 c-10 -16 -47 -72 -81 -125 l-61 -97 0 -191 0 -190 75 0 75
0 0 -75 0 -75 -75 0 -75 0 0 -910 0 -910 1725 0 1725 0 0 910 0 910 -75 0 -75
0 0 75 0 75 75 0 75 0 0 190 0 190 -1226 2 -1226 3 -77 120 -77 120 -341 3
-341 2 -20 -27z m308 -678 l0 -75 75 0 75 0 0 75 0 75 75 0 75 0 0 -75 0 -75
75 0 75 0 0 75 0 75 75 0 75 0 0 -75 0 -75 75 0 75 0 0 75 0 75 75 0 75 0 0
-75 0 -75 75 0 75 0 0 75 0 75 75 0 75 0 0 -75 0 -75 75 0 75 0 0 75 0 75 75
0 75 0 0 -75 0 -75 75 0 75 0 0 75 0 75 75 0 75 0 0 -75 0 -75 75 0 75 0 0 75
0 75 75 0 75 0 0 -75 0 -75 75 0 75 0 0 75 0 75 75 0 75 0 0 -75 0 -75 75 0
75 0 0 75 0 75 75 0 75 0 0 -75 0 -75 75 0 75 0 0 -75 0 -75 -75 0 -75 0 0 75
0 75 -75 0 -75 0 0 -75 0 -75 -75 0 -75 0 0 75 0 75 -75 0 -75 0 0 -75 0 -75
-75 0 -75 0 0 75 0 75 -75 0 -75 0 0 -75 0 -75 -75 0 -75 0 0 75 0 75 -75 0
-75 0 0 -75 0 -75 -75 0 -75 0 0 75 0 75 -75 0 -75 0 0 -75 0 -75 -75 0 -75 0
0 75 0 75 -75 0 -75 0 0 -75 0 -75 -75 0 -75 0 0 75 0 75 -75 0 -75 0 0 -75 0
-75 -75 0 -75 0 0 75 0 75 -75 0 -75 0 0 -75 0 -75 -75 0 -75 0 0 75 0 75 -75
0 -75 0 0 -75 0 -75 -75 0 -75 0 0 75 0 75 -75 0 -75 0 0 -75 0 -75 -75 0 -75
0 0 75 0 75 75 0 75 0 0 75 0 75 75 0 75 0 0 -75z m1427 -530 c111 -50 202
-170 218 -286 l7 -49 59 0 59 0 0 -295 0 -295 -495 0 -495 0 0 295 0 295 59 0
59 0 7 48 c20 143 140 276 282 312 65 16 176 5 240 -25z"/>
<path d="M2490 2607 c-49 -16 -123 -93 -138 -145 -7 -23 -10 -47 -7 -52 4 -6
91 -10 220 -10 129 0 216 4 220 10 13 22 -21 96 -65 140 -65 65 -143 84 -230
57z"/>
<path d="M2496 2244 c-33 -34 -36 -99 -5 -132 19 -21 19 -27 10 -98 -6 -41
-11 -77 -11 -80 0 -2 34 -4 75 -4 41 0 75 2 75 4 0 3 -5 39 -11 80 -9 71 -9
77 10 98 14 15 21 35 21 64 0 58 -36 94 -95 94 -32 0 -48 -6 -69 -26z"/>
</g>
</svg>
