<?xml version="1.0" encoding="UTF-8"?>
<svg width="480px" height="150px" viewBox="0 0 480 150" version="1.1" xmlns="http://www.w3.org/2000/svg" xmlns:xlink="http://www.w3.org/1999/xlink">
    <!-- Generator: Sketch 46.2 (44496) - http://www.bohemiancoding.com/sketch -->
    <title>logotitle</title>
    <desc>Created with Sketch.</desc>
    <defs></defs>
    <g id="Page-1" stroke="none" stroke-width="1" fill="none" fill-rule="evenodd">
        <g id="logotitle">
            <g id="Group" transform="translate(47.000000, 26.000000)">
                <rect id="Rectangle" fill="#9B9B9B" x="0" y="0" width="90" height="90"></rect>
                <circle id="Oval" fill="#000000" cx="63" cy="63" r="27"></circle>
                <circle id="Oval" fill="#000000" cx="27" cy="27" r="27"></circle>
                <circle id="Oval" fill="#9B9B9B" cx="27" cy="27" r="9"></circle>
                <circle id="Oval" fill="#9B9B9B" cx="63" cy="63" r="9"></circle>
                <rect id="Rectangle" fill="#9B9B9B" x="27" y="54" width="36" height="18"></rect>
                <rect id="Rectangle" fill="#9B9B9B" x="27" y="18" width="27" height="18"></rect>
                <rect id="Rectangle" fill="#000000" x="27" y="36" width="36" height="18"></rect>
                <rect id="Rectangle" fill="#000000" x="27" y="0" width="63" height="18"></rect>
                <rect id="Rectangle" fill="#000000" x="0" y="72" width="63" height="18"></rect>
                <circle id="Oval" fill="#FFFFFF" cx="9" cy="63" r="9"></circle>
                <circle id="Oval" fill="#FFFFFF" cx="54" cy="27" r="9"></circle>
            </g>
            <path d="M155.664,67.424 C153.829324,66.6133293 152.474671,65.7493379 151.6,64.832 C150.725329,63.9146621 150.288,63.3706675 150.288,63.2 L151.888,60.704 C151.888,60.8320006 152.293329,61.3119958 153.104,62.144 C153.914671,62.9760042 155.098659,63.7439965 156.656,64.448 C158.213341,65.1520035 160.122655,65.504 162.384,65.504 C165.072013,65.504 167.183992,64.7253411 168.72,63.168 C170.256008,61.6106589 171.024,59.6800115 171.024,57.376 C171.024,55.7973254 170.640004,54.474672 169.872,53.408 C169.103996,52.341328 168.154672,51.4880032 167.024,50.848 C165.893328,50.2079968 164.36801,49.4826707 162.448,48.672 C160.229322,47.7759955 158.43734,46.9226707 157.072,46.112 C155.70666,45.3013293 154.554671,44.1813405 153.616,42.752 C152.677329,41.3226595 152.208,39.4986778 152.208,37.28 C152.208,33.7813158 153.317322,30.9973437 155.536,28.928 C157.754678,26.8586563 160.719981,25.824 164.432,25.824 C166.266676,25.824 167.919993,26.090664 169.392,26.624 C170.864007,27.157336 172.047996,27.7333302 172.944,28.352 C173.840004,28.9706698 174.288,29.3226662 174.288,29.408 L173.648,32.224 C173.648,32.1386662 173.221338,31.7973363 172.368,31.2 C171.514662,30.6026637 170.426673,30.0480026 169.104,29.536 C167.781327,29.0239974 166.309341,28.768 164.688,28.768 C162.298655,28.768 160.42134,29.4293267 159.056,30.752 C157.69066,32.0746733 157.008,33.8666554 157.008,36.128 C157.008,37.7066746 157.38133,39.0186614 158.128,40.064 C158.87467,41.1093386 159.813328,41.9519968 160.944,42.592 C162.074672,43.2320032 163.578657,43.9359962 165.456,44.704 C167.717345,45.6426714 169.53066,46.5279958 170.896,47.36 C172.26134,48.1920042 173.423995,49.3546592 174.384,50.848 C175.344005,52.3413408 175.824,54.2613216 175.824,56.608 C175.824,58.9546784 175.280005,61.0346576 174.192,62.848 C173.103995,64.6613424 171.557343,66.0799949 169.552,67.104 C167.546657,68.1280051 165.221347,68.64 162.576,68.64 C159.802653,68.64 157.498676,68.2346707 155.664,67.424 Z M184.848,64.64 C182.415988,61.97332 181.2,57.97336 181.2,52.64 C181.2,47.2639731 182.373322,43.0400154 184.72,39.968 C187.066678,36.8959846 190.266646,35.36 194.32,35.36 C197.989352,35.36 200.81599,36.6293206 202.8,39.168 C204.78401,41.7066794 205.776,45.3013101 205.776,49.952 C205.776,50.7626707 205.733334,51.4239974 205.648,51.936 C205.562666,52.4480026 205.498667,52.7679994 205.456,52.896 L186.064,52.896 C186.064,61.5147098 189.178636,65.824 195.408,65.824 C197.114675,65.824 198.575994,65.5146698 199.792,64.896 C201.008006,64.2773302 201.95733,63.6160035 202.64,62.912 C203.32267,62.2079965 203.664,61.7920006 203.664,61.664 L205.52,63.2 C205.52,63.3706675 205.114671,63.9146621 204.304,64.832 C203.493329,65.7493379 202.298675,66.6133293 200.72,67.424 C199.141325,68.2346707 197.200012,68.64 194.896,68.64 C190.629312,68.64 187.280012,67.30668 184.848,64.64 Z M201.424,50.208 L201.488,48.992 C201.488,41.7386304 199.098691,38.112 194.32,38.112 C191.802654,38.112 189.86134,39.1039901 188.496,41.088 C187.13066,43.0720099 186.341334,46.1119795 186.128,50.208 L201.424,50.208 Z M213.776,64.544 C211.386655,61.8133197 210.192,57.7386938 210.192,52.32 C210.192,46.8586394 211.375988,42.6666813 213.744,39.744 C216.112012,36.8213187 219.578644,35.36 224.144,35.36 C225.637341,35.36 227.045327,35.5626646 228.368,35.968 C229.690673,36.3733354 230.810662,36.8213309 231.728,37.312 C232.645338,37.8026691 233.104,38.0693331 233.104,38.112 L232.528,40.736 C232.357332,40.6079994 231.89867,40.3413354 231.152,39.936 C230.40533,39.5306646 229.445339,39.1360019 228.272,38.752 C227.098661,38.3679981 225.89334,38.176 224.656,38.176 C221.37065,38.176 218.960008,39.2639891 217.424,41.44 C215.887992,43.6160109 215.12,47.2213082 215.12,52.256 C215.12,57.1200243 215.930659,60.5973229 217.552,62.688 C219.173341,64.7786771 221.455985,65.824 224.4,65.824 C226.064008,65.824 227.482661,65.5253363 228.656,64.928 C229.829339,64.3306637 230.735997,63.7013366 231.376,63.04 C232.016003,62.3786634 232.336,61.9840006 232.336,61.856 L234.384,63.2 C234.384,63.3706675 234.000004,63.9146621 233.232,64.832 C232.463996,65.7493379 231.312008,66.6133293 229.776,67.424 C228.239992,68.2346707 226.320012,68.64 224.016,68.64 C219.578644,68.64 216.165345,67.2746803 213.776,64.544 Z M241.808,66.048 C240.101325,64.3199914 239.248,61.7493504 239.248,58.336 L239.248,36 L243.92,36 L243.92,57.376 C243.92,62.6240262 246.138644,65.248 250.576,65.248 C252.112008,65.248 253.434661,65.0026691 254.544,64.512 C255.653339,64.0213309 256.538663,63.4986694 257.2,62.944 C257.861337,62.3893306 258.192,62.0693338 258.192,61.984 L258.192,36 L262.864,36 L262.864,68 L258.96,68 L258.32,64.928 C257.765331,65.6960038 256.741341,66.5066624 255.248,67.36 C253.754659,68.2133376 251.685347,68.64 249.04,68.64 C245.925318,68.64 243.514675,67.7760086 241.808,66.048 Z M272.4,36 L275.856,36 L276.56,42.592 C276.56,42.3359987 276.805331,41.6000061 277.296,40.384 C277.786669,39.1679939 278.543995,38.026672 279.568,36.96 C280.592005,35.893328 281.914659,35.36 283.536,35.36 C284.346671,35.36 285.263995,35.4986653 286.288,35.776 C287.312005,36.0533347 287.973332,36.2559994 288.272,36.384 L287.824,39.904 C287.525332,39.7759994 286.853339,39.5840013 285.808,39.328 C284.762661,39.0719987 283.834671,38.944 283.024,38.944 C281.78666,38.944 280.730671,39.3599958 279.856,40.192 C278.981329,41.0240042 278.330669,41.9093286 277.904,42.848 C277.477331,43.7866714 277.200001,44.4906643 277.072,44.96 L277.072,68 L272.4,68 L272.4,36 Z M293.968,28.832 C293.413331,28.2773306 293.136,27.5946707 293.136,26.784 C293.136,25.9733293 293.413331,25.2906694 293.968,24.736 C294.437336,24.2666643 295.055996,24.032 295.824,24.032 C296.634671,24.032 297.274664,24.2453312 297.744,24.672 C298.256003,25.2266694 298.512,25.9306624 298.512,26.784 C298.512,27.5520038 298.256003,28.2346637 297.744,28.832 C297.146664,29.3013357 296.50667,29.536 295.824,29.536 C295.055996,29.536 294.437336,29.3013357 293.968,28.832 Z M293.456,68 L293.456,36 L298.128,36 L298.128,68 L293.456,68 Z M310.48,66.496 C309.370661,65.0666595 308.816,62.7093498 308.816,59.424 L308.816,39.136 L305.488,39.136 L305.488,36.448 L308.816,36.064 L310.544,25.888 L313.488,25.888 L313.488,36 L321.68,36 L321.68,39.136 L313.488,39.136 L313.488,58.272 C313.488,61.0453472 313.754664,62.9546614 314.288,64 C314.821336,65.0453386 315.749327,65.568 317.072,65.568 C318.138672,65.568 319.098662,65.4613344 319.952,65.248 C320.805338,65.0346656 321.232,64.9066669 321.232,64.864 L321.552,67.424 C321.466666,67.5093338 321.200002,67.647999 320.752,67.84 C320.303998,68.032001 319.642671,68.2133325 318.768,68.384 C317.893329,68.5546675 316.83734,68.64 315.6,68.64 C313.295988,68.64 311.589339,67.9253405 310.48,66.496 Z M326.672,84.448 C326.117331,84.3199994 325.690668,84.1920006 325.392,84.064 C325.093332,83.9359994 324.901334,83.8506669 324.816,83.808 L325.328,80.864 C325.456001,80.9493338 325.775997,81.0666659 326.288,81.216 C326.800003,81.3653341 327.354664,81.44 327.952,81.44 C329.914676,81.44 331.557327,80.3840106 332.88,78.272 C334.202673,76.1599894 335.674659,72.8640224 337.296,68.384 L324.752,36 L330.256,36 L339.728,62.752 L348.304,36 L351.696,36 L340.624,68.512 C338.789324,73.7600262 336.986676,77.7599862 335.216,80.512 C333.445324,83.2640138 331.25868,84.64 328.656,84.64 C327.887996,84.64 327.226669,84.5760006 326.672,84.448 Z" id="Security" fill="#000000"></path>
            <path d="M271.7545,85.35 L283.8325,85.35 C289.525862,85.35 293.948318,87.0681495 297.1,90.5045 C300.251682,93.9408505 301.8275,98.8716345 301.8275,105.297 C301.8275,111.681699 300.272016,116.56165 297.161,119.937 C294.049984,123.31235 289.607196,125 283.8325,125 L271.7545,125 L271.7545,85.35 Z M283.8935,122.072 C292.514876,122.072 296.8255,116.480389 296.8255,105.297 C296.8255,93.9509433 292.494543,88.278 283.8325,88.278 L276.3905,88.278 L276.3905,122.072 L283.8935,122.072 Z M310.4285,121.7975 C308.110488,119.255821 306.9515,115.443359 306.9515,110.36 C306.9515,105.235974 308.069822,101.210015 310.3065,98.282 C312.543178,95.3539854 315.593147,93.89 319.4565,93.89 C322.953851,93.89 325.647991,95.0998212 327.539,97.5195 C329.430009,99.9391788 330.3755,103.365311 330.3755,107.798 C330.3755,108.570671 330.334834,109.200998 330.2535,109.689 C330.172166,110.177002 330.111167,110.481999 330.0705,110.604 L311.5875,110.604 C311.5875,118.818708 314.556137,122.926 320.4935,122.926 C322.120175,122.926 323.512994,122.63117 324.672,122.0415 C325.831006,121.45183 326.73583,120.821503 327.3865,120.1505 C328.03717,119.479497 328.3625,119.083001 328.3625,118.961 L330.1315,120.425 C330.1315,120.587667 329.745171,121.106162 328.9725,121.9805 C328.199829,122.854838 327.061174,123.678329 325.5565,124.451 C324.051826,125.223671 322.201511,125.61 320.0055,125.61 C315.938813,125.61 312.746512,124.339179 310.4285,121.7975 Z M326.2275,108.042 L326.2885,106.883 C326.2885,99.9696321 324.011189,96.513 319.4565,96.513 C317.057155,96.513 315.20684,97.4584905 313.9055,99.3495 C312.60416,101.240509 311.851834,104.13798 311.6485,108.042 L326.2275,108.042 Z M339.007,124.6035 C337.522659,123.932497 336.404337,123.210671 335.652,122.438 C334.899663,121.665329 334.5235,121.218001 334.5235,121.096 L336.0485,118.961 C336.0485,119.042334 336.37383,119.428663 337.0245,120.12 C337.67517,120.811337 338.569828,121.45183 339.7085,122.0415 C340.847172,122.63117 342.189159,122.926 343.7345,122.926 C346.011845,122.926 347.729994,122.356672 348.889,121.218 C350.048006,120.079328 350.6275,118.696675 350.6275,117.07 C350.6275,115.890661 350.33267,114.914671 349.743,114.142 C349.15333,113.369329 348.421338,112.769502 347.547,112.3425 C346.672662,111.915498 345.462841,111.437669 343.9175,110.909 C342.128158,110.25833 340.704839,109.658503 339.6475,109.1095 C338.590161,108.560497 337.685337,107.737005 336.933,106.639 C336.180663,105.540995 335.8045,104.117675 335.8045,102.369 C335.8045,99.7663203 336.749991,97.7025076 338.641,96.1775 C340.532009,94.6524924 342.961818,93.89 345.9305,93.89 C347.23184,93.89 348.482327,94.0628316 349.682,94.4085 C350.881673,94.7541684 351.847496,95.1201647 352.5795,95.5065 C353.311504,95.8928353 353.779166,96.1469994 353.9825,96.269 L353.2505,98.892 C353.087833,98.7699994 352.68117,98.5158353 352.0305,98.1295 C351.37983,97.7431647 350.536005,97.3670018 349.499,97.001 C348.461995,96.6349982 347.394505,96.452 346.2965,96.452 C344.425824,96.452 342.911006,96.919662 341.752,97.855 C340.592994,98.790338 340.0135,99.9696596 340.0135,101.393 C340.0135,102.572339 340.318497,103.558496 340.9285,104.3515 C341.538503,105.144504 342.300995,105.764664 343.216,106.212 C344.131005,106.659336 345.361159,107.167664 346.9065,107.737 C348.695842,108.347003 350.149661,108.94683 351.268,109.5365 C352.386339,110.12617 353.331829,110.969995 354.1045,112.068 C354.877171,113.166005 355.2635,114.589325 355.2635,116.338 C355.2635,118.981347 354.348509,121.187491 352.5185,122.9565 C350.688491,124.725509 348.004518,125.61 344.4665,125.61 C342.311156,125.61 340.491341,125.274503 339.007,124.6035 Z M362.2175,87.668 C361.688831,87.1393307 361.4245,86.4886705 361.4245,85.716 C361.4245,84.9433295 361.688831,84.2926693 362.2175,83.764 C362.664836,83.3166644 363.254496,83.093 363.9865,83.093 C364.759171,83.093 365.369164,83.2963313 365.8165,83.703 C366.304502,84.2316693 366.5485,84.9026626 366.5485,85.716 C366.5485,86.4480037 366.304502,87.0986638 365.8165,87.668 C365.247164,88.1153356 364.63717,88.339 363.9865,88.339 C363.254496,88.339 362.664836,88.1153356 362.2175,87.668 Z M361.7295,125 L361.7295,94.5 L366.1825,94.5 L366.1825,125 L361.7295,125 Z M375.3325,138.3285 C373.095822,136.640825 371.9775,134.17035 371.9775,130.917 C371.9775,128.802323 372.455329,127.09434 373.411,125.793 C374.366671,124.49166 375.576493,123.536003 377.0405,122.926 C376.308496,122.071996 375.9425,120.872341 375.9425,119.327 C375.9425,117.334323 376.877824,115.62634 378.7485,114.203 C377.121825,113.348996 375.861171,112.118841 374.9665,110.5125 C374.071829,108.906159 373.6245,106.964345 373.6245,104.687 C373.6245,100.986315 374.671656,98.2616754 376.766,96.513 C378.860344,94.7643246 381.554484,93.89 384.8485,93.89 C386.434508,93.89 387.837494,94.0933313 389.0575,94.5 L396.9265,94.561 L396.9265,96.94 L393.0225,97.062 C394.649175,98.8920092 395.4625,101.43365 395.4625,104.687 C395.4625,108.184351 394.517009,110.868324 392.626,112.739 C390.734991,114.609676 388.122183,115.545 384.7875,115.545 C383.404826,115.545 382.164505,115.402668 381.0665,115.118 C379.64316,116.053338 378.9315,117.110661 378.9315,118.29 C378.9315,119.388005 379.378829,120.150498 380.2735,120.5775 C381.168171,121.004502 382.611823,121.218 384.6045,121.218 C393.510545,121.218 397.9635,124.349302 397.9635,130.612 C397.9635,133.946683 396.855344,136.488325 394.639,138.237 C392.422656,139.985675 389.260854,140.86 385.1535,140.86 C380.842812,140.86 377.569178,140.016175 375.3325,138.3285 Z M391.1315,104.626 C391.1315,101.697985 390.562172,99.6138395 389.4235,98.3735 C388.284828,97.1331605 386.67851,96.513 384.6045,96.513 C382.53049,96.513 380.893673,97.1229939 379.694,98.343 C378.494327,99.5630061 377.8945,101.677652 377.8945,104.687 C377.8945,107.452347 378.484161,109.54666 379.6635,110.97 C380.842839,112.39334 382.510156,113.105 384.6655,113.105 C388.976188,113.105 391.1315,110.278695 391.1315,104.626 Z M391.7415,136.3765 C393.286841,135.217494 394.0595,133.540011 394.0595,131.344 C394.0595,127.073979 390.7452,124.939 384.1165,124.939 C382.205157,124.939 380.680172,124.776335 379.5415,124.451 C378.321494,124.939002 377.335337,125.721828 376.583,126.7995 C375.830663,127.877172 375.4545,129.229325 375.4545,130.856 C375.4545,133.296012 376.298325,135.115827 377.986,136.3155 C379.673675,137.515173 382.062818,138.115 385.1535,138.115 C388.000181,138.115 390.196159,137.535506 391.7415,136.3765 Z M404.0025,125 L404.0025,85.35 L408.8215,85.35 L429.0735,118.046 L428.8905,116.582 L428.8905,85.35 L432.2455,85.35 L432.2455,125 L428.2195,125 L407.1135,91.206 L407.0525,91.206 L407.3575,93.097 L407.3575,125 L404.0025,125 Z" id="DesigN" fill="#000000"></path>
            <path d="M165.470703,108.839844 C164.658199,109.753911 163.972659,110.621415 163.414062,111.442383 C162.855466,112.26335 162.576172,112.970049 162.576172,113.5625 C162.576172,114.019534 162.741209,114.345377 163.071289,114.540039 C163.401369,114.734701 163.811847,114.832031 164.302734,114.832031 C164.759768,114.832031 165.297197,114.781251 165.915039,114.679688 C166.532881,114.578124 167.260738,114.39616 168.098633,114.133789 C168.936528,113.871418 169.909825,113.520184 171.018555,113.080078 C172.127284,112.639972 173.409498,112.07292 174.865234,111.378906 L175.119141,111.988281 C173.595696,112.716149 172.224615,113.333982 171.005859,113.841797 C169.787103,114.349612 168.682622,114.768553 167.692383,115.098633 C166.702143,115.428713 165.805017,115.669921 165.000977,115.822266 C164.196936,115.97461 163.456384,116.050781 162.779297,116.050781 C162.356118,116.050781 161.924481,115.995769 161.484375,115.885742 C161.044269,115.775716 160.642254,115.606446 160.27832,115.37793 C159.914386,115.149413 159.613933,114.874351 159.376953,114.552734 C159.139973,114.231118 159.021484,113.850263 159.021484,113.410156 C159.021484,113.20703 159.046875,112.995444 159.097656,112.775391 C159.148438,112.555337 159.241536,112.326824 159.376953,112.089844 C157.971998,113.460944 156.626309,114.463864 155.339844,115.098633 C154.053379,115.733402 152.860032,116.050781 151.759766,116.050781 C150.913407,116.050781 150.232099,115.936525 149.71582,115.708008 C149.199542,115.479491 148.793296,115.18327 148.49707,114.819336 C148.200845,114.455402 148.001954,114.044924 147.900391,113.587891 C147.798828,113.130857 147.748047,112.665367 147.748047,112.191406 C147.748047,111.395829 147.934243,110.566411 148.306641,109.703125 C148.679038,108.839839 149.182614,107.98503 149.817383,107.138672 C150.452152,106.292313 151.188472,105.484053 152.026367,104.713867 C152.864262,103.943681 153.748693,103.266604 154.679688,102.682617 C155.610682,102.09863 156.550125,101.63314 157.498047,101.286133 C158.445968,100.939126 159.360022,100.765625 160.240234,100.765625 C160.798831,100.765625 161.323565,100.816406 161.814453,100.917969 C162.305341,101.019532 162.728514,101.176106 163.083984,101.387695 C163.439455,101.599285 163.722981,101.878579 163.93457,102.225586 C164.14616,102.572593 164.251953,102.983071 164.251953,103.457031 C164.251953,103.998701 164.099611,104.624996 163.794922,105.335938 L162.931641,105.742188 C163.033204,105.335935 163.083984,104.946616 163.083984,104.574219 C163.083984,104.303384 163.054362,104.036785 162.995117,103.774414 C162.935872,103.512043 162.838542,103.279298 162.703125,103.076172 C162.567708,102.873046 162.385743,102.708008 162.157227,102.581055 C161.92871,102.454101 161.645184,102.390625 161.306641,102.390625 C160.578772,102.390625 159.833988,102.564126 159.072266,102.911133 C158.310543,103.25814 157.569991,103.715166 156.850586,104.282227 C156.131181,104.849287 155.454105,105.484046 154.819336,106.186523 C154.184567,106.889001 153.630211,107.604163 153.15625,108.332031 C152.682289,109.059899 152.305665,109.762366 152.026367,110.439453 C151.747069,111.11654 151.607422,111.700518 151.607422,112.191406 C151.607422,112.88542 151.768228,113.338215 152.089844,113.549805 C152.41146,113.761394 152.927731,113.867188 153.638672,113.867188 C154.48503,113.867188 155.36523,113.60482 156.279297,113.080078 C157.193364,112.555336 158.158198,111.835942 159.173828,110.921875 C159.630862,110.481769 160.075193,110.058596 160.506836,109.652344 C160.938479,109.246092 161.408201,108.738284 161.916016,108.128906 C162.220705,107.756509 162.588865,107.316409 163.020508,106.808594 C163.452151,106.300779 163.909177,105.771813 164.391602,105.22168 C164.874026,104.671547 165.364906,104.134117 165.864258,103.609375 C166.363609,103.084633 166.837563,102.610679 167.286133,102.1875 C167.734703,101.764321 168.136717,101.421551 168.492188,101.15918 C168.847658,100.896809 169.126952,100.765625 169.330078,100.765625 C169.465495,100.765625 169.651692,100.791015 169.888672,100.841797 C170.125652,100.892578 170.358397,100.964518 170.586914,101.057617 C170.815431,101.150717 171.01009,101.269205 171.170898,101.413086 C171.331707,101.556967 171.412109,101.713541 171.412109,101.882812 C171.412109,102.069011 171.289389,102.305988 171.043945,102.59375 C170.798501,102.881512 170.498049,103.22005 170.142578,103.609375 L165.470703,108.839844 Z M195.431641,92.7929688 C194.416011,93.8593803 193.501957,94.815751 192.689453,95.6621094 C191.876949,96.5084678 191.072921,97.3251914 190.277344,98.1123047 C189.481767,98.899418 188.652348,99.7034464 187.789062,100.524414 C186.925777,101.345382 185.935552,102.259435 184.818359,103.266602 C183.701166,104.273768 182.410489,105.420566 180.946289,106.707031 C179.482089,107.993496 177.759776,109.499991 175.779297,111.226562 C175.593098,111.683596 175.453451,112.102537 175.360352,112.483398 C175.267252,112.86426 175.220703,113.20703 175.220703,113.511719 C175.220703,113.748699 175.288411,113.94759 175.423828,114.108398 C175.559245,114.269207 175.732746,114.40039 175.944336,114.501953 C176.155926,114.603516 176.392902,114.675456 176.655273,114.717773 C176.917645,114.760091 177.167317,114.78125 177.404297,114.78125 C177.86133,114.78125 178.39876,114.730469 179.016602,114.628906 C179.634443,114.527343 180.3623,114.345379 181.200195,114.083008 C182.03809,113.820637 183.011388,113.469403 184.120117,113.029297 C185.228847,112.589191 186.51106,112.022139 187.966797,111.328125 L188.220703,111.9375 C186.697258,112.665368 185.326178,113.283201 184.107422,113.791016 C182.888666,114.298831 181.784185,114.717772 180.793945,115.047852 C179.803706,115.377931 178.90658,115.61914 178.102539,115.771484 C177.298499,115.923829 176.557946,116 175.880859,116 C175.186845,116 174.615562,115.932292 174.166992,115.796875 C173.718422,115.661458 173.362957,115.479493 173.100586,115.250977 C172.838215,115.02246 172.652019,114.747397 172.541992,114.425781 C172.431966,114.104165 172.376953,113.7487 172.376953,113.359375 C172.376953,112.563798 172.626625,111.590501 173.125977,110.439453 C173.625328,109.288406 174.293941,108.035814 175.131836,106.681641 C175.969731,105.327467 176.938797,103.901375 178.039062,102.40332 C179.139328,100.905266 180.29459,99.4114658 181.504883,97.921875 C182.715175,96.4322842 183.942377,94.9765696 185.186523,93.5546875 C186.43067,92.1328054 187.611323,90.8125061 188.728516,89.59375 C189.067059,89.2213523 189.515622,88.7643256 190.074219,88.2226562 C190.632815,87.6809869 191.250648,87.1097035 191.927734,86.5087891 C192.604821,85.9078746 193.319983,85.3112009 194.073242,84.71875 C194.826501,84.1262991 195.571285,83.5931013 196.307617,83.1191406 C197.043949,82.6451799 197.746416,82.2600926 198.415039,81.9638672 C199.083662,81.6676417 199.680336,81.5195312 200.205078,81.5195312 C200.899092,81.5195312 201.385741,81.6888004 201.665039,82.0273438 C201.944337,82.3658871 202.083984,82.8059869 202.083984,83.3476562 C202.083984,83.7708354 201.948569,84.261716 201.677734,84.8203125 C201.4069,85.378909 201.059898,85.971351 200.636719,86.5976562 C200.21354,87.2239615 199.743818,87.8587207 199.227539,88.5019531 C198.71126,89.1451855 198.207685,89.746091 197.716797,90.3046875 C197.225909,90.863284 196.773114,91.362628 196.358398,91.8027344 C195.943683,92.2428407 195.634767,92.5729156 195.431641,92.7929688 Z M193.044922,89.4921875 C192.147782,90.3893274 191.199875,91.362625 190.201172,92.4121094 C189.202469,93.4615938 188.199549,94.549148 187.192383,95.6748047 C186.185216,96.8004614 185.186528,97.9472598 184.196289,99.1152344 C183.20605,100.283209 182.266606,101.438471 181.37793,102.581055 C180.489253,103.723639 179.664066,104.832351 178.902344,105.907227 C178.140621,106.982102 177.488935,107.993485 176.947266,108.941406 C177.87826,108.145829 178.919265,107.236008 180.070312,106.211914 C181.22136,105.18782 182.427403,104.104498 183.688477,102.961914 C184.949551,101.81933 186.227533,100.638678 187.522461,99.4199219 C188.817389,98.2011658 190.069981,96.9866597 191.280273,95.7763672 C192.490566,94.5660747 193.628901,93.3896542 194.695312,92.2470703 C195.761724,91.1044865 196.692704,90.0423226 197.488281,89.0605469 C198.283858,88.0787711 198.910154,87.1985716 199.367188,86.4199219 C199.824221,85.6412721 200.052734,85.0065129 200.052734,84.515625 C200.052734,84.2786446 199.934246,84.1601562 199.697266,84.1601562 C199.358722,84.1601562 198.935549,84.3251937 198.427734,84.6552734 C197.919919,84.9853532 197.365563,85.4085261 196.764648,85.9248047 C196.163734,86.4410833 195.54167,87.0165984 194.898438,87.6513672 C194.255205,88.286136 193.637373,88.8997366 193.044922,89.4921875 Z M205.638672,110.820312 C204.826168,110.820312 204.102542,110.680665 203.467773,110.401367 C202.833005,110.122069 202.287112,109.736982 201.830078,109.246094 C200.916011,110.684903 200.010421,111.85286 199.113281,112.75 C198.216141,113.64714 197.348637,114.349607 196.510742,114.857422 C195.672847,115.365237 194.868819,115.708007 194.098633,115.885742 C193.328447,116.063477 192.604821,116.152344 191.927734,116.152344 C191.11523,116.152344 190.4043,116.055014 189.794922,115.860352 C189.185544,115.665689 188.677736,115.403322 188.271484,115.073242 C187.865232,114.743162 187.560548,114.353843 187.357422,113.905273 C187.154296,113.456703 187.052734,112.970055 187.052734,112.445312 C187.052734,111.378901 187.264321,110.342127 187.6875,109.334961 C188.110679,108.327794 188.677731,107.388351 189.388672,106.516602 C190.099613,105.644852 190.916337,104.849287 191.838867,104.129883 C192.761398,103.410478 193.713537,102.792646 194.695312,102.276367 C195.677088,101.760089 196.658849,101.362306 197.640625,101.083008 C198.622401,100.80371 199.527991,100.664062 200.357422,100.664062 C200.797528,100.664062 201.237628,100.697916 201.677734,100.765625 C202.117841,100.833334 202.515623,100.968749 202.871094,101.171875 C203.226564,101.375001 203.514322,101.654295 203.734375,102.009766 C203.954428,102.365236 204.064453,102.830726 204.064453,103.40625 C204.064453,103.795575 204.026368,104.197589 203.950195,104.612305 C203.874023,105.02702 203.785157,105.429035 203.683594,105.818359 C203.582031,106.207684 203.467774,106.580076 203.34082,106.935547 C203.213867,107.291017 203.09961,107.604165 202.998047,107.875 C203.133464,108.53516 203.501625,109.038735 204.102539,109.385742 C204.703454,109.732749 205.350908,109.90625 206.044922,109.90625 C206.603518,109.90625 207.166338,109.796225 207.733398,109.576172 C208.300459,109.356119 208.804034,109.042971 209.244141,108.636719 L209.751953,109.042969 C209.311847,109.584638 208.719405,110.016274 207.974609,110.337891 C207.229814,110.659507 206.451176,110.820312 205.638672,110.820312 Z M192.994141,114.628906 C193.552737,114.628906 194.187496,114.510418 194.898438,114.273438 C195.609379,114.036457 196.333004,113.664065 197.069336,113.15625 C197.805668,112.648435 198.529293,111.996749 199.240234,111.201172 C199.951175,110.405595 200.594398,109.449224 201.169922,108.332031 C200.594398,107.38411 200.306641,106.385422 200.306641,105.335938 C200.306641,104.794268 200.429361,104.299156 200.674805,103.850586 C200.920249,103.402016 201.288409,102.949221 201.779297,102.492188 C201.677734,102.441406 201.54655,102.40332 201.385742,102.37793 C201.224934,102.352539 201.000652,102.339844 200.712891,102.339844 C200.12044,102.339844 199.405278,102.542967 198.567383,102.949219 C197.729488,103.355471 196.874679,103.901364 196.00293,104.586914 C195.131181,105.272464 194.305993,106.072261 193.527344,106.986328 C192.748694,107.900395 192.130862,108.856766 191.673828,109.855469 C191.470702,110.261721 191.276043,110.731443 191.089844,111.264648 C190.903645,111.797854 190.810547,112.309893 190.810547,112.800781 C190.810547,113.308596 190.962889,113.740233 191.267578,114.095703 C191.572267,114.451174 192.147782,114.628906 192.994141,114.628906 Z M207.771484,115.898438 C207.686849,115.932292 207.602214,115.949219 207.517578,115.949219 L207.263672,115.949219 C207.060546,115.949219 206.861655,115.911133 206.666992,115.834961 C206.47233,115.758789 206.298829,115.665691 206.146484,115.555664 C205.99414,115.445637 205.87142,115.327149 205.77832,115.200195 C205.685221,115.073242 205.638672,114.950521 205.638672,114.832031 C205.638672,114.628905 205.702148,114.421551 205.829102,114.209961 C205.956055,113.998371 206.112629,113.79948 206.298828,113.613281 L213.052734,105.894531 C213.560549,105.30208 214.089515,104.696943 214.639648,104.079102 C215.189781,103.46126 215.714516,102.902672 216.213867,102.40332 C216.713219,101.903969 217.166014,101.497723 217.572266,101.18457 C217.978518,100.871418 218.300129,100.714844 218.537109,100.714844 C218.672527,100.714844 218.858723,100.740234 219.095703,100.791016 C219.332683,100.841797 219.565429,100.913737 219.793945,101.006836 C220.022462,101.099935 220.217122,101.218424 220.37793,101.362305 C220.538738,101.506186 220.619141,101.66276 220.619141,101.832031 C220.619141,102.01823 220.49642,102.255207 220.250977,102.542969 C220.005533,102.830731 219.70508,103.169269 219.349609,103.558594 L218.943359,104.015625 C219.315757,103.761717 219.802406,103.452801 220.40332,103.088867 C221.004235,102.724933 221.668616,102.3737 222.396484,102.035156 C223.124353,101.696613 223.881832,101.408855 224.668945,101.171875 C225.456059,100.934895 226.222001,100.816406 226.966797,100.816406 C228.050136,100.816406 228.786456,100.97298 229.175781,101.286133 C229.565106,101.599285 229.759766,102.035153 229.759766,102.59375 C229.759766,103.236982 229.57357,103.901364 229.201172,104.586914 C228.828774,105.272464 228.367516,105.953773 227.817383,106.630859 C227.26725,107.307946 226.674808,107.972327 226.040039,108.624023 C225.40527,109.275719 224.812828,109.897783 224.262695,110.490234 C223.712562,111.082685 223.255536,111.637042 222.891602,112.15332 C222.527667,112.669599 222.345703,113.122394 222.345703,113.511719 C222.345703,113.748699 222.38802,113.939127 222.472656,114.083008 C222.557292,114.226889 222.663085,114.336914 222.790039,114.413086 C222.916993,114.489258 223.060872,114.535807 223.22168,114.552734 C223.382488,114.569662 223.547525,114.578125 223.716797,114.578125 C224.681645,114.578125 225.638016,114.485027 226.585938,114.298828 C227.533859,114.112629 228.469071,113.867189 229.391602,113.5625 C230.314132,113.257811 231.223954,112.906578 232.121094,112.508789 C233.018234,112.111001 233.88997,111.700523 234.736328,111.277344 L234.990234,111.886719 C234.431638,112.259116 233.661463,112.682289 232.679688,113.15625 C231.697912,113.630211 230.597662,114.078774 229.378906,114.501953 C228.16015,114.925132 226.86101,115.280598 225.481445,115.568359 C224.101881,115.856121 222.735033,116 221.380859,116 C220.585282,116 219.946291,115.80534 219.463867,115.416016 C218.981443,115.026691 218.740234,114.408858 218.740234,113.5625 C218.740234,113.156248 218.87565,112.682294 219.146484,112.140625 C219.417319,111.598956 219.768553,111.036136 220.200195,110.452148 C220.631838,109.868161 221.114255,109.271487 221.647461,108.662109 C222.180667,108.052731 222.705401,107.468753 223.22168,106.910156 C223.737958,106.35156 224.224607,105.831057 224.681641,105.348633 C225.138674,104.866209 225.511066,104.455731 225.798828,104.117188 C225.900391,103.964843 226.04427,103.765952 226.230469,103.520508 C226.416668,103.275064 226.509766,103.050782 226.509766,102.847656 C226.509766,102.712239 226.454753,102.602214 226.344727,102.517578 C226.2347,102.432942 226.052736,102.390625 225.798828,102.390625 C225.274086,102.390625 224.77051,102.445637 224.288086,102.555664 C223.805662,102.665691 223.323245,102.822265 222.84082,103.025391 C222.358396,103.228517 221.863284,103.48242 221.355469,103.787109 C220.847654,104.091798 220.314456,104.4388 219.755859,104.828125 C218.401686,105.792974 217.119472,106.817052 215.90918,107.900391 C214.698887,108.983729 213.509771,110.109369 212.341797,111.277344 C211.833982,111.869795 211.275394,112.504554 210.666016,113.181641 C210.056638,113.858727 209.481122,114.442706 208.939453,114.933594 C208.685546,115.221356 208.465496,115.432942 208.279297,115.568359 C208.093098,115.703777 207.923829,115.813802 207.771484,115.898438 Z M247.685547,112.039062 C247.177732,112.631513 246.68262,113.194333 246.200195,113.727539 C245.717771,114.260745 245.231122,114.781247 244.740234,115.289062 C246.805349,114.341141 248.93814,113.45671 251.138672,112.635742 C253.339204,111.814775 255.624337,111.074222 257.994141,110.414062 L258.248047,111.023438 C257.350907,111.260418 256.335292,111.573566 255.201172,111.962891 C254.067052,112.352215 252.861009,112.800779 251.583008,113.308594 C250.305007,113.816409 248.96778,114.374997 247.571289,114.984375 C246.174798,115.593753 244.757169,116.236976 243.318359,116.914062 C240.220688,120.33335 237.580089,123.312487 235.396484,125.851562 C233.21288,128.390638 231.435554,130.388014 230.064453,131.84375 C229.573565,132.351565 229.053063,132.842446 228.50293,133.316406 C227.952797,133.790367 227.364586,134.205076 226.738281,134.560547 C226.111976,134.916017 225.456058,135.203775 224.770508,135.423828 C224.084958,135.643881 223.378259,135.753906 222.650391,135.753906 C222.311847,135.753906 221.981772,135.715821 221.660156,135.639648 C221.33854,135.563476 221.050783,135.436524 220.796875,135.258789 C220.542967,135.081054 220.339845,134.85254 220.1875,134.573242 C220.035155,134.293944 219.958984,133.959637 219.958984,133.570312 C219.958984,133.096352 220.136717,132.525068 220.492188,131.856445 C220.847658,131.187822 221.376624,130.459965 222.079102,129.672852 C222.781579,128.885738 223.653315,128.056319 224.694336,127.18457 C225.735357,126.312821 226.949863,125.42839 228.337891,124.53125 C229.844409,123.532547 231.41438,122.533859 233.047852,121.535156 C234.681323,120.536453 236.395173,119.554692 238.189453,118.589844 C238.798831,117.828121 239.403968,117.079105 240.004883,116.342773 C240.605797,115.606442 241.202471,114.882816 241.794922,114.171875 C240.880855,114.815107 239.996424,115.280598 239.141602,115.568359 C238.28678,115.856121 237.478519,116 236.716797,116 C235.870438,116 235.18913,115.885743 234.672852,115.657227 C234.156573,115.42871 233.750327,115.132489 233.454102,114.768555 C233.157876,114.404621 232.958985,113.994143 232.857422,113.537109 C232.755859,113.080076 232.705078,112.614586 232.705078,112.140625 C232.705078,111.361975 232.891274,110.536788 233.263672,109.665039 C233.63607,108.79329 234.139645,107.934249 234.774414,107.087891 C235.409183,106.241532 236.145504,105.433272 236.983398,104.663086 C237.821293,103.8929 238.705725,103.215823 239.636719,102.631836 C240.567713,102.047849 241.507157,101.582359 242.455078,101.235352 C243.403,100.888345 244.317053,100.714844 245.197266,100.714844 C245.755862,100.714844 246.280597,100.765624 246.771484,100.867188 C247.262372,100.968751 247.685545,101.125324 248.041016,101.336914 C248.396486,101.548504 248.680012,101.827798 248.891602,102.174805 C249.103191,102.521812 249.208984,102.932289 249.208984,103.40625 C249.208984,103.947919 249.056642,104.574215 248.751953,105.285156 L247.888672,105.691406 C247.990235,105.285154 248.041016,104.895835 248.041016,104.523438 C248.041016,104.252603 248.011394,103.986004 247.952148,103.723633 C247.892903,103.461262 247.795574,103.228517 247.660156,103.025391 C247.524739,102.822265 247.342775,102.657227 247.114258,102.530273 C246.885741,102.40332 246.602215,102.339844 246.263672,102.339844 C245.535804,102.339844 244.791019,102.513345 244.029297,102.860352 C243.267574,103.207359 242.527022,103.664385 241.807617,104.231445 C241.088213,104.798505 240.411136,105.433265 239.776367,106.135742 C239.141598,106.83822 238.587242,107.553382 238.113281,108.28125 C237.639321,109.009118 237.262697,109.711585 236.983398,110.388672 C236.7041,111.065759 236.564453,111.649737 236.564453,112.140625 C236.564453,112.834639 236.725259,113.287434 237.046875,113.499023 C237.368491,113.710613 237.884762,113.816406 238.595703,113.816406 C239.442062,113.816406 240.313798,113.549807 241.210938,113.016602 C242.108077,112.483396 243.081375,111.768234 244.130859,110.871094 C244.36784,110.667968 244.617512,110.443686 244.879883,110.198242 C245.142254,109.952798 245.417316,109.686199 245.705078,109.398438 C245.891277,109.161457 246.077473,108.932944 246.263672,108.712891 C246.449871,108.492837 246.636067,108.281251 246.822266,108.078125 C247.126955,107.705727 247.495115,107.265628 247.926758,106.757812 C248.358401,106.249997 248.815427,105.721031 249.297852,105.170898 C249.780276,104.620765 250.271156,104.083336 250.770508,103.558594 C251.269859,103.033852 251.743813,102.559898 252.192383,102.136719 C252.640953,101.71354 253.042967,101.37077 253.398438,101.108398 C253.753908,100.846027 254.033202,100.714844 254.236328,100.714844 C254.371745,100.714844 254.557942,100.740234 254.794922,100.791016 C255.031902,100.841797 255.264647,100.913737 255.493164,101.006836 C255.721681,101.099935 255.91634,101.218424 256.077148,101.362305 C256.237957,101.506186 256.318359,101.66276 256.318359,101.832031 C256.318359,102.01823 256.195639,102.255207 255.950195,102.542969 C255.704751,102.830731 255.404299,103.169269 255.048828,103.558594 L250.833984,108.332031 C250.715494,108.450521 250.537762,108.640949 250.300781,108.90332 C250.063801,109.165691 249.797202,109.466144 249.500977,109.804688 C249.204751,110.143231 248.895835,110.50716 248.574219,110.896484 C248.252603,111.285809 247.956382,111.666665 247.685547,112.039062 Z M226.916016,131.691406 C227.559248,131.048174 228.265947,130.30339 229.036133,129.457031 C229.806319,128.610673 230.618811,127.692388 231.473633,126.702148 C232.328455,125.711909 233.208654,124.670904 234.114258,123.579102 C235.019861,122.487299 235.938146,121.365891 236.869141,120.214844 C235.311841,121.061202 233.805346,121.932938 232.349609,122.830078 C230.893873,123.727218 229.535488,124.620113 228.274414,125.508789 C227.01334,126.397465 225.875005,127.277665 224.859375,128.149414 C223.843745,129.021163 223.005863,129.863277 222.345703,130.675781 C222.057941,131.014325 221.808269,131.390948 221.59668,131.805664 C221.38509,132.22038 221.279297,132.622394 221.279297,133.011719 C221.279297,133.350262 221.393554,133.629556 221.62207,133.849609 C221.850587,134.069663 222.261065,134.179688 222.853516,134.179688 C223.12435,134.179688 223.433266,134.107748 223.780273,133.963867 C224.12728,133.819986 224.478514,133.63379 224.833984,133.405273 C225.189455,133.176757 225.54492,132.91439 225.900391,132.618164 C226.255861,132.321939 226.594399,132.013022 226.916016,131.691406 Z" id="along" fill="#000000"></path>
        </g>
    </g>
</svg>