<?xml version="1.0" encoding="UTF-8"?>
<svg width="300px" height="120px" viewBox="0 0 300 120" version="1.1" xmlns="http://www.w3.org/2000/svg" xmlns:xlink="http://www.w3.org/1999/xlink">
    <!-- Generator: Sketch 46.2 (44496) - http://www.bohemiancoding.com/sketch -->
    <title>logotitle2</title>
    <desc>Created with Sketch.</desc>
    <defs></defs>
    <g id="Page-1" stroke="none" stroke-width="1" fill="none" fill-rule="evenodd">
        <g id="logotitle2">
            <g id="Group-2" transform="translate(16.000000, 26.000000)">
                <g id="Group" transform="translate(0.000000, 1.401709)">
                    <rect id="Rectangle" fill="#9B9B9B" x="0" y="0" width="62.9533679" height="63.0769231"></rect>
                    <ellipse id="Oval" fill="#000000" cx="44.0673575" cy="44.1538462" rx="18.8860104" ry="18.9230769"></ellipse>
                    <ellipse id="Oval" fill="#000000" cx="18.8860104" cy="18.9230769" rx="18.8860104" ry="18.9230769"></ellipse>
                    <ellipse id="Oval" fill="#9B9B9B" cx="18.8860104" cy="18.9230769" rx="6.29533679" ry="6.30769231"></ellipse>
                    <ellipse id="Oval" fill="#9B9B9B" cx="44.0673575" cy="44.1538462" rx="6.29533679" ry="6.30769231"></ellipse>
                    <rect id="Rectangle" fill="#9B9B9B" x="18.8860104" y="37.8461538" width="25.1813472" height="12.6153846"></rect>
                    <rect id="Rectangle" fill="#9B9B9B" x="18.8860104" y="12.6153846" width="18.8860104" height="12.6153846"></rect>
                    <rect id="Rectangle" fill="#000000" x="18.8860104" y="25.2307692" width="25.1813472" height="12.6153846"></rect>
                    <rect id="Rectangle" fill="#000000" x="18.8860104" y="0" width="44.0673575" height="12.6153846"></rect>
                    <rect id="Rectangle" fill="#000000" x="0" y="50.4615385" width="44.0673575" height="12.6153846"></rect>
                    <ellipse id="Oval" fill="#FFFFFF" cx="6.29533679" cy="44.1538462" rx="6.29533679" ry="6.30769231"></ellipse>
                    <ellipse id="Oval" fill="#FFFFFF" cx="37.7720207" cy="18.9230769" rx="6.29533679" ry="6.30769231"></ellipse>
                </g>
                <path d="M76.0084974,30.4339145 C74.7251749,29.8657521 73.7776196,29.2602197 73.1658031,28.6172991 C72.5539866,27.9743786 72.2480829,27.5931174 72.2480829,27.4735043 L73.3672539,25.7241709 C73.3672539,25.8138808 73.6507744,26.1502877 74.2178238,26.7334017 C74.7848733,27.3165157 75.6130515,27.8547668 76.7023834,28.3481709 C77.7917153,28.8415751 79.127246,29.0882735 80.7090155,29.0882735 C82.5892322,29.0882735 84.0665231,28.5425468 85.1409326,27.4510769 C86.2153422,26.3596071 86.7525389,25.0065038 86.7525389,23.3917265 C86.7525389,22.285305 86.4839405,21.3583171 85.9467358,20.610735 C85.409531,19.863153 84.7454962,19.2650963 83.9546114,18.816547 C83.1637266,18.3679978 82.0967943,17.8596496 80.7537824,17.2914872 C79.2018575,16.6635182 77.9483986,16.0654615 76.9933679,15.4972991 C76.0383372,14.9291368 75.2325421,14.1441873 74.5759585,13.1424274 C73.919375,12.1406674 73.5910881,10.8623212 73.5910881,9.30735043 C73.5910881,6.85528119 74.3670389,4.90412121 75.9189637,3.45381197 C77.4708886,2.00350272 79.5450647,1.27835897 82.1415544,1.27835897 C83.4248769,1.27835897 84.581342,1.46525169 85.6109845,1.83904274 C86.6406269,2.21283378 87.4688052,2.61652205 88.095544,3.05011966 C88.7222829,3.48371727 89.0356477,3.73041566 89.0356477,3.79022222 L88.5879793,5.76382906 C88.5879793,5.70402249 88.2895367,5.46479981 87.6926425,5.04615385 C87.0957483,4.62750788 86.3347197,4.23877102 85.4095337,3.87993162 C84.4843477,3.52109222 83.4547207,3.34167521 82.3206218,3.34167521 C80.6493181,3.34167521 79.3361706,3.80516915 78.3811399,4.73217094 C77.4261092,5.65917273 76.948601,6.91509179 76.948601,8.49996581 C76.948601,9.6063873 77.2097383,10.5258995 77.7320207,11.2585299 C78.2543031,11.9911604 78.9108769,12.5817413 79.7017617,13.0302906 C80.4926464,13.4788398 81.5446566,13.9722366 82.8578238,14.5104957 C84.4395934,15.168368 85.7079745,15.7888518 86.6630052,16.3719658 C87.6180359,16.9550798 88.431292,17.7699321 89.1027979,18.816547 C89.7743039,19.8631619 90.1100518,21.2087895 90.1100518,22.8534701 C90.1100518,24.4981507 89.7295375,25.9559139 88.9684974,27.2268034 C88.2074573,28.497693 87.1256029,29.4919622 85.7229016,30.209641 C84.3202002,30.9273198 82.693688,31.2861538 80.8433161,31.2861538 C78.90341,31.2861538 77.2918199,31.0020769 76.0084974,30.4339145 Z M96.4221762,28.482735 C94.7210278,26.6137798 93.8704663,23.8103891 93.8704663,20.0724786 C93.8704663,16.3046649 94.6911835,13.3442843 96.3326425,11.1912479 C97.9741015,9.03821146 100.212421,7.9617094 103.047668,7.9617094 C105.614313,7.9617094 107.591496,8.85131874 108.979275,10.6305641 C110.367054,12.4098095 111.060933,14.9291233 111.060933,18.1885812 C111.060933,18.7567436 111.031088,19.2202375 110.971399,19.5790769 C110.91171,19.9379163 110.866943,20.1621876 110.837098,20.2518974 L97.2727461,20.2518974 C97.2727461,26.2923607 99.4513772,29.312547 103.808705,29.312547 C105.002493,29.312547 106.024659,29.0957515 106.875233,28.6621538 C107.725807,28.2285562 108.389842,27.7650623 108.867358,27.2716581 C109.344873,26.7782539 109.583627,26.4867013 109.583627,26.3969915 L110.881865,27.4735043 C110.881865,27.5931174 110.598345,27.9743786 110.031295,28.6172991 C109.464246,29.2602197 108.628607,29.8657521 107.524352,30.4339145 C106.420098,31.0020769 105.062184,31.2861538 103.45057,31.2861538 C100.466099,31.2861538 98.1233246,30.3516903 96.4221762,28.482735 Z M108.016788,18.368 L108.061554,17.5157607 C108.061554,12.4322025 106.390276,9.89046154 103.047668,9.89046154 C101.286831,9.89046154 99.9289167,10.5857024 98.973886,11.9762051 C98.0188553,13.3667078 97.4667365,15.4972848 97.317513,18.368 L108.016788,18.368 Z M116.656788,28.415453 C114.985484,26.5016429 114.149845,23.6459221 114.149845,19.8482051 C114.149845,16.0205849 114.978023,13.0826313 116.634404,11.0342564 C118.290785,8.9858815 120.715632,7.9617094 123.909016,7.9617094 C124.95358,7.9617094 125.938441,8.10374787 126.863627,8.38782906 C127.788813,8.67191025 128.572225,8.98589002 129.213886,9.32977778 C129.855547,9.67366554 130.176373,9.86055826 130.176373,9.89046154 L129.773472,11.7295043 C129.654093,11.6397944 129.333267,11.4529017 128.810984,11.1688205 C128.288702,10.8847393 127.617206,10.6081381 126.796477,10.3390085 C125.975747,10.069879 125.132647,9.93531624 124.26715,9.93531624 C121.969108,9.93531624 120.282907,10.6978385 119.208497,12.222906 C118.134088,13.7479734 117.596891,16.274763 117.596891,19.8033504 C117.596891,23.2123247 118.163932,25.6494058 119.298031,27.1146667 C120.43213,28.5799276 122.028798,29.312547 124.088083,29.312547 C125.252027,29.312547 126.244348,29.1032272 127.065078,28.6845812 C127.885807,28.2659352 128.519998,27.8248684 128.967668,27.3613675 C129.415339,26.8978666 129.639171,26.6212654 129.639171,26.5315556 L131.07171,27.4735043 C131.07171,27.5931174 130.803111,27.9743786 130.265907,28.6172991 C129.728702,29.2602197 128.922907,29.8657521 127.848497,30.4339145 C126.774088,31.0020769 125.431096,31.2861538 123.819482,31.2861538 C120.715632,31.2861538 118.328091,30.3292631 116.656788,28.415453 Z M136.264663,29.4695385 C135.070875,28.2584555 134.47399,26.4568097 134.47399,24.064547 L134.47399,8.41025641 L137.741969,8.41025641 L137.741969,23.3917265 C137.741969,27.0698304 139.29387,28.9088547 142.39772,28.9088547 C143.47213,28.9088547 144.397302,28.7369134 145.173264,28.3930256 C145.949227,28.0491379 146.568495,27.6828282 147.031088,27.2940855 C147.493681,26.9053428 147.724974,26.6810715 147.724974,26.621265 L147.724974,8.41025641 L150.992953,8.41025641 L150.992953,30.8376068 L148.262176,30.8376068 L147.814508,28.6845812 C147.426527,29.2228403 146.710264,29.7909942 145.665699,30.3890598 C144.621135,30.9871255 143.173688,31.2861538 141.323316,31.2861538 C139.144652,31.2861538 137.458452,30.6806214 136.264663,29.4695385 Z M157.663212,8.41025641 L160.080622,8.41025641 L160.573057,13.0302906 C160.573057,12.8508709 160.744661,12.335047 161.087876,11.4828034 C161.43109,10.6305598 161.960825,9.83065901 162.677098,9.08307692 C163.393371,8.33549484 164.318544,7.9617094 165.452642,7.9617094 C166.019692,7.9617094 166.661344,8.05889362 167.377617,8.25326496 C168.09389,8.4476363 168.556476,8.58967477 168.765389,8.67938462 L168.452021,11.1463932 C168.243108,11.0566833 167.773061,10.9221206 167.041865,10.7427009 C166.31067,10.5632812 165.661557,10.4735726 165.094508,10.4735726 C164.229011,10.4735726 163.490366,10.7651253 162.878549,11.3482393 C162.266733,11.9313533 161.811608,12.5518372 161.513161,13.2097094 C161.214714,13.8675816 161.020726,14.3609784 160.931192,14.6899145 L160.931192,30.8376068 L157.663212,30.8376068 L157.663212,8.41025641 Z M172.749637,3.38652991 C172.361656,2.99778723 172.167668,2.51934187 172.167668,1.95117949 C172.167668,1.3830171 172.361656,0.904571744 172.749637,0.51582906 C173.077929,0.186892942 173.510671,0.0224273504 174.047876,0.0224273504 C174.614925,0.0224273504 175.062589,0.171941525 175.390881,0.470974359 C175.749017,0.859717043 175.928083,1.35311382 175.928083,1.95117949 C175.928083,2.48943859 175.749017,2.96788395 175.390881,3.38652991 C174.973055,3.71546603 174.525391,3.87993162 174.047876,3.87993162 C173.510671,3.87993162 173.077929,3.71546603 172.749637,3.38652991 Z M172.391503,30.8376068 L172.391503,8.41025641 L175.659482,8.41025641 L175.659482,30.8376068 L172.391503,30.8376068 Z M184.299482,29.7835214 C183.523519,28.7817614 183.135544,27.1296297 183.135544,24.8270769 L183.135544,10.6081368 L180.807668,10.6081368 L180.807668,8.72423932 L183.135544,8.45511111 L184.344249,1.32321368 L186.403523,1.32321368 L186.403523,8.41025641 L192.133679,8.41025641 L192.133679,10.6081368 L186.403523,10.6081368 L186.403523,24.0196923 C186.403523,25.9634057 186.59005,27.3015576 186.963109,28.034188 C187.336168,28.7668185 187.98528,29.1331282 188.910466,29.1331282 C189.656584,29.1331282 190.32808,29.0583711 190.924974,28.9088547 C191.521868,28.7593383 191.820311,28.6696298 191.820311,28.6397265 L192.044145,30.4339145 C191.984456,30.4937211 191.797929,30.5909053 191.48456,30.7254701 C191.17119,30.8600349 190.708604,30.9871219 190.096788,31.106735 C189.484971,31.2263482 188.746326,31.2861538 187.880829,31.2861538 C186.269215,31.2861538 185.075444,30.7852814 184.299482,29.7835214 Z M195.625492,42.365265 C195.237511,42.2755551 194.939068,42.1858466 194.730155,42.0961368 C194.521242,42.0064269 194.386943,41.9466212 194.327254,41.9167179 L194.685389,39.8534017 C194.774923,39.9132083 194.998755,39.9954411 195.356891,40.1001026 C195.715028,40.2047641 196.103003,40.257094 196.520829,40.257094 C197.893686,40.257094 199.04269,39.5169989 199.967876,38.0367863 C200.893062,36.5565738 201.922689,34.2465798 203.056788,31.106735 L194.282487,8.41025641 L198.132435,8.41025641 L204.757927,27.1595214 L210.756684,8.41025641 L213.129326,8.41025641 L205.384663,31.1964444 C204.101341,34.8745483 202.840421,37.6779391 201.601865,39.6067009 C200.36331,41.5354626 198.833791,42.4998291 197.013264,42.4998291 C196.476059,42.4998291 196.013473,42.4549748 195.625492,42.365265 Z" id="Security" fill="#000000"></path>
                <path d="M157.211697,42.9974359 L165.660039,42.9974359 C169.642442,42.9974359 172.73587,44.201609 174.940415,46.6099915 C177.144959,49.0183739 178.247215,52.474137 178.247215,56.9773846 C178.247215,61.4521306 177.159182,64.8722674 174.983083,67.2378974 C172.806984,69.6035275 169.699334,70.7863248 165.660039,70.7863248 L157.211697,70.7863248 L157.211697,42.9974359 Z M165.702707,68.7342222 C171.733204,68.7342222 174.748407,64.8153155 174.748407,56.9773846 C174.748407,49.0254474 171.718981,45.0495385 165.660039,45.0495385 L160.454495,45.0495385 L160.454495,68.7342222 L165.702707,68.7342222 Z M184.263459,68.5418376 C182.642051,66.7604897 181.83136,64.0885078 181.83136,60.525812 C181.83136,56.9346145 182.613606,54.1130017 184.178122,52.0608889 C185.742637,50.0087761 187.876036,48.982735 190.578381,48.982735 C193.024714,48.982735 194.909216,49.8306439 196.231943,51.5264872 C197.55467,53.2223304 198.216023,55.6235514 198.216023,58.7302222 C198.216023,59.271752 198.187578,59.7135197 198.130687,60.0555385 C198.073795,60.3975573 198.031127,60.6113158 198.002681,60.6968205 L185.074158,60.6968205 C185.074158,66.454137 187.150666,69.3327521 191.303744,69.3327521 C192.441573,69.3327521 193.415825,69.1261189 194.226528,68.7128462 C195.037232,68.2995734 195.67014,67.8578058 196.125272,67.3875299 C196.580404,66.9172541 196.807966,66.6393679 196.807966,66.5538632 L198.04535,67.5799145 C198.04535,67.6939208 197.775119,68.0573103 197.23465,68.670094 C196.694181,69.2828777 195.897713,69.8600258 194.84522,70.4015556 C193.792728,70.9430853 192.498466,71.2138462 190.962396,71.2138462 C188.117823,71.2138462 185.884866,70.3231855 184.263459,68.5418376 Z M195.314573,58.9012308 L195.357241,58.0889402 C195.357241,53.2436738 193.764303,50.8210769 190.578381,50.8210769 C188.900082,50.8210769 187.605821,51.4837284 186.695557,52.8090513 C185.785293,54.1343741 185.259055,56.1650803 185.116826,58.9012308 L195.314573,58.9012308 Z M204.253601,70.5084359 C203.215332,70.03816 202.433086,69.5322648 201.906839,68.990735 C201.380593,68.4492053 201.117474,68.1356927 201.117474,68.050188 L202.184184,66.5538632 C202.184184,66.6108664 202.411746,66.8816272 202.866878,67.3661538 C203.32201,67.8506805 203.947807,68.2995734 204.744288,68.7128462 C205.540768,69.1261189 206.479464,69.3327521 207.560402,69.3327521 C209.153363,69.3327521 210.355177,68.9337362 211.165881,68.1356923 C211.976584,67.3376484 212.38193,66.3686097 212.38193,65.228547 C212.38193,64.4020016 212.175702,63.7179742 211.763238,63.1764444 C211.350775,62.6349147 210.83876,62.2145229 210.227176,61.9152564 C209.615593,61.61599 208.769345,61.2811016 207.688407,60.9105812 C206.436794,60.4545561 205.441208,60.0341643 204.701619,59.6493932 C203.96203,59.264622 203.329122,58.6874739 202.802876,57.9179316 C202.276629,57.1483893 202.01351,56.1508494 202.01351,54.9252821 C202.01351,53.1011818 202.674864,51.6547489 203.997591,50.5859402 C205.320317,49.5171314 207.019925,48.982735 209.096464,48.982735 C210.006727,48.982735 210.881421,49.1038649 211.72057,49.3461282 C212.559719,49.5883915 213.235295,49.8449018 213.747319,50.1156667 C214.259342,50.3864316 214.586463,50.5645637 214.728692,50.6500684 L214.216671,52.4884103 C214.102888,52.4029056 213.818435,52.2247734 213.363303,51.9540085 C212.908171,51.6832437 212.317931,51.4196081 211.592565,51.163094 C210.867198,50.9065799 210.120509,50.7783248 209.352474,50.7783248 C208.04397,50.7783248 206.984382,51.1060879 206.173679,51.7616239 C205.362975,52.41716 204.95763,53.243693 204.95763,54.2412479 C204.95763,55.0677933 205.170969,55.7589459 205.597655,56.3147265 C206.024342,56.8705071 206.557691,57.3051494 207.19772,57.6186667 C207.837749,57.9321839 208.69822,58.2884481 209.779158,58.6874701 C211.030771,59.1149936 212.04769,59.5353854 212.829948,59.9486581 C213.612206,60.3619308 214.273559,60.9533295 214.814028,61.7228718 C215.354498,62.4924141 215.624728,63.489954 215.624728,64.7155214 C215.624728,66.5681232 214.984708,68.11431 213.70465,69.3541282 C212.424592,70.5939464 210.547201,71.2138462 208.072422,71.2138462 C206.564798,71.2138462 205.29187,70.9787118 204.253601,70.5084359 Z M220.488925,44.6220171 C220.11913,44.2514967 219.934236,43.7954785 219.934236,43.2539487 C219.934236,42.7124189 220.11913,42.2564007 220.488925,41.8858803 C220.801828,41.5723631 221.214285,41.4156068 221.726308,41.4156068 C222.266777,41.4156068 222.693457,41.5581125 223.00636,41.8431282 C223.347709,42.2136486 223.518381,42.6839174 223.518381,43.2539487 C223.518381,43.7669769 223.347709,44.2229952 223.00636,44.6220171 C222.60812,44.9355343 222.18144,45.0922906 221.726308,45.0922906 C221.214285,45.0922906 220.801828,44.9355343 220.488925,44.6220171 Z M220.147578,70.7863248 L220.147578,49.4102564 L223.26237,49.4102564 L223.26237,70.7863248 L220.147578,70.7863248 Z M229.66263,80.1276667 C228.098114,78.9448516 227.315868,77.2134074 227.315868,74.9332821 C227.315868,73.4512006 227.6501,72.2541527 228.318575,71.3421026 C228.98705,70.4300524 229.833298,69.7602756 230.857345,69.3327521 C230.345321,68.7342192 230.089313,67.8934356 230.089313,66.8103761 C230.089313,65.4137993 230.743556,64.2167514 232.05206,63.2191966 C230.91423,62.6206637 230.032425,61.7585042 229.406619,60.6326923 C228.780813,59.5068804 228.467915,58.145951 228.467915,56.5498632 C228.467915,53.9562207 229.200381,52.0466443 230.665337,50.8210769 C232.130292,49.5955095 234.014794,48.982735 236.318899,48.982735 C237.428283,48.982735 238.409646,49.1252407 239.263018,49.4102564 L244.767241,49.4530085 L244.767241,51.1203419 L242.036464,51.2058462 C243.174293,52.4884167 243.743199,54.2697379 243.743199,56.5498632 C243.743199,59.000998 243.081846,60.8820732 241.759119,62.1931453 C240.436392,63.5042174 238.608781,64.1597436 236.276231,64.1597436 C235.309075,64.1597436 234.441493,64.0599896 233.673459,63.8604786 C232.677858,64.5160147 232.180065,65.2570443 232.180065,66.0835897 C232.180065,66.8531321 232.492963,67.3875284 233.118769,67.6867949 C233.744576,67.9860613 234.754384,68.1356923 236.148225,68.1356923 C242.377842,68.1356923 245.492604,70.33028 245.492604,74.7195214 C245.492604,77.0566499 244.717469,78.8379711 243.167176,80.0635385 C241.616883,81.2891058 239.40526,81.9018803 236.532241,81.9018803 C233.516993,81.9018803 231.227145,81.3104817 229.66263,80.1276667 Z M240.713744,56.5071111 C240.713744,54.4549983 240.315509,52.9943149 239.519028,52.1250171 C238.722548,51.2557193 237.598958,50.8210769 236.148225,50.8210769 C234.697493,50.8210769 233.552569,51.248594 232.71342,52.103641 C231.87427,52.958688 231.454702,54.4407473 231.454702,56.5498632 C231.454702,58.4879698 231.867159,59.9557785 232.692085,60.9533333 C233.517012,61.9508882 234.68327,62.4496581 236.190894,62.4496581 C239.206142,62.4496581 240.713744,60.4688289 240.713744,56.5071111 Z M241.140427,78.7595983 C242.221366,77.9473036 242.761826,76.7716316 242.761826,75.232547 C242.761826,72.2398825 240.443534,70.7435726 235.806878,70.7435726 C234.469929,70.7435726 233.403229,70.6295681 232.606749,70.4015556 C231.753377,70.7435744 231.063578,71.2922213 230.537332,72.0475128 C230.011085,72.8028043 229.747966,73.7504672 229.747966,74.8905299 C229.747966,76.6006239 230.338207,77.8760499 231.518705,78.7168462 C232.699203,79.5576424 234.370365,79.9780342 236.532241,79.9780342 C238.523443,79.9780342 240.059489,79.571893 241.140427,78.7595983 Z M249.716775,70.7863248 L249.716775,42.9974359 L253.087578,42.9974359 L267.253484,65.9125812 L267.125479,64.8865299 L267.125479,42.9974359 L269.472241,42.9974359 L269.472241,70.7863248 L266.656127,70.7863248 L251.892863,47.101641 L251.850194,47.101641 L252.063536,48.4269573 L252.063536,70.7863248 L249.716775,70.7863248 Z" id="DesigN" fill="#000000"></path>
                <path d="M82.8681084,59.4604033 C82.2997765,60.1010315 81.8202537,60.709026 81.4295256,61.284405 C81.0387974,61.8597841 80.8434363,62.3550772 80.8434363,62.7702991 C80.8434363,63.0906132 80.958877,63.3189819 81.1897618,63.455412 C81.4206466,63.5918421 81.7077683,63.6600561 82.0511354,63.6600561 C82.3708221,63.6600561 82.7467443,63.6244662 83.1789133,63.5532853 C83.6110824,63.4821043 84.1202053,63.3545738 84.7062976,63.1706898 C85.2923898,62.9868057 85.9731938,62.7406421 86.74873,62.4321915 C87.5242661,62.1237409 88.4211514,61.7263201 89.4394126,61.2399172 L89.6170155,61.6670005 C88.5513932,62.1771304 87.5923476,62.6101411 86.7398498,62.9660457 C85.887352,63.3219502 85.1147875,63.6155671 84.4221331,63.846905 C83.7294786,64.078243 83.1019549,64.2472951 82.5395432,64.3540665 C81.9771315,64.4608379 81.4591284,64.5142228 80.9855185,64.5142228 C80.6895124,64.5142228 80.3875906,64.475667 80.0797442,64.3985544 C79.7718977,64.3214417 79.4906961,64.2028086 79.2361308,64.0426516 C78.9815655,63.8824945 78.7714042,63.6897158 78.6056408,63.4643096 C78.4398773,63.2389033 78.3569968,62.9719789 78.3569968,62.6635283 C78.3569968,62.5211665 78.3747569,62.3728751 78.4102777,62.2186498 C78.4457984,62.0644245 78.5109188,61.9042699 78.6056408,61.7381811 C77.6229003,62.6991234 76.6816148,63.4020244 75.781756,63.846905 C74.8818972,64.2917857 74.0471723,64.5142228 73.2775563,64.5142228 C72.6855439,64.5142228 72.2089811,64.4341454 71.8478536,64.2739884 C71.4867261,64.1138313 71.2025644,63.9062235 70.9953601,63.6511585 C70.7881557,63.3960936 70.6490349,63.1084084 70.5779934,62.7880943 C70.506952,62.4677802 70.4714318,62.1415392 70.4714318,61.8093616 C70.4714318,61.2517778 70.6016725,60.6704758 70.862158,60.065438 C71.1226434,59.4604003 71.4748854,58.8613033 71.9188947,58.268129 C72.362904,57.6749547 72.877947,57.1084818 73.4640392,56.5686932 C74.0501315,56.0289047 74.6687751,55.5543724 75.3199887,55.1450821 C75.9712023,54.7357919 76.6283261,54.4095509 77.2913799,54.1663495 C77.9544338,53.923148 78.5937975,53.8015491 79.2094904,53.8015491 C79.6002185,53.8015491 79.9672607,53.8371391 80.3106278,53.90832 C80.653995,53.9795009 80.9499967,54.0892365 81.1986419,54.23753 C81.4472871,54.3858236 81.6456083,54.5815682 81.7936114,54.8247696 C81.9416144,55.0679711 82.0156149,55.3556563 82.0156149,55.6878339 C82.0156149,56.0674654 81.9090543,56.5064078 81.6959298,57.0046741 L81.0920802,57.2893964 C81.1631217,57.0046727 81.1986419,56.7318167 81.1986419,56.47082 C81.1986419,56.2810042 81.1779218,56.0941571 81.1364809,55.9102731 C81.0950401,55.7263891 81.0269597,55.5632686 80.9322377,55.4209068 C80.8375157,55.278545 80.710235,55.1628777 80.5503916,55.0739016 C80.3905483,54.9849254 80.1922271,54.940438 79.9554222,54.940438 C79.4462916,54.940438 78.9253285,55.0620369 78.3925174,55.3052384 C77.8597063,55.5484398 77.3417033,55.8687491 76.8384928,56.2661759 C76.3352823,56.6636026 75.8616795,57.1084767 75.4176702,57.6008113 C74.973661,58.0931459 74.5858987,58.5943707 74.2543718,59.1045005 C73.9228448,59.6146304 73.6594033,60.1069577 73.4640392,60.5814971 C73.2686751,61.0560365 73.1709946,61.4653206 73.1709946,61.8093616 C73.1709946,62.2957645 73.2834752,62.613108 73.5084399,62.7614016 C73.7334046,62.9096951 74.0945267,62.9838408 74.5918171,62.9838408 C75.1838295,62.9838408 75.7995131,62.7999595 76.4388864,62.4321915 C77.0782598,62.0644235 77.7531437,61.5602329 78.4635585,60.9196047 C78.7832452,60.6111541 79.094047,60.3145714 79.3959733,60.0298478 C79.6978996,59.7451241 80.0264615,59.3892249 80.381669,58.9621394 C80.5947934,58.7011427 80.8523149,58.3926968 81.1542412,58.0367922 C81.4561675,57.6808876 81.7758494,57.3101593 82.1132964,56.924596 C82.4507435,56.5390327 82.7941055,56.1623727 83.1433928,55.7946047 C83.4926801,55.4268367 83.824202,55.0946641 84.1379685,54.7980769 C84.4517351,54.5014898 84.7329367,54.2612578 84.9815819,54.0773738 C85.2302271,53.8934898 85.4255883,53.8015491 85.5676712,53.8015491 C85.6623932,53.8015491 85.792634,53.8193441 85.9583974,53.8549346 C86.1241609,53.890525 86.2869618,53.9409441 86.4468052,54.0061932 C86.6066485,54.0714424 86.7428093,54.1544856 86.8552917,54.2553252 C86.967774,54.3561648 87.0240143,54.4659004 87.0240143,54.5845353 C87.0240143,54.7150336 86.9381738,54.8811199 86.7664902,55.0827991 C86.5948067,55.2844784 86.3846454,55.5217445 86.1360002,55.7946047 L82.8681084,59.4604033 Z M103.825241,48.2138755 C103.114826,48.9612751 102.475462,49.631552 101.90713,50.2247262 C101.338799,50.8179005 100.776395,51.3903051 100.219904,51.9419571 C99.663412,52.4936092 99.0832486,53.0571163 98.479396,53.6324953 C97.8755435,54.2078744 97.1828994,54.848493 96.4014431,55.5543703 C95.6199868,56.2602477 94.7171815,57.0639868 93.6930001,57.9656116 C92.6688188,58.8672365 91.4640917,59.9230709 90.0787828,61.1331464 C89.9485401,61.4534605 89.8508595,61.7470773 89.7857381,62.0140057 C89.7206168,62.2809342 89.6880566,62.5211661 89.6880566,62.7347089 C89.6880566,62.9007977 89.7354169,63.0401915 89.8301388,63.1528946 C89.9248608,63.2655977 90.0462215,63.3575384 90.1942246,63.4287193 C90.3422277,63.4999002 90.5079887,63.5503193 90.6915125,63.579978 C90.8750363,63.6096367 91.0496774,63.6244658 91.2154408,63.6244658 C91.5351275,63.6244658 91.9110497,63.5888759 92.3432187,63.517695 C92.7753877,63.4465141 93.2845107,63.3189835 93.8706029,63.1350995 C94.4566952,62.9512155 95.1374992,62.7050518 95.9130353,62.3966012 C96.6885715,62.0881506 97.5854568,61.6907298 98.603718,61.2043269 L98.7813208,61.6314103 C97.7156986,62.1415401 96.756653,62.5745508 95.9041552,62.9304554 C95.0516574,63.28636 94.2790929,63.5799768 93.5864384,63.8113148 C92.893784,64.0426527 92.2662603,64.2117049 91.7038486,64.3184762 C91.1414368,64.4252476 90.6234338,64.4786325 90.1498239,64.4786325 C89.6643738,64.4786325 89.2647714,64.4311792 88.9510049,64.3362714 C88.6372384,64.2413635 88.3885969,64.1138329 88.2050731,63.9536759 C88.0215492,63.7935188 87.8913085,63.6007401 87.8143469,63.3753339 C87.7373853,63.1499276 87.698905,62.9007982 87.698905,62.627938 C87.698905,62.0703542 87.8735461,61.3882141 88.2228333,60.5814971 C88.5721206,59.7747801 89.0398034,58.8968953 89.6258956,57.9478165 C90.2119878,56.9987377 90.8898318,55.999254 91.6594479,54.9493356 C92.4290639,53.8994172 93.2371487,52.8524803 94.0837263,51.8084936 C94.930304,50.7645069 95.788709,49.7442625 96.6589672,48.7477297 C97.5292253,47.7511969 98.3550702,46.825859 99.1365265,45.971688 C99.3733314,45.7106914 99.6870933,45.3903821 100.077821,45.0107505 C100.46855,44.631119 100.900712,44.2307324 101.374322,43.8095787 C101.847932,43.3884249 102.348175,42.9702434 102.875066,42.5550214 C103.401957,42.1397994 103.92292,41.7661052 104.437971,41.4339276 C104.953021,41.10175 105.444384,40.8318598 105.912074,40.6242488 C106.379764,40.4166378 106.797126,40.3128339 107.164174,40.3128339 C107.649624,40.3128339 107.990026,40.4314669 108.18539,40.6687366 C108.380754,40.9060064 108.478435,41.2144523 108.478435,41.5940839 C108.478435,41.890671 108.383714,42.2347069 108.19427,42.6262019 C108.004826,43.0176969 107.762105,43.4329127 107.466099,43.8718616 C107.170092,44.3108106 106.841531,44.7556846 106.480403,45.2064971 C106.119275,45.6573095 105.767033,46.0784569 105.423666,46.4699519 C105.080299,46.8614469 104.763577,47.2114145 104.473491,47.5198651 C104.183405,47.8283157 103.967324,48.0596502 103.825241,48.2138755 Z M102.155774,45.9005075 C101.528241,46.5292722 100.865197,47.2114124 100.166623,47.9469485 C99.4680482,48.6824845 98.7665241,49.444702 98.0620294,50.2336238 C97.3575347,51.0225456 96.6589706,51.8262846 95.9663162,52.6448651 C95.2736617,53.4634456 94.6165379,54.2731163 93.9949249,55.0739016 C93.3733119,55.8746868 92.7961086,56.6517335 92.2632974,57.4050648 C91.7304863,58.1583961 91.2746437,58.8672287 90.8957557,59.5315839 C91.5469693,58.9740001 92.2751336,58.3363473 93.0802704,57.6186064 C93.8854072,56.9008656 94.7290121,56.1416139 95.6111105,55.3408287 C96.493209,54.5400434 97.3871342,53.7125777 98.2929131,52.8584068 C99.198692,52.0042358 100.074857,51.1530435 100.921435,50.3048044 C101.768012,49.4565652 102.564257,48.6320653 103.310193,47.83128 C104.056128,47.0304948 104.707332,46.2860723 105.263824,45.5979901 C105.820315,44.909908 106.258398,44.293016 106.578085,43.7472957 C106.897771,43.2015754 107.057612,42.7567013 107.057612,42.4126603 C107.057612,42.2465715 106.974732,42.1635283 106.808968,42.1635283 C106.572163,42.1635283 106.276162,42.2791956 105.920954,42.5105335 C105.565747,42.7418715 105.177984,43.0384542 104.757656,43.4002905 C104.337327,43.7621268 103.902204,44.1654792 103.452275,44.6103599 C103.002346,45.0552406 102.570183,45.4852855 102.155774,45.9005075 Z M110.964874,60.8484241 C110.396542,60.8484241 109.890379,60.7505519 109.44637,60.5548044 C109.002361,60.3590568 108.620519,60.0891666 108.300832,59.7451255 C107.661459,60.7535218 107.028015,61.57209 106.400482,62.2008547 C105.772949,62.8296194 105.166145,63.3219467 104.580053,63.6778512 C103.993961,64.0337558 103.431557,64.2739878 102.892826,64.3985544 C102.354095,64.5231209 101.847932,64.5854033 101.374322,64.5854033 C100.80599,64.5854033 100.308707,64.5171893 99.8824583,64.3807592 C99.4562094,64.2443291 99.1010073,64.0604479 98.8168414,63.8291099 C98.5326755,63.5977719 98.3195542,63.3249159 98.1774713,63.0105335 C98.0353883,62.6961512 97.9643479,62.3550811 97.9643479,61.987313 C97.9643479,61.2399135 98.1123487,60.5132859 98.4083549,59.8074085 C98.7043611,59.1015311 99.1010034,58.4431176 99.5982938,57.8321481 C100.095584,57.2211786 100.666868,56.6636032 101.312161,56.159405 C101.957454,55.6552069 102.623458,55.2221962 103.310193,54.8603599 C103.996927,54.4985236 104.683651,54.2197359 105.370385,54.0239884 C106.05712,53.8282409 106.690563,53.7303686 107.270736,53.7303686 C107.578582,53.7303686 107.886424,53.7540952 108.19427,53.8015491 C108.502117,53.8490031 108.780358,53.9439095 109.029003,54.0862714 C109.277649,54.2286332 109.47893,54.4243778 109.632853,54.673511 C109.786776,54.9226441 109.863737,55.2488851 109.863737,55.6522436 C109.863737,55.9251038 109.837096,56.2068573 109.783815,56.4975127 C109.730534,56.7881681 109.668374,57.0699216 109.597332,57.3427818 C109.526291,57.6156419 109.44637,57.8766347 109.357569,58.1257679 C109.268767,58.3749011 109.188846,58.5943723 109.117805,58.784188 C109.212527,59.246864 109.470048,59.5997974 109.890377,59.8429988 C110.310706,60.0862002 110.763588,60.2077991 111.249039,60.2077991 C111.639767,60.2077991 112.033449,60.1306876 112.430097,59.9764623 C112.826746,59.822237 113.178988,59.6027658 113.486834,59.3180422 L113.84204,59.6027644 C113.534193,59.982396 113.119791,60.2849103 112.59882,60.5103165 C112.077849,60.7357227 111.533206,60.8484241 110.964874,60.8484241 Z M102.120254,63.517695 C102.510982,63.517695 102.954985,63.4346518 103.452275,63.268563 C103.949565,63.1024742 104.455728,62.8414815 104.970779,62.4855769 C105.48583,62.1296724 105.991993,61.672935 106.489283,61.1153512 C106.986573,60.5577674 107.436496,59.8874906 107.839065,59.1045005 C107.436496,58.4401454 107.235215,57.7402102 107.235215,57.0046741 C107.235215,56.6250426 107.321055,56.2780409 107.492739,55.9636585 C107.664423,55.6492762 107.921944,55.3319327 108.265311,55.0116186 C108.19427,54.9760281 108.102509,54.9493357 107.990027,54.9315405 C107.877545,54.9137452 107.720664,54.9048478 107.519379,54.9048478 C107.104971,54.9048478 106.604728,55.0472074 106.018636,55.3319311 C105.432543,55.6166547 104.83462,55.9992464 104.224847,56.4797175 C103.615074,56.9601887 103.037871,57.52073 102.49322,58.1613582 C101.948568,58.8019864 101.516406,59.4722632 101.196719,60.1722089 C101.054636,60.4569325 100.918475,60.7861393 100.788233,61.1598391 C100.65799,61.5335389 100.59287,61.8924039 100.59287,62.236445 C100.59287,62.5923495 100.69943,62.8948639 100.912555,63.1439971 C101.125679,63.3931303 101.528241,63.517695 102.120254,63.517695 Z M112.456738,64.4074519 C112.397537,64.4311789 112.338336,64.4430422 112.279135,64.4430422 L112.101532,64.4430422 C111.959449,64.4430422 111.820328,64.4163498 111.684166,64.3629641 C111.548003,64.3095784 111.426642,64.2443302 111.32008,64.1672175 C111.213518,64.0901049 111.127677,64.0070617 111.062556,63.9180856 C110.997434,63.8291095 110.964874,63.7431005 110.964874,63.6600561 C110.964874,63.5176943 111.009274,63.3723688 111.098076,63.2240752 C111.186878,63.0757816 111.296399,62.9363878 111.426641,62.8058894 L116.150876,57.3961672 C116.506084,56.9809452 116.876086,56.556832 117.260894,56.1238148 C117.645702,55.6907976 118.012744,55.2993084 118.362031,54.9493356 C118.711319,54.5993628 119.028041,54.3146434 119.312207,54.0951689 C119.596372,53.8756945 119.821334,53.7659589 119.987097,53.7659589 C120.081819,53.7659589 120.21206,53.7837538 120.377823,53.8193443 C120.543587,53.8549347 120.706388,53.9053538 120.866231,53.970603 C121.026075,54.0358521 121.162235,54.1188953 121.274718,54.2197349 C121.3872,54.3205745 121.44344,54.4303101 121.44344,54.548945 C121.44344,54.6794433 121.3576,54.8455296 121.185916,55.0472089 C121.014233,55.2488881 120.804071,55.4861543 120.555426,55.7590144 L120.271262,56.0793269 C120.531747,55.9013746 120.872149,55.6848693 121.292478,55.4298044 C121.712807,55.1747394 122.177529,54.9285758 122.68666,54.6913061 C123.195791,54.4540364 123.725634,54.2523602 124.276205,54.0862714 C124.826777,53.9201826 125.36254,53.8371394 125.883511,53.8371394 C126.641287,53.8371394 127.15633,53.946875 127.428655,54.1663495 C127.700981,54.385824 127.837142,54.6913041 127.837142,55.0827991 C127.837142,55.5336116 127.706901,55.9992464 127.446416,56.4797175 C127.18593,56.9601887 126.863288,57.4376868 126.47848,57.9122262 C126.093672,58.3867656 125.67927,58.8524004 125.23526,59.3091446 C124.791251,59.7658888 124.376849,60.2018654 123.992041,60.6170873 C123.607233,61.0323093 123.287551,61.4208326 123.032986,61.7826689 C122.77842,62.1445052 122.651139,62.4618487 122.651139,62.7347089 C122.651139,62.9007977 122.68074,63.0342599 122.739941,63.1350995 C122.799142,63.2359391 122.873143,63.3130506 122.961944,63.3664363 C123.050746,63.419822 123.151387,63.4524461 123.263869,63.4643096 C123.376352,63.476173 123.491792,63.4821047 123.610195,63.4821047 C124.285089,63.4821047 124.954053,63.4168565 125.617107,63.2863582 C126.28016,63.1558598 126.934324,62.9838419 127.579618,62.7702991 C128.224911,62.5567564 128.861315,62.3105928 129.488848,62.0318009 C130.116381,61.753009 130.726145,61.4653238 131.318157,61.1687366 L131.49576,61.59582 C131.105032,61.8568167 130.566308,62.1533993 129.879574,62.4855769 C129.19284,62.8177545 128.423235,63.1321322 127.570738,63.4287193 C126.71824,63.7253064 125.809514,63.9744359 124.844534,64.1761151 C123.879554,64.3777944 122.923469,64.4786325 121.976249,64.4786325 C121.419757,64.4786325 120.972795,64.3422044 120.635348,64.0693443 C120.2979,63.7964841 120.129179,63.3634734 120.129179,62.7702991 C120.129179,62.4855755 120.2239,62.1534029 120.413344,61.7737714 C120.602788,61.3941398 120.848469,60.9996849 121.150396,60.5903946 C121.452322,60.1811044 121.789764,59.7629228 122.162732,59.3358373 C122.5357,58.9087519 122.902742,58.4994678 123.263869,58.1079728 C123.624997,57.7164777 123.965399,57.351681 124.285085,57.0135717 C124.604772,56.6754624 124.865254,56.3877772 125.066538,56.1505075 C125.137579,56.0437361 125.23822,55.9043423 125.368463,55.7323217 C125.498705,55.5603012 125.563826,55.4031124 125.563826,55.2607505 C125.563826,55.1658427 125.525345,55.0887312 125.448384,55.0294137 C125.371422,54.9700963 125.244142,54.940438 125.066538,54.940438 C124.69949,54.940438 124.347248,54.9789938 124.009801,55.0561064 C123.672354,55.1332191 123.334912,55.2429547 122.997465,55.3853165 C122.660018,55.5276783 122.313696,55.7056279 121.958489,55.9191707 C121.603281,56.1327134 121.230319,56.3759112 120.839591,56.6487714 C119.892371,57.32499 118.995486,58.0427201 118.148908,58.8019832 C117.30233,59.5612462 116.470566,60.3501562 115.653588,61.1687366 C115.298381,61.5839586 114.907659,62.0288327 114.48141,62.5033721 C114.055161,62.9779115 113.652599,63.3871956 113.273711,63.7312366 C113.096107,63.9329159 112.942186,64.0812072 112.811943,64.1761151 C112.681701,64.271023 112.5633,64.3481345 112.456738,64.4074519 Z M140.375901,61.7025908 C140.020693,62.1178128 139.674371,62.5122678 139.336924,62.8859675 C138.999477,63.2596673 138.659075,63.624464 138.315708,63.9803686 C139.760218,63.3160134 141.252067,62.6961556 142.791299,62.1207766 C144.330531,61.5453975 145.92894,61.0263778 147.586575,60.5637019 L147.764178,60.9907853 C147.136645,61.156874 146.426241,61.3763452 145.632944,61.6492054 C144.839648,61.9220656 143.996043,62.2364432 143.102104,62.5923478 C142.208165,62.9482523 141.2728,63.3397415 140.295979,63.7668269 C139.319159,64.1939124 138.327553,64.6447181 137.321132,65.1192575 C135.154367,67.5156815 133.307316,69.6036236 131.779924,71.3831464 C130.252532,73.1626692 129.009325,74.5625394 128.050265,75.5827991 C127.706898,75.9387037 127.342816,76.2827396 126.958008,76.6149172 C126.5732,76.9470948 126.161757,77.2377458 125.723668,77.486879 C125.285579,77.7360122 124.826776,77.9376884 124.347246,78.0919137 C123.867716,78.246139 123.373393,78.3232505 122.864263,78.3232505 C122.627458,78.3232505 122.396577,78.2965581 122.171612,78.2431724 C121.946647,78.1897867 121.745366,78.1008119 121.567762,77.9762453 C121.390159,77.8516787 121.248078,77.6915241 121.141516,77.4957766 C121.034953,77.3000291 120.981673,77.0657288 120.981673,76.7928686 C120.981673,76.460691 121.105994,76.0603044 121.354639,75.5916967 C121.603284,75.123089 121.973286,74.6129668 122.464657,74.0613148 C122.956027,73.5096627 123.56579,72.9283606 124.293966,72.3173912 C125.022141,71.7064217 125.871666,71.0865639 126.842566,70.4577991 C127.896348,69.7578535 128.994514,69.0579184 130.137098,68.3579728 C131.279682,67.6580271 132.478489,66.9699553 133.733555,66.2937366 C134.159804,65.7598798 134.583087,65.2349285 135.003415,64.7188669 C135.423744,64.2028052 135.841107,63.6956489 136.255515,63.1973825 C135.616142,63.6481949 134.997498,63.9744359 134.399566,64.1761151 C133.801633,64.3777944 133.23627,64.4786325 132.703459,64.4786325 C132.111447,64.4786325 131.634884,64.3985552 131.273756,64.2383981 C130.912629,64.0782411 130.628467,63.8706332 130.421263,63.6155682 C130.214058,63.3605033 130.074938,63.0728181 130.003896,62.752504 C129.932855,62.4321899 129.897334,62.105949 129.897334,61.7737714 C129.897334,61.228051 130.027575,60.6497148 130.288061,60.0387453 C130.548546,59.4277758 130.900788,58.825713 131.344797,58.2325387 C131.788807,57.6393645 132.30385,57.0728915 132.889942,56.533103 C133.476034,55.9933144 134.094678,55.5187821 134.745891,55.1094919 C135.397105,54.7002016 136.054229,54.3739607 136.717283,54.1307592 C137.380336,53.8875578 138.0197,53.7659589 138.635393,53.7659589 C139.026121,53.7659589 139.393163,53.8015488 139.736531,53.8727297 C140.079898,53.9439106 140.375899,54.0536462 140.624545,54.2019398 C140.87319,54.3502333 141.071511,54.5459779 141.219514,54.7891794 C141.367517,55.0323808 141.441518,55.320066 141.441518,55.6522436 C141.441518,56.0318751 141.334957,56.4708175 141.121832,56.9690839 L140.517983,57.2538061 C140.589024,56.9690824 140.624545,56.6962264 140.624545,56.4352297 C140.624545,56.2454139 140.603824,56.0585668 140.562384,55.8746828 C140.520943,55.6907988 140.452862,55.5276783 140.35814,55.3853165 C140.263418,55.2429547 140.136138,55.1272874 139.976294,55.0383113 C139.816451,54.9493352 139.61813,54.9048478 139.381325,54.9048478 C138.872194,54.9048478 138.351231,55.0264467 137.81842,55.2696481 C137.285609,55.5128496 136.767606,55.8331588 136.264395,56.2305856 C135.761185,56.6280124 135.287582,57.0728864 134.843573,57.565221 C134.399564,58.0575557 134.011801,58.5587804 133.680274,59.0689103 C133.348748,59.5790401 133.085306,60.0713674 132.889942,60.5459068 C132.694578,61.0204462 132.596897,61.4297303 132.596897,61.7737714 C132.596897,62.2601743 132.709378,62.5775177 132.934343,62.7258113 C133.159307,62.8741049 133.520429,62.9482505 134.01772,62.9482505 C134.609732,62.9482505 135.219496,62.7614034 135.847029,62.3877037 C136.474562,62.0140039 137.155366,61.5127791 137.889461,60.8840144 C138.055225,60.7416526 138.229866,60.5844638 138.41339,60.4124432 C138.596913,60.2404227 138.789314,60.0535756 138.990599,59.8518964 C139.120841,59.6858076 139.251082,59.5256529 139.381325,59.3714276 C139.511568,59.2172023 139.641808,59.068911 139.772051,58.9265491 C139.985176,58.6655525 140.242697,58.3571065 140.544623,58.0012019 C140.84655,57.6452974 141.166232,57.274569 141.503679,56.8890057 C141.841126,56.5034425 142.184488,56.1267825 142.533775,55.7590144 C142.883062,55.3912464 143.214584,55.0590738 143.528351,54.7624866 C143.842117,54.4658995 144.123319,54.2256675 144.371964,54.0417835 C144.620609,53.8578995 144.81597,53.7659589 144.958053,53.7659589 C145.052775,53.7659589 145.183016,53.7837538 145.34878,53.8193443 C145.514543,53.8549347 145.677344,53.9053538 145.837187,53.970603 C145.997031,54.0358521 146.133191,54.1188953 146.245674,54.2197349 C146.358156,54.3205745 146.414396,54.4303101 146.414396,54.548945 C146.414396,54.6794433 146.328556,54.8455296 146.156872,55.0472089 C145.985189,55.2488881 145.775028,55.4861543 145.526382,55.7590144 L142.578176,59.1045005 C142.495294,59.1875449 142.370973,59.3210071 142.20521,59.5048912 C142.039446,59.6887752 141.852965,59.8993489 141.645761,60.1366186 C141.438556,60.3738883 141.222475,60.6289494 140.997511,60.9018096 C140.772546,61.1746697 140.565345,61.4415941 140.375901,61.7025908 Z M125.84799,75.4760283 C126.29792,75.0252159 126.792242,74.5032304 127.330974,73.9100561 C127.869705,73.3168818 128.438028,72.6732974 129.035961,71.9792835 C129.633893,71.2852696 130.249577,70.5556762 130.88303,69.7904814 C131.516483,69.0252866 132.158807,68.2393425 132.810021,67.4326255 C131.720718,68.0257998 130.666952,68.6367601 129.64869,69.2655248 C128.630429,69.8942896 127.680264,70.520079 126.798165,71.142912 C125.916067,71.765745 125.119822,72.3826369 124.409407,72.9936064 C123.698993,73.6045759 123.112909,74.1947755 122.651139,74.7642228 C122.449855,75.0014925 122.275214,75.265451 122.127211,75.5561064 C121.979208,75.8467618 121.905208,76.1285154 121.905208,76.4013755 C121.905208,76.6386452 121.985128,76.8343898 122.144971,76.9886151 C122.304815,77.1428404 122.591936,77.2199519 123.006345,77.2199519 C123.195789,77.2199519 123.41187,77.1695329 123.654595,77.0686932 C123.89732,76.9678536 124.143002,76.8373572 124.391647,76.6772002 C124.640292,76.5170431 124.888934,76.3331619 125.137579,76.1255509 C125.386224,75.9179399 125.623026,75.7014345 125.84799,75.4760283 Z" id="along" fill="#000000"></path>
            </g>
        </g>
    </g>
</svg>